<svg width="487" height="388" viewBox="0 0 487 388" fill="none" xmlns="http://www.w3.org/2000/svg">
<path d="M0 331.735V269H38.0439C44.4266 269 49.6335 269.942 53.6646 271.825C57.7797 273.708 60.8451 276.274 62.8607 279.521C64.8762 282.768 65.884 286.47 65.884 290.626C65.884 294.847 64.7083 298.582 62.3568 301.829C60.0892 305.076 56.8139 307.609 52.5309 309.427C48.3317 311.181 43.3348 312.057 37.54 312.057H17.0064V331.735H0ZM17.0064 301.634H34.0128C38.8837 301.634 42.537 300.66 44.9725 298.712C47.4919 296.698 48.7517 294.003 48.7517 290.626C48.7517 286.989 47.5759 284.229 45.2244 282.346C42.8729 280.398 39.3456 279.423 34.6426 279.423H17.0064V301.634Z" fill="url(#paint0_linear_4214_4747)"/>
<path d="M80.3276 331.735V269H119.253C128.575 269 135.42 270.916 139.787 274.747C144.154 278.514 146.338 283.612 146.338 290.042C146.338 294.263 144.91 297.9 142.055 300.952C139.283 304.004 135.336 306.213 130.213 307.576C131.557 308.421 132.607 309.33 133.362 310.304C134.202 311.278 135.042 312.577 135.882 314.201L145.708 331.735H128.072L118.498 314.882C117.658 313.454 116.734 312.447 115.726 311.863C114.718 311.278 113.039 310.986 110.687 310.986H97.334V331.735H80.3276ZM97.334 300.075H114.844C119.295 300.075 122.781 299.329 125.3 297.835C127.82 296.276 129.079 293.678 129.079 290.042C129.079 286.535 127.988 283.969 125.804 282.346C123.62 280.722 120.303 279.91 115.852 279.91H97.334V300.075Z" fill="url(#paint1_linear_4214_4747)"/>
<path d="M155.06 331.735L186.05 269H204.694L235.557 331.735H217.921L210.237 316.636H180.381L172.822 331.735H155.06ZM182.9 306.505H207.717L195.246 281.274L182.9 306.505Z" fill="url(#paint2_linear_4214_4747)"/>
<path d="M246.091 331.735L275.443 300.27L246.847 269H266.876L285.646 289.944L304.416 269H324.446L295.85 300.27L325.202 331.735H304.92L285.646 310.791L266.372 331.735H246.091Z" fill="url(#paint3_linear_4214_4747)"/>
<path d="M339.582 331.735L368.933 300.27L340.337 269H360.367L379.137 289.944L397.907 269H417.937L389.341 300.27L418.693 331.735H398.411L379.137 310.791L359.863 331.735H339.582Z" fill="url(#paint4_linear_4214_4747)"/>
<path d="M433.131 331.735V269H450.138V331.735H433.131Z" fill="url(#paint5_linear_4214_4747)"/>
<path d="M469.541 331.735V269H486.547V331.735H469.541Z" fill="url(#paint6_linear_4214_4747)"/>
<path d="M134.895 387.5C128.161 387.5 123.048 386.191 119.556 383.574C116.064 380.956 114.318 377.323 114.318 372.673C114.318 367.746 116.084 363.881 119.618 361.079C123.152 358.246 128.41 356.829 135.394 356.829C137.805 356.829 139.988 356.937 141.942 357.153C143.896 357.338 145.745 357.645 147.491 358.077V363.435C145.745 362.973 143.896 362.649 141.942 362.465C140.029 362.249 138.055 362.141 136.018 362.141C131.237 362.141 127.849 363.019 125.854 364.774C123.858 366.499 122.861 369.132 122.861 372.673C122.861 379.047 126.914 382.234 135.02 382.234C136.434 382.234 137.805 382.157 139.136 382.003C140.508 381.819 141.713 381.588 142.752 381.31V374.382H133.399V370.409H149.861V384.96C148.489 385.606 146.577 386.191 144.124 386.715C141.672 387.238 138.595 387.5 134.895 387.5Z" fill="#0E482C"/>
<path d="M161.931 387.038V357.291H170.349V382.234H190.116V387.038H161.931Z" fill="#0E482C"/>
<path d="M218.041 387.5C205.03 387.5 198.524 382.434 198.524 372.303C198.524 366.853 200.166 362.911 203.45 360.478C206.734 358.046 211.598 356.829 218.041 356.829C224.485 356.829 229.349 358.046 232.633 360.478C235.917 362.911 237.559 366.853 237.559 372.303C237.559 382.434 231.053 387.5 218.041 387.5ZM218.041 382.188C221.824 382.188 224.589 381.387 226.335 379.786C228.122 378.154 229.016 375.66 229.016 372.303C229.016 368.577 228.122 365.96 226.335 364.451C224.589 362.911 221.824 362.141 218.041 362.141C214.258 362.141 211.473 362.911 209.686 364.451C207.94 365.96 207.067 368.577 207.067 372.303C207.067 375.66 207.94 378.154 209.686 379.786C211.473 381.387 214.258 382.188 218.041 382.188Z" fill="#0E482C"/>
<path d="M249.669 387.038V357.291H269.997C274.029 357.291 277.022 358 278.976 359.416C280.972 360.802 281.969 362.773 281.969 365.329C281.969 366.93 281.554 368.269 280.722 369.347C279.891 370.394 278.768 371.21 277.355 371.795C279.226 372.226 280.701 372.95 281.782 373.966C282.905 374.952 283.466 376.414 283.466 378.354C283.466 381.218 282.364 383.389 280.161 384.867C277.999 386.314 274.861 387.038 270.745 387.038H249.669ZM258.087 369.624H268.438C270.475 369.624 271.93 369.301 272.803 368.654C273.676 367.977 274.112 367.038 274.112 365.837C274.112 364.512 273.655 363.527 272.741 362.88C271.868 362.234 270.226 361.91 267.814 361.91H258.087V369.624ZM258.087 382.465H268.75C270.87 382.465 272.429 382.142 273.426 381.495C274.424 380.849 274.923 379.709 274.923 378.077C274.923 376.753 274.424 375.768 273.426 375.121C272.47 374.474 270.724 374.151 268.189 374.151H258.087V382.465Z" fill="#0E482C"/>
<path d="M292.108 387.038L307.448 357.291H316.676L331.954 387.038H323.224L319.42 379.879H304.641L300.9 387.038H292.108ZM305.889 375.075H318.173L312 363.111L305.889 375.075Z" fill="#0E482C"/>
<path d="M344.044 387.038V357.291H352.462V382.234H372.229V387.038H344.044Z" fill="#0E482C"/>
<g clip-path="url(#clip0_4214_4747)">
<g filter="url(#filter0_d_4214_4747)">
<path d="M323.98 163.545C317.059 174.937 308.119 184.951 297.671 193.013C287.223 201.075 275.472 207.028 263.089 210.532C250.706 214.036 237.933 215.022 225.501 213.434C213.069 211.846 201.22 207.715 190.633 201.277C146.102 174.212 133.604 113.437 162.718 65.5346C168.373 56.2121 175.388 47.7978 183.494 40.6154C199.352 26.6054 218.753 17.8303 238.954 15.5311C259.155 13.2319 279.134 17.5249 296.065 27.803C310.665 36.6693 322.401 49.6341 330.02 65.3135C337.639 80.9929 340.855 98.7982 339.325 116.829C338.956 121.282 338.295 125.725 337.348 130.124C337.215 130.737 337.078 131.346 336.933 131.957L336.93 131.962C336.304 134.657 335.565 137.34 334.713 140.011C332.093 148.233 328.486 156.142 323.98 163.545Z" fill="url(#paint7_linear_4214_4747)"/>
<mask id="mask0_4214_4747" style="mask-type:alpha" maskUnits="userSpaceOnUse" x="113" y="-38" width="321" height="306">
<path d="M208.939 48.6299C208.928 47.6763 208.82 46.7337 208.617 45.8259C208.596 45.6558 208.547 45.4946 208.473 45.3526C208.4 45.2107 208.303 45.0911 208.189 45.0015C208.032 44.9337 207.863 44.9163 207.696 44.9509L205.12 45.2215C204.906 45.2152 204.695 45.2978 204.516 45.4568C204.148 45.8699 204.41 46.6107 204.346 47.22C204.274 47.9051 203.746 48.4198 203.212 48.5583C202.67 48.6479 202.125 48.5911 201.612 48.3917L198.132 47.3777C199.213 47.0452 200.211 46.3373 201.012 45.3348C201.541 44.6721 201.904 43.3799 201.26 42.9872C201.066 42.8996 200.859 42.8598 200.651 42.87C199.045 42.7444 197.932 40.9251 196.494 40.0733C195.57 39.5579 194.529 39.4338 193.52 39.7188C192.511 40.0038 191.585 40.6832 190.874 41.66L192.751 41.9423C192.929 41.9455 193.1 42.0209 193.238 42.1575C193.613 42.6271 193.026 43.4135 193.024 44.0968C193.022 44.9845 193.923 45.2535 194.607 45.4036C195.291 45.5537 196.106 46.3476 195.704 47.0964C192.093 48.3163 188.952 43.4935 185.252 43.7267C184.315 43.7857 183.402 44.1715 182.474 44.3829C176.805 45.6744 171.525 40.4288 165.806 40.9366C164.531 41.0982 163.264 41.4033 162.021 41.8483C161.226 42.1014 160.397 42.3775 159.774 43.0723C159.152 43.7671 158.828 45.0205 159.286 45.8449C157.819 45.8692 156.371 45.5628 155.01 44.9398C155.366 45.2426 155.647 45.6652 155.824 46.1632C156.001 46.6613 156.067 47.2164 156.015 47.7704C153.703 48.042 151.417 48.7061 149.219 49.7446C149.536 50.6061 149.924 51.4201 150.375 52.1739L147.294 54.274C148.237 54.6715 148.59 56.4034 147.933 57.4077C148.99 56.9256 149.744 55.5037 150.847 55.2992C151.57 55.1652 152.255 55.5963 152.893 56.0008C153.532 56.4053 154.238 56.8052 154.953 56.607C155.669 56.4088 156.281 55.309 155.905 54.5408C158.963 53.7009 162.076 53.3614 165.168 53.5308C165.409 53.5138 165.645 53.5934 165.843 53.7584C166.213 54.1487 166.039 54.906 165.963 55.5261C165.886 56.1462 166.195 56.9973 166.656 56.7554C166.092 57.2773 166.437 58.3837 166.877 59.0235C167.316 59.6633 167.837 60.5386 167.467 61.2878C167.371 61.4833 167.223 61.6336 167.129 61.8312C166.853 62.4146 167.145 63.149 167.528 63.5864C167.911 64.0238 168.399 64.3489 168.641 64.9291C168.882 65.5093 168.665 66.4684 168.138 66.5L166.872 63.9792C166.309 64.6017 165.889 65.4069 165.662 66.3014C167.084 68.0718 167.027 71.4147 165.542 73.2628C164.784 74.2072 163.777 74.7329 162.876 75.4423C161.975 76.1517 161.107 77.1984 160.993 78.5165C160.796 80.7935 160.464 82.8959 160.947 85.0658C161.838 89.0669 162.928 92.9821 164.212 96.7882C164.549 97.7876 165.002 98.8904 165.842 99.1314C165.057 95.6829 164.385 92.1917 163.825 88.6579C164.388 88.7104 165.034 88.8248 165.313 89.4357C165.544 89.9415 165.428 90.5913 165.461 91.1835C165.519 91.7595 165.652 92.3154 165.853 92.8291L169.98 105.001C170.322 106.01 170.721 107.096 171.503 107.561C172.004 107.859 172.613 107.865 173.062 108.269C173.414 108.586 173.624 109.112 173.984 109.414C175.005 110.265 176.644 108.949 177.58 109.941C177.848 110.225 177.997 110.651 178.238 110.97C179.085 112.088 180.685 111.531 181.7 112.399C182.354 112.959 182.628 113.987 182.921 114.922C183.654 117.265 184.968 119.612 186.95 119.969C187.573 120.08 188.228 119.985 188.826 120.217C189.424 120.45 189.968 121.185 189.799 121.969C189.51 123.313 189.906 124.847 189.644 126.198C189.167 128.659 186.307 129.506 185.851 131.972C185.751 132.512 185.782 133.081 185.634 133.605C185.451 134.248 185.02 134.746 184.826 135.383C184.458 136.59 185.042 137.876 185.728 138.771C186.415 139.666 187.258 140.459 187.571 141.655C187.902 142.918 187.561 144.327 187.586 145.674C187.641 148.615 189.424 150.948 191.332 152.52C191.914 152.998 192.542 153.468 192.878 154.239C193.316 155.246 193.152 156.507 193.225 157.67C193.405 160.519 195.057 162.999 194.857 165.866C194.715 167.904 193.665 169.671 192.966 171.544C192.307 173.339 191.955 175.278 191.933 177.227C191.912 179.176 192.222 181.09 192.843 182.838C193.164 183.726 193.567 184.572 193.766 185.522C194.121 187.217 193.793 189.079 194.107 190.789C194.523 193.05 196.038 195.021 195.672 197.337C196.255 199.419 197.849 200.557 199.486 201.306L202.42 202.648C202.981 202.905 203.569 203.166 204.173 203.069C204.776 202.972 205.395 202.396 205.447 201.628C204 201.07 202.507 200.481 201.384 199.219C200.262 197.957 199.604 195.829 200.232 194.022C200.523 193.184 201.069 192.234 200.695 191.488C200.482 191.06 200.035 190.914 199.786 190.52C199.398 189.904 199.634 188.948 200.011 188.28C200.388 187.612 200.899 187.03 201.096 186.254C201.199 185.82 201.196 185.361 201.088 184.94C200.979 184.519 200.771 184.155 200.49 183.899C201.075 183.678 201.623 183.305 202.097 182.805C202.542 182.266 202.802 181.397 202.549 180.717C203.457 180.947 204.538 181.116 205.222 180.271C205.768 179.597 205.829 178.522 205.719 177.592C205.609 176.662 205.365 175.747 205.438 174.801C207.551 175.117 209.688 175.212 211.828 175.087C211.638 173.749 211.042 172.579 210.165 171.827C211.14 171.705 212.141 170.321 212.547 169.173C212.953 168.024 212.989 166.737 212.909 165.506C212.865 165.187 212.884 164.856 212.965 164.542C213.111 164.114 213.472 163.877 213.804 163.676L218.861 160.618C219.16 160.462 219.438 160.243 219.683 159.97C220.246 159.269 220.272 158.138 220.098 157.192C219.925 156.247 219.594 155.343 219.581 154.364C219.543 151.435 222.164 149.568 223.228 146.908C223.645 145.865 223.814 144.705 223.978 143.565C224.153 142.34 224.284 140.912 223.613 140.053C222.97 139.23 221.844 139.302 221.163 138.529C220.539 137.821 220.415 136.541 219.716 135.952C219.082 135.417 218.208 135.645 217.475 135.355C216.186 134.844 215.524 132.825 214.188 132.526C213.433 132.357 212.528 132.756 211.953 132.135C211.445 131.587 211.512 130.582 211.482 129.721C211.415 128.382 211.025 127.119 210.365 126.101C209.705 125.084 208.806 124.362 207.79 124.032C207.017 123.801 206.155 123.787 205.535 123.177C204.906 122.559 204.688 121.487 204.223 120.667C203.475 119.346 202.163 118.784 200.931 118.293L195.918 116.296C195.028 115.941 193.863 115.692 193.282 116.669C193.103 117.045 192.963 117.448 192.869 117.867C192.617 118.618 192.188 119.259 191.642 119.697C191.097 120.135 190.464 120.348 189.833 120.305C189.485 119.329 188.846 118.578 188.052 118.209C187.546 117.977 186.989 117.907 186.515 117.59C186.259 117.398 186.038 117.139 185.867 116.83C185.696 116.521 185.579 116.168 185.521 115.793C185.463 115.418 185.467 115.028 185.532 114.648C185.597 114.269 185.722 113.906 185.899 113.584C186.255 112.936 186.438 112.167 186.421 111.394C186.403 110.621 186.185 109.889 185.8 109.309C185.013 108.23 183.768 107.876 182.585 107.872C182.353 106.99 182.952 106.07 183.561 105.498C184.17 104.925 184.896 104.373 185.099 103.456C185.418 102.012 184.054 100.775 182.906 101.112C181.758 101.45 180.929 102.761 180.341 104.074C180.004 104.827 179.703 105.625 179.222 106.243C178.74 106.861 178.016 107.27 177.39 107.003C176.502 106.625 176.271 105.21 176.173 104.018C176.04 102.418 175.908 100.797 176.107 99.1908C176.306 97.5846 176.878 95.9678 177.907 94.9592C179.582 93.3158 181.897 93.6955 183.922 94.1599C183.499 93.4216 183.722 92.26 184.298 91.651C184.599 91.3653 184.947 91.1743 185.312 91.0943C185.677 91.0144 186.048 91.048 186.393 91.1923C186.996 91.4107 187.515 91.8838 187.867 92.5356C188.369 93.4923 188.427 94.7292 188.777 95.7956C189.126 96.862 190.039 97.8257 190.898 97.3459C191.64 96.9315 191.86 95.7042 191.773 94.7022C191.686 93.7002 191.401 92.7081 191.553 91.7056C191.843 89.7927 193.509 88.7728 194.959 88.1024C196.41 87.4319 198.084 86.5059 198.471 84.6158C198.512 84.2426 198.6 83.8777 198.732 83.5354C198.912 83.2388 199.147 83.0025 199.415 82.8491C203.743 79.8106 208.142 76.7367 212.91 75.2884C213.158 75.2131 213.176 75.3228 213.427 75.2687C213.791 75.0471 213.626 74.3308 213.323 74.0214C213.02 73.7119 212.601 73.4582 212.562 72.9591C212.533 72.5922 212.731 72.252 212.807 71.8902C212.993 71.0011 212.222 70.0972 211.536 70.3986C211.221 69.7416 212.017 69.0806 212.627 68.9251C214.459 68.4585 216.317 68.2395 218.169 68.272C218.385 68.2477 218.598 68.3141 218.776 68.4609C219.061 68.7611 218.966 69.3836 218.713 69.7538C218.459 70.124 218.097 70.3386 217.795 70.6441C217.464 70.9882 217.21 71.437 217.061 71.9418C216.911 72.4466 216.873 72.9878 216.948 73.5064C217.854 74.2141 218.842 74.9475 219.925 74.8219C221.009 74.6963 222.088 73.2557 221.695 71.9944C221.329 70.8199 219.953 70.4409 219.822 69.1775C219.668 67.6983 221.397 66.5472 221.159 65.0907C221.055 64.4527 220.599 64.0424 220.265 63.5589C219.872 62.9676 219.633 62.2313 219.582 61.4466C219.53 60.6619 219.668 59.8655 219.976 59.1621C219.354 59.245 218.732 59.1381 218.162 58.8503C217.592 58.5626 217.091 58.1023 216.7 57.5081C215.98 56.3916 215.477 54.6863 214.32 54.6313C213.258 54.5809 212.207 56.0744 211.26 55.5069C211.027 55.3673 210.792 55.1042 210.543 55.2243C210.46 55.2815 210.388 55.3613 210.331 55.4577C210.275 55.5542 210.236 55.6647 210.217 55.781C209.831 57.2915 210.109 59.076 209.337 60.3426C208.497 61.7209 206.83 61.7752 205.851 62.9986C205.319 63.6627 205.054 64.5973 204.557 65.303C204.06 66.0087 203.102 66.4009 202.642 65.707C202.955 65.0628 203.091 64.3119 203.028 63.5772C202.965 62.8424 202.707 62.1673 202.295 61.662C201.85 61.2199 201.36 60.853 200.837 60.5699C200.259 60.1887 199.718 59.7274 199.223 59.194C198.971 58.963 198.779 58.6451 198.666 58.2757C198.592 57.8189 198.65 57.3364 198.83 56.9154C199.177 55.9792 199.715 55.1703 200.386 54.5761C201.057 53.9819 201.835 53.6249 202.636 53.5436C203.336 53.4849 204.135 53.5977 204.65 52.9686C204.922 52.6356 205.096 52.1113 205.459 51.9983C205.688 51.9607 205.918 52.0177 206.113 52.1609L208.584 53.5421C208.857 53.7326 209.167 53.8271 209.483 53.8162C209.641 53.8032 209.792 53.7151 209.905 53.5695C210.018 53.4239 210.086 53.2316 210.094 53.0312C210.06 52.4794 209.426 52.16 209.534 51.616C209.583 51.441 209.672 51.2867 209.79 51.1737C210.829 49.9959 212.052 49.1137 213.369 48.5901C214.686 48.0665 216.065 47.9145 217.409 48.145C217.673 48.8535 217.089 49.6132 216.61 50.1558C216.132 50.6984 215.697 51.705 216.174 52.1973C216.374 52.3537 216.604 52.4421 216.842 52.4544C217.466 52.6195 218.06 52.9118 218.603 53.3201C219.448 53.8917 220.273 54.5081 221.076 55.1695C221.064 54.4444 221.059 53.6811 221.331 53.0281C221.604 52.3752 222.258 51.9018 222.765 52.2102C223.254 52.5074 223.44 53.3933 223.978 53.5203C224.695 53.6898 225.102 52.3472 224.873 51.4726C224.645 50.5979 224.107 49.835 224.139 48.9009C224.16 48.2707 224.416 47.5093 224.056 47.0948C223.927 46.9684 223.774 46.8835 223.611 46.8466L214 43.6789C213.429 43.4908 212.578 43.5213 212.486 44.2737C212.434 44.6936 212.693 45.1364 212.528 45.5121C212.352 45.9132 211.897 45.8349 211.55 45.9517C211.012 46.1328 210.683 46.894 210.671 47.5938C210.701 48.2927 210.853 48.9679 211.116 49.5709C210.508 49.1743 209.547 49.0265 208.939 48.6299Z" fill="white"/>
<path d="M202.044 37.3197C201.448 37.004 200.782 36.9331 200.137 37.1164C199.491 37.2997 198.897 37.7284 198.435 38.3444C198.25 38.6014 198.081 38.9633 198.19 39.2689C198.347 39.7071 198.856 39.5843 199.234 39.4659C199.791 39.2692 200.375 39.3029 200.901 39.562C201.23 39.7419 201.512 40.0335 201.843 40.2079C202.003 40.3118 202.183 40.3574 202.365 40.3398C202.548 40.3222 202.725 40.2421 202.878 40.108C203.141 39.8222 203.198 39.3469 203.236 38.9175C203.265 38.7753 203.269 38.628 203.248 38.4863C203.226 38.3447 203.18 38.2123 203.112 38.0988C202.983 37.9851 202.834 37.9132 202.676 37.889C202.328 37.7738 202.028 37.506 201.827 37.1319" fill="white"/>
<path d="M205.694 36.3759C205.556 36.354 205.415 36.3778 205.284 36.4449C205.152 36.5121 205.036 36.6202 204.944 36.7591C204.853 36.8979 204.79 37.0628 204.762 37.2378C204.734 37.4128 204.742 37.592 204.785 37.7583C205.197 37.9437 205.638 38.0198 206.082 37.9821C206.303 37.9582 206.517 37.8518 206.696 37.6762C206.876 37.5006 207.012 37.2638 207.089 36.9955C206.564 37.0694 206.045 36.8934 205.632 36.5018" fill="white"/>
<path d="M217.751 35.3256C216.566 35.5372 215.398 35.925 214.273 36.4808C214.755 36.7719 215.143 37.256 215.382 37.8618C215.62 38.4675 215.695 39.1628 215.596 39.8453C215.528 40.1046 215.509 40.3784 215.541 40.6435C215.631 41.0346 215.975 41.2087 216.28 41.3339C216.824 41.6021 217.403 41.7496 217.994 41.7703C218.29 41.7767 218.586 41.689 218.854 41.5154C219.123 41.3417 219.356 41.0876 219.533 40.7758C219.645 40.4751 219.772 40.1826 219.912 39.9001C220.792 38.5077 222.868 40.4683 223.799 39.1296C224.127 38.6581 224.167 37.9083 224.572 37.5474C224.779 37.3929 225.011 37.3044 225.246 37.2901C226.905 37.0223 228.57 36.8693 230.233 36.8319C231.022 36.8141 232.071 36.5465 232.166 35.5482C229.29 34.5526 226.195 34.8065 223.361 36.2705C222.34 36.8025 220.947 37.9882 220.087 37.0877C219.766 36.7505 219.856 35.9269 219.406 35.54C218.947 35.1445 218.284 35.2305 217.751 35.3256Z" fill="white"/>
<path d="M227.166 38.4663L228.516 38.9262C228.264 38.8894 228.005 38.9219 227.758 39.0216C227.512 39.1212 227.282 39.2857 227.085 39.504C226.889 39.7223 226.729 39.9895 226.617 40.2876C226.505 40.5858 226.444 40.9081 226.437 41.233C227.681 41.8975 229.138 41.4862 230.493 41.6794C231.848 41.8727 233.323 43.2524 232.94 44.9437C232.824 45.4552 232.544 45.9517 232.621 46.4643C232.676 46.8235 232.897 47.0945 233.006 47.4305C233.233 48.1307 232.928 48.9642 232.513 49.5459C232.098 50.1276 231.569 50.5743 231.194 51.1984C230.262 52.7505 230.525 54.8866 230.835 56.7398C230.911 57.4363 231.105 58.0972 231.406 58.6767C232.019 59.6818 233.146 59.864 234.161 59.9725C234.899 60.0515 235.75 60.0797 236.282 59.3905C236.977 58.4907 236.681 56.9651 237.182 55.8813C237.637 54.897 238.606 54.543 239.476 54.3081C241.07 53.8776 242.686 53.5347 244.221 52.8076C246.127 51.9047 247.967 50.3979 249.972 50.4368C250.534 50.4478 251.099 50.5824 251.655 50.4346C252.211 50.2869 252.774 49.7387 252.796 49.0235C252.815 48.4124 252.451 47.9303 252.176 47.4441C251.901 46.958 251.716 46.2313 252.048 45.7719L257.38 44.9892C257.123 43.6706 256.984 41.9516 257.909 41.1896C258.242 40.9147 258.664 40.8303 258.957 40.4882C259.458 39.9052 259.328 38.8135 258.861 38.239C258.393 37.6644 257.709 37.4803 257.057 37.3525C254.788 36.9081 252.471 36.8651 250.163 36.8231C245.651 36.7409 241.139 36.6587 236.626 36.5764C235.718 36.5599 234.684 36.3716 233.822 36.6912C233.091 36.9617 232.539 37.5279 231.718 37.6715C230.204 37.9367 228.599 37.5253 227.166 38.4663Z" fill="white"/>
<path d="M250.669 54.5561C250.531 54.5154 250.383 54.5443 250.257 54.6369C250.17 54.7389 250.111 54.8741 250.091 55.0203C249.945 55.6602 249.992 56.3363 250.224 56.9133C250.342 57.1968 250.52 57.4315 250.739 57.5929C250.957 57.7543 251.208 57.8367 251.466 57.8314C252.096 57.7852 252.614 57.1496 253.214 56.8702C254.14 56.44 257.95 55.9781 255.52 53.9681C254.682 53.2754 254.058 53.7666 253.32 54.109C252.474 54.5599 251.558 54.7145 250.669 54.5561Z" fill="white"/>
<path d="M274.647 41.6406C274.331 41.7713 274.054 42.0294 273.858 42.3747C273.766 42.5507 273.73 42.7618 273.757 42.9644C273.783 43.167 273.87 43.3455 274 43.463C274.109 43.5252 274.226 43.5599 274.347 43.5654L275.571 43.7205C276.091 43.7864 276.73 43.9856 276.814 44.639C276.876 45.1242 276.589 45.7153 276.84 46.0803C276.951 46.2101 277.089 46.295 277.24 46.3249C277.633 46.4931 278.054 46.5478 278.473 46.485C279.394 46.2583 278.986 45.5215 279.322 44.9271C279.836 44.0177 279.711 44.5846 280.518 44.1086C281.114 43.7571 281.902 43.0935 281.524 42.0303C280.868 40.1813 275.915 40.983 274.647 41.6406Z" fill="white"/>
<path d="M298.971 42.8856L298.247 42.9441C296.615 43.0758 294.973 43.2093 293.369 43.6883C294.01 44.0855 294.694 44.3676 295.403 44.527C295.796 44.5865 296.181 44.6921 296.556 44.8426C297.217 45.1626 297.847 45.8939 298.539 45.6088C298.967 45.432 299.149 44.8997 299.514 44.6413C299.766 44.4629 300.684 44.2191 300.801 44.0269C301.748 42.4733 299.599 42.8351 298.971 42.8856Z" fill="white"/>
<path d="M301.738 47.2945C300.725 47.8896 299.769 48.6369 298.889 49.5197C298.519 49.8917 298.132 50.361 298.111 50.9487C298.083 51.7299 298.693 52.2383 299.229 52.5917L301.401 54.0235C301.721 53.5509 301.528 52.8425 301.286 52.3289C301.043 51.8153 300.753 51.2202 300.931 50.6436C301.134 49.9856 301.796 49.8136 302.344 49.7456C303.237 49.6346 305.601 49.8583 305.475 48.0325C305.328 45.8813 302.673 46.7452 301.738 47.2945Z" fill="white"/>
<path d="M290.689 167.325C290.401 168.107 290.297 169.049 290.611 169.782C290.963 170.604 291.781 170.971 292.528 170.836C293.276 170.654 293.971 170.18 294.513 169.482C295.005 168.9 295.426 168.23 295.762 167.494C296.242 166.344 296.616 165.131 296.876 163.882L298.002 159.206C298.253 158.161 298.534 154.913 296.913 155.837C296.471 156.089 295.304 158.285 294.81 158.894C293.919 159.99 293.715 161.113 293.175 162.489C292.5 164.213 291.326 165.595 290.689 167.325Z" fill="white"/>
<path d="M369.199 198.687C368.721 198.395 368.262 198.058 367.825 197.679C367.213 199.277 366.812 200.982 366.639 202.724L370.276 200.559C370.823 200.234 371.451 199.77 371.506 199.016C371.519 198.923 371.512 198.829 371.486 198.743C371.46 198.657 371.416 198.582 371.359 198.527C371.286 198.482 371.205 198.462 371.122 198.47C370.611 198.479 370.12 198.757 369.623 198.936C369.125 199.115 368.555 199.182 368.146 198.815" fill="white"/>
<path d="M387.105 201.742C386.718 201.839 386.337 201.975 385.964 202.147C385.135 202.587 384.516 203.506 383.751 204.114C383.018 204.696 382.174 204.976 381.345 205.248C381.087 205.492 381.148 206.035 381.383 206.29C381.639 206.513 381.946 206.631 382.263 206.628C383.09 206.725 383.963 206.812 384.735 206.365C385.174 206.063 385.591 205.709 385.981 205.309C386.91 204.48 387.983 203.974 389.043 203.487C389.427 203.343 389.789 203.113 390.115 202.811C390.819 202.07 390.972 200.844 390.081 200.492C389.361 200.208 387.834 201.514 387.105 201.742Z" fill="white"/>
<path d="M385.044 154.336C384.569 154.438 384.086 154.432 383.62 154.317C382.851 154.064 382.306 153.255 381.726 152.58C380.348 150.984 378.587 150.006 376.698 149.787C374.978 149.594 373.186 150.036 371.531 149.471C371.572 150.265 372.046 150.899 372.577 151.298C373.108 151.697 373.712 151.928 374.246 152.32C375.101 152.954 375.734 153.967 376.028 155.175C376.163 155.732 376.225 156.33 376.459 156.827C376.936 157.841 377.984 158.147 378.932 158.151C380.168 158.157 381.489 157.82 382.579 158.503C383.413 159.026 383.952 160.056 384.615 160.878C385.277 161.7 386.255 162.352 387.14 161.88C386.302 161.444 385.607 160.673 385.157 159.68C384.707 158.687 384.525 157.523 384.637 156.359C385.45 156.528 387.819 156.699 387.848 154.909C387.873 153.392 385.764 154.235 385.044 154.336Z" fill="white"/>
<path d="M373.219 165.653C373.455 164.646 374.332 163.816 374.17 162.808C374.059 162.11 373.468 161.718 372.907 161.652C372.347 161.586 371.776 161.75 371.212 161.721C370.848 161.664 370.481 161.638 370.113 161.644C368.977 161.779 368.157 163.209 367.06 163.646C366.392 163.912 365.679 163.787 364.995 163.951C363.441 164.324 362.326 166.057 361.142 167.43C359.229 169.637 356.863 171.092 354.35 171.606C353.469 171.784 352.533 171.864 351.788 172.514C350.802 173.375 350.437 174.969 350.107 176.415C349.195 180.411 347.997 184.306 346.527 188.051L350.059 188.95C350.73 189.121 351.427 189.292 352.106 189.093C352.603 188.905 353.082 188.638 353.531 188.299C355.238 187.176 357.096 186.512 358.986 186.349C359.939 186.267 360.925 186.324 361.767 186.846C362.608 187.368 363.275 188.443 363.242 189.654C363.636 189.536 364.044 189.556 364.421 189.71C364.798 189.864 365.13 190.148 365.382 190.53C365.879 191.308 366.164 192.275 366.197 193.295C366.236 193.929 366.265 194.686 366.696 194.988C367.049 195.235 367.495 195.042 367.904 195.036C369.294 195.017 370.257 197.166 371.642 196.932C373.128 196.682 373.729 193.941 375.195 193.511C376.036 193.264 377.144 193.752 377.618 192.822C378.037 192.002 377.438 190.96 377.593 190.014C377.783 188.849 378.912 188.447 379.793 188.021C382.828 186.55 384.633 181.724 383.558 177.952C382.92 175.717 381.441 173.871 381.35 171.47C381.28 169.622 382.033 167.541 381.246 166.022C380.845 165.25 380.094 164.776 379.894 163.879C379.768 163.314 379.893 162.697 379.851 162.108C379.808 161.519 379.465 160.877 379.002 160.987C377.658 161.309 376.788 166.413 375.979 167.6C374.749 169.405 372.678 167.962 373.219 165.653Z" fill="white"/>
<path d="M350.002 153.202C349.57 153.003 349.096 152.803 348.649 152.993C348.201 153.183 347.881 153.961 348.189 154.389C350.885 154.492 353.597 154.598 356.217 155.297C359.236 156.103 362.153 157.697 365.267 157.578C363.566 156.761 361.825 156.075 360.052 155.522L357.102 154.522C356.312 154.234 355.509 154.001 354.696 153.824C352.992 153.491 351.639 153.955 350.002 153.202Z" fill="white"/>
<path d="M353.738 141.524C353.517 141.48 353.243 141.435 353.106 141.669C352.976 141.893 353.075 142.212 352.992 142.469C352.88 142.819 352.505 142.878 352.22 142.804C351.935 142.73 351.632 142.586 351.36 142.741C351.22 142.843 351.108 142.998 351.04 143.183C350.973 143.369 350.954 143.575 350.986 143.77C351.057 144.158 351.196 144.517 351.393 144.822C351.718 145.464 352.101 146.055 352.535 146.582C353.381 147.531 354.594 148.059 355.064 149.371C355.124 149.622 355.231 149.849 355.376 150.034C355.635 150.284 356.014 150.144 356.329 149.996L357.436 149.476C357.633 149.405 357.816 149.274 357.966 149.093C358.243 148.698 358.147 148.093 357.985 147.628C357.823 147.162 357.605 146.675 357.694 146.165C357.852 145.256 358.807 144.987 359.256 144.237C359.708 143.481 359.549 142.441 359.675 141.518C359.822 140.438 360.481 139.075 359.692 138.19C359.023 137.437 358.268 138.011 357.676 138.725C356.429 140.23 355.753 141.919 353.738 141.524Z" fill="white"/>
<path d="M361.557 125.89C361.839 126.799 362.542 127.388 362.858 128.277C363.201 129.241 363.047 130.432 363.429 131.371C363.82 132.333 364.729 132.906 364.902 133.976C365.09 135.145 364.311 136.477 364.746 137.522C364.829 137.694 364.941 137.84 365.073 137.952C365.205 138.064 365.355 138.139 365.514 138.172C365.673 138.205 365.836 138.195 365.995 138.144C366.153 138.092 366.303 138 366.435 137.872C366.682 137.585 366.836 137.192 366.863 136.775C366.89 136.358 366.788 135.952 366.579 135.642C366.301 135.254 365.87 135.059 365.648 134.616C365.535 134.361 365.47 134.075 365.457 133.778C365.391 132.919 365.491 132.043 365.749 131.226C365.837 131.021 365.875 130.789 365.858 130.562C365.78 130.12 365.324 130.049 365.02 129.82C364.329 129.301 364.463 127.987 364.681 126.975C364.536 127.649 362.733 126.321 362.567 125.917C362.239 125.115 362.585 123.654 362.581 122.8C361.679 123.25 361.212 124.779 361.557 125.89Z" fill="white"/>
<path d="M341.174 137.692C340.867 137.16 340.383 136.588 339.885 136.849C339.505 137.048 339.35 137.674 339.449 138.167C339.579 138.649 339.808 139.074 340.113 139.4C341.004 140.52 341.98 141.545 342.731 142.822C344.075 145.106 344.632 148.076 346.126 150.203C346.421 150.691 346.837 151.037 347.313 151.186C347.794 151.287 348.374 150.939 348.485 150.325C348.576 149.82 348.337 149.34 348.099 148.939C347.53 147.983 346.894 147.094 346.365 146.101C346.114 145.715 345.978 145.227 345.979 144.717C346.021 144.211 346.429 143.714 346.802 143.873C346.349 143.679 346.089 142.656 345.42 142.409C344.861 142.203 344.682 142.643 344.033 142.21C342.795 141.384 341.97 139.073 341.174 137.692Z" fill="white"/>
<path d="M376.05 91.5293C375.689 91.355 375.337 91.1556 374.995 90.9319C374.062 90.4771 372.704 91.2694 372.72 92.5557C372.731 93.4104 373.299 94.0361 373.576 94.801C373.986 95.9353 373.729 97.3055 373.355 98.5024C373.257 98.8745 373.101 99.2207 372.897 99.5206C372.622 99.8319 372.304 100.075 371.962 100.238C370.575 101.055 369.315 102.2 368.251 103.607C368.137 103.736 368.052 103.9 368.003 104.081C367.919 104.507 368.231 104.851 368.391 105.227C368.747 106.062 368.344 107.108 368.301 108.075C368.283 108.211 368.292 108.349 368.327 108.476C368.363 108.603 368.424 108.715 368.504 108.802C368.746 108.991 369.076 108.735 369.243 108.426C369.8 107.399 369.603 105.655 370.515 105.217C370.688 105.134 370.89 105.111 371.016 104.937C371.215 104.66 371.086 104.214 371.204 103.874C371.383 103.363 371.946 103.389 372.374 103.45C373.112 103.555 373.865 103.494 374.598 103.271C374.883 103.212 375.151 103.048 375.37 102.8C375.665 102.411 375.694 101.822 375.689 101.293C375.66 98.657 375.233 96.0737 374.432 93.6829C375.183 93.8741 376.002 94.0546 376.704 93.6066C377.097 93.3557 377.613 92.5474 377.481 91.9546C377.273 91.0172 376.684 91.7388 376.05 91.5293Z" fill="white"/>
<path d="M277.142 97.2907C277.178 97.9218 277.21 98.5859 276.997 99.1718C276.784 99.7578 276.236 100.215 275.776 99.9889C275.419 99.8136 275.248 99.3214 275.017 98.9374C273.736 96.8017 270.343 97.6735 269.661 95.111C269.383 94.0652 269.74 92.8732 269.583 91.7813C269.479 91.1491 269.212 90.5876 268.822 90.1849C268.432 89.7822 267.942 89.5613 267.43 89.5567C266.958 89.6012 266.491 89.7333 266.043 89.9488C263.066 91.1518 259.992 91.8415 256.904 91.9989C256.32 91.9928 255.735 92.0752 255.161 92.2444C253.857 92.7127 252.871 94.1173 252.129 95.5739C251.387 97.0306 250.793 98.626 249.858 99.8959C248.875 101.23 247.586 102.112 246.37 103.081C245.907 103.398 245.504 103.847 245.197 104.391C244.897 105.006 244.846 105.747 244.802 106.456L244.274 115.069C244.206 116.177 244.142 117.325 244.442 118.348C244.818 119.625 245.704 120.519 246.272 121.668C246.851 122.849 247.081 124.266 246.925 125.678C246.861 126.245 246.757 126.914 247.073 127.302C247.269 127.495 247.509 127.608 247.761 127.625L256.795 129.381C258.384 129.69 260.137 130.121 261.047 131.771C261.476 132.55 261.78 133.642 262.53 133.788C262.852 133.85 263.183 133.708 263.51 133.704C264.337 133.694 264.987 134.55 265.364 135.463C265.934 136.855 266.106 138.472 265.852 140.048C265.689 141.038 265.362 141.985 265.221 142.978C264.687 146.759 266.923 150.283 266.636 154.094C266.467 156.335 265.449 158.354 264.461 160.267C265.549 162.917 264.177 166.196 264.438 169.204C264.686 172.058 266.33 174.42 266.539 177.281C266.635 178.591 266.507 180.181 267.342 180.924C267.712 181.203 268.137 181.352 268.575 181.358C271.197 181.629 273.859 181.105 276.343 179.828C277.509 179.226 278.746 178.284 279.076 176.749C279.342 175.511 278.967 174.067 279.57 173.021C280.281 171.788 281.802 172.025 282.769 171.115C284.336 169.637 283.494 166.482 284.275 164.224C284.977 162.194 286.862 161.25 287.913 159.465C288.332 158.695 288.659 157.852 288.881 156.967C289.476 154.857 289.922 152.691 290.212 150.495C290.354 149.158 290.549 147.829 290.798 146.511C292.42 139.03 298.735 134.481 301.281 127.38C301.524 126.702 301.691 125.785 301.242 125.35C300.97 125.15 300.648 125.077 300.33 125.145L296.067 125.45C295.538 125.488 294.977 125.517 294.522 125.199C294.067 124.88 293.792 124.077 294.098 123.512C294.957 121.927 293.673 119.714 293.169 117.967C291.813 113.264 290.103 108.754 288.06 104.499C287.925 104.277 287.852 104.002 287.853 103.716L289.041 103.872C288.801 101.995 288.315 99.9207 286.97 99.1231C286.213 98.6736 285.325 98.7277 284.476 98.712C282.044 98.6671 279.493 97.9733 277.142 97.2907Z" fill="white"/>
<path d="M288.206 56.4369C288.763 57.349 289.392 58.3194 290.294 58.5494C291.887 58.9556 293.238 56.9272 294.141 55.1416C294.127 55.6158 294.259 56.0705 294.509 56.4089C294.759 56.7473 295.107 56.9427 295.48 56.9535C295.887 56.9032 296.284 56.747 296.648 56.4947C300.048 54.546 303.739 53.6803 307.392 53.9752C307.388 53.6197 307.488 53.2692 307.672 52.9915C307.857 52.7137 308.114 52.5284 308.392 52.4712C309.151 52.3491 309.747 53.2259 310.03 54.1071C310.313 54.9882 310.449 55.9926 310.962 56.6787C311.475 57.3648 312.578 57.4343 312.884 56.5332C313.178 55.6681 312.522 54.8504 311.968 54.2763C311.413 53.7021 310.866 52.6816 311.338 51.948C314.481 51.3532 317.643 50.7567 320.797 50.8615C321.329 50.9324 321.871 50.8624 322.391 50.6561C322.896 50.3989 323.336 49.7529 323.265 49.0821C322.563 49.2269 321.851 49.1042 321.22 48.7297C320.59 48.3552 320.07 47.7458 319.726 46.9792C324.121 46.9052 328.787 46.9233 332.415 49.8755C332.767 51.1835 330.314 52.0296 330.844 53.2283C331.013 53.6106 331.413 53.6889 331.762 53.728C334.438 54.028 337.13 54.3282 339.827 54.046C340.812 53.9428 341.814 53.7629 342.774 54.0016C344.371 54.3993 345.636 55.8996 347.19 56.4895C347.823 56.7296 348.55 56.8 349.139 56.3672C349.728 55.9344 350.06 54.8599 349.667 54.195C351.333 52.4523 353.783 53.1367 355.684 54.2091C357.585 55.2814 359.333 56.8946 361.411 57.2795C362.901 57.5555 364.47 57.1747 365.926 57.6332C366.841 57.9213 367.663 58.527 368.546 58.9326C370.217 59.6996 372.053 59.7307 373.841 59.9183C378.404 60.3998 382.822 61.9433 386.878 64.4722C387.41 64.7501 387.883 65.1759 388.262 65.7194C388.61 66.2935 388.737 67.1493 388.414 67.7816L384.099 66.5774C384.42 67.6512 385.474 67.9223 386.311 68.3567C387.148 68.7912 387.941 70.0932 387.335 71.0016C386.427 70.5367 385.469 71.6608 384.896 72.7223C384.323 73.7838 383.628 75.0542 382.635 75.0344C381.747 75.0167 380.764 73.964 380.113 74.7691C380.795 76.118 381.354 77.5658 381.778 79.0857C382.213 80.646 382.451 82.5847 381.562 83.8756C381.42 84.1075 381.22 84.2726 380.998 84.3426C380.353 84.4898 380.031 83.475 379.633 82.8419C379.132 82.0442 378.293 81.7568 377.555 81.3384C376.818 80.92 376.07 80.1589 376.101 79.1163C376.121 78.4676 376.441 77.8912 376.69 77.3121C377.11 76.3359 377.351 75.2596 377.394 74.1667C377.428 73.2874 377.316 72.3597 376.877 71.7044C376.437 71.0492 375.603 70.78 375.024 71.2936C374.754 71.5332 374.519 71.9339 374.197 71.9213C373.627 71.8989 373.303 70.6005 372.809 70.9904C372.822 71.4534 372.706 71.9145 372.482 72.2931C370.988 73.682 368.953 72.8592 367.151 73.2375C366.29 73.4683 365.452 73.8425 364.659 74.3504C364.368 74.4772 364.109 74.7092 363.916 75.017C363.649 75.5403 363.829 76.2565 364.184 76.6513C364.565 77.0075 365.007 77.2483 365.479 77.3562C367.573 78.0614 369.672 79.0523 371.207 80.9528C372.741 82.8533 373.593 85.8464 372.822 88.4897L369.056 82.9792C369.026 85.1508 368.926 87.3223 368.757 89.4936C368.747 89.9196 368.663 90.3417 368.513 90.7303C368.137 91.5505 367.297 91.7635 366.566 91.8874C366.363 91.918 366.166 92.0026 365.987 92.1355C365.808 92.2684 365.652 92.4467 365.529 92.6586C365.405 92.8706 365.317 93.1114 365.271 93.3653C365.225 93.6192 365.221 93.8804 365.259 94.1317C365.42 95.2085 365.98 96.0864 366.487 96.9567C366.995 97.827 367.483 98.8083 367.462 99.9137C367.44 101.019 366.681 102.2 365.825 102.048C365.175 101.932 364.756 101.142 364.543 100.361C364.331 99.5799 364.239 98.7224 363.877 98.0425C362.779 95.9845 359.854 96.5668 358.9 94.392C358.574 94.7855 358.328 95.2744 358.187 95.8121C358.045 96.3499 358.013 96.9187 358.093 97.4646C358.66 97.0891 359.349 97.5452 359.693 98.1936C360.036 98.8421 360.154 99.645 360.405 100.361C360.745 101.328 361.342 102.211 361.306 103.288C361.255 103.691 361.225 104.097 361.215 104.504C361.263 105.162 361.652 105.666 361.902 106.234C362.485 107.558 362.298 109.288 361.724 110.681C361.15 112.073 360.241 113.199 359.343 114.288C357.773 116.192 356.177 118.081 354.38 119.618C353.867 120.057 353.324 120.485 352.971 121.13C352.619 121.775 352.521 122.716 352.926 123.267C352.602 123.259 352.007 123.41 351.683 123.402C351.715 121.745 351.836 120.087 352.046 118.441C350.844 117.551 349.291 119.514 349.298 121.314C349.304 123.114 350.191 124.636 350.776 126.244C351.204 127.42 351.479 128.772 351.189 130.052C350.899 131.331 349.886 132.446 348.869 132.241C347.251 131.915 346.831 128.865 345.243 128.38C345.104 128.325 344.953 128.33 344.813 128.396C344.558 128.543 344.48 128.949 344.436 129.297C344.218 131.003 344.004 132.778 344.389 134.403C344.952 136.78 346.763 138.894 346.131 141.309C344.009 139.785 343.127 136.481 342.869 133.359C342.612 130.238 342.809 127.002 342.118 124.012C341.294 125.124 339.868 124.019 339.319 122.728C338.799 121.503 338.534 120.117 338.034 118.879C337.534 117.641 336.701 116.498 335.599 116.335C334.444 116.164 333.347 117.091 332.377 117.973C331.578 118.698 330.758 119.453 330.236 120.506C329.477 122.04 329.474 123.926 329.287 125.696C329.086 127.61 328.589 129.605 327.44 130.917C326.292 132.23 324.357 132.552 323.338 131.188C322.806 130.475 322.607 129.464 322.436 128.494C321.612 123.822 321 119.082 320.604 114.297C320.319 115.356 319.456 116.677 318.804 115.981C318.66 115.797 318.55 115.574 318.481 115.328C317.413 112.359 315.118 110.432 312.738 109.188C310.358 107.944 307.801 107.237 305.457 105.894C304.144 105.141 302.91 104.195 301.778 103.075C301.416 103.63 301.174 104.294 301.079 104.994C300.984 105.695 301.039 106.407 301.239 107.055C301.673 108.326 302.837 109.142 303.924 108.807C304.486 108.634 304.986 108.195 305.546 108.005C306.105 107.815 306.817 107.996 306.994 108.677C307.164 109.33 306.756 110.065 306.866 110.741C307.035 111.77 308.218 111.952 308.554 112.905C308.804 113.613 308.469 114.496 307.978 115.006C307.487 115.517 306.871 115.767 306.297 116.102C304.436 117.189 303.003 119.199 301.327 120.713C299.651 122.227 297.384 123.24 295.653 122.022C296.336 119.253 293.894 116.96 293.658 114.123C293.581 113.19 293.749 112.22 293.601 111.304C293.387 109.977 292.563 109.005 291.909 107.956C291.116 106.671 290.542 105.186 290.219 103.589C289.896 101.992 289.831 100.316 290.028 98.6581C290.17 97.5067 290.44 96.3477 290.333 95.2037C290.226 94.0598 289.591 92.9058 288.68 92.8769C286.601 92.8109 283.976 92.7771 283.089 90.4328C282.772 89.596 282.707 88.4057 283.322 87.8403C283.755 87.4414 284.335 87.5337 284.848 87.6446L289.459 88.6405C290.538 88.8734 291.707 89.0903 292.706 88.4461C293.706 87.8019 294.282 85.9087 293.491 84.9773C292.913 84.2967 291.775 84.2306 291.679 83.2211C291.599 82.3803 292.4 81.5051 292.073 80.7796C291.838 80.2594 291.201 80.3417 290.789 80.6799C290.377 81.018 290.055 81.5372 289.606 81.7812C288.818 82.2091 287.971 81.661 287.198 81.2711C286.426 80.8813 285.355 80.7595 284.884 81.6729C284.356 82.6945 285.053 84.1555 284.528 85.1795C283.835 86.5334 281.976 85.5639 281.069 86.7011C280.029 88.006 281.389 90.2086 280.923 91.9518C280.506 92.1665 280.057 92.2424 279.619 92.172C279.181 92.1016 278.771 91.8874 278.426 91.5502C278.09 91.2018 277.837 90.7397 277.697 90.2132C277.556 89.6868 277.532 89.1155 277.627 88.5603C277.774 87.7706 278.172 86.9863 278.02 86.2144C277.897 85.5903 277.45 85.1857 277.032 84.8327L272.782 81.2414C272.274 82.1991 272.697 83.4792 273.296 84.285C273.895 85.0908 274.679 85.727 275.029 86.7488C275.245 87.4544 275.238 88.2499 275.007 88.9729C274.777 89.6958 274.342 90.2917 273.791 90.6387C273.721 90.69 273.644 90.7219 273.565 90.7323C273.486 90.7427 273.406 90.7313 273.333 90.699C273.265 90.6384 273.208 90.5608 273.166 90.4706C273.123 90.3804 273.096 90.2796 273.085 90.174C272.516 87.4956 271.542 84.8186 269.744 83.287C267.945 81.7555 265.163 81.7924 263.702 83.9762C263.355 84.4949 263.1 85.0985 262.789 85.6518C261.135 88.5915 258.042 89.7797 255.279 89.4406C255.007 89.4358 254.744 89.3313 254.523 89.1395C254.11 88.7058 254.204 87.871 254.333 87.1889L254.882 84.294C254.992 83.7127 255.134 83.0719 255.53 82.738C256.089 82.2672 256.801 82.6582 257.456 82.7038C257.953 82.7179 258.449 82.537 258.876 82.1855C259.302 81.834 259.639 81.329 259.84 80.7388C260.026 80.1414 260.082 79.4978 260.002 78.8775C259.922 78.2571 259.709 77.6835 259.386 77.2185C259.118 76.8334 258.756 76.3473 258.957 75.8777C259.032 75.7495 259.127 75.6426 259.236 75.5643C259.346 75.4861 259.466 75.4385 259.589 75.4249C260.802 75.0938 262.052 75.0893 263.252 74.6783C264.452 74.2673 265.664 73.3168 266.072 71.8218C266.197 71.3637 266.284 70.8031 266.633 70.6013C266.805 70.5272 266.986 70.4968 267.165 70.5117C267.801 70.4534 268.407 70.0956 268.863 69.5086C269.32 68.9217 269.594 68.1482 269.632 67.3405C270.229 66.8964 270.972 67.3273 271.461 67.8988C271.95 68.4702 272.362 69.2045 272.993 69.4879C274.17 70.0161 275.464 68.7496 276.722 68.8542C277.252 68.8982 277.778 69.1849 278.296 69.0002C278.821 68.8129 279.179 68.1993 279.608 67.7604C280.037 67.3216 280.742 67.093 281.054 67.6341L281.003 64.7323C281.599 64.9838 282.236 65.0682 282.871 64.9796C283.506 64.8911 284.125 64.6317 284.685 64.219L280.899 62.1769C280.766 62.1212 280.647 62.0239 280.554 61.8937C280.302 61.4757 280.64 60.8888 280.912 60.4629C281.563 59.4441 281.812 57.6932 280.943 57.0808C280.351 56.6628 279.595 57.0352 278.958 57.4085L275.906 59.1966C275.753 59.8845 276.386 60.3378 276.758 60.843C276.983 61.1487 277.128 61.5379 277.172 61.9593C277.216 62.3807 277.158 62.8148 277.006 63.2044C276.853 63.594 276.614 63.921 276.318 64.1424C276.022 64.3639 275.685 64.4694 275.349 64.445C275.511 64.7752 275.61 65.1504 275.64 65.543C275.67 65.9356 275.629 66.3355 275.522 66.7131L273.574 66.7198C273.352 66.7563 273.131 66.6803 272.961 66.5086C272.774 66.2563 272.839 65.8488 272.821 65.4975C272.78 64.6497 272.188 64.0058 271.545 63.7974C270.901 63.5889 270.212 63.7226 269.545 63.8558C269.258 63.9581 268.956 63.9224 268.697 63.7557C268.553 63.6132 268.451 63.4127 268.408 63.1847C268.201 62.2784 268.559 61.2663 269.083 60.5532C269.607 59.84 270.283 59.3445 270.901 58.7669C272.38 57.38 273.541 55.5118 274.254 53.3732C275.368 52.8989 276.538 52.224 277.652 51.7497C279.385 50.8358 281.265 50.5438 283.078 50.9064L286.674 51.3119C287.738 51.432 288.83 51.5619 289.771 52.1673C290.712 52.7726 291.479 53.9702 291.428 55.3334C291.435 55.4889 291.41 55.6457 291.357 55.7893C291.304 55.9328 291.223 56.0583 291.123 56.1541C290.975 56.2387 290.813 56.2701 290.656 56.2447C289.657 56.2016 289.205 56.4801 288.206 56.4369Z" fill="white"/>
<path d="M258.22 68.2972C258.376 68.1398 258.496 67.9327 258.568 67.6987C258.64 67.4648 258.66 67.213 258.627 66.971C258.299 66.7723 257.93 66.6962 257.562 66.7512C257.194 66.8062 256.84 66.9902 256.542 67.2824C256.304 67.5387 256.093 67.8325 255.913 68.156C255.353 69.0988 254.83 70.2379 255.008 71.3627C255.019 71.4847 255.05 71.6014 255.099 71.706C255.147 71.8106 255.212 71.901 255.289 71.9719C255.407 72.0457 255.537 72.0839 255.67 72.0835C256.192 72.1287 256.716 72.1338 257.241 72.0987C257.563 72.0772 257.943 71.9954 258.099 71.6292C258.304 71.1478 257.963 70.5524 258.122 70.0458C258.217 69.8214 258.349 69.624 258.509 69.4675C258.588 69.3885 258.652 69.2881 258.696 69.174C258.741 69.0599 258.764 68.9354 258.764 68.8103C258.74 68.5638 258.461 68.4006 258.337 68.602" fill="white"/>
<path d="M261.32 64.0663C260.869 63.8899 260.394 63.8095 259.916 63.8285C259.812 63.8153 259.705 63.8361 259.607 63.8892C259.509 63.9659 259.434 64.0807 259.391 64.2155C259.255 64.6154 259.241 65.0592 259.351 65.4586C259.461 65.858 259.687 66.1836 259.985 66.3706C260.15 66.4353 260.306 66.533 260.445 66.6601C260.81 67.0909 260.484 67.8768 260.503 68.5214C260.525 69.2452 261.016 69.8944 260.853 70.5989C260.725 71.1538 260.215 71.5572 260.241 72.1264C260.269 72.7226 260.84 72.9514 261.303 73.0398C261.569 73.1242 261.851 73.108 262.116 72.9933C262.39 72.7945 262.6 72.4772 262.706 72.1027C262.961 71.3934 263.109 70.6343 263.142 69.8664C263.17 69.5184 263.132 69.1704 263.03 68.8525C262.91 68.5973 262.774 68.3558 262.623 68.1303C261.845 66.7232 262.963 64.8254 261.32 64.0663Z" fill="white"/>
</mask>
<g mask="url(#mask0_4214_4747)">
<path d="M323.982 163.545C317.06 174.937 308.121 184.951 297.673 193.013C287.225 201.075 275.474 207.028 263.091 210.532C250.708 214.036 237.935 215.022 225.503 213.434C213.071 211.846 201.222 207.715 190.634 201.277C146.104 174.212 133.606 113.437 162.72 65.5347C168.375 56.2122 175.39 47.7979 183.496 40.6155C199.354 26.6055 218.755 17.8304 238.956 15.5312C259.157 13.232 279.136 17.525 296.067 27.8031C310.667 36.6694 322.403 49.6342 330.022 65.3136C337.641 80.993 340.857 98.7983 339.327 116.829C338.958 121.283 338.297 125.725 337.35 130.125C337.217 130.737 337.08 131.346 336.935 131.958L336.932 131.962C336.306 134.657 335.567 137.34 334.715 140.011C332.095 148.233 328.488 156.142 323.982 163.545Z" fill="url(#paint8_radial_4214_4747)"/>
</g>
<g filter="url(#filter1_d_4214_4747)">
<path d="M163.502 63.7979C145.837 68.1954 132.532 75.5561 126.166 85.3103C119.8 95.0646 120.135 106.618 127.131 118.567C134.128 130.515 147.483 142.343 165.574 152.612C183.664 162.881 205.71 171.147 229.03 176.407C252.349 181.667 275.937 183.692 296.925 182.237C317.912 180.783 335.395 175.91 347.246 168.213C359.097 160.515 364.807 150.325 363.679 138.88C362.552 127.436 353.743 115.279 340.002 103.798C340.002 107.298 340.002 107.798 340.002 110.798C349.085 119.847 354.758 128.828 355.631 137.69C356.683 148.373 351.354 157.886 340.292 165.071C329.229 172.256 312.909 176.805 293.318 178.163C273.727 179.52 251.709 177.63 229.941 172.72C208.173 167.811 187.594 160.094 170.707 150.508C153.821 140.923 141.353 129.882 134.823 118.729C128.292 107.575 127.979 96.7901 133.921 87.6849C138.749 80.2885 147.535 74.2597 159.501 70.0569C161.001 67.2978 162.002 65.2979 163.502 63.7979Z" fill="#FFAA35"/>
<path d="M159.835 66.3338C144.363 70.7658 133.005 77.5759 127.422 86.1296C121.432 95.3072 121.651 106.238 128.426 117.809C135.238 129.443 148.347 141.108 166.314 151.307C184.259 161.493 206.163 169.712 229.359 174.944C252.555 180.176 275.997 182.184 296.821 180.741C317.669 179.296 334.871 174.462 346.429 166.955C357.939 159.479 363.245 149.776 362.186 139.027C361.184 128.855 353.707 117.812 341.503 107.06C341.503 108.034 341.503 108.843 341.503 110.18C350.14 118.888 355.843 127.734 357.022 136.664L357.124 137.543C358.245 148.922 352.513 158.923 341.109 166.33C329.753 173.705 313.151 178.291 293.421 179.659C273.666 181.028 251.501 179.121 229.61 174.183C207.72 169.246 186.999 161.481 169.967 151.813C152.957 142.158 140.243 130.954 133.528 119.487C126.882 108.136 126.361 96.9036 132.374 87.3205L132.665 86.8645C137.661 79.2092 146.587 73.0957 158.456 68.8384C158.934 67.9535 159.384 67.1175 159.835 66.3338Z" stroke="url(#paint9_linear_4214_4747)" stroke-width="3"/>
</g>
<path d="M159.835 66.3338C144.363 70.7658 133.005 77.5759 127.422 86.1296C121.432 95.3072 121.651 106.238 128.426 117.809C135.238 129.443 148.347 141.108 166.314 151.307C184.259 161.493 206.163 169.712 229.359 174.944C252.555 180.176 275.997 182.184 296.821 180.741C317.669 179.296 334.871 174.462 346.429 166.955C357.939 159.479 363.245 149.776 362.186 139.027C361.184 128.855 353.707 117.812 341.503 107.06C341.503 108.034 341.503 108.843 341.503 110.18C350.14 118.888 355.843 127.734 357.022 136.664L357.124 137.543C358.245 148.922 352.513 158.923 341.109 166.33C329.753 173.705 313.151 178.291 293.421 179.659C273.666 181.028 251.501 179.121 229.61 174.183C207.72 169.246 186.999 161.481 169.967 151.813C152.957 142.158 140.243 130.954 133.528 119.487C126.882 108.136 126.361 96.9036 132.374 87.3205L132.665 86.8645C137.661 79.2092 146.587 73.0957 158.456 68.8384C158.934 67.9535 159.384 67.1175 159.835 66.3338Z" fill="#FE9D3F" stroke="url(#paint10_linear_4214_4747)" stroke-width="3"/>
<g filter="url(#filter2_d_4214_4747)">
<path d="M156.003 162.006C150.944 180.209 150.921 196.182 156.332 206.575C161.744 216.969 172.146 222.084 186.273 221.298C200.4 220.512 217.644 213.859 235.907 202.149C254.17 190.439 272.664 174.176 289.141 155.338C305.619 136.5 319.368 115.899 328.717 96.0404C338.066 76.1823 342.612 57.9228 341.802 43.4829C340.992 29.0431 334.861 19.0452 324.155 14.7054C313.448 10.3656 298.135 12.839 281.003 20.0063C284.503 21.0063 284.003 21.0063 287.503 22.4832C299.983 18.5278 310.801 18.1685 319.022 21.5006C329.016 25.5517 334.739 34.8843 335.495 48.3633C336.251 61.8423 332.007 78.8868 323.28 97.4236C314.553 115.96 301.719 135.191 286.338 152.775C270.957 170.36 253.693 185.541 236.646 196.472C219.598 207.403 203.502 213.613 190.315 214.346C177.127 215.08 167.417 210.305 162.366 200.603C158.267 192.732 157.17 181.892 159.503 169.006C158.503 167.006 158.003 166.006 156.003 162.006Z" fill="#FFAA35"/>
<path d="M285.323 19.8921C300.804 13.9568 314.214 12.2939 323.592 16.0952C333.614 20.1577 339.517 29.5301 340.305 43.5669C341.095 57.6617 336.654 75.6622 327.36 95.4019C318.078 115.117 304.41 135.603 288.013 154.35C271.615 173.098 253.224 189.263 235.097 200.886C216.945 212.525 199.956 219.035 186.189 219.8C172.5 220.562 162.738 215.631 157.662 205.882C152.882 196.7 152.467 182.672 156.449 166.253C157.047 167.448 157.444 168.244 157.939 169.235C155.758 181.698 156.72 192.435 160.642 200.512L161.035 201.296C166.422 211.643 176.773 216.602 190.397 215.844C203.945 215.091 220.296 208.737 237.455 197.735C254.638 186.717 272.007 171.438 287.467 153.763C302.927 136.088 315.844 116.742 324.638 98.063C333.421 79.4077 337.768 62.1028 336.992 48.2788C336.226 34.614 330.448 24.7514 320.082 20.3179L319.585 20.1108C311.038 16.6464 300.023 17.0315 287.587 20.8862C286.538 20.4368 285.888 20.1393 285.323 19.8921Z" stroke="url(#paint11_linear_4214_4747)" stroke-width="3"/>
</g>
<path d="M285.321 19.8923C300.802 13.957 314.212 12.2941 323.59 16.0955C333.612 20.1579 339.515 29.5304 340.303 43.5671C341.093 57.662 336.652 75.6625 327.358 95.4021C318.076 115.118 304.408 135.603 288.011 154.35C271.613 173.098 253.222 189.263 235.095 200.886C216.943 212.525 199.954 219.035 186.188 219.801C172.498 220.562 162.736 215.631 157.66 205.883C152.88 196.701 152.465 182.672 156.447 166.254C157.045 167.449 157.442 168.245 157.938 169.235C155.756 181.698 156.718 192.435 160.64 200.512L161.033 201.297C166.42 211.643 176.771 216.602 190.396 215.844C203.943 215.091 220.294 208.737 237.453 197.735C254.636 186.717 272.005 171.438 287.465 153.763C302.925 136.088 315.842 116.742 324.636 98.0632C333.419 79.4079 337.766 62.1031 336.99 48.2791C336.224 34.6142 330.446 24.7516 320.08 20.3181L319.583 20.1111C311.036 16.6466 300.021 17.0317 287.585 20.8865C286.536 20.4371 285.886 20.1395 285.321 19.8923Z" fill="#FFAA35" stroke="url(#paint12_linear_4214_4747)" stroke-width="3"/>
</g>
</g>
<defs>
<filter id="filter0_d_4214_4747" x="120.425" y="11.358" width="256.593" height="223.219" filterUnits="userSpaceOnUse" color-interpolation-filters="sRGB">
<feFlood flood-opacity="0" result="BackgroundImageFix"/>
<feColorMatrix in="SourceAlpha" type="matrix" values="0 0 0 0 0 0 0 0 0 0 0 0 0 0 0 0 0 0 127 0" result="hardAlpha"/>
<feOffset dx="6" dy="6"/>
<feGaussianBlur stdDeviation="3.6"/>
<feComposite in2="hardAlpha" operator="out"/>
<feColorMatrix type="matrix" values="0 0 0 0 0 0 0 0 0 0 0 0 0 0 0 0 0 0 0.6 0"/>
<feBlend mode="normal" in2="BackgroundImageFix" result="effect1_dropShadow_4214_4747"/>
<feBlend mode="normal" in="SourceGraphic" in2="effect1_dropShadow_4214_4747" result="shape"/>
</filter>
<filter id="filter1_d_4214_4747" x="117.625" y="63.7979" width="250.193" height="126.898" filterUnits="userSpaceOnUse" color-interpolation-filters="sRGB">
<feFlood flood-opacity="0" result="BackgroundImageFix"/>
<feColorMatrix in="SourceAlpha" type="matrix" values="0 0 0 0 0 0 0 0 0 0 0 0 0 0 0 0 0 0 127 0" result="hardAlpha"/>
<feOffset dy="4"/>
<feGaussianBlur stdDeviation="2"/>
<feComposite in2="hardAlpha" operator="out"/>
<feColorMatrix type="matrix" values="0 0 0 0 0 0 0 0 0 0 0 0 0 0 0 0 0 0 0.25 0"/>
<feBlend mode="normal" in2="BackgroundImageFix" result="effect1_dropShadow_4214_4747"/>
<feBlend mode="normal" in="SourceGraphic" in2="effect1_dropShadow_4214_4747" result="shape"/>
</filter>
<filter id="filter2_d_4214_4747" x="148.24" y="12.558" width="197.654" height="216.819" filterUnits="userSpaceOnUse" color-interpolation-filters="sRGB">
<feFlood flood-opacity="0" result="BackgroundImageFix"/>
<feColorMatrix in="SourceAlpha" type="matrix" values="0 0 0 0 0 0 0 0 0 0 0 0 0 0 0 0 0 0 127 0" result="hardAlpha"/>
<feOffset dy="4"/>
<feGaussianBlur stdDeviation="2"/>
<feComposite in2="hardAlpha" operator="out"/>
<feColorMatrix type="matrix" values="0 0 0 0 0 0 0 0 0 0 0 0 0 0 0 0 0 0 0.25 0"/>
<feBlend mode="normal" in2="BackgroundImageFix" result="effect1_dropShadow_4214_4747"/>
<feBlend mode="normal" in="SourceGraphic" in2="effect1_dropShadow_4214_4747" result="shape"/>
</filter>
<linearGradient id="paint0_linear_4214_4747" x1="243.274" y1="269" x2="243.274" y2="387.5" gradientUnits="userSpaceOnUse">
<stop stop-color="#FF9C28"/>
<stop offset="1" stop-color="#E97E00"/>
</linearGradient>
<linearGradient id="paint1_linear_4214_4747" x1="243.274" y1="269" x2="243.274" y2="387.5" gradientUnits="userSpaceOnUse">
<stop stop-color="#FF9C28"/>
<stop offset="1" stop-color="#E97E00"/>
</linearGradient>
<linearGradient id="paint2_linear_4214_4747" x1="243.274" y1="269" x2="243.274" y2="387.5" gradientUnits="userSpaceOnUse">
<stop stop-color="#FF9C28"/>
<stop offset="1" stop-color="#E97E00"/>
</linearGradient>
<linearGradient id="paint3_linear_4214_4747" x1="243.274" y1="269" x2="243.274" y2="387.5" gradientUnits="userSpaceOnUse">
<stop stop-color="#FF9C28"/>
<stop offset="1" stop-color="#E97E00"/>
</linearGradient>
<linearGradient id="paint4_linear_4214_4747" x1="243.274" y1="269" x2="243.274" y2="387.5" gradientUnits="userSpaceOnUse">
<stop stop-color="#FF9C28"/>
<stop offset="1" stop-color="#E97E00"/>
</linearGradient>
<linearGradient id="paint5_linear_4214_4747" x1="243.274" y1="269" x2="243.274" y2="387.5" gradientUnits="userSpaceOnUse">
<stop stop-color="#FF9C28"/>
<stop offset="1" stop-color="#E97E00"/>
</linearGradient>
<linearGradient id="paint6_linear_4214_4747" x1="243.274" y1="269" x2="243.274" y2="387.5" gradientUnits="userSpaceOnUse">
<stop stop-color="#FF9C28"/>
<stop offset="1" stop-color="#E97E00"/>
</linearGradient>
<linearGradient id="paint7_linear_4214_4747" x1="162.468" y1="65.9456" x2="323.258" y2="164.716" gradientUnits="userSpaceOnUse">
<stop stop-color="#135632"/>
<stop offset="1" stop-color="#05301F"/>
</linearGradient>
<radialGradient id="paint8_radial_4214_4747" cx="0" cy="0" r="1" gradientUnits="userSpaceOnUse" gradientTransform="translate(200.004 77.2979) rotate(34.6429) scale(150.998 162.316)">
<stop offset="0.673077" stop-color="white"/>
<stop offset="0.961538" stop-color="#464646"/>
</radialGradient>
<linearGradient id="paint9_linear_4214_4747" x1="371.385" y1="110.206" x2="287.195" y2="253.543" gradientUnits="userSpaceOnUse">
<stop offset="0.119454" stop-color="#FF9542"/>
<stop offset="0.726425" stop-color="#FBBE36"/>
</linearGradient>
<linearGradient id="paint10_linear_4214_4747" x1="371.385" y1="110.206" x2="287.195" y2="253.543" gradientUnits="userSpaceOnUse">
<stop offset="0.119454" stop-color="#FF9542"/>
<stop offset="0.726425" stop-color="#FBBE36"/>
</linearGradient>
<linearGradient id="paint11_linear_4214_4747" x1="152.24" y1="14.1218" x2="341.894" y2="219.813" gradientUnits="userSpaceOnUse">
<stop offset="0.119454" stop-color="#FF9542"/>
<stop offset="0.726425" stop-color="#FBBE36"/>
</linearGradient>
<linearGradient id="paint12_linear_4214_4747" x1="152.238" y1="14.122" x2="341.892" y2="219.813" gradientUnits="userSpaceOnUse">
<stop offset="0.119454" stop-color="#FF9542"/>
<stop offset="0.726425" stop-color="#FBBE36"/>
</linearGradient>
<clipPath id="clip0_4214_4747">
<rect width="283" height="248" fill="white" transform="translate(102)"/>
</clipPath>
</defs>
</svg>
