<svg width="423" height="418" viewBox="0 0 423 418" fill="none" xmlns="http://www.w3.org/2000/svg">
<path d="M205.161 0.0288799L205 418H152.441C142.577 418 134.476 410.396 132.123 400.816C129.356 389.543 124.987 378.346 119.66 366.029C113.26 351.229 97.3268 349.862 90.1602 351.029C79.4935 352.529 55.7602 354.629 46.1602 351.029C34.1602 346.529 31.6602 339.529 29.6602 333.029C27.6602 326.529 31.6602 314.529 31.6602 306.029C31.6602 297.529 24.6602 295.529 24.1602 289.529C23.7602 284.729 26.9935 280.529 28.6602 279.029C28.3268 278.695 27.0602 277.629 24.6602 276.029C17.8602 271.629 19.8268 264.529 21.6602 261.529C22.6602 259.029 24.5602 252.829 24.1602 248.029C23.6602 242.029 20.6604 243.029 7.66037 237.029C-2.73963 232.229 -0.339628 221.362 2.16037 216.529C5.9937 211.195 15.4604 198.029 22.6604 188.029C31.6604 175.529 38.1604 163.529 39.1604 156.029C40.1604 148.529 35.6613 148.529 34.6613 137.029C33.8613 127.829 38.328 110.195 40.6613 102.529C43.1613 90.5288 56.7613 59.7289 91.1613 32.5289C125.561 5.32888 181.495 -0.47112 205.161 0.0288799Z" fill="white"/>
<g filter="url(#filter0_d_4214_4738)">
<path fill-rule="evenodd" clip-rule="evenodd" d="M105.999 132.154C97.5987 128.954 94.1654 117.821 93.4987 112.654C99.8977 126.254 106 128.155 108.5 128.155C110.5 128.155 113.6 125.455 114 112.654C114.4 99.8541 105.833 92.9879 101.5 91.1548C108.7 90.7548 112.5 94.9881 113.5 97.1548C116.5 85.6548 121 80.6548 129 76.1548C135.4 72.5548 137 67.3215 137 65.1548C137 61.5548 135 59.3215 134 58.6548C133.734 58.4777 133.49 58.3006 133.251 58.1276C131.465 56.8354 129.996 55.7729 122.5 56.6548C114.555 57.5895 108.167 67.9881 106 73.6548C105.5 66.6548 109.5 60.6548 110.5 59.1548C111.5 57.6548 117.5 51.6548 126 51.6548C132.8 51.6548 137.167 54.3215 138.5 55.6548C139.333 53.9881 141.7 50.4548 144.5 49.6548C147.3 48.8548 152 46.9881 154 46.1548C153.333 46.9881 151 49.3548 147 52.1548C142 55.6548 141.5 59.1548 141 67.6548C140.644 73.7026 138.517 75.1942 133.897 78.4331C132.024 79.7464 129.741 81.3469 127 83.6548C119.4 90.0548 117.5 97.6548 117.5 100.655C117.5 105.321 118 114.755 120 115.155C122 115.555 128.167 111.321 131 109.155C145.793 100.638 155.361 98.149 161.146 96.6442C161.814 96.4706 162.431 96.31 163 96.1548C168.5 94.6548 176.5 92.6548 183 92.1548C188.2 91.7548 189.5 87.9881 189.5 86.1548V65.6548C189.5 62.8215 189 55.7548 187 50.1548C185.025 44.6256 179.964 44.8156 177.59 45.6233C179.098 45.075 181.5 43.0758 181.5 39.1547C181.5 31.1547 173.5 30.155 171.5 30.1548C168.337 30.1545 164.5 31.1548 165.5 33.1548C166.259 34.6727 166.667 38.9881 166.5 41.1548C166 50.1548 160.333 55.4881 157 57.1548C159.8 51.9548 161.167 43.9881 161.5 40.6547C161.833 38.1547 161.7 32.7547 158.5 31.1547C154.5 29.1547 146 30.1547 142.5 31.1547C139 32.1547 137 34.1547 139.5 35.6547C141.5 36.8547 140.667 39.488 140 40.6547C139.667 39.488 137.1 37.0545 129.5 36.6545C121.9 36.2545 114.667 42.1545 112 45.1544C102.2 43.7544 94.1416 51.9373 89.8588 56.2865C89.553 56.597 89.2665 56.8879 89 57.1544C85.8 60.3544 87.6667 63.8211 89 65.1544C81.4365 65.6271 77.8953 69.2283 76.2638 70.8875C76.1696 70.9833 76.0818 71.0726 76 71.1544C74.5 72.6544 68.5 78.6544 68.5 86.1544C68.5 91.859 70.3079 95.0024 71.3454 96.0143C70.5157 95.3307 69.1259 95.1544 68.5 95.1544C66.6667 95.1544 63 96.7544 63 103.154C63 109.554 67.3332 113.154 69.4998 114.154C67.9998 113.654 62.9998 115.654 63.4998 121.154C63.9998 126.654 66.9998 130.654 70.4998 132.154C73.2998 133.354 76.6665 131.321 77.9998 130.154L77.4987 131.654C76.4987 134.654 77.0987 141.054 87.4987 142.654C98.6824 144.375 100.985 141.285 102.365 139.433C102.589 139.132 102.789 138.864 102.999 138.654C104.199 137.454 105.499 133.821 105.999 132.154ZM82 113.155C81.2 121.155 84.3333 124.822 86 125.655C75.5 121.655 76.1277 113.368 78 109.155C78.8898 107.153 80.1754 105.744 81.2405 104.578C82.5695 103.122 83.5551 102.042 83 100.655C80.5 95.913 80 89.6548 82.5 84.1548C84.5 79.7548 90.6658 75.9881 93.4987 74.6548C93.4987 62.2548 101.166 58.4881 105 58.1548C102.6 59.3548 100.667 62.3215 100 63.6548C96.4 70.4548 99.1667 77.4881 101 80.1548C100.333 79.9881 98.2 79.7548 95 80.1548C91 80.6548 84.5 84.1548 85 93.1548C85.4 100.355 89.8333 102.155 92 102.155C89 102.488 82.8 105.154 82 113.155ZM154.163 82.3211C154.105 82.7967 154.051 83.245 154 83.6548C153.5 87.6548 152 95.1548 145 97.1548C139.4 98.7548 135 98.1548 133.5 97.6548C137.167 96.9881 145.3 94.1548 148.5 88.1548C150.2 84.9672 150.997 82.5022 151.697 80.3375C152.643 77.4088 153.413 75.0298 156 72.1548C155.125 74.3418 154.564 78.9982 154.163 82.3211ZM173.5 71.1548C171.326 63.0017 173.167 57.3215 175 53.1548C172.333 54.9881 167.4 61.1548 169 71.1548C170.6 81.1548 177.333 83.9881 180.5 84.1548C180.322 83.8882 180.05 83.5427 179.711 83.1126C178.142 81.1226 175.145 77.322 173.5 71.1548Z" fill="#F0AE1A"/>
</g>
<g filter="url(#filter1_d_4214_4738)">
<path fill-rule="evenodd" clip-rule="evenodd" d="M189.001 201.155H181.001C180.501 198.321 179.401 191.955 179.001 189.155C178.501 185.655 175.501 177.655 170.001 173.655C165.601 170.455 158.501 165.655 155.501 163.655L166.501 155.155C161.501 156.488 151.001 159.355 149.001 160.155C146.501 161.155 138.501 162.655 132.501 162.655C128.835 162.321 120.201 160.355 115.001 155.155C108.501 148.655 107.001 145.155 108.001 138.155C109.001 131.155 123.5 119.655 125 118.655C126.5 117.655 151 101.655 174 100.155C184 99.7548 188.5 99.6548 189.5 99.6548V132.655C188.333 135.155 182.8 140.255 170 140.655C169.681 140.655 169.261 140.667 168.755 140.683C166.088 140.763 161.044 140.916 156 139.655C151.2 138.455 145 141.488 142.5 143.155C141 144.321 136.7 146.155 131.5 144.155C126.3 142.155 127.667 138.321 129 136.655C126.667 138.655 123.5 143.755 129.5 148.155C135.5 152.555 146 147.655 150.5 144.655C151.333 144.155 154.3 143.655 159.5 145.655C166 148.155 177 146.655 179.5 145.655C181.5 144.855 184.667 143.655 186 143.155C186.5 143.488 187.7 144.455 188.5 145.655C189.3 146.855 189.5 150.488 189.5 152.155L189.001 201.155ZM157.5 120.155C151.1 120.155 145.833 124.821 144 127.155C149 125.155 152.5 124.155 157.5 124.155C160 124.155 162.5 124.155 168.5 125.655C173.56 126.92 177 121.155 178 118.655C177.667 119.155 176 120.455 172 121.655C169.343 122.452 167.675 121.978 165.494 121.359C163.571 120.814 161.249 120.155 157.5 120.155Z" fill="#F0AE1A"/>
</g>
<g clip-path="url(#clip0_4214_4738)">
<circle cx="209.5" cy="208.5" r="208.5" fill="url(#paint0_linear_4214_4738)"/>
<path d="M308 392.5C256.468 418.825 204 418.5 204 418.5L205 356V279.434V209V135V60.9997V-8.27014e-06C205 -8.27014e-06 249.766 -2.16367 297 18.5001C317.5 27.4682 337.75 42.1898 356.5 60.5001C371.768 75.4096 384.83 92.5246 393.5 109C420.011 159.379 418 209 418 209C418 209 419.277 253.35 398.5 299C389.29 319.236 374.686 338.265 355.5 357C340.239 371.903 324.659 383.989 308 392.5Z" fill="url(#paint1_linear_4214_4738)"/>
<mask id="mask0_4214_4738" style="mask-type:alpha" maskUnits="userSpaceOnUse" x="-4" y="-7" width="422" height="425">
<path d="M418 209C418 325 328 418 205 418C82 418 -4 323.637 -4 206C-4 88.3633 90.4679 -7 207 -7C323.532 -7 418 93 418 209Z" fill="#004AAD"/>
</mask>
<g mask="url(#mask0_4214_4738)">
<g filter="url(#filter2_d_4214_4738)">
<path d="M172.263 46.6953C171.953 43.8522 171.327 41.0678 170.4 38.412C170.282 37.9098 170.075 37.4417 169.793 37.0374C169.51 36.6332 169.158 36.3018 168.759 36.0643C168.226 35.9033 167.667 35.896 167.131 36.0431L158.771 37.529C158.071 37.5661 157.401 37.8685 156.863 38.3899C155.775 39.72 156.847 41.8618 156.813 43.6968C156.776 45.7602 155.197 47.4351 153.486 47.9893C151.739 48.3993 149.936 48.3734 148.199 47.9131L136.509 45.803C139.951 44.5263 143.016 42.151 145.352 38.9482C146.891 36.8314 147.709 32.8794 145.486 31.877C144.825 31.6664 144.136 31.6022 143.455 31.6876C138.159 31.7354 133.991 26.599 129.033 24.4357C125.859 23.1406 122.415 23.0442 119.191 24.1604C115.968 25.2765 113.131 27.548 111.086 30.65L117.313 30.9988C117.899 30.9612 118.48 31.1412 118.972 31.5126C120.337 32.815 118.64 35.3167 118.832 37.3562C119.082 40.0059 122.111 40.5717 124.394 40.8396C126.678 41.1075 129.574 43.2623 128.476 45.6028C117 50.1941 105.322 36.6277 93.2703 38.2977C90.22 38.7204 87.3397 40.1123 84.3616 40.9875C66.1694 46.3339 47.3618 32.069 28.7775 35.09C24.6459 35.9082 20.5853 37.1521 16.6438 38.8071C14.1145 39.7718 11.4762 40.8143 9.63837 43.0515C7.80055 45.2887 7.10109 49.1148 8.84214 51.4541C4.04336 51.9131 -0.787485 51.3797 -5.42587 49.8788C-4.17157 50.6886 -3.12809 51.8758 -2.40498 53.3156C-1.68187 54.7554 -1.3058 56.3948 -1.31624 58.0617C-8.80897 59.4809 -16.1033 62.0643 -23.003 65.7425C-21.7153 68.2299 -20.2112 70.5572 -18.5144 72.6879L-28 79.7664C-24.7953 80.7042 -23.1384 85.7801 -25.002 88.9502C-21.6791 87.2331 -19.6198 82.7912 -16.0665 81.8906C-13.7386 81.3006 -11.3699 82.4067 -9.16157 83.4458C-6.95323 84.4849 -4.52603 85.4925 -2.23992 84.7127C0.0461924 83.9328 1.7324 80.4896 0.279743 78.2959C10.0512 74.9844 20.1497 73.1517 30.3251 72.8434C31.1101 72.729 31.9062 72.9045 32.6006 73.345C33.9252 74.4125 33.5767 76.718 33.5053 78.5888C33.434 80.4595 34.6892 82.9182 36.1287 82.075C34.4352 83.7807 35.8829 86.9919 37.5077 88.7856C39.1324 90.5794 41.0907 93.0544 40.096 95.3877C39.8364 95.9966 39.3961 96.4839 39.1463 97.0984C38.4089 98.9122 39.5796 101.027 40.9605 102.231C42.3413 103.436 44.0327 104.278 44.9919 105.946C45.951 107.614 45.5155 110.533 43.8003 110.766L38.9251 103.576C37.2595 105.582 36.1176 108.096 35.6319 110.825C40.8015 115.734 41.5792 125.726 37.2511 131.632C35.0394 134.65 31.8941 136.484 29.149 138.838C26.4039 141.192 23.8638 144.545 23.8707 148.508C23.8826 155.356 23.4009 161.717 25.61 168.066C29.6835 179.772 34.3865 191.169 39.6913 202.19C41.0843 205.084 42.8847 208.255 45.7067 208.754C42.1402 198.669 38.9297 188.427 36.0751 178.028C37.9343 178.036 40.0829 178.208 41.1729 179.958C42.0754 181.406 41.8815 183.376 42.162 185.135C42.5187 186.838 43.1135 188.462 43.9227 189.942L60.9536 225.181C62.3654 228.102 63.9849 231.237 66.6832 232.42C68.4084 233.177 70.4043 233.034 71.9922 234.123C73.2368 234.977 74.0751 236.492 75.3439 237.296C78.9315 239.569 83.9205 235.209 87.2733 237.923C88.2319 238.699 88.8418 239.932 89.7251 240.821C92.8217 243.936 97.9013 241.852 101.476 244.176C103.78 245.673 104.974 248.668 106.203 251.382C109.281 258.18 114.261 264.841 120.857 265.382C122.929 265.552 125.046 265.096 127.071 265.631C129.097 266.167 131.091 268.22 130.766 270.603C130.208 274.688 131.946 279.162 131.479 283.263C130.629 290.733 121.507 294.015 120.724 301.495C120.552 303.133 120.821 304.823 120.485 306.426C120.074 308.39 118.803 309.99 118.352 311.943C117.497 315.644 119.779 319.327 122.287 321.816C124.794 324.306 127.785 326.453 129.156 329.938C130.605 333.622 129.894 337.917 130.365 341.93C131.394 350.69 137.908 357.185 144.612 361.372C146.655 362.648 148.848 363.884 150.17 366.097C151.896 368.986 151.724 372.794 152.3 376.246C153.711 384.7 159.838 391.665 160.012 400.274C160.136 406.393 157.207 411.944 155.458 417.717C153.818 423.249 153.225 429.126 153.718 434.948C154.212 440.77 155.781 446.4 158.318 451.454C159.626 454.021 161.192 456.44 162.117 459.223C163.769 464.188 163.233 469.832 164.756 474.852C166.77 481.489 172.303 486.971 171.773 493.981C174.285 500.04 179.832 503.018 185.409 504.821L195.406 508.053C197.32 508.672 199.32 509.296 201.269 508.848C203.218 508.4 205.078 506.52 205.028 504.213C200.126 502.928 195.066 501.563 191.025 498.093C186.984 494.624 184.216 488.445 185.749 482.886C186.46 480.309 187.973 477.332 186.535 475.202C185.712 473.983 184.206 473.664 183.277 472.552C181.829 470.816 182.327 467.901 183.368 465.808C184.409 463.716 185.914 461.846 186.334 459.478C186.546 458.154 186.405 456.786 185.928 455.558C185.452 454.33 184.664 453.3 183.669 452.607C185.523 451.794 187.208 450.538 188.617 448.919C189.918 447.193 190.519 444.533 189.496 442.57C192.535 443.018 196.124 443.238 198.119 440.537C199.712 438.38 199.603 435.156 198.973 432.41C198.344 429.663 197.28 426.996 197.246 424.154C204.258 424.54 211.285 424.264 218.258 423.327C217.25 419.382 214.959 416.049 211.87 414.034C215.028 413.413 217.905 409.021 218.903 405.486C219.901 401.951 219.646 398.1 219.03 394.449C218.793 393.509 218.76 392.515 218.935 391.557C219.291 390.241 220.404 389.438 221.434 388.75L237.11 378.293C238.045 377.749 238.893 377.022 239.617 376.144C241.259 373.903 241.016 370.52 240.175 367.744C239.334 364.968 237.987 362.358 237.663 359.439C236.694 350.71 244.739 344.447 247.454 336.23C248.519 333.006 248.736 329.501 248.942 326.055C249.164 322.354 249.18 318.056 246.734 315.671C244.389 313.385 240.725 313.895 238.271 311.768C236.022 309.819 235.245 306.032 232.788 304.458C230.556 303.028 227.757 303.937 225.275 303.265C220.904 302.08 218.154 296.229 213.69 295.688C211.172 295.382 208.321 296.812 206.257 295.108C204.438 293.607 204.365 290.59 204.019 288.03C203.412 284.05 201.77 280.383 199.314 277.521C196.858 274.659 193.706 272.74 190.283 272.022C187.686 271.539 184.859 271.722 182.65 270.065C180.413 268.386 179.388 265.244 177.631 262.92C174.799 259.174 170.339 257.843 166.161 256.702L149.166 252.061C146.149 251.237 142.261 250.8 140.642 253.87C140.163 255.039 139.823 256.278 139.633 257.554C139.027 259.861 137.806 261.886 136.146 263.337C134.487 264.788 132.474 265.59 130.397 265.629C128.973 262.807 126.666 260.733 123.956 259.84C122.233 259.282 120.389 259.22 118.745 258.399C117.85 257.892 117.053 257.178 116.404 256.3C115.755 255.423 115.267 254.401 114.97 253.297C114.672 252.192 114.572 251.029 114.675 249.879C114.778 248.728 115.082 247.614 115.569 246.604C116.549 244.578 116.927 242.233 116.646 239.933C116.364 237.632 115.439 235.502 114.012 233.873C111.122 230.859 106.941 230.131 103.066 230.433C102.051 227.86 103.748 224.958 105.577 223.089C107.405 221.219 109.626 219.381 110.024 216.59C110.651 212.199 105.827 208.863 102.165 210.173C98.5021 211.482 96.1645 215.614 94.6193 219.687C93.7327 222.024 92.979 224.485 91.5805 226.456C90.182 228.426 87.9299 229.837 85.7997 229.205C82.784 228.31 81.6193 224.148 80.9518 220.616C80.0563 215.878 79.1556 211.075 79.3433 206.229C79.5309 201.383 80.9373 196.407 84.0137 193.127C89.0268 187.781 96.7172 188.305 103.483 189.158C101.884 187.066 102.279 183.54 103.99 181.571C104.892 180.64 105.977 179.978 107.15 179.643C108.323 179.308 109.548 179.311 110.72 179.651C112.759 180.144 114.595 181.419 115.934 183.272C117.857 185.995 118.403 189.671 119.856 192.761C121.31 195.852 124.577 198.488 127.252 196.83C129.562 195.397 129.929 191.677 129.354 188.709C128.779 185.742 127.558 182.857 127.766 179.825C128.163 174.039 133.326 170.557 137.882 168.175C142.438 165.792 147.655 162.588 148.377 156.845C148.402 155.72 148.584 154.608 148.918 153.552C149.423 152.62 150.125 151.853 150.957 151.324C164.254 141.117 177.772 130.785 192.97 125.208C193.761 124.918 193.853 125.241 194.659 125.013C195.787 124.256 195.04 122.162 193.958 121.318C192.877 120.474 191.432 119.827 191.158 118.348C190.956 117.261 191.508 116.193 191.651 115.094C192.003 112.392 189.22 109.897 187.059 110.977C185.838 109.099 188.253 106.917 190.207 106.292C196.072 104.417 202.092 103.275 208.166 102.885C208.867 102.755 209.585 102.897 210.21 103.288C211.23 104.109 211.1 105.992 210.377 107.163C209.654 108.335 208.529 109.071 207.628 110.062C206.644 111.176 205.942 112.582 205.599 114.128C205.256 115.674 205.284 117.299 205.682 118.827C208.853 120.701 212.3 122.629 215.812 121.969C219.324 121.309 222.441 116.726 220.791 113.065C219.253 109.656 214.636 108.888 213.842 105.152C212.912 100.778 218.243 96.8872 217.042 92.6031C216.516 90.7265 214.906 89.6221 213.671 88.2673C212.212 86.6061 211.219 84.4713 210.824 82.1431C210.428 79.8149 210.648 77.4021 211.454 75.2217C209.442 75.6329 207.374 75.4776 205.424 74.7687C203.474 74.0599 201.699 72.8183 200.247 71.148C197.566 68.0056 195.428 63.0486 191.621 63.1892C188.128 63.3182 185.119 68.0519 181.853 66.6077C181.049 66.2524 180.202 65.5293 179.423 65.953C179.168 66.1454 178.954 66.4027 178.797 66.7054C178.64 67.0081 178.544 67.3483 178.517 67.7002C177.687 72.3098 179.115 77.5619 176.952 81.5451C174.599 85.8797 169.154 86.4806 166.301 90.3893C164.752 92.5111 164.152 95.3702 162.728 97.6071C161.305 99.8441 158.283 101.266 156.574 99.3169C157.414 97.3118 157.643 95.0351 157.225 92.8589C156.806 90.6828 155.765 88.7359 154.27 87.3365C152.684 86.1344 150.974 85.1683 149.18 84.4609C147.176 83.4756 145.27 82.2414 143.494 80.7799C142.605 80.1567 141.882 79.2585 141.407 78.1857C141.031 76.8422 141.082 75.3869 141.55 74.0831C142.416 71.1979 143.944 68.6423 145.97 66.6923C147.995 64.7424 150.441 63.4721 153.042 63.0185C155.317 62.6591 157.965 62.7857 159.47 60.7724C160.267 59.7071 160.685 58.0965 161.841 57.6638C162.581 57.4912 163.349 57.6011 164.03 57.9769L172.521 61.4485C173.469 61.9453 174.511 62.1456 175.546 62.0296C176.059 61.9493 176.527 61.6466 176.856 61.1823C177.185 60.718 177.35 60.1264 177.319 59.5262C177.048 57.8883 174.878 57.1024 175.076 55.4503C175.186 54.9149 175.434 54.4311 175.786 54.0627C178.851 50.2743 182.598 47.3197 186.761 45.4104C190.923 43.5012 195.397 42.6845 199.863 43.0189C200.935 45.0634 199.24 47.4844 197.83 49.2297C196.419 50.9751 195.286 54.0936 196.992 55.437C197.691 55.8514 198.468 56.0548 199.252 56.0285C201.343 56.3571 203.375 57.0729 205.27 58.1485C208.204 59.6317 211.082 61.2545 213.904 63.017C213.654 60.8561 213.416 58.5796 214.122 56.5591C214.827 54.5386 216.831 52.9538 218.581 53.7406C220.268 54.499 221.133 57.0936 222.931 57.3313C225.328 57.6484 226.274 53.5343 225.273 50.9843C224.271 48.4343 222.289 46.2991 222.123 43.5029C222.012 41.6165 222.63 39.2769 221.332 38.1346C220.871 37.7917 220.347 37.5783 219.802 37.5112L187.41 30.5876C185.487 30.1765 182.707 30.4916 182.622 32.7612C182.574 34.028 183.549 35.2814 183.117 36.4461C182.657 37.6893 181.144 37.5757 180.042 38.0154C178.332 38.6976 177.474 41.0559 177.638 43.1471C177.939 45.2251 178.632 47.2001 179.667 48.9303C177.56 47.9069 174.37 47.7188 172.263 46.6953Z" fill="white"/>
<path d="M197.282 4.67103C193.461 5.6146 189.75 7.07911 186.225 9.03411C187.886 9.77607 189.299 11.1185 190.254 12.8635C191.21 14.6085 191.657 16.6639 191.531 18.7266C191.382 19.5185 191.399 20.3405 191.581 21.123C191.987 22.2666 193.164 22.6957 194.199 22.9892C196.057 23.6463 197.998 23.9341 199.94 23.8404C200.911 23.7813 201.854 23.442 202.683 22.8531C203.513 22.2641 204.203 21.4442 204.692 20.4674C204.973 19.5403 205.303 18.6341 205.68 17.754C208.16 13.3671 215.527 18.6715 218.189 14.4315C219.127 12.9379 219.041 10.6897 220.264 9.50613C220.896 8.99048 221.629 8.66558 222.397 8.56066C227.751 7.32502 233.16 6.43029 238.598 5.8805C241.175 5.62003 244.534 4.54528 244.555 1.54096C234.849 -0.673189 224.785 0.899388 215.928 6.01421C212.737 7.87075 208.516 11.7761 205.443 9.31473C204.292 8.39316 204.349 5.91162 202.765 4.87534C201.145 3.81587 199.001 4.24677 197.282 4.67103Z" fill="white"/>
<path d="M229.019 11.5657L233.575 12.5826C232.737 12.5394 231.9 12.7045 231.12 13.0668C230.341 13.4292 229.637 13.9804 229.056 14.6837C228.474 15.387 228.029 16.2263 227.748 17.1455C227.468 18.0648 227.36 19.0428 227.431 20.0144C231.698 21.67 236.35 20.0589 240.844 20.279C245.338 20.4991 250.568 24.2281 249.8 29.3767C249.568 30.9335 248.794 32.4892 249.197 33.9983C249.479 35.056 250.282 35.8065 250.735 36.7807C251.68 38.8106 250.925 41.3782 249.732 43.2235C248.54 45.0688 246.936 46.5412 245.889 48.5022C243.286 53.3796 244.765 59.6851 246.316 65.134C246.765 67.1929 247.593 69.114 248.743 70.7645C251.041 73.6026 254.786 73.8495 258.14 73.9063C260.582 73.9477 263.378 73.8076 264.922 71.6107C266.937 68.7426 265.528 64.2676 266.855 60.9014C268.06 57.8443 271.13 56.5327 273.912 55.6025C279.008 53.8984 284.202 52.4495 289.02 49.8755C295.002 46.6791 300.594 41.6979 307.169 41.2865C309.014 41.1711 310.905 41.424 312.682 40.8369C314.459 40.2498 316.147 38.4652 316.012 36.325C315.897 34.4964 314.565 33.1535 313.524 31.775C312.484 30.3965 311.666 28.2767 312.623 26.8182L329.858 23.0788C328.637 19.2113 327.685 14.1178 330.492 11.6004C331.505 10.6922 332.862 10.3291 333.724 9.23109C335.194 7.35957 334.455 4.13571 332.758 2.54409C331.061 0.952474 328.767 0.58299 326.593 0.373283C319.036 -0.355761 311.435 0.125977 303.863 0.608088C289.061 1.55051 274.259 2.49294 259.457 3.43535C256.478 3.62506 253.037 3.33523 250.305 4.51603C247.991 5.51569 246.346 7.35066 243.7 7.99537C238.815 9.18557 233.439 8.38018 229.019 11.5657Z" fill="white"/>
<path d="M310.65 53.3964C310.186 53.3111 309.711 53.4362 309.324 53.7458C309.068 54.0732 308.916 54.4922 308.893 54.9336C308.598 56.8819 308.949 58.8873 309.873 60.5482C310.345 61.363 310.995 62.0165 311.757 62.4408C312.519 62.8651 313.364 63.0447 314.206 62.9611C316.258 62.6572 317.77 60.6243 319.656 59.6323C322.563 58.1047 334.908 55.7234 326.368 50.3644C323.425 48.5176 321.523 50.1479 319.204 51.3642C316.565 52.9324 313.608 53.635 310.65 53.3964Z" fill="white"/>
<path d="M385.445 8.54053C384.447 9.01373 383.613 9.85716 383.072 10.9391C382.823 11.4885 382.765 12.1282 382.911 12.7258C383.056 13.3233 383.394 13.8331 383.854 14.1496C384.226 14.3065 384.621 14.3792 385.017 14.3639L389.071 14.5046C390.794 14.5644 392.945 14.9905 393.408 16.9185C393.752 18.3501 392.983 20.1898 393.911 21.2128C394.309 21.5711 394.788 21.7881 395.29 21.8377C396.626 22.2362 398.02 22.2885 399.375 21.9908C402.325 21.0717 400.775 18.9803 401.704 17.1181C403.126 14.2688 402.88 15.9936 405.385 14.3606C407.235 13.1546 409.625 10.9669 408.081 7.89314C405.396 2.54795 389.407 6.24425 385.445 8.54053Z" fill="white"/>
<path d="M409.696 173.962C409.997 175.836 410.293 177.809 409.764 179.614C409.235 181.419 407.572 182.927 406.001 182.374C404.782 181.945 404.078 180.521 403.212 179.436C398.399 173.4 387.538 176.894 384.565 169.427C383.351 166.379 384.176 162.727 383.348 159.51C382.826 157.651 381.787 156.045 380.394 154.946C379.001 153.847 377.333 153.317 375.653 153.438C374.12 153.695 372.628 154.212 371.224 154.973C361.823 159.347 351.952 162.214 341.885 163.497C339.971 163.632 338.079 164.032 336.247 164.688C332.113 166.429 329.289 170.881 327.279 175.423C325.269 179.966 323.785 184.883 321.09 188.919C318.258 193.16 314.289 196.13 310.587 199.343C309.161 200.411 307.973 201.856 307.122 203.561C306.319 205.475 306.365 207.701 306.427 209.829L307.184 235.67C307.281 238.994 307.403 242.437 308.684 245.411C310.283 249.126 313.443 251.558 315.634 254.84C317.871 258.212 319.036 262.378 318.933 266.633C318.886 268.343 318.74 270.367 319.887 271.441C320.584 271.967 321.401 272.239 322.232 272.225L352.327 275.086C357.62 275.589 363.487 276.417 366.943 281.101C368.575 283.312 369.885 286.492 372.383 286.729C373.455 286.831 374.498 286.32 375.57 286.221C378.274 285.972 380.65 288.357 382.149 290.983C384.418 294.985 385.448 299.765 385.07 304.537C384.824 307.533 384.025 310.445 383.852 313.448C383.196 324.872 391.534 334.798 391.696 346.247C391.791 352.981 389.039 359.273 386.356 365.243C390.686 372.864 387.14 383.011 388.864 391.92C390.5 400.371 396.567 406.988 398.079 415.471C398.771 419.354 398.811 424.133 401.759 426.134C403.053 426.866 404.487 427.199 405.923 427.102C414.589 427.221 423.156 424.956 430.923 420.491C434.569 418.39 438.347 415.253 438.984 410.584C439.497 406.819 437.853 402.607 439.526 399.328C441.498 395.462 446.549 395.769 449.45 392.797C454.156 387.976 450.486 378.781 452.393 371.837C454.107 365.595 460.007 362.278 462.932 356.676C464.083 354.267 464.909 351.667 465.381 348.966C466.721 342.513 467.555 335.931 467.873 329.303C467.951 325.275 468.206 321.255 468.639 317.258C471.792 294.503 491.159 279.266 497.447 257.406C498.048 255.318 498.33 252.537 496.731 251.356C495.782 250.83 494.707 250.7 493.686 250.986L479.813 253.017C478.09 253.27 476.263 253.506 474.681 252.674C473.098 251.843 471.964 249.518 472.804 247.752C475.16 242.794 470.313 236.53 468.16 231.449C462.361 217.769 455.455 204.761 447.536 192.599C447.029 191.974 446.712 191.173 446.632 190.319L450.569 190.471C449.24 184.932 447.047 178.87 442.413 176.843C439.803 175.702 436.911 176.096 434.126 176.273C426.147 176.78 417.593 175.38 409.696 173.962Z" fill="white"/>
<path d="M434.135 49.1285C436.223 51.7039 438.563 54.4344 441.584 54.8833C446.919 55.6762 450.756 49.2673 453.198 43.7005C453.289 45.1197 453.852 46.4419 454.769 47.3859C455.686 48.33 456.883 48.8214 458.107 48.7556C459.424 48.4982 460.681 47.9274 461.799 47.0789C472.371 40.3684 484.212 36.8129 496.259 36.7317C496.143 35.6717 496.37 34.5995 496.894 33.722C497.419 32.8444 498.205 32.2237 499.101 31.9797C501.55 31.4156 503.756 33.8754 504.938 36.4306C506.12 38.9858 506.856 41.9474 508.734 43.86C510.611 45.7726 514.245 45.6893 514.987 42.9196C515.699 40.2607 513.314 37.9931 511.333 36.4255C509.351 34.8579 507.263 31.9564 508.597 29.643C518.719 27.0404 528.904 24.428 539.262 23.9107C541.025 23.982 542.782 23.6304 544.423 22.8779C546.003 21.9775 547.259 19.9338 546.834 17.9505C544.574 18.5676 542.206 18.3889 540.034 17.4371C537.861 16.4853 535.982 14.8035 534.636 12.6062C549.007 11.2286 564.293 10.0544 577.03 17.9094C578.559 21.7206 570.769 24.8915 572.853 28.329C573.518 29.4253 574.85 29.5539 576.004 29.5788C584.855 29.7697 593.757 29.9568 602.508 28.4047C605.706 27.8375 608.936 27.0367 612.147 27.4967C617.494 28.2628 622.068 32.4075 627.33 33.7588C629.471 34.3089 631.872 34.3275 633.677 32.8808C635.482 31.4341 636.258 28.1399 634.779 26.2591C639.733 20.6198 647.954 22.0174 654.49 24.7173C661.025 27.4172 667.216 31.7711 674.133 32.373C679.093 32.8045 684.122 31.2548 689.023 32.2398C692.103 32.8588 694.969 34.4503 697.979 35.4281C703.672 37.2773 709.695 36.887 715.606 36.976C730.687 37.212 745.605 40.655 759.619 47.1345C761.442 47.8239 763.112 48.9702 764.511 50.4922C765.815 52.1142 766.48 54.6346 765.604 56.6065L751.123 54.1489C752.487 57.2687 756.017 57.8003 758.884 58.8766C761.75 59.9529 764.722 63.6298 763 66.5005C759.894 65.3518 757.079 68.9587 755.51 72.2774C753.941 75.596 752.029 79.5705 748.774 79.7727C745.86 79.9537 742.335 77.071 740.435 79.6448C743.06 83.4908 745.307 87.6646 747.136 92.0888C749.013 96.6308 750.35 102.354 747.813 106.44C747.414 107.17 746.808 107.715 746.101 107.982C744.029 108.592 742.683 105.648 741.197 103.863C739.325 101.615 736.493 100.978 733.958 99.9232C731.422 98.8686 728.751 96.794 728.553 93.6743C728.429 91.7333 729.312 89.9289 729.962 88.135C731.054 85.1112 731.532 81.8356 731.358 78.5627C731.215 75.9295 730.58 73.1905 728.952 71.3507C727.324 69.511 724.513 68.9274 722.765 70.6124C721.95 71.3986 721.296 72.6563 720.237 72.7033C718.366 72.7864 716.929 68.997 715.423 70.2906C715.6 71.6689 715.354 73.0754 714.728 74.2644C710.236 78.8027 703.334 76.8827 697.543 78.4859C694.789 79.4014 692.152 80.7389 689.702 82.4632C688.785 82.9184 688.006 83.6788 687.461 84.6483C686.738 86.2802 687.535 88.3702 688.809 89.4552C690.161 90.4179 691.679 91.02 693.255 91.2179C700.316 92.7712 707.48 95.1757 713.054 100.444C718.629 105.711 722.284 114.419 720.52 122.511L706.596 107.057C707.125 113.546 707.425 120.053 707.497 126.577C707.587 127.851 707.436 129.133 707.055 130.332C706.063 132.879 703.372 133.736 701.015 134.298C700.359 134.442 699.737 134.747 699.19 135.19C698.642 135.634 698.182 136.207 697.839 136.872C697.496 137.537 697.278 138.279 697.199 139.049C697.12 139.819 697.183 140.6 697.382 141.339C698.22 144.511 700.308 146.983 702.221 149.447C704.133 151.911 706.015 154.711 706.265 158.015C706.516 161.319 704.369 165.044 701.52 164.814C699.361 164.64 697.758 162.394 696.837 160.119C695.916 157.843 695.368 155.308 693.984 153.374C689.794 147.522 680.384 150.029 676.631 143.79C675.675 145.051 675.011 146.574 674.704 148.216C674.397 149.858 674.456 151.564 674.876 153.172C676.622 151.903 679.012 153.082 680.324 154.927C681.636 156.772 682.255 159.137 683.285 161.209C684.675 164.005 686.887 166.483 687.081 169.704C687.03 170.922 687.048 172.142 687.134 173.358C687.479 175.309 688.899 176.71 689.884 178.341C692.175 182.137 692.062 187.351 690.585 191.658C689.108 195.964 686.455 199.563 683.828 203.051C679.238 209.145 674.555 215.203 669.114 220.263C667.561 221.707 665.904 223.127 664.937 225.146C663.97 227.165 663.921 229.998 665.407 231.534C664.344 231.596 662.437 232.203 661.374 232.265C661 227.311 660.919 222.333 661.13 217.366C656.935 215.026 652.417 221.293 652.958 226.662C653.5 232.032 656.843 236.341 659.224 240.987C660.965 244.384 662.259 248.345 661.677 252.241C661.096 256.136 658.103 259.729 654.712 259.386C649.318 258.839 647.062 249.846 641.722 248.817C641.25 248.688 640.756 248.745 640.316 248.979C639.523 249.484 639.385 250.716 639.341 251.765C639.122 256.915 638.933 262.269 640.664 267.017C643.195 273.962 649.736 279.796 648.364 287.168C640.973 283.177 637.13 273.55 635.386 264.302C633.641 255.055 633.35 245.346 630.222 236.604C627.848 240.14 622.856 237.217 620.686 233.508C618.629 229.991 617.362 225.924 615.367 222.36C613.371 218.796 610.313 215.605 606.657 215.409C602.823 215.203 599.499 218.259 596.575 221.146C594.171 223.52 591.702 225.988 590.297 229.27C588.252 234.045 588.787 239.675 588.688 245.008C588.582 250.773 587.53 256.855 584.147 261.076C580.765 265.296 574.521 266.766 570.79 262.963C568.842 260.977 567.899 258.01 567.058 255.162C563.009 241.434 559.637 227.449 556.957 213.276C556.33 216.511 553.885 220.68 551.548 218.775C551.024 218.262 550.6 217.627 550.302 216.91C545.944 208.33 537.874 203.184 529.72 200.099C521.566 197.013 512.986 195.574 504.922 192.183C500.404 190.282 496.087 187.785 492.059 184.74C491.032 186.493 490.432 188.535 490.324 190.652C490.215 192.768 490.601 194.879 491.441 196.761C493.229 200.44 497.277 202.568 500.742 201.282C502.533 200.618 504.045 199.174 505.821 198.461C507.598 197.748 509.982 198.098 510.759 200.086C511.503 201.989 510.379 204.291 510.937 206.278C511.786 209.305 515.715 209.538 517.089 212.292C518.112 214.341 517.271 217.062 515.811 218.715C514.351 220.368 512.403 221.275 510.622 222.426C504.84 226.161 500.728 232.536 495.675 237.496C490.623 242.455 483.494 246.077 477.472 242.895C478.907 234.452 470.249 228.254 468.656 219.849C468.132 217.083 468.404 214.145 467.655 211.449C466.571 207.546 463.59 204.862 461.145 201.904C458.178 198.278 455.867 193.998 454.348 189.317C452.829 184.637 452.132 179.65 452.299 174.651C452.431 171.178 452.981 167.648 452.299 164.262C451.618 160.876 449.205 157.6 446.215 157.753C439.385 158.103 430.78 158.693 427.197 151.931C425.918 149.517 425.361 145.982 427.211 144.133C428.515 142.828 430.44 142.951 432.153 143.147L447.542 144.905C451.142 145.316 455.032 145.656 458.121 143.47C461.21 141.285 462.548 135.483 459.688 132.912C457.598 131.033 453.854 131.135 453.247 128.147C452.741 125.659 455.112 122.837 453.831 120.757C452.913 119.267 450.849 119.68 449.598 120.798C448.348 121.915 447.44 123.55 446.04 124.396C443.585 125.88 440.651 124.468 438.009 123.508C435.367 122.547 431.825 122.466 430.544 125.316C429.11 128.504 431.815 132.68 430.392 135.874C428.512 140.097 422.144 137.693 419.503 141.326C416.473 145.494 421.565 151.709 420.543 157.034C419.239 157.785 417.789 158.129 416.335 158.035C414.881 157.94 413.474 157.408 412.249 156.493C411.045 155.542 410.086 154.229 409.473 152.695C408.86 151.161 408.616 149.462 408.768 147.78C409.021 145.385 410.096 142.94 409.376 140.676C408.793 138.846 407.211 137.756 405.741 136.813L390.786 127.214C389.398 130.205 391.153 133.914 393.348 136.161C395.544 138.408 398.293 140.101 399.735 143.058C400.648 145.107 400.852 147.483 400.307 149.701C399.762 151.919 398.509 153.812 396.803 154.993C396.589 155.164 396.346 155.28 396.09 155.332C395.834 155.384 395.572 155.371 395.32 155.293C395.082 155.13 394.874 154.914 394.709 154.656C394.544 154.398 394.425 154.104 394.359 153.792C391.72 145.949 387.759 138.215 381.425 134.118C375.092 130.021 365.991 130.864 361.838 137.765C360.851 139.405 360.189 141.273 359.33 143.007C354.764 152.215 344.976 156.575 335.831 156.29C334.936 156.348 334.046 156.105 333.267 155.591C331.789 154.405 331.856 151.889 332.082 149.819L333.042 141.036C333.235 139.272 333.514 137.322 334.716 136.221C336.41 134.669 338.854 135.649 341.012 135.613C342.646 135.524 344.218 134.853 345.513 133.692C346.808 132.531 347.765 130.935 348.253 129.121C348.689 127.289 348.687 125.353 348.245 123.523C347.804 121.693 346.942 120.037 345.75 118.734C344.761 117.655 343.434 116.3 343.956 114.846C344.165 114.444 344.447 114.099 344.782 113.837C345.117 113.575 345.498 113.401 345.897 113.328C349.772 112.021 353.867 111.678 357.678 110.136C361.489 108.593 365.185 105.438 366.087 100.869C366.364 99.4688 366.49 97.7727 367.572 97.0786C368.116 96.8122 368.699 96.6737 369.289 96.6713C371.355 96.3298 373.236 95.1024 374.562 93.2307C375.888 91.3589 376.562 88.9784 376.453 86.5577C378.279 85.0755 380.838 86.1658 382.605 87.7424C384.372 89.319 385.931 91.402 388.081 92.0816C392.088 93.3482 395.959 89.2278 400.112 89.2087C401.858 89.2007 403.665 89.9178 405.308 89.2302C406.973 88.5331 407.968 86.6076 409.246 85.1851C410.524 83.7626 412.766 82.8949 413.947 84.4274L412.942 75.7807C414.966 76.3746 417.075 76.4587 419.13 76.0273C421.184 75.5959 423.135 74.6591 424.852 73.2796L411.863 68.182C411.411 68.0509 410.994 67.7917 410.648 67.4277C409.704 66.2466 410.642 64.4061 411.41 63.0635C413.247 59.8517 413.555 54.561 410.534 52.9619C408.473 51.8705 406.106 53.1806 404.127 54.4624L394.647 60.6022C394.346 62.6953 396.549 63.8815 397.915 65.2914C398.741 66.1444 399.325 67.2677 399.592 68.5138C399.858 69.7599 399.794 71.0704 399.408 72.2733C399.021 73.4762 398.331 74.5152 397.426 75.2538C396.522 75.9924 395.447 76.3961 394.342 76.4118C394.966 77.3546 395.4 78.4483 395.611 79.6121C395.822 80.7759 395.805 81.9799 395.561 83.1351L389.182 83.6679C388.467 83.8352 387.723 83.6666 387.114 83.1989C386.431 82.4951 386.524 81.2619 386.366 80.2182C385.984 77.6989 383.861 75.9333 381.693 75.4805C379.526 75.0278 377.309 75.6081 375.162 76.1811C374.251 76.562 373.25 76.5352 372.355 76.1059C371.842 75.7185 371.452 75.1466 371.244 74.4776C370.304 71.8276 371.183 68.7128 372.694 66.4466C374.205 64.1804 376.274 62.5238 378.132 60.6372C382.575 56.109 385.839 50.2278 387.556 43.6581C391.068 41.9492 394.703 39.6274 398.214 37.9185C403.628 34.7349 409.698 33.3687 415.744 33.9734L427.635 34.2373C431.156 34.3154 434.772 34.4155 438.027 35.9745C441.283 37.5335 444.143 40.9055 444.368 44.9873C444.436 45.4494 444.401 45.9239 444.268 46.3663C444.135 46.8087 443.907 47.2046 443.605 47.5166C443.146 47.8081 442.625 47.9444 442.102 47.9102C438.819 48.0443 437.419 48.9945 434.135 49.1285Z" fill="white"/>
<path d="M339.351 92.4169C339.816 91.9062 340.15 91.2565 340.317 90.5394C340.485 89.8222 340.479 89.0654 340.3 88.352C339.169 87.8453 337.94 87.7152 336.749 87.9763C335.558 88.2375 334.454 88.8795 333.56 89.8302C332.856 90.6579 332.249 91.5901 331.755 92.6028C330.192 95.5639 328.81 99.1009 329.716 102.411C329.789 102.772 329.925 103.112 330.113 103.412C330.302 103.711 330.54 103.964 330.814 104.155C331.219 104.344 331.657 104.424 332.093 104.388C333.815 104.385 335.534 104.262 337.243 104.02C338.292 103.871 339.511 103.527 339.916 102.393C340.449 100.902 339.159 99.2151 339.535 97.6613C339.783 96.9664 340.158 96.3427 340.634 95.8335C340.87 95.5771 341.052 95.2603 341.165 94.9081C341.277 94.556 341.317 94.1782 341.282 93.8049C341.13 93.0758 340.169 92.6622 339.823 93.2956" fill="white"/>
<path d="M348.282 78.9745C346.753 78.5666 345.176 78.4517 343.615 78.6341C343.27 78.6222 342.928 78.7125 342.621 78.8966C342.324 79.1513 342.108 79.514 342.008 79.9273C341.678 81.1565 341.759 82.4849 342.235 83.6478C342.711 84.8107 343.546 85.7229 344.575 86.2025C345.135 86.3523 345.672 86.6029 346.166 86.9454C347.486 88.1349 346.645 90.5662 346.895 92.4847C347.175 94.6391 348.971 96.4474 348.641 98.5925C348.382 100.282 346.828 101.621 347.078 103.312C347.34 105.084 349.276 105.617 350.819 105.759C351.713 105.941 352.634 105.818 353.47 105.406C354.307 104.741 354.903 103.739 355.142 102.593C355.773 100.409 356.039 98.1045 355.924 95.8044C355.917 94.7582 355.691 93.7298 355.265 92.808C354.8 92.0778 354.285 91.3928 353.725 90.7596C350.768 86.7653 353.881 80.8074 348.282 78.9745Z" fill="white"/>
</g>
</g>
</g>
<path d="M133.695 277C132.618 277 131.61 276.816 130.671 276.447C129.743 276.078 128.928 275.562 128.224 274.898C127.52 274.223 126.971 273.438 126.576 272.543C126.192 271.647 126 270.672 126 269.619C126 268.575 126.192 267.606 126.576 266.71C126.971 265.804 127.52 265.019 128.224 264.355C128.928 263.681 129.743 263.154 130.671 262.774C131.599 262.395 132.602 262.205 133.679 262.205C134.671 262.205 135.599 262.369 136.463 262.695C137.326 263.012 138.094 263.465 138.766 264.055L138.014 267.026C137.588 266.341 137.001 265.772 136.255 265.319C135.519 264.866 134.66 264.64 133.679 264.64C132.73 264.64 131.882 264.861 131.135 265.303C130.389 265.736 129.797 266.331 129.36 267.09C128.933 267.838 128.72 268.681 128.72 269.619C128.72 270.577 128.933 271.431 129.36 272.179C129.797 272.927 130.389 273.523 131.135 273.965C131.882 274.397 132.724 274.613 133.663 274.613C134.143 274.613 134.591 274.566 135.007 274.471C135.423 274.366 135.796 274.218 136.127 274.028V271.025H132.943V268.844H138.526V275.593C137.876 276.036 137.134 276.384 136.303 276.636C135.481 276.879 134.612 277 133.695 277Z" fill="#193951"/>
<path d="M141.571 276.715V262.49H144.243V274.392H148.738V276.715H141.571Z" fill="#193951"/>
<path d="M156.552 277C155.507 277 154.526 276.81 153.609 276.431C152.692 276.041 151.881 275.509 151.177 274.835C150.484 274.16 149.94 273.375 149.545 272.479C149.161 271.584 148.969 270.625 148.969 269.603C148.969 268.581 149.161 267.622 149.545 266.726C149.94 265.83 150.484 265.045 151.177 264.371C151.881 263.697 152.692 263.17 153.609 262.79C154.526 262.4 155.507 262.205 156.552 262.205C157.608 262.205 158.595 262.4 159.512 262.79C160.429 263.17 161.234 263.697 161.928 264.371C162.621 265.045 163.159 265.83 163.543 266.726C163.938 267.622 164.135 268.581 164.135 269.603C164.135 270.625 163.938 271.584 163.543 272.479C163.159 273.375 162.621 274.16 161.928 274.835C161.234 275.509 160.429 276.041 159.512 276.431C158.595 276.81 157.608 277 156.552 277ZM156.552 274.518C157.459 274.518 158.28 274.297 159.016 273.855C159.752 273.412 160.333 272.817 160.76 272.068C161.197 271.32 161.416 270.498 161.416 269.603C161.416 268.686 161.197 267.859 160.76 267.121C160.333 266.384 159.752 265.793 159.016 265.351C158.28 264.908 157.459 264.687 156.552 264.687C155.635 264.687 154.809 264.908 154.073 265.351C153.337 265.793 152.756 266.389 152.329 267.137C151.902 267.875 151.689 268.697 151.689 269.603C151.689 270.509 151.902 271.336 152.329 272.084C152.756 272.822 153.337 273.412 154.073 273.855C154.809 274.297 155.635 274.518 156.552 274.518Z" fill="#193951"/>
<path d="M166.7 276.715V262.49H171.083C172.033 262.49 172.784 262.674 173.339 263.043C173.904 263.401 174.31 263.839 174.555 264.355C174.8 264.861 174.923 265.34 174.923 265.793C174.923 266.236 174.832 266.647 174.651 267.026C174.47 267.406 174.219 267.732 173.899 268.006C174.592 268.407 175.152 268.949 175.579 269.634C176.005 270.309 176.219 271.073 176.219 271.926C176.219 272.717 176.016 273.481 175.611 274.218C175.216 274.956 174.624 275.556 173.835 276.02C173.056 276.484 172.091 276.715 170.939 276.715H166.7ZM169.228 274.392H170.699C171.371 274.392 171.91 274.26 172.315 273.997C172.731 273.733 173.035 273.407 173.227 273.017C173.419 272.616 173.515 272.221 173.515 271.831C173.515 271.452 173.419 271.067 173.227 270.678C173.046 270.277 172.747 269.945 172.331 269.682C171.926 269.408 171.382 269.271 170.699 269.271H169.228V274.392ZM169.228 267.406H170.683C171.217 267.406 171.649 267.279 171.979 267.026C172.31 266.773 172.475 266.41 172.475 265.936C172.475 265.451 172.31 265.082 171.979 264.829C171.659 264.576 171.249 264.45 170.747 264.45H169.228V267.406Z" fill="#193951"/>
<path d="M176.936 276.715L183.207 262H183.239L189.526 276.715H186.887L185.655 273.76H180.712L179.48 276.715H176.936ZM181.591 271.673H184.775L184.023 269.887C183.863 269.508 183.714 269.139 183.575 268.781C183.437 268.412 183.303 267.985 183.175 267.501C183.047 267.985 182.914 268.407 182.775 268.765C182.647 269.123 182.503 269.497 182.343 269.887L181.591 271.673Z" fill="#193951"/>
<path d="M191.424 276.715V262.49H194.096V274.392H198.591V276.715H191.424Z" fill="#193951"/>
<path d="M209.654 264.813V262.49H219.525V264.813H215.925V276.715H213.254V264.813H209.654Z" fill="white"/>
<path d="M221.885 276.715V262.49H229.404V264.734H224.413V267.137H228.284V269.318H224.413V274.392H229.404V276.715H221.885Z" fill="white"/>
<path d="M238.306 277C237.261 277 236.28 276.81 235.363 276.431C234.445 276.041 233.635 275.509 232.931 274.835C232.238 274.16 231.694 273.375 231.299 272.479C230.915 271.584 230.723 270.625 230.723 269.603C230.723 268.581 230.915 267.622 231.299 266.726C231.694 265.83 232.238 265.045 232.931 264.371C233.635 263.697 234.445 263.17 235.363 262.79C236.28 262.4 237.261 262.205 238.306 262.205C239.277 262.205 240.189 262.369 241.042 262.695C241.895 263.012 242.658 263.465 243.33 264.055L242.578 267.074C242.162 266.389 241.591 265.82 240.866 265.367C240.141 264.914 239.309 264.687 238.37 264.687C237.464 264.687 236.642 264.908 235.907 265.351C235.171 265.793 234.584 266.384 234.147 267.121C233.72 267.859 233.507 268.686 233.507 269.603C233.507 270.509 233.72 271.336 234.147 272.084C234.584 272.822 235.171 273.412 235.907 273.855C236.642 274.297 237.464 274.518 238.37 274.518C239.298 274.518 240.125 274.292 240.85 273.839C241.586 273.375 242.162 272.806 242.578 272.132L243.33 275.151C242.658 275.73 241.895 276.183 241.042 276.51C240.189 276.837 239.277 277 238.306 277Z" fill="white"/>
<path d="M245.529 276.715V262.49H248.057V267.074H252.472V262.49H255V276.715H252.472V269.381H248.057V276.715H245.529Z" fill="white"/>
<g filter="url(#filter3_d_4214_4738)">
<path d="M52 248.626V206.046L71.2425 230.907L90.1681 206.046V248.626H82.9691V234.982C82.9691 233.67 82.9842 232.205 83.0144 230.587C83.0446 228.939 83.1804 227.077 83.4219 225.001C82.4862 226.588 81.5807 227.977 80.7053 229.168C79.83 230.358 79.0301 231.457 78.3057 232.464L71.1067 242.4L63.6361 232.464C62.9116 231.518 62.0816 230.404 61.1459 229.122C60.2403 227.809 59.3348 226.39 58.4293 224.864C58.6707 227.031 58.8066 228.923 58.8368 230.541C58.8669 232.159 58.882 233.639 58.882 234.982V248.626H52Z" fill="#193951"/>
<path d="M99.8785 248.626V207.419H107.485V248.626H99.8785Z" fill="#193951"/>
<path d="M149.571 250L124.08 223.765V248.626H117.198V206.046L142.644 232.235V207.419H149.571V250Z" fill="#193951"/>
<path d="M158.966 248.626V207.419H172.685C176.035 207.419 179.053 207.984 181.74 209.113C184.426 210.212 186.72 211.723 188.622 213.646C190.554 215.539 192.018 217.736 193.014 220.239C194.04 222.712 194.553 225.306 194.553 228.023C194.553 230.74 194.04 233.349 193.014 235.852C192.018 238.325 190.554 240.522 188.622 242.445C186.72 244.338 184.426 245.849 181.74 246.978C179.053 248.077 176.035 248.626 172.685 248.626H158.966ZM166.119 241.896H172.005C174.511 241.896 176.684 241.514 178.525 240.751C180.367 239.988 181.906 238.966 183.143 237.684C184.381 236.371 185.302 234.891 185.905 233.242C186.509 231.564 186.811 229.824 186.811 228.023C186.811 226.222 186.509 224.497 185.905 222.849C185.302 221.17 184.381 219.675 183.143 218.362C181.906 217.05 180.367 216.027 178.525 215.294C176.684 214.531 174.511 214.15 172.005 214.15H166.119V241.896Z" fill="#193951"/>
<path d="M234.602 249.451C231.644 249.451 228.867 248.901 226.271 247.802C223.675 246.673 221.381 245.131 219.389 243.178C217.427 241.224 215.887 238.95 214.771 236.356C213.684 233.761 213.141 230.984 213.141 228.023C213.141 225.062 213.684 222.284 214.771 219.69C215.887 217.095 217.427 214.821 219.389 212.868C221.381 210.914 223.675 209.388 226.271 208.289C228.867 207.16 231.644 206.595 234.602 206.595C237.348 206.595 239.929 207.068 242.344 208.015C244.759 208.93 246.917 210.243 248.818 211.952L246.69 220.697C245.513 218.713 243.898 217.065 241.846 215.752C239.793 214.44 237.439 213.784 234.783 213.784C232.217 213.784 229.893 214.425 227.81 215.707C225.727 216.989 224.067 218.698 222.83 220.835C221.622 222.971 221.019 225.367 221.019 228.023C221.019 230.648 221.622 233.044 222.83 235.211C224.067 237.348 225.727 239.057 227.81 240.339C229.893 241.621 232.217 242.262 234.783 242.262C237.409 242.262 239.748 241.606 241.801 240.293C243.883 238.95 245.513 237.302 246.69 235.349L248.818 244.094C246.917 245.772 244.759 247.085 242.344 248.031C239.929 248.977 237.348 249.451 234.602 249.451Z" fill="#F0AE1A"/>
<path d="M259.092 248.626V207.419H270.954C273.822 207.419 276.267 207.999 278.289 209.159C280.342 210.289 281.911 211.815 282.998 213.738C284.084 215.63 284.628 217.706 284.628 219.965C284.628 222.132 284.115 224.101 283.088 225.871C282.092 227.611 280.689 229.015 278.878 230.083L290.378 248.626H282.183L272.131 232.144H266.245V248.626H259.092ZM266.245 225.871H270.818C272.358 225.871 273.61 225.581 274.576 225.001C275.572 224.421 276.312 223.673 276.795 222.758C277.278 221.842 277.519 220.911 277.519 219.965C277.519 218.286 276.9 216.897 275.663 215.798C274.425 214.699 272.811 214.15 270.818 214.15H266.245V225.871Z" fill="#F0AE1A"/>
<path d="M294.767 248.626L312.515 206H312.605L330.399 248.626H322.929L319.442 240.065H305.452L301.965 248.626H294.767ZM307.942 234.021H316.952L314.824 228.847C314.371 227.748 313.949 226.68 313.556 225.642C313.164 224.574 312.787 223.337 312.424 221.933C312.062 223.337 311.685 224.558 311.292 225.596C310.93 226.634 310.523 227.718 310.07 228.847L307.942 234.021Z" fill="#F0AE1A"/>
<path d="M339.682 248.626V207.419H360.962V213.738H346.836V220.88H359.604V227.199H346.836V248.626H339.682Z" fill="#F0AE1A"/>
<path d="M368.064 214.15V207.419H396V214.15H385.813V248.626H378.252V214.15H368.064Z" fill="#F0AE1A"/>
</g>
<defs>
<filter id="filter0_d_4214_4738" x="59" y="30" width="134.5" height="123.158" filterUnits="userSpaceOnUse" color-interpolation-filters="sRGB">
<feFlood flood-opacity="0" result="BackgroundImageFix"/>
<feColorMatrix in="SourceAlpha" type="matrix" values="0 0 0 0 0 0 0 0 0 0 0 0 0 0 0 0 0 0 127 0" result="hardAlpha"/>
<feOffset dy="6"/>
<feGaussianBlur stdDeviation="2"/>
<feComposite in2="hardAlpha" operator="out"/>
<feColorMatrix type="matrix" values="0 0 0 0 0 0 0 0 0 0 0 0 0 0 0 0 0 0 0.08 0"/>
<feBlend mode="normal" in2="BackgroundImageFix" result="effect1_dropShadow_4214_4738"/>
<feBlend mode="normal" in="SourceGraphic" in2="effect1_dropShadow_4214_4738" result="shape"/>
</filter>
<filter id="filter1_d_4214_4738" x="103.719" y="99.6548" width="89.7812" height="111.5" filterUnits="userSpaceOnUse" color-interpolation-filters="sRGB">
<feFlood flood-opacity="0" result="BackgroundImageFix"/>
<feColorMatrix in="SourceAlpha" type="matrix" values="0 0 0 0 0 0 0 0 0 0 0 0 0 0 0 0 0 0 127 0" result="hardAlpha"/>
<feOffset dy="6"/>
<feGaussianBlur stdDeviation="2"/>
<feComposite in2="hardAlpha" operator="out"/>
<feColorMatrix type="matrix" values="0 0 0 0 0 0 0 0 0 0 0 0 0 0 0 0 0 0 0.08 0"/>
<feBlend mode="normal" in2="BackgroundImageFix" result="effect1_dropShadow_4214_4738"/>
<feBlend mode="normal" in="SourceGraphic" in2="effect1_dropShadow_4214_4738" result="shape"/>
</filter>
<filter id="filter2_d_4214_4738" x="-32" y="0" width="869.301" height="517" filterUnits="userSpaceOnUse" color-interpolation-filters="sRGB">
<feFlood flood-opacity="0" result="BackgroundImageFix"/>
<feColorMatrix in="SourceAlpha" type="matrix" values="0 0 0 0 0 0 0 0 0 0 0 0 0 0 0 0 0 0 127 0" result="hardAlpha"/>
<feOffset dy="4"/>
<feGaussianBlur stdDeviation="2"/>
<feComposite in2="hardAlpha" operator="out"/>
<feColorMatrix type="matrix" values="0 0 0 0 0 0 0 0 0 0 0 0 0 0 0 0 0 0 0.4 0"/>
<feBlend mode="normal" in2="BackgroundImageFix" result="effect1_dropShadow_4214_4738"/>
<feBlend mode="normal" in="SourceGraphic" in2="effect1_dropShadow_4214_4738" result="shape"/>
</filter>
<filter id="filter3_d_4214_4738" x="43" y="206" width="354" height="54" filterUnits="userSpaceOnUse" color-interpolation-filters="sRGB">
<feFlood flood-opacity="0" result="BackgroundImageFix"/>
<feColorMatrix in="SourceAlpha" type="matrix" values="0 0 0 0 0 0 0 0 0 0 0 0 0 0 0 0 0 0 127 0" result="hardAlpha"/>
<feOffset dx="-4" dy="5"/>
<feGaussianBlur stdDeviation="2.5"/>
<feComposite in2="hardAlpha" operator="out"/>
<feColorMatrix type="matrix" values="0 0 0 0 0 0 0 0 0 0 0 0 0 0 0 0 0 0 0.16 0"/>
<feBlend mode="normal" in2="BackgroundImageFix" result="effect1_dropShadow_4214_4738"/>
<feBlend mode="normal" in="SourceGraphic" in2="effect1_dropShadow_4214_4738" result="shape"/>
</filter>
<linearGradient id="paint0_linear_4214_4738" x1="209.5" y1="0" x2="209.5" y2="417" gradientUnits="userSpaceOnUse">
<stop stop-color="#00669B"/>
<stop offset="1" stop-color="#002335"/>
</linearGradient>
<linearGradient id="paint1_linear_4214_4738" x1="311.017" y1="-0.0648804" x2="311.017" y2="418.5" gradientUnits="userSpaceOnUse">
<stop stop-color="#1A70BE"/>
<stop offset="1" stop-color="#1B4D7B"/>
</linearGradient>
<clipPath id="clip0_4214_4738">
<rect width="218" height="418" fill="white" transform="translate(205)"/>
</clipPath>
</defs>
</svg>
