<svg width="56" height="42" viewBox="0 0 56 42" fill="none" xmlns="http://www.w3.org/2000/svg">
<path d="M21.2277 42C21.2277 41.0288 21.3047 40.215 21.1927 39.4293C21.1454 39.095 20.7552 38.7363 20.4349 38.535C18.8827 37.5498 17.1974 36.7623 15.7502 35.6318C11.0672 31.9708 8.29168 27.1513 8.13943 20.8898C8.09743 19.1135 8.75193 18.6673 10.2429 19.362C14.5532 21.3605 19.1889 20.188 21.6617 16.4745C24.3584 12.4215 23.9787 7.0245 20.7464 3.486C16.6199 -1.0325 9.82643 -1.169 5.14168 3.15C2.33643 5.7365 1.00293 9.0755 0.670428 12.8748C-0.444322 25.599 5.93793 36.0885 17.5562 40.6963C18.7059 41.1513 19.8837 41.5258 21.2277 42Z" fill="#16BBDA"/>
<path d="M34.7722 0C34.7722 0.97125 34.6952 1.785 34.8072 2.57075C34.8544 2.905 35.2447 3.26375 35.5649 3.465C37.1172 4.45025 38.8024 5.23775 40.2497 6.36825C44.9327 10.0292 47.7082 14.8487 47.8604 21.1102C47.9024 22.8865 47.2479 23.3328 45.7569 22.638C41.4467 20.6395 36.8109 21.812 34.3382 25.5255C31.6414 29.5785 32.0212 34.9755 35.2534 38.514C39.3799 43.0325 46.1734 43.169 50.8582 38.85C53.6634 36.2635 54.9969 32.9245 55.3294 29.1253C56.4442 16.401 50.0619 5.9115 38.4437 1.30375C37.2939 0.848751 36.1162 0.47425 34.7722 0Z" fill="#16BBDA"/>
</svg>
