<svg width="368" height="233" viewBox="0 0 368 233" fill="none" xmlns="http://www.w3.org/2000/svg">
<g clip-path="url(#clip0_321_2849)">
<path d="M268.518 57.0583C268.518 79.3166 233.708 144.958 213.749 180.765C212.396 183.195 210.417 185.219 208.018 186.628C205.62 188.037 202.888 188.78 200.106 188.78C197.323 188.78 194.591 188.037 192.193 186.628C189.794 185.219 187.815 183.195 186.462 180.765C166.503 144.958 131.693 79.3166 131.693 57.0583C131.693 25.8544 162.323 0.558594 200.106 0.558594C237.889 0.558594 268.518 25.8544 268.518 57.0583Z" fill="#38BDF8"/>
<path d="M200.427 93.6546C221.003 93.6546 237.684 76.9824 237.684 56.4161C237.684 35.8499 221.003 19.1777 200.427 19.1777C179.85 19.1777 163.169 35.8499 163.169 56.4161C163.169 76.9824 179.85 93.6546 200.427 93.6546Z" fill="white"/>
<path d="M44.9538 90.1106C57.2784 90.1106 67.2695 80.1246 67.2695 67.8062C67.2695 55.4879 57.2784 45.502 44.9538 45.502C32.6292 45.502 22.6382 55.4879 22.6382 67.8062C22.6382 80.1246 32.6292 90.1106 44.9538 90.1106Z" fill="#FF6584"/>
<path d="M200.105 232.558C229.939 232.558 254.124 230.692 254.124 228.391C254.124 226.089 229.939 224.223 200.105 224.223C170.272 224.223 146.087 226.089 146.087 228.391C146.087 230.692 170.272 232.558 200.105 232.558Z" fill="#38BDF8"/>
<path opacity="0.4" d="M40.4104 87.641C41.5461 80.6457 36.7932 74.0546 29.7943 72.9195C22.7954 71.7843 16.201 76.5349 15.0653 83.5302C13.9295 90.5255 18.6825 97.1165 25.6813 98.2517C32.6802 99.3869 39.2746 94.6363 40.4104 87.641Z" fill="#38BDF8"/>
<path d="M328.103 151.778C227 113.898 103.691 150.828 32.4978 226.371C32.0931 226.794 31.6884 227.224 31.2965 227.655H30.2109C30.5835 227.224 30.9689 226.794 31.3479 226.371C104.019 145.082 225.69 112.684 328.103 151.778Z" fill="#3F3D56"/>
<path d="M355.731 164.343C346.794 159.58 337.567 155.383 328.103 151.778C337.591 155.324 346.823 159.522 355.731 164.343Z" fill="#3F3D56"/>
<path opacity="0.4" d="M300.397 126.55C308.174 126.55 314.478 120.249 314.478 112.476C314.478 104.703 308.174 98.4023 300.397 98.4023C292.621 98.4023 286.316 104.703 286.316 112.476C286.316 120.249 292.621 126.55 300.397 126.55Z" fill="#38BDF8"/>
<path d="M301.965 220.728C303.053 224.749 306.781 227.239 306.781 227.239C306.781 227.239 308.743 223.21 307.655 219.19C306.567 215.17 302.84 212.68 302.84 212.68C302.84 212.68 300.877 216.708 301.965 220.728Z" fill="#3F3D56"/>
<path d="M303.564 219.864C306.55 222.769 306.915 227.235 306.915 227.235C306.915 227.235 302.439 226.991 299.453 224.086C296.467 221.181 296.102 216.715 296.102 216.715C296.102 216.715 300.578 216.959 303.564 219.864Z" fill="#38BDF8"/>
<path d="M2.15844 164.829V171.031L1.8501 171.365V164.765C1.95288 164.784 2.05568 164.81 2.15844 164.829Z" fill="#3F3D56"/>
<path d="M21.9305 226.368C21.8406 226.516 21.7442 226.664 21.6479 226.811H1.8501V165.137L2.15844 164.829L4.78573 167.814V163.448H13.1365V177.304L21.5708 186.876L21.6479 186.966C21.7507 187.287 21.847 187.608 21.9434 187.929C21.944 187.934 21.9463 187.939 21.9498 187.942C23.2147 191.988 24.2527 196.101 25.0589 200.263C26.896 210.08 26.6198 219.081 21.9305 226.368Z" fill="#CCCCCC"/>
<path d="M8.80158 198.919H3.48633V203.346H8.80158V198.919Z" fill="#3F3D56"/>
<path d="M8.80158 206.888H3.48633V211.315H8.80158V206.888Z" fill="#3F3D56"/>
<path d="M172.532 190.508L169.875 186.081L194.679 164.831C213.017 156.008 235.122 158.554 258.463 164.831V171.028L235.43 195.821L208.853 201.133L172.532 190.508Z" fill="#3F3D56"/>
<path d="M269.442 177.301C273.847 172.404 274.459 167.747 269.442 163.447H261.091V167.816L258.463 164.83L237.202 186.081L233.658 189.622L229.229 207.331L237.202 226.81H277.951V186.966L269.442 177.301Z" fill="#CCCCCC"/>
<path d="M169.875 186.081H237.201V226.811H169.875C161.73 218.003 165.961 201.949 169.875 186.081Z" fill="#F2F2F2"/>
<path d="M227.9 198.919H213.726V211.315H227.9V198.919Z" fill="#3F3D56"/>
<path d="M207.968 198.477H195.565V226.81H207.968V198.477Z" fill="#CCCCCC"/>
<path d="M181.391 202.903V198.477H176.076V202.903H180.948H181.391Z" fill="#3F3D56"/>
<path d="M180.948 206.445H176.076V210.873H181.391V206.445H180.948Z" fill="#3F3D56"/>
<path d="M190.25 198.477H184.935V202.904H190.25V198.477Z" fill="#3F3D56"/>
<path d="M190.25 206.445H184.935V210.872H190.25V206.445Z" fill="#3F3D56"/>
<path d="M256.248 203.346V198.919H250.932V203.346H255.805H256.248Z" fill="#3F3D56"/>
<path d="M255.805 206.889H250.932V211.316H256.248V206.889H255.805Z" fill="#3F3D56"/>
<path d="M265.106 198.919H259.791V203.346H265.106V198.919Z" fill="#3F3D56"/>
<path d="M265.106 206.888H259.791V211.315H265.106V206.888Z" fill="#3F3D56"/>
<path d="M52.6523 116.133L48.2231 112.591L73.0275 90.4551H135.924V109.935L95.1745 137.383L52.6523 116.133Z" fill="#3F3D56"/>
<path d="M147.392 102.871V90.8965H139.041V93.8293L135.924 90.4541L115.549 112.59L107.577 117.903L95.2144 208.176L113.858 226.81H157.186C163.824 193.431 169.089 159.142 157.186 113.475L147.392 102.871Z" fill="#CCCCCC"/>
<path d="M48.2231 112.591H115.55V226.811H48.2231C40.8556 182.437 37.2575 141.287 48.2231 112.591Z" fill="#F2F2F2"/>
<path d="M86.7582 198.919H74.356V226.81H86.7582V198.919Z" fill="#CCCCCC"/>
<path d="M61.0679 206.888V202.461H55.7529V206.888H60.6253H61.0679Z" fill="#3F3D56"/>
<path d="M60.6253 210.43H55.7529V214.857H61.0679V210.43H60.6253Z" fill="#3F3D56"/>
<path d="M69.9266 202.461H64.6113V206.888H69.9266V202.461Z" fill="#3F3D56"/>
<path d="M96.9461 210.43H92.0737V214.857H97.3887V210.43H96.9461Z" fill="#3F3D56"/>
<path d="M106.248 202.461H100.933V206.888H106.248V202.461Z" fill="#3F3D56"/>
<path d="M106.248 210.43H100.933V214.857H106.248V210.43Z" fill="#3F3D56"/>
<path d="M134.595 118.346V113.919H129.28V118.346H134.153H134.595Z" fill="#3F3D56"/>
<path d="M134.153 121.888H129.28V126.315H134.595V121.888H134.153Z" fill="#3F3D56"/>
<path d="M143.454 113.919H138.139V118.346H143.454V113.919Z" fill="#3F3D56"/>
<path d="M143.454 121.888H138.139V126.315H143.454V121.888Z" fill="#3F3D56"/>
<path d="M134.595 143.138V138.711H129.28V143.138H134.153H134.595Z" fill="#3F3D56"/>
<path d="M134.153 146.68H129.28V151.107H134.595V146.68H134.153Z" fill="#3F3D56"/>
<path d="M143.454 138.71H138.139V143.137H143.454V138.71Z" fill="#3F3D56"/>
<path d="M143.454 146.68H138.139V151.107H143.454V146.68Z" fill="#3F3D56"/>
<path d="M134.595 167.929V163.502H129.28V167.929H134.153H134.595Z" fill="#3F3D56"/>
<path d="M134.153 171.472H129.28V175.899H134.595V171.472H134.153Z" fill="#3F3D56"/>
<path d="M143.454 163.502H138.139V167.929H143.454V163.502Z" fill="#3F3D56"/>
<path d="M143.454 171.471H138.139V175.898H143.454V171.471Z" fill="#3F3D56"/>
<path d="M134.595 192.721V188.294H129.28V192.721H134.153H134.595Z" fill="#3F3D56"/>
<path d="M134.153 196.263H129.28V200.69H134.595V196.263H134.153Z" fill="#3F3D56"/>
<path d="M143.454 188.294H138.139V192.721H143.454V188.294Z" fill="#3F3D56"/>
<path d="M143.454 196.263H138.139V200.69H143.454V196.263Z" fill="#3F3D56"/>
<path d="M55.7529 118.346H107.134V128.971C90.6645 124.428 73.4905 124.754 55.7529 128.971V118.346Z" fill="#3F3D56"/>
<path d="M55.7529 139.596C71.7894 144.318 88.9163 144.318 107.134 139.596V150.221H55.7529V139.596Z" fill="#3F3D56"/>
<path d="M55.7529 160.846H107.134V171.471C89.6232 165.882 72.4783 165.619 55.7529 171.471V160.846Z" fill="#3F3D56"/>
<path d="M55.7529 182.096C72.5098 188.551 89.6521 188.282 107.134 182.096V192.721H55.7529V182.096Z" fill="#3F3D56"/>
<path d="M331.899 163.637H368V181.023L364.775 182.031L354.048 185.378L337.218 181.481L320.407 177.587L311.53 175.532L307.097 173.893C310.784 168.836 317.491 164.859 331.899 163.637Z" fill="#3F3D56"/>
<path d="M368 173.894V226.811H307.097C307.078 226.778 307.065 226.749 307.046 226.716V226.713C307.031 226.676 307.014 226.64 306.994 226.606C306.044 224.693 305.191 222.786 304.438 220.883C298.046 204.782 298.74 189.106 307.097 173.894H368Z" fill="#F2F2F2"/>
<path d="M345.633 198.919H333.23V226.81H345.633V198.919Z" fill="#CCCCCC"/>
<path d="M319.942 206.888V202.461H314.627V206.888H319.5H319.942Z" fill="#3F3D56"/>
<path d="M319.5 210.43H314.627V214.857H319.942V210.43H319.5Z" fill="#3F3D56"/>
<path d="M328.801 202.461H323.486V206.888H328.801V202.461Z" fill="#3F3D56"/>
<path d="M328.801 210.43H323.486V214.857H328.801V210.43Z" fill="#3F3D56"/>
<path d="M356.263 206.888V202.461H350.948V206.888H355.821H356.263Z" fill="#3F3D56"/>
<path d="M355.821 210.43H350.948V214.857H356.263V210.43H355.821Z" fill="#3F3D56"/>
<path d="M365.122 202.461H359.807V206.888H365.122V202.461Z" fill="#3F3D56"/>
<path d="M365.122 210.43H359.807V214.857H365.122V210.43Z" fill="#3F3D56"/>
<path d="M320.409 143.092H328.044C335.574 143.092 342.796 146.082 348.121 151.404C353.446 156.726 356.437 163.944 356.437 171.471H320.409V143.092Z" fill="#3F3D56"/>
<path d="M89.1558 66.0469H96.7908C104.321 66.0469 111.543 69.0368 116.868 74.359C122.193 79.6811 125.185 86.8995 125.185 94.4261H89.1558V66.0469Z" fill="#3F3D56"/>
<path d="M211.206 137.313H218.841C226.372 137.313 233.594 140.303 238.918 145.626C244.243 150.948 247.235 158.166 247.235 165.693H211.206V137.313Z" fill="#3F3D56"/>
<path d="M356.437 182.096H320.409V192.721H356.437V182.096Z" fill="#3F3D56"/>
<path d="M368 226.371H1.8501V227.655H368V226.371Z" fill="#3F3D56"/>
<path d="M35.6197 175.646H34.335V226.368H35.6197V175.646Z" fill="#3F3D56"/>
<path d="M47.4767 182.111C47.5585 199.847 35.074 214.282 35.074 214.282C35.074 214.282 19.0859 199.655 22.3751 182.226C25.683 164.698 35.9926 150.129 34.7778 150.055C34.7778 150.055 47.395 164.375 47.4767 182.111Z" fill="#38BDF8"/>
<path d="M164.093 175.646H162.809V226.368H164.093V175.646Z" fill="#3F3D56"/>
<path d="M175.95 182.111C177.108 199.809 163.547 214.282 163.547 214.282C163.547 214.282 150.93 199.962 150.849 182.226C150.767 164.49 163.251 150.055 163.251 150.055C162.034 154.916 175.013 167.791 175.95 182.111Z" fill="#38BDF8"/>
<path d="M80.6255 93.1984L136.431 90.4697L159.84 110L155.702 113.735L118.631 112.901L80.6255 93.1984Z" fill="#3F3D56"/>
<path d="M24.9432 183.833L21.9369 186.548L21.5707 186.876L20.8063 187.569L1.85002 187.146V164.764C1.23335 164.629 0.616673 164.501 0 164.379L1.53527 164.302L1.85002 164.565L4.78565 167.011L13.1364 173.984L22.4636 181.765L24.9432 183.833Z" fill="#3F3D56"/>
<path d="M202.675 167.033L258.48 164.305L281.89 183.835L277.751 187.57L240.681 186.736L202.675 167.033Z" fill="#3F3D56"/>
</g>
<defs>
<clipPath id="clip0_321_2849">
<rect width="368" height="232" fill="white" transform="translate(0 0.558594)"/>
</clipPath>
</defs>
</svg>
