<svg width="1280" height="1694" viewBox="0 0 1280 1694" fill="none" xmlns="http://www.w3.org/2000/svg">
<g opacity="0.1">
<mask id="mask0_317_2486" style="mask-type:luminance" maskUnits="userSpaceOnUse" x="-764" y="154" width="2569" height="1111">
<path d="M-762.285 1109.49L1645.93 1264.29L1803.88 310.02L-604.339 155.228L-762.285 1109.49Z" fill="white" stroke="white" stroke-width="1.33333"/>
</mask>
<g mask="url(#mask0_317_2486)">
<path d="M2022.06 467.714C1715.57 477.521 1459.16 274.394 1154.61 263.058C1088.89 260.611 1020.98 267.546 958.116 291.85C842.344 336.605 757.36 433.466 675.631 524.306C539.235 675.886 393.556 823.993 217.718 933.288C-29.6819 1087.05 -331.413 1155.41 -611.319 1121.12C-891.24 1086.85 -1146.65 950.223 -1313.09 745.773" stroke="#CAF7FF" stroke-width="0.255786" stroke-miterlimit="10"/>
</g>
<mask id="mask1_317_2486" style="mask-type:luminance" maskUnits="userSpaceOnUse" x="-761" y="166" width="2565" height="1076">
<path d="M-759.925 1086.93L1651.14 1241.06L1802.7 320.975L-608.365 166.842L-759.925 1086.93Z" fill="white" stroke="white" stroke-width="1.33333"/>
</mask>
<g mask="url(#mask1_317_2486)">
<path d="M2023.56 477.565C1872.16 485.174 1731.5 440.188 1592.14 390.629C1453.69 341.385 1316.16 287.656 1167.78 276.469C1160.77 275.941 1153.76 275.499 1146.7 275.178C1080.48 272.035 1012.11 278.102 948.473 300.972C831.287 343.085 742.284 434.956 658.238 523.527C532.41 656.139 401.886 788.648 247.076 890.582C233.562 899.479 219.86 908.167 205.989 916.598C-37.1361 1064.35 -331.861 1129.63 -605.972 1097.12C-880.055 1064.61 -1130.97 934.642 -1297.58 741.083" stroke="#CAF7FF" stroke-width="0.278295" stroke-miterlimit="10"/>
</g>
<mask id="mask2_317_2486" style="mask-type:luminance" maskUnits="userSpaceOnUse" x="-759" y="177" width="2562" height="1039">
<path d="M-757.27 1061.54L1656.88 1214.93L1801.52 331.841L-612.635 178.455L-757.27 1061.54Z" fill="white" stroke="white" stroke-width="1.33333"/>
</mask>
<g mask="url(#mask2_317_2486)">
<path d="M2046.43 487.408C1893.89 497.862 1750.79 454.279 1609.8 404.989C1469.69 356.013 1330.92 301.482 1181.38 288.789C1174.32 288.198 1167.25 287.693 1160.15 287.285C1093.44 283.456 1024.57 288.651 960.174 310.087C841.559 349.542 748.637 436.39 662.174 522.74C536.159 648.592 408.204 777.113 255.962 874.954C242.674 883.498 229.211 891.821 215.59 899.911C-23.2595 1041.67 -310.971 1103.86 -579.274 1073.14C-847.513 1042.43 -1093.92 919.107 -1260.68 736.463" stroke="#CAF7FF" stroke-width="0.300804" stroke-miterlimit="10"/>
</g>
<mask id="mask3_317_2486" style="mask-type:luminance" maskUnits="userSpaceOnUse" x="-756" y="192" width="2557" height="1001">
<path d="M-754.909 1039.1L1662.33 1191.7L1800.04 345.576L-617.202 192.973L-754.909 1039.1Z" fill="white" stroke="white" stroke-width="1.33333"/>
</mask>
<g mask="url(#mask3_317_2486)">
<path d="M2047.94 497.297C1894.24 510.602 1748.69 468.423 1606.09 419.407C1464.3 370.675 1324.32 315.335 1173.59 301.136C1166.49 300.469 1159.36 299.888 1152.21 299.405C1084.98 294.882 1015.66 299.204 950.465 319.191C830.427 355.998 733.677 437.826 644.69 521.965C518.684 641.1 393.087 765.598 243.44 859.349C230.38 867.528 217.156 875.499 203.784 883.248C-30.7977 1019.01 -311.484 1078.1 -573.958 1049.18C-836.338 1020.25 -1078.23 903.593 -1245.14 731.905" stroke="#CAF7FF" stroke-width="0.322972" stroke-miterlimit="10"/>
</g>
<mask id="mask4_317_2486" style="mask-type:luminance" maskUnits="userSpaceOnUse" x="-754" y="203" width="2554" height="967">
<path d="M-752.548 1016.62L1667.55 1168.47L1798.86 356.434L-621.238 204.585L-752.548 1016.62Z" fill="white" stroke="white" stroke-width="1.33333"/>
</mask>
<g mask="url(#mask4_317_2486)">
<path d="M2049.41 507.202C1894.58 523.408 1746.6 482.626 1602.37 433.868C1458.89 385.382 1317.7 329.183 1165.79 313.465C1158.64 312.721 1151.45 312.075 1144.25 311.516C1076.52 306.284 1006.71 309.752 940.753 328.289C819.275 362.443 718.821 439.229 627.161 521.182C501.378 633.692 377.933 754.092 230.872 843.744C218.037 851.571 205.052 859.188 191.916 866.597C-38.3933 996.357 -312.033 1052.35 -568.662 1025.22C-825.174 998.087 -1062.54 888.115 -1229.59 727.404" stroke="#CAF7FF" stroke-width="0.345482" stroke-miterlimit="10"/>
</g>
<mask id="mask5_317_2486" style="mask-type:luminance" maskUnits="userSpaceOnUse" x="-751" y="215" width="2550" height="929">
<path d="M-749.893 991.345L1673.3 1142.34L1797.68 367.196L-625.51 216.2L-749.893 991.345Z" fill="white" stroke="white" stroke-width="1.33333"/>
</mask>
<g mask="url(#mask5_317_2486)">
<path d="M2050.92 517.163C1894.95 536.313 1744.49 496.926 1598.63 448.415C1453.49 400.161 1311.06 343.086 1157.97 325.819C1150.76 325.009 1143.52 324.287 1136.26 323.65C1068.02 317.713 997.743 320.286 930.99 337.395C808.094 368.88 704.012 440.634 609.596 520.43C484.215 626.378 362.743 742.599 218.255 828.165C205.648 835.627 192.9 842.904 180.001 849.972C-46.0067 973.725 -312.615 1026.61 -563.404 1001.29C-814.023 975.969 -1046.86 872.676 -1214.02 722.996" stroke="#CAF7FF" stroke-width="0.367991" stroke-miterlimit="10"/>
</g>
<mask id="mask6_317_2486" style="mask-type:luminance" maskUnits="userSpaceOnUse" x="-749" y="227" width="2547" height="893">
<path d="M-747.533 968.936L1678.51 1119.12L1796.5 377.995L-629.542 227.815L-747.533 968.936Z" fill="white" stroke="white" stroke-width="1.33333"/>
</mask>
<g mask="url(#mask6_317_2486)">
<path d="M2073.77 527.136C1916.68 549.28 1763.77 511.304 1616.27 463.011C1469.45 414.972 1325.8 356.988 1171.5 338.164C1164.23 337.275 1156.94 336.475 1149.63 335.774C1080.89 329.125 1010.13 330.81 942.607 346.463C818.26 375.285 710.677 442.044 613.35 519.652C488.569 619.141 368.862 731.103 226.961 812.575C214.593 819.686 202.071 826.61 189.423 833.325C-32.3123 951.112 -291.855 1000.89 -536.789 977.388C-781.526 953.871 -1009.8 857.304 -1177.07 718.688" stroke="#CAF7FF" stroke-width="0.3905" stroke-miterlimit="10"/>
</g>
<mask id="mask7_317_2486" style="mask-type:luminance" maskUnits="userSpaceOnUse" x="-746" y="238" width="2543" height="859">
<path d="M-745.174 946.555L1683.71 1095.89L1795.32 388.762L-633.567 239.429L-745.174 946.555Z" fill="white" stroke="white" stroke-width="1.33333"/>
</mask>
<g mask="url(#mask7_317_2486)">
<path d="M2075.25 537.194C1917.03 562.389 1761.66 525.816 1612.54 477.734C1464.03 429.891 1319.15 370.944 1163.66 350.528C1156.33 349.573 1148.99 348.693 1141.63 347.913C1072.37 340.542 1001.12 341.333 932.805 355.536C807.017 381.674 696.044 443.474 595.69 518.876C471.693 612.019 353.548 719.612 214.246 797.006C202.08 803.751 189.808 810.337 177.41 816.712C-40.0352 928.509 -292.518 975.186 -531.57 953.496C-770.399 931.806 -994.093 841.965 -1161.45 714.483" stroke="#CAF7FF" stroke-width="0.412668" stroke-miterlimit="10"/>
</g>
<mask id="mask8_317_2486" style="mask-type:luminance" maskUnits="userSpaceOnUse" x="-744" y="250" width="2539" height="821">
<path d="M-742.518 921.371L1689.44 1069.76L1794.14 399.428L-637.817 251.042L-742.518 921.371Z" fill="white" stroke="white" stroke-width="1.33333"/>
</mask>
<g mask="url(#mask8_317_2486)">
<path d="M2055.36 547.322C1896.01 575.636 1738.19 540.481 1587.42 492.585C1437.23 444.89 1291.1 384.971 1134.42 362.935C1127.04 361.899 1119.64 360.951 1112.22 360.091C1042.45 351.973 970.72 351.874 901.63 364.611C774.381 388.066 660.126 444.974 556.608 518.117C433.575 605.06 316.816 708.153 180.103 781.454C168.176 787.849 156.132 794.069 143.97 800.104C-69.1959 905.91 -314.594 949.46 -547.763 929.594C-780.671 909.73 -999.76 826.659 -1167.21 710.379" stroke="#CAF7FF" stroke-width="0.435177" stroke-miterlimit="10"/>
</g>
<mask id="mask9_317_2486" style="mask-type:luminance" maskUnits="userSpaceOnUse" x="-741" y="261" width="2535" height="787">
<path d="M-740.157 899.041L1694.62 1046.53L1792.96 410.14L-641.816 262.654L-740.157 899.041Z" fill="white" stroke="white" stroke-width="1.33333"/>
</mask>
<g mask="url(#mask9_317_2486)">
<path d="M2056.83 557.559C1896.36 589.071 1736.08 555.336 1583.67 507.6C1431.79 460.038 1284.42 399.065 1126.53 375.387C1119.11 374.281 1111.65 373.251 1104.17 372.309C1033.9 363.431 961.673 362.431 891.78 373.705C763.091 394.462 645.662 446.544 538.857 517.364C416.919 598.222 301.412 696.668 167.273 765.888C155.573 771.93 143.767 777.799 131.867 783.506C-77.0191 883.317 -315.335 923.713 -542.609 905.696C-769.569 887.671 -984.048 811.42 -1151.55 706.415" stroke="#CAF7FF" stroke-width="0.457686" stroke-miterlimit="10"/>
</g>
<mask id="mask10_317_2486" style="mask-type:luminance" maskUnits="userSpaceOnUse" x="-739" y="273" width="2532" height="749">
<path d="M-737.502 873.906L1700.31 1020.4L1791.79 420.759L-646.03 274.268L-737.502 873.906Z" fill="white" stroke="white" stroke-width="1.33333"/>
</mask>
<g mask="url(#mask10_317_2486)">
<path d="M2058.3 567.94C1896.71 602.742 1733.98 570.419 1579.94 522.811C1426.36 475.36 1277.74 413.267 1118.64 387.891C1111.16 386.7 1103.64 385.585 1096.13 384.574C1025.33 374.93 952.614 373.004 881.94 382.805C751.768 400.831 631.275 448.226 521.078 516.623C400.363 591.535 285.957 685.197 154.407 750.319C142.933 756.009 131.366 761.524 119.704 766.878C-84.8747 860.686 -316.116 897.935 -537.469 881.783C-758.48 865.624 -968.341 796.214 -1135.87 702.599" stroke="#CAF7FF" stroke-width="0.480196" stroke-miterlimit="10"/>
</g>
<mask id="mask11_317_2486" style="mask-type:luminance" maskUnits="userSpaceOnUse" x="-715" y="285" width="2528" height="713">
<path d="M-713.769 851.623L1726.82 997.17L1811.98 431.429L-628.605 285.882L-713.769 851.623Z" fill="white" stroke="white" stroke-width="1.33333"/>
</mask>
<g mask="url(#mask11_317_2486)">
<path d="M2039.51 578.515C1876.83 616.719 1711.62 585.81 1555.94 538.276C1400.65 490.896 1250.78 427.602 1090.49 400.491C1082.95 399.212 1075.38 398.024 1067.8 396.914C996.49 386.469 923.287 383.615 851.806 391.916C720.183 407.199 596.699 450.015 482.983 515.862C363.614 585.002 250.203 673.69 121.252 734.72C109.992 740.057 98.6638 745.219 87.2391 750.231C-113.06 838.035 -337.191 872.104 -552.605 857.821C-767.667 843.545 -972.864 781.05 -1140.42 698.95" stroke="#CAF7FF" stroke-width="0.502705" stroke-miterlimit="10"/>
</g>
<mask id="mask12_317_2486" style="mask-type:luminance" maskUnits="userSpaceOnUse" x="-713" y="296" width="2525" height="679">
<path d="M-711.408 829.358L1731.91 973.942L1810.8 442.081L-632.512 297.496L-711.408 829.358Z" fill="white" stroke="white" stroke-width="1.33333"/>
</mask>
<g mask="url(#mask12_317_2486)">
<path d="M2040.96 589.315C1877.19 631.04 1709.54 601.563 1552.19 554.066C1395.23 506.71 1244.1 442.103 1082.58 413.192C1074.98 411.822 1067.36 410.558 1059.73 409.36C987.89 398.101 914.202 394.284 841.924 401.068C708.818 413.576 582.425 451.968 465.115 515.128C347.166 578.637 234.637 662.191 108.273 719.104C97.2407 724.075 86.15 728.895 74.9883 733.565C-121.031 815.334 -338.057 846.204 -547.531 833.812C-756.599 821.43 -957.126 765.934 -1124.67 695.482" stroke="#CAF7FF" stroke-width="0.525214" stroke-miterlimit="10"/>
</g>
<mask id="mask13_317_2486" style="mask-type:luminance" maskUnits="userSpaceOnUse" x="-710" y="305" width="2521" height="644">
<path d="M-708.754 804.184L1737.25 947.813L1809.92 449.836L-636.091 306.208L-708.754 804.184Z" fill="white" stroke="white" stroke-width="1.33333"/>
</mask>
<g mask="url(#mask13_317_2486)">
<path d="M2062.67 600.419C1897.81 645.852 1727.69 617.797 1568.71 570.279C1410.04 522.886 1257.65 456.859 1094.92 426.056C1087.27 424.606 1079.59 423.249 1071.9 421.959C999.554 409.853 925.366 405.049 852.286 410.305C717.705 419.996 588.454 454.142 467.467 514.434C350.997 572.475 239.295 650.675 115.515 703.468C104.71 708.07 93.8586 712.534 82.9355 716.846C-108.793 792.565 -318.703 820.173 -522.209 809.712C-725.295 799.249 -921.113 750.834 -1088.63 692.263" stroke="#CAF7FF" stroke-width="0.547382" stroke-miterlimit="10"/>
</g>
<mask id="mask14_317_2486" style="mask-type:luminance" maskUnits="userSpaceOnUse" x="-708" y="317" width="2518" height="609">
<path d="M-706.394 781.886L1742.27 924.583L1808.74 460.516L-639.921 317.819L-706.394 781.886Z" fill="white" stroke="white" stroke-width="1.33333"/>
</mask>
<g mask="url(#mask14_317_2486)">
<path d="M2064.11 611.919C1898.17 661.243 1725.6 634.615 1564.97 587.015C1404.6 539.485 1250.96 471.891 1087 439.126C1079.29 437.576 1071.56 436.122 1063.81 434.734C990.94 421.741 916.262 415.93 842.379 419.615C706.306 426.42 574.253 456.56 449.528 513.729C334.568 566.442 223.634 639.08 102.437 687.726C91.8708 691.972 81.2446 696.076 70.5582 700.041C-116.878 769.64 -319.655 793.962 -517.19 785.467C-714.265 776.97 -905.361 735.739 -1072.83 689.269" stroke="#CAF7FF" stroke-width="0.569891" stroke-miterlimit="10"/>
</g>
<mask id="mask15_317_2486" style="mask-type:luminance" maskUnits="userSpaceOnUse" x="-705" y="328" width="2514" height="575">
<path d="M-704.036 759.539L1747.23 901.358L1807.56 471.253L-643.702 329.435L-704.036 759.539Z" fill="white" stroke="white" stroke-width="1.33333"/>
</mask>
<g mask="url(#mask15_317_2486)">
<path d="M2065.54 623.952C1898.54 677.391 1723.53 652.209 1561.24 604.41C1399.18 556.693 1244.26 487.351 1079.07 452.458C1071.31 450.817 1063.54 449.26 1055.73 447.784C982.337 433.851 907.159 426.965 832.453 429.066C694.909 432.913 560.076 459.254 431.557 513.072C318.091 560.585 207.942 627.42 89.3246 671.88C78.9731 675.75 68.5854 679.493 58.1468 683.121C-124.999 746.538 -320.66 767.493 -512.194 761.006C-703.238 754.491 -889.578 720.637 -1056.97 686.566" stroke="#CAF7FF" stroke-width="0.5924" stroke-miterlimit="10"/>
</g>
<mask id="mask16_317_2486" style="mask-type:luminance" maskUnits="userSpaceOnUse" x="-703" y="337" width="2511" height="542">
<path d="M-701.678 737.036L1751.92 878.13L1806.68 479.238L-646.921 338.145L-701.678 737.036Z" fill="white" stroke="white" stroke-width="1.33333"/>
</mask>
<g mask="url(#mask16_317_2486)">
<path d="M2066.96 636.62C1898.89 694.482 1721.42 670.754 1557.52 622.647C1393.76 574.604 1237.57 503.306 1071.17 466.146C1063.36 464.408 1055.51 462.739 1047.65 461.14C973.736 446.188 898.065 438.216 822.551 438.642C683.502 439.464 545.895 462.234 413.572 512.391C301.549 554.844 192.214 615.606 76.1635 655.796C66.0485 659.316 55.899 662.691 45.7114 665.95C-133.182 723.14 -321.694 740.656 -507.218 736.204C-692.216 731.754 -873.778 705.433 -1041.05 684.205" stroke="#CAF7FF" stroke-width="0.614909" stroke-miterlimit="10"/>
</g>
<mask id="mask17_317_2486" style="mask-type:luminance" maskUnits="userSpaceOnUse" x="-701" y="349" width="2508" height="507">
<path d="M-699.319 714.455L1756.76 854.901L1805.5 490.203L-650.584 349.758L-699.319 714.455Z" fill="white" stroke="white" stroke-width="1.33333"/>
</mask>
<g mask="url(#mask17_317_2486)">
<path d="M2089.73 650.078C1920.63 712.709 1740.72 690.437 1575.17 641.916C1409.72 593.443 1252.28 519.914 1084.65 480.32C1076.77 478.476 1068.88 476.688 1060.97 474.987C986.53 458.938 910.371 449.788 834.045 448.496C693.502 446.152 553.084 465.618 416.963 511.728C306.324 549.209 197.844 603.554 84.3657 639.404C74.4644 642.534 64.5527 645.533 54.6142 648.429C-120 699.212 -301.367 713.147 -480.851 710.826C-659.783 708.507 -836.535 689.978 -1003.65 682.093" stroke="#CAF7FF" stroke-width="0.637078" stroke-miterlimit="10"/>
</g>
<mask id="mask18_317_2486" style="mask-type:luminance" maskUnits="userSpaceOnUse" x="-700" y="357" width="2506" height="490">
<path d="M-698.435 705.988L1758.86 846.19L1804.61 498.67L-652.683 358.468L-698.435 705.988Z" fill="white" stroke="white" stroke-width="1.33333"/>
</mask>
<g mask="url(#mask18_317_2486)">
<path d="M2091.05 662.585C1920.93 729.486 1738.64 708.835 1571.53 660.241C1404.47 611.664 1245.86 536.441 1077.06 494.58C1069.13 492.623 1061.2 490.74 1053.22 488.913C978.279 471.863 901.641 461.532 824.536 458.432C682.539 452.722 539.273 468.889 399.421 509.931C290.074 542.018 182.531 588.974 71.6496 619.926C61.9743 622.634 52.3016 625.21 42.6002 627.695C-127.702 671.263 -301.892 681.256 -475.285 681.043C-648.086 680.833 -819.941 670.484 -986.832 676.409" stroke="#CAF7FF" stroke-width="0.659587" stroke-miterlimit="10"/>
</g>
<mask id="mask19_317_2486" style="mask-type:luminance" maskUnits="userSpaceOnUse" x="-699" y="369" width="2504" height="473">
<path d="M-697.846 700.353L1760.65 840.384L1803.44 510.113L-655.056 370.082L-697.846 700.353Z" fill="white" stroke="white" stroke-width="1.33333"/>
</mask>
<g mask="url(#mask19_317_2486)">
<path d="M2092.35 675.276C1921.22 746.482 1736.56 727.519 1567.9 678.879C1399.23 630.223 1239.43 553.308 1069.51 509.156C848.258 451.677 611.621 451.257 381.918 507.959C273.719 534.665 167.264 573.776 58.9645 599.654C-281.67 681.007 -626.488 628.692 -969.89 670.131" stroke="#CAF7FF" stroke-width="0.682096" stroke-miterlimit="10"/>
</g>
<mask id="mask20_317_2486" style="mask-type:luminance" maskUnits="userSpaceOnUse" x="-699" y="378" width="2503" height="458">
<path d="M-697.257 694.621L1762.21 834.576L1802.55 518.747L-656.92 378.792L-697.257 694.621Z" fill="white" stroke="white" stroke-width="1.33333"/>
</mask>
<g mask="url(#mask20_317_2486)">
<path d="M2093.4 651.523C1997.92 691.005 1898.42 701.298 1799.84 695.289C1720.95 690.486 1642.3 675.341 1567.09 656.323C1549.24 651.821 1531.5 647.112 1513.88 642.289C1412.45 614.477 1315.61 582.084 1215.44 552.811C1168.04 538.974 1119.95 525.765 1070.94 514.812C1031.48 505.971 991.473 498.632 951.125 492.914C764.586 466.487 570.439 474.9 381.195 518.156C332.773 529.225 284.711 542.532 236.714 555.858C177.255 572.383 117.898 588.944 58.0364 601.528C-82.5333 631.072 -223.637 638.126 -365.397 639.782C-566.742 642.117 -770.112 633.781 -971.27 663.461" stroke="#CAF7FF" stroke-width="0.66402" stroke-miterlimit="10"/>
</g>
<mask id="mask21_317_2486" style="mask-type:luminance" maskUnits="userSpaceOnUse" x="-698" y="389" width="2501" height="441">
<path d="M-696.668 688.83L1763.95 828.77L1801.37 530.346L-659.242 390.406L-696.668 688.83Z" fill="white" stroke="white" stroke-width="1.33333"/>
</mask>
<g mask="url(#mask21_317_2486)">
<path d="M2094.41 627.004C1998.52 666.45 1898.8 675.241 1799.98 668.951C1720.86 663.906 1641.68 649.377 1566.23 633.04C1548.3 629.164 1530.53 625.22 1512.9 621.284C1411.44 598.551 1316.64 574.798 1216.94 551.626C1169.73 540.671 1121.56 529.723 1072.39 520.539C1032.79 513.111 992.606 506.901 952.133 502.095C764.88 479.923 570.138 488.742 380.501 528.584C331.97 538.769 283.822 550.938 235.779 562.988C176.253 577.897 116.918 592.632 57.1191 603.417C-83.2561 628.793 -223.954 632.006 -365.701 631.207C-567.047 630.056 -771.82 621.341 -972.639 656.569" stroke="#CAF7FF" stroke-width="0.646286" stroke-miterlimit="10"/>
</g>
<mask id="mask22_317_2486" style="mask-type:luminance" maskUnits="userSpaceOnUse" x="-697" y="401" width="2498" height="423">
<path d="M-696.079 682.905L1765.66 822.963L1800.19 542.078L-661.542 402.02L-696.079 682.905Z" fill="white" stroke="white" stroke-width="1.33333"/>
</mask>
<g mask="url(#mask22_317_2486)">
<path d="M2095.38 601.66C1999.08 641.1 1899.14 648.356 1800.07 641.736C1720.74 636.451 1641.02 622.545 1565.33 608.968C1547.34 605.753 1529.51 602.58 1511.87 599.558C1410.39 582.062 1317.67 567.227 1218.42 550.348C1171.43 542.367 1123.17 533.732 1073.81 526.368C1034.1 520.399 993.739 515.334 953.116 511.465C765.167 493.692 569.806 502.949 379.789 539.256C331.176 548.535 282.938 559.55 234.851 570.274C175.253 583.552 115.927 596.391 56.2001 605.339C-83.9933 626.384 -224.312 625.604 -366.012 622.292C-567.359 617.526 -773.534 608.408 -974.02 649.403" stroke="#CAF7FF" stroke-width="0.62821" stroke-miterlimit="10"/>
</g>
<mask id="mask23_317_2486" style="mask-type:luminance" maskUnits="userSpaceOnUse" x="-697" y="404" width="2498" height="414">
<path d="M-695.49 676.978L1766.8 817.156L1799.9 545.101L-662.388 404.924L-695.49 676.978Z" fill="white" stroke="white" stroke-width="1.33333"/>
</mask>
<g mask="url(#mask23_317_2486)">
<path d="M2095.83 578.114C1999.13 617.093 1898.97 622.645 1799.71 615.766C1720.15 610.257 1639.93 597.105 1564 586.468C1545.96 583.959 1528.09 581.602 1510.44 579.543C1408.96 567.544 1318.33 562.007 1219.56 551.687C1172.79 546.838 1124.47 540.646 1074.95 535.209C1035.13 530.796 994.6 526.944 953.847 524.078C765.231 510.897 569.293 520.436 378.898 552.686C330.179 560.937 281.856 570.637 233.729 579.857C174.091 591.289 114.779 602.028 55.1168 608.975C-84.8718 625.341 -224.778 620.418 -366.419 614.49C-567.739 606.003 -775.304 596.47 -975.395 642.905" stroke="#CAF7FF" stroke-width="0.610476" stroke-miterlimit="10"/>
</g>
<mask id="mask24_317_2486" style="mask-type:luminance" maskUnits="userSpaceOnUse" x="-696" y="386" width="2499" height="424">
<path d="M-694.604 668.387L1767.13 808.445L1801.67 527.561L-660.067 387.503L-694.604 668.387Z" fill="white" stroke="white" stroke-width="1.33333"/>
</mask>
<g mask="url(#mask24_317_2486)">
<path d="M2095.39 559.784C1998.3 597.432 1897.94 601.12 1798.51 594.026C1718.78 588.325 1638.07 576.156 1561.94 568.616C1543.84 566.832 1525.95 565.341 1508.29 564.271C1406.87 557.937 1318.35 561.67 1220.09 558.053C1173.56 556.372 1125.17 552.706 1075.52 549.265C1035.62 546.467 994.938 543.858 954.058 542.004C764.85 533.552 568.39 543.035 377.671 570.439C328.859 577.444 280.472 585.598 232.301 593.109C172.61 602.422 113.324 610.805 53.78 615.576C-85.9808 626.83 -225.429 617.791 -366.976 609.288C-568.213 597.121 -777.064 587.264 -976.761 637.96" stroke="#CAF7FF" stroke-width="0.5924" stroke-miterlimit="10"/>
</g>
<mask id="mask25_317_2486" style="mask-type:luminance" maskUnits="userSpaceOnUse" x="-695" y="369" width="2500" height="435">
<path d="M-694.012 662.675L1766.98 802.637L1803.44 510.044L-657.552 370.081L-694.012 662.675Z" fill="white" stroke="white" stroke-width="1.33333"/>
</mask>
<g mask="url(#mask25_317_2486)">
<path d="M2094.94 541.623C1997.46 577.981 1896.92 579.837 1797.31 572.544C1717.4 566.682 1636.21 555.449 1559.87 550.905C1541.73 549.842 1523.79 549.178 1506.13 549.084C1404.74 548.251 1318.34 561.022 1220.6 563.92C1174.31 565.34 1125.86 564.134 1076.08 562.651C1036.07 561.392 995.241 560.008 954.242 559.171C764.43 555.304 567.448 564.734 376.398 587.415C327.504 593.225 279.044 599.862 230.842 605.727C171.111 612.98 111.853 619.072 52.3904 621.724C-87.1256 628.001 -226.126 614.961 -367.565 603.941C-568.702 588.18 -778.86 577.966 -978.143 632.875" stroke="#CAF7FF" stroke-width="0.574325" stroke-miterlimit="10"/>
</g>
<mask id="mask26_317_2486" style="mask-type:luminance" maskUnits="userSpaceOnUse" x="-695" y="351" width="2501" height="447">
<path d="M-693.421 656.899L1766.81 796.831L1805.21 492.592L-655.028 352.661L-693.421 656.899Z" fill="white" stroke="white" stroke-width="1.33333"/>
</mask>
<g mask="url(#mask26_317_2486)">
<path d="M2094.51 523.593C1996.64 558.725 1895.9 558.808 1796.12 551.301C1716.03 545.262 1634.35 534.935 1557.81 533.327C1539.6 532.967 1521.64 533.125 1503.98 533.956C1402.63 538.49 1318.31 560.103 1221.09 569.377C1175.04 573.795 1126.54 575.004 1076.6 575.414C1036.49 575.687 995.508 575.498 954.396 575.606C763.972 576.24 566.471 585.608 375.104 603.722C326.132 608.353 277.598 613.528 229.356 617.759C169.587 623.006 110.358 626.879 50.9923 627.449C-88.2767 628.888 -226.812 611.919 -368.141 598.437C-569.187 579.157 -780.626 568.602 -979.51 627.639" stroke="#CAF7FF" stroke-width="0.55659" stroke-miterlimit="10"/>
</g>
<mask id="mask27_317_2486" style="mask-type:luminance" maskUnits="userSpaceOnUse" x="-694" y="337" width="2502" height="455">
<path d="M-692.829 651.079L1766.83 791.024L1806.68 478.088L-652.98 338.143L-692.829 651.079Z" fill="white" stroke="white" stroke-width="1.33333"/>
</mask>
<g mask="url(#mask27_317_2486)">
<path d="M2094.06 505.698C1995.81 539.638 1894.87 537.987 1794.93 530.267C1714.67 524.067 1632.5 514.618 1555.76 515.864C1537.5 516.191 1519.49 517.136 1501.83 518.885C1400.52 528.684 1318.3 558.939 1221.58 574.434C1175.75 581.813 1127.18 585.368 1077.11 587.629C1036.91 589.385 995.769 590.362 954.539 591.425C763.504 596.443 565.484 605.753 373.792 619.396C324.741 622.893 276.12 626.641 227.864 629.294C168.06 632.582 108.862 634.275 49.5809 632.824C-89.4359 629.519 -227.516 608.701 -368.731 592.789C-569.687 570.087 -782.417 559.177 -980.904 622.279" stroke="#CAF7FF" stroke-width="0.538515" stroke-miterlimit="10"/>
</g>
<mask id="mask28_317_2486" style="mask-type:luminance" maskUnits="userSpaceOnUse" x="-693" y="320" width="2503" height="466">
<path d="M-692.239 645.226L1766.65 785.218L1808.45 460.715L-650.432 320.723L-692.239 645.226Z" fill="white" stroke="white" stroke-width="1.33333"/>
</mask>
<g mask="url(#mask28_317_2486)">
<path d="M2093.63 487.897C1994.98 520.7 1893.86 517.338 1793.74 509.417C1713.31 503.057 1630.65 494.462 1553.71 498.516C1535.38 499.499 1517.35 501.231 1499.68 503.88C1398.41 518.834 1318.27 557.579 1222.06 579.154C1176.46 589.421 1127.83 595.273 1077.61 599.361C1037.31 602.583 996.019 604.688 954.658 606.684C763.024 615.979 564.483 625.267 372.47 634.54C323.329 636.913 274.653 639.252 226.356 640.374C166.517 641.747 107.354 641.291 48.1701 637.877C-90.6018 629.913 -228.198 605.319 -369.314 587.064C-570.161 560.974 -784.194 549.707 -982.275 616.835" stroke="#CAF7FF" stroke-width="0.520439" stroke-miterlimit="10"/>
</g>
<mask id="mask29_317_2486" style="mask-type:luminance" maskUnits="userSpaceOnUse" x="-693" y="302" width="2504" height="479">
<path d="M-691.647 639.332L1766.45 779.411L1810.22 443.381L-647.872 303.302L-691.647 639.332Z" fill="white" stroke="white" stroke-width="1.33333"/>
</mask>
<g mask="url(#mask29_317_2486)">
<path d="M2093.18 470.194C1994.15 501.898 1892.85 496.871 1792.56 488.737C1711.95 482.2 1628.82 474.439 1551.66 481.246C1533.27 482.888 1515.21 485.376 1497.53 488.908C1396.27 508.92 1318.23 556.003 1222.51 583.578C1177.15 596.695 1128.46 604.8 1078.1 610.651C1037.7 615.296 996.261 618.536 954.772 621.418C762.52 634.937 563.463 644.177 371.146 649.173C321.929 650.446 273.182 651.421 224.86 651.029C164.974 650.54 105.846 647.994 46.7643 642.626C-91.7497 630.122 -228.886 601.829 -369.87 581.229C-570.618 551.805 -785.941 540.197 -983.618 611.287" stroke="#CAF7FF" stroke-width="0.502705" stroke-miterlimit="10"/>
</g>
<mask id="mask30_317_2486" style="mask-type:luminance" maskUnits="userSpaceOnUse" x="-692" y="288" width="2505" height="484">
<path d="M-690.763 630.565L1766.93 770.7L1811.7 428.921L-646 288.785L-690.763 630.565Z" fill="white" stroke="white" stroke-width="1.33333"/>
</mask>
<g mask="url(#mask30_317_2486)">
<path d="M2092.73 452.574C1993.31 483.2 1891.83 476.538 1791.38 468.206C1710.59 461.507 1626.96 454.544 1549.6 464.054C1531.17 466.345 1513.06 469.576 1495.37 473.989C1394.15 498.959 1318.17 554.23 1222.96 587.689C1177.82 603.592 1129.05 613.926 1078.55 621.538C1038.05 627.582 996.457 631.922 954.862 635.705C761.993 653.343 562.418 662.555 369.774 663.357C320.483 663.551 271.667 663.187 223.322 661.311C163.406 658.967 104.313 654.383 45.333 647.11C-92.9047 630.134 -229.577 598.186 -370.456 575.288C-571.075 542.582 -787.697 530.619 -985 605.642" stroke="#CAF7FF" stroke-width="0.484629" stroke-miterlimit="10"/>
</g>
<mask id="mask31_317_2486" style="mask-type:luminance" maskUnits="userSpaceOnUse" x="-692" y="270" width="2507" height="499">
<path d="M-690.466 627.481L1766.23 767.796L1813.47 411.679L-643.225 271.364L-690.466 627.481Z" fill="white" stroke="white" stroke-width="1.33333"/>
</mask>
<g mask="url(#mask31_317_2486)">
<path d="M2092.3 434.996C1992.49 464.535 1890.83 456.254 1790.21 447.729C1709.25 440.844 1625.15 434.709 1547.58 446.838C1529.09 449.758 1510.94 453.714 1493.25 458.971C1392.04 488.764 1318.14 552.011 1223.4 591.205C1178.49 609.818 1129.66 622.308 1079.02 631.605C1038.42 639.023 996.666 644.433 954.939 649.091C761.469 670.747 561.374 679.889 368.452 676.579C319.087 675.727 270.207 674.032 221.841 670.699C161.886 666.547 102.834 659.953 43.9601 650.816C-94.03 629.463 -230.201 593.959 -370.952 568.824C-571.457 532.935 -789.344 520.635 -986.256 599.384" stroke="#CAF7FF" stroke-width="0.466554" stroke-miterlimit="10"/>
</g>
<mask id="mask32_317_2486" style="mask-type:luminance" maskUnits="userSpaceOnUse" x="-692" y="253" width="2508" height="522">
<path d="M-691.054 632.912L1764 773.605L1815.23 394.637L-639.819 253.944L-691.054 632.912Z" fill="white" stroke="white" stroke-width="1.33333"/>
</mask>
<g mask="url(#mask32_317_2486)">
<path d="M2091.85 417.443C1991.67 445.658 1889.87 435.85 1789.1 427.141C1707.99 420.12 1623.43 414.77 1545.66 429.34C1527.11 432.831 1508.93 437.468 1491.24 443.487C1390.08 477.744 1318.23 548.251 1223.97 592.69C1179.29 613.788 1130.41 628.263 1079.61 639.139C1038.91 647.81 997.008 654.204 955.171 659.647C761.119 684.974 560.568 693.93 367.382 686.534C317.944 684.649 269.01 681.667 220.64 676.907C160.673 671.017 101.693 662.49 42.9333 651.568C-94.7411 626.07 -230.377 587.308 -370.956 560.119C-571.284 521.297 -790.406 508.665 -986.894 590.421" stroke="#CAF7FF" stroke-width="0.448819" stroke-miterlimit="10"/>
</g>
<mask id="mask33_317_2486" style="mask-type:luminance" maskUnits="userSpaceOnUse" x="-693" y="235" width="2511" height="549">
<path d="M-691.938 641.096L1761.24 782.314L1817 377.741L-636.172 236.523L-691.938 641.096Z" fill="white" stroke="white" stroke-width="1.33333"/>
</mask>
<g mask="url(#mask33_317_2486)">
<path d="M2091.42 400.118C1990.87 427.089 1888.92 415.764 1788.01 406.882C1706.77 399.707 1621.74 395.107 1543.77 412.05C1525.18 416.094 1506.96 421.381 1489.26 428.168C1388.1 466.741 1318.28 544.346 1224.52 593.897C1180.05 617.428 1131.11 633.835 1080.18 646.232C1039.39 656.136 997.336 663.472 955.391 669.679C760.754 698.586 559.734 707.321 366.335 695.993C316.841 693.093 267.859 688.861 219.474 682.729C159.516 675.14 100.587 664.735 41.9573 652.09C-95.387 622.544 -230.491 580.607 -370.9 551.392C-571.025 509.708 -791.345 496.722 -987.447 581.441" stroke="#CAF7FF" stroke-width="0.430744" stroke-miterlimit="10"/>
</g>
<mask id="mask34_317_2486" style="mask-type:luminance" maskUnits="userSpaceOnUse" x="-694" y="221" width="2514" height="571">
<path d="M-692.821 649.276L1758.65 791.025L1818.48 363.755L-632.996 222.006L-692.821 649.276Z" fill="white" stroke="white" stroke-width="1.33333"/>
</mask>
<g mask="url(#mask34_317_2486)">
<path d="M2069.58 382.97C1968.7 408.756 1866.61 395.962 1765.58 386.874C1684.18 379.569 1598.7 375.691 1520.52 394.94C1501.88 399.54 1483.64 405.476 1465.94 412.99C1364.79 455.807 1297 540.377 1203.7 594.954C1159.44 620.86 1110.44 639.174 1059.37 653.06C1018.47 664.142 976.262 672.428 934.205 679.397C739.001 711.783 537.526 720.357 343.907 705.163C294.348 701.275 245.321 695.829 196.95 688.375C136.981 679.114 78.1211 666.891 19.6279 652.562C-117.371 619.046 -251.929 573.97 -392.148 542.786C-592.054 498.267 -813.589 484.936 -1009.3 572.63" stroke="#CAF7FF" stroke-width="0.412668" stroke-miterlimit="10"/>
</g>
<mask id="mask35_317_2486" style="mask-type:luminance" maskUnits="userSpaceOnUse" x="-695" y="203" width="2517" height="601">
<path d="M-694 660.167L1755.32 802.638L1820.25 347.056L-629.066 204.585L-694 660.167Z" fill="white" stroke="white" stroke-width="1.33333"/>
</mask>
<g mask="url(#mask35_317_2486)">
<path d="M2069.15 365.978C1967.9 390.654 1865.68 376.404 1764.53 367.135C1682.99 359.668 1597.05 356.487 1518.67 378.013C1499.98 383.16 1481.7 389.721 1463.97 397.975C1362.85 444.97 1297.06 536.411 1204.22 595.927C1160.19 624.172 1111.11 644.347 1059.89 659.697C1018.9 671.965 976.549 681.171 934.369 688.873C738.581 724.693 536.659 733.108 342.829 714.167C293.233 709.33 244.164 702.696 195.788 693.921C135.823 683.053 77.0402 669.022 18.6878 653.039C-117.959 615.655 -251.949 567.479 -391.969 534.331C-591.658 487.007 -814.374 473.326 -1009.69 564.03" stroke="#CAF7FF" stroke-width="0.394934" stroke-miterlimit="10"/>
</g>
<mask id="mask36_317_2486" style="mask-type:luminance" maskUnits="userSpaceOnUse" x="-696" y="186" width="2519" height="627">
<path d="M-694.884 668.19L1752.46 811.348L1822.02 330.322L-625.321 187.164L-694.884 668.19Z" fill="white" stroke="white" stroke-width="1.33333"/>
</mask>
<g mask="url(#mask36_317_2486)">
<path d="M2068.7 349.13C1967.1 372.74 1864.75 357.069 1763.48 347.599C1681.79 339.981 1595.41 337.479 1516.82 361.25C1498.06 366.934 1479.75 374.111 1462.02 383.086C1360.9 434.179 1297.12 532.454 1204.73 596.853C1160.9 627.438 1111.75 649.436 1060.4 666.245C1019.3 679.671 976.799 689.783 934.506 698.225C738.135 737.42 535.784 745.693 341.751 723.096C292.096 717.313 242.992 709.502 194.625 699.444C134.668 686.998 75.9774 671.205 17.7585 653.58C-118.538 612.371 -251.953 561.134 -391.766 526.026C-591.219 475.931 -815.146 461.88 -1010.07 555.613" stroke="#CAF7FF" stroke-width="0.376858" stroke-miterlimit="10"/>
</g>
<mask id="mask37_317_2486" style="mask-type:luminance" maskUnits="userSpaceOnUse" x="-697" y="171" width="2522" height="653">
<path d="M-696.064 679.097L1749.27 822.963L1823.49 316.513L-621.846 172.647L-696.064 679.097Z" fill="white" stroke="white" stroke-width="1.33333"/>
</mask>
<g mask="url(#mask37_317_2486)">
<path d="M2068.26 332.369C1966.3 354.963 1863.84 337.903 1762.45 328.244C1680.63 320.458 1593.79 318.616 1515 344.608C1496.18 350.81 1477.82 358.611 1460.09 368.299C1358.96 423.48 1297.14 528.513 1205.21 597.769C1161.59 630.634 1112.38 654.466 1060.87 672.705C1019.67 687.276 977.027 698.274 934.609 707.447C737.648 750.012 534.864 758.132 340.64 731.927C290.94 725.231 241.802 716.262 193.446 704.954C133.504 690.928 74.8824 673.409 16.8248 654.177C-119.1 609.192 -251.932 554.902 -391.549 517.869C-590.768 465.006 -815.864 450.597 -1010.4 547.391" stroke="#CAF7FF" stroke-width="0.359124" stroke-miterlimit="10"/>
</g>
<mask id="mask38_317_2486" style="mask-type:luminance" maskUnits="userSpaceOnUse" x="-699" y="154" width="2526" height="682">
<path d="M-697.244 689.912L1745.84 834.576L1825.26 299.891L-617.827 155.226L-697.244 689.912Z" fill="white" stroke="white" stroke-width="1.33333"/>
</mask>
<g mask="url(#mask38_317_2486)">
<path d="M2067.82 315.682C1965.51 337.319 1862.94 318.859 1761.43 309.007C1659.9 299.141 1550.18 299.669 1458.16 353.58C1357.04 412.82 1297.17 524.589 1205.7 598.644C1127.57 661.89 1030.45 694.351 934.714 716.592C686.629 774.233 429.566 772.111 192.303 710.479C-7.9164 658.48 -192.314 565.456 -391.279 509.836C-590.246 454.23 -816.528 439.446 -1010.66 539.337" stroke="#CAF7FF" stroke-width="0.341048" stroke-miterlimit="10"/>
</g>
<mask id="mask39_317_2486" style="mask-type:luminance" maskUnits="userSpaceOnUse" x="-799" y="200" width="2599" height="1417">
<path d="M-797.994 1456.19L1585.74 1615.63L1799.15 361.12L-584.579 201.685L-797.994 1456.19Z" fill="white" stroke="white" stroke-width="1.33333"/>
</mask>
<g mask="url(#mask39_317_2486)">
<path d="M1808 1633.56C1760.35 1615.09 1736.52 1567.71 1718.71 1522.89C1628.2 1295.04 1600.38 1046.03 1589.81 797.979C1585.97 707.677 1584.08 615.778 1554.86 531.403C1525.64 447.027 1464.4 369.465 1373.27 341.227C1254.28 304.359 1118.22 357.742 1000.44 415.424C788.831 519.068 586.218 640.948 368.504 731.382C150.774 821.826 -88.6854 880.227 -313.935 846.334C-375.685 837.042 -436.801 820.377 -485.808 786.962C-534.816 753.548 -570.565 701.434 -571.001 643.139C-571.337 599.187 -552.163 555.408 -548.989 511.276C-542.106 415.538 -614.938 331.308 -708.731 297.173C-802.526 263.05 -912.537 271.819 -1014.5 298.799" stroke="#CAF7FF" stroke-width="0.341048" stroke-miterlimit="10"/>
</g>
<mask id="mask40_317_2486" style="mask-type:luminance" maskUnits="userSpaceOnUse" x="-798" y="189" width="2600" height="1413">
<path d="M-796.516 1441.69L1587.45 1601.09L1800.33 349.47L-583.629 190.071L-796.516 1441.69Z" fill="white" stroke="white" stroke-width="1.33333"/>
</mask>
<g mask="url(#mask40_317_2486)">
<path d="M1810.98 1606.8C1764.03 1587.21 1738.68 1541.34 1718.89 1498.24C1708.54 1475.66 1698.8 1452.94 1689.68 1430.02C1657.3 1348.77 1632.43 1264.55 1613.08 1178.45C1598.7 1114.55 1587.21 1049.47 1579.52 982.737C1572.14 918.687 1568.56 853.613 1565.83 788.784C1561.99 697.732 1559.33 605.233 1530.12 520.092C1501.14 435.672 1440.94 357.529 1350.09 328.908C1272.93 304.575 1187.88 318.998 1106.34 348.451C1061.82 364.547 1018.28 385.081 977.031 406.266C944.196 423.129 911.64 440.49 879.24 458.077C728.915 539.68 581.226 626.524 427.389 700.565C402.472 712.534 377.374 724.204 352.053 735.428C237.864 786.131 117.224 827.942 -5.5865 849.31C-114.535 868.265 -224.039 870.871 -329.851 853.365C-335.01 852.516 -340.171 851.607 -345.324 850.65C-401.614 840.144 -456.616 822.829 -501.445 791.789C-543.925 762.363 -576.435 719.198 -584.846 669.98C-586.134 662.454 -586.859 654.796 -586.974 647.033C-587.612 602.872 -568.997 558.853 -565.268 514.483C-558.223 430.247 -608.29 354.328 -680.646 311.489C-690.778 305.5 -701.397 300.115 -712.397 295.473C-740.431 283.545 -770.596 275.746 -802.573 272.565C-819.762 270.866 -837.242 270.527 -854.785 271.036C-908.801 272.602 -963.964 282.077 -1017.08 296.167" stroke="#CAF7FF" stroke-width="0.341048" stroke-miterlimit="10"/>
</g>
<mask id="mask41_317_2486" style="mask-type:luminance" maskUnits="userSpaceOnUse" x="-795" y="180" width="2597" height="1396">
<path d="M-793.861 1415.78L1591.47 1574.96L1801.22 340.542L-584.117 181.361L-793.861 1415.78Z" fill="white" stroke="white" stroke-width="1.33333"/>
</mask>
<g mask="url(#mask41_317_2486)">
<path d="M1813.97 1580.04C1767.72 1559.33 1740.86 1514.98 1719.06 1473.6C1707.7 1451.92 1696.88 1430.21 1686.71 1408.28C1650.48 1330.53 1621.51 1249.41 1598.05 1165.94C1580.61 1103.99 1565.89 1040.46 1556.65 973.999C1547.79 910.188 1544.54 844.676 1541.83 779.595C1537.99 687.787 1534.58 594.711 1505.38 508.789C1476.62 424.334 1417.5 345.585 1326.9 316.589C1249.6 291.774 1163.68 306.683 1082.31 337.155C1037.8 353.848 994.545 375.108 953.61 397.13C921.052 414.617 888.849 432.68 856.808 450.933C708.163 535.662 562.001 625.325 410.027 702.907C385.436 715.45 360.649 727.694 335.595 739.524C222.579 793.013 102.724 837.736 -20.6993 859.51C-130.113 878.793 -240.06 879.532 -345.764 860.466C-350.923 859.533 -356.075 858.553 -361.217 857.514C-417.398 846.2 -472.33 828.142 -517.062 796.659C-559.528 766.762 -592.01 723.499 -600.679 674.011C-602.015 666.44 -602.776 658.75 -602.939 650.954C-603.883 606.607 -585.841 562.345 -581.543 517.736C-573.481 433.209 -618.316 356.51 -686.071 311.031C-695.556 304.685 -705.584 298.892 -716.046 293.767C-742.79 280.658 -772.134 271.484 -804.27 268.163C-821.527 266.366 -839.118 266.347 -856.738 267.117C-910.974 269.496 -966.28 279.326 -1019.67 293.551" stroke="#CAF7FF" stroke-width="0.341048" stroke-miterlimit="10"/>
</g>
<mask id="mask42_317_2486" style="mask-type:luminance" maskUnits="userSpaceOnUse" x="-792" y="169" width="2596" height="1378">
<path d="M-790.909 1386.96L1595.8 1545.92L1802.4 328.706L-584.313 169.748L-790.909 1386.96Z" fill="white" stroke="white" stroke-width="1.33333"/>
</mask>
<g mask="url(#mask42_317_2486)">
<path d="M1816.96 1553.27C1771.41 1531.45 1743.04 1488.61 1719.22 1448.95C1706.88 1428.18 1694.96 1407.47 1683.72 1386.54C1643.64 1312.32 1610.56 1234.28 1583 1153.46C1562.5 1093.48 1544.54 1031.5 1533.77 965.284C1523.42 901.723 1520.51 835.76 1517.81 770.435C1514 677.882 1509.8 584.189 1480.61 497.493C1452.07 413.001 1394.02 333.643 1303.69 304.273C1226.24 278.997 1139.45 294.381 1058.26 325.865C1013.79 343.158 970.801 365.144 930.181 388.015C897.898 406.129 866.064 424.884 834.382 443.817C687.419 531.679 542.782 624.193 392.69 705.322C368.414 718.417 343.923 731.258 319.151 743.685C207.28 799.989 88.2294 847.606 -35.8041 869.776C-145.687 889.412 -256.09 888.282 -361.682 867.629C-366.832 866.625 -371.975 865.573 -377.105 864.451C-433.18 852.34 -488.038 833.514 -532.704 801.621C-575.134 771.266 -607.61 727.877 -616.535 678.106C-617.894 670.503 -618.692 662.78 -618.917 654.951C-620.15 610.392 -602.696 565.897 -597.828 521.035C-588.74 436.241 -628.348 358.731 -691.477 310.631C-700.328 303.927 -709.761 297.701 -719.69 292.127C-745.122 277.788 -773.667 267.283 -805.967 263.786C-823.299 261.926 -841.013 262.214 -858.681 263.237C-913.124 266.43 -968.602 276.64 -1022.23 290.978" stroke="#CAF7FF" stroke-width="0.341048" stroke-miterlimit="10"/>
</g>
<mask id="mask43_317_2486" style="mask-type:luminance" maskUnits="userSpaceOnUse" x="-790" y="157" width="2595" height="1364">
<path d="M-788.253 1361.02L1599.61 1519.79L1803.58 316.901L-584.283 158.132L-788.253 1361.02Z" fill="white" stroke="white" stroke-width="1.33333"/>
</mask>
<g mask="url(#mask43_317_2486)">
<path d="M1819.95 1526.5C1775.1 1503.56 1745.13 1462.31 1719.4 1424.29C1705.99 1404.46 1693.03 1384.74 1680.75 1364.8C1636.81 1294.09 1599.62 1219.16 1567.96 1140.98C1544.4 1082.95 1523.22 1022.54 1510.88 956.592C1499.05 893.281 1496.46 826.863 1493.79 761.269C1489.98 667.967 1485.02 573.677 1455.84 486.194C1427.53 401.662 1370.54 321.704 1280.47 291.957C1202.86 266.195 1115.2 282.069 1034.18 314.566C989.745 332.46 947.038 355.176 906.736 378.887C874.741 397.641 843.263 417.089 811.954 436.692C666.664 527.694 523.573 623.042 375.352 707.727C351.391 721.386 327.195 734.826 302.706 747.851C192.013 806.953 73.7655 857.483 -50.8955 880.074C-161.259 900.051 -272.106 897.049 -377.576 874.819C-382.727 873.731 -387.871 872.596 -392.994 871.413C-448.948 858.494 -503.75 838.92 -548.319 806.582C-590.738 775.765 -623.186 732.275 -632.355 682.22C-633.762 674.572 -634.609 666.816 -634.884 658.964C-636.423 614.205 -619.543 569.464 -614.119 524.359C-604.004 439.293 -638.368 360.969 -696.88 310.229C-705.084 303.165 -713.937 296.517 -723.313 290.459C-747.448 274.899 -775.191 263.047 -807.65 259.411C-825.052 257.464 -842.876 258.06 -860.609 259.36C-915.268 263.345 -970.892 273.936 -1024.79 288.398" stroke="#CAF7FF" stroke-width="0.341048" stroke-miterlimit="10"/>
</g>
<mask id="mask44_317_2486" style="mask-type:luminance" maskUnits="userSpaceOnUse" x="-787" y="148" width="2593" height="1347">
<path d="M-785.598 1335.12L1603.65 1493.66L1804.46 307.957L-584.781 149.422L-785.598 1335.12Z" fill="white" stroke="white" stroke-width="1.33333"/>
</mask>
<g mask="url(#mask44_317_2486)">
<path d="M1822.93 1499.73C1778.78 1475.67 1747.27 1435.96 1719.57 1399.65C1705.14 1380.74 1691.09 1362.02 1677.74 1343.09C1629.95 1275.9 1588.66 1204.07 1552.88 1128.55C1526.25 1072.48 1501.84 1013.62 1487.95 947.924C1474.63 884.874 1472.38 817.999 1469.71 752.144C1465.93 658.078 1460.2 563.189 1431.03 474.914C1402.94 390.329 1347.03 309.767 1257.21 279.63C1179.46 253.394 1090.92 269.758 1010.07 303.283C965.652 321.779 923.255 345.228 883.245 369.779C851.54 389.163 820.418 409.318 789.471 429.593C645.871 523.73 504.324 621.944 357.978 710.193C334.334 724.406 310.449 738.436 286.231 752.059C176.689 813.975 59.2592 867.437 -66.0255 890.428C-176.844 910.75 -288.149 905.872 -393.51 882.062C-398.663 880.89 -403.785 879.684 -408.898 878.43C-464.745 864.698 -519.475 844.364 -563.962 811.591C-606.358 780.311 -638.787 736.695 -648.204 686.365C-649.647 678.684 -650.542 670.894 -650.854 663.009C-652.712 618.047 -636.394 573.059 -630.4 527.711C-619.269 442.357 -648.4 363.225 -702.293 309.838C-709.849 302.414 -718.108 295.343 -726.949 288.823C-749.771 272.026 -776.712 258.826 -809.341 255.038C-826.816 253.015 -844.749 253.921 -862.556 255.473C-917.422 260.275 -973.192 271.249 -1027.36 285.837" stroke="#CAF7FF" stroke-width="0.341048" stroke-miterlimit="10"/>
</g>
<mask id="mask45_317_2486" style="mask-type:luminance" maskUnits="userSpaceOnUse" x="-784" y="137" width="2591" height="1332">
<path d="M-782.942 1309.19L1607.46 1467.53L1805.64 296.146L-584.756 137.809L-782.942 1309.19Z" fill="white" stroke="white" stroke-width="1.33333"/>
</mask>
<g mask="url(#mask45_317_2486)">
<path d="M1825.92 1472.96C1782.49 1447.78 1749.45 1409.61 1719.74 1375.01C1704.31 1357.03 1689.23 1339.27 1674.76 1321.37C1623.25 1257.62 1577.71 1188.98 1537.82 1116.11C1508.14 1062.01 1480.47 1004.72 1465.03 939.286C1450.22 876.471 1448.3 809.149 1445.66 743.033C1441.88 648.197 1435.38 552.694 1406.22 463.635C1378.34 379.005 1323.5 297.835 1233.96 267.309C1156.05 240.596 1066.63 257.452 985.97 291.998C941.568 311.098 899.455 335.279 859.749 360.686C828.321 380.713 797.572 401.554 766.986 422.501C625.079 519.795 485.065 620.881 340.599 712.691C317.284 727.472 293.696 742.103 269.774 756.327C161.402 821.055 44.7672 877.442 -81.1306 900.846C-192.43 921.514 -304.168 914.759 -409.435 889.364C-414.565 888.121 -419.69 886.842 -424.805 885.504C-480.534 870.971 -535.203 849.863 -579.598 816.665C-621.984 784.92 -654.396 741.188 -664.058 690.57C-665.538 682.856 -666.481 675.021 -666.844 667.114C-669.007 621.947 -653.265 576.711 -646.715 531.115C-634.555 445.472 -658.302 365.415 -707.707 309.485C-714.598 301.678 -722.289 294.18 -730.596 287.209C-752.104 269.174 -778.246 254.634 -811.044 250.693C-828.579 248.595 -846.636 249.823 -864.492 251.628C-919.576 257.238 -975.504 268.595 -1029.93 283.298" stroke="#CAF7FF" stroke-width="0.341048" stroke-miterlimit="10"/>
</g>
<mask id="mask46_317_2486" style="mask-type:luminance" maskUnits="userSpaceOnUse" x="-782" y="125" width="2590" height="1318">
<path d="M-780.285 1283.26L1611.27 1441.4L1806.83 284.33L-584.732 126.195L-780.285 1283.26Z" fill="white" stroke="white" stroke-width="1.33333"/>
</mask>
<g mask="url(#mask46_317_2486)">
<path d="M1828.92 1446.2C1786.19 1419.89 1751.62 1383.27 1719.92 1350.37C1703.47 1333.31 1687.3 1316.54 1671.77 1299.66C1616.41 1239.43 1566.75 1173.92 1522.74 1103.72C1489.98 1051.58 1459.09 995.851 1442.1 930.685C1425.78 868.116 1424.21 800.32 1421.57 733.938C1417.79 638.341 1410.53 542.231 1381.36 452.385C1353.72 367.708 1299.94 285.903 1210.68 255.01C1132.61 227.807 1042.3 245.157 961.832 280.737C917.464 300.432 875.633 325.361 836.249 351.602C805.097 372.274 774.705 393.825 744.495 415.448C604.284 515.895 465.81 619.85 323.226 715.242C300.214 730.59 276.925 745.813 253.288 760.639C146.096 828.209 30.2592 887.529 -96.248 911.325C-208.016 932.341 -320.216 923.715 -425.362 896.735C-430.497 895.419 -435.61 894.056 -440.716 892.646C-496.337 877.298 -550.936 855.426 -595.249 821.789C-637.611 789.567 -669.996 745.729 -679.93 694.82C-681.444 687.061 -682.411 679.192 -682.839 671.274C-685.307 625.89 -670.144 580.415 -663.024 534.571C-649.847 448.635 -668.315 367.76 -713.119 309.154C-719.363 300.997 -726.458 293.062 -734.23 285.626C-754.433 266.325 -779.765 250.466 -812.721 246.373C-830.327 244.188 -848.494 245.726 -866.412 247.798C-921.715 254.229 -977.788 265.959 -1032.47 280.791" stroke="#CAF7FF" stroke-width="0.341048" stroke-miterlimit="10"/>
</g>
<mask id="mask47_317_2486" style="mask-type:luminance" maskUnits="userSpaceOnUse" x="-779" y="116" width="2588" height="1298">
<path d="M-777.334 1254.52L1615.85 1412.36L1807.71 275.329L-585.472 117.484L-777.334 1254.52Z" fill="white" stroke="white" stroke-width="1.33333"/>
</mask>
<g mask="url(#mask47_317_2486)">
<path d="M1831.92 1419.42C1789.88 1391.99 1753.8 1356.89 1720.09 1325.72C1702.62 1309.58 1685.37 1293.84 1668.78 1277.95C1609.56 1221.24 1555.78 1158.88 1507.64 1091.34C1471.82 1041.16 1437.69 987.002 1419.15 922.088C1401.34 859.765 1400.09 791.515 1397.48 724.867C1393.71 628.504 1385.67 531.772 1356.51 441.122C1329.09 356.395 1276.39 273.976 1187.38 242.688C1109.15 215.005 1017.97 232.853 937.689 269.459C893.34 289.762 851.795 315.428 812.717 342.53C781.87 363.837 751.822 386.1 721.988 408.401C583.463 512.021 446.543 618.855 305.845 717.838C283.162 733.758 260.174 749.573 236.82 765.015C130.79 835.41 15.7778 897.671 -111.358 921.896C-223.594 943.261 -336.241 932.74 -441.283 904.18C-446.405 902.78 -451.52 901.333 -456.617 899.85C-512.131 883.685 -566.662 861.059 -610.892 826.97C-653.244 794.279 -685.626 750.322 -695.793 699.122C-697.343 691.317 -698.373 683.425 -698.851 675.472C-701.613 629.881 -687.028 584.155 -679.349 538.048C-665.156 451.826 -678.343 370.129 -718.532 308.851C-724.114 300.331 -730.624 291.945 -737.874 284.054C-756.761 263.496 -781.295 246.303 -814.421 242.057C-832.1 239.796 -850.374 241.634 -868.358 243.985C-923.867 251.239 -980.081 263.332 -1035.05 278.29" stroke="#CAF7FF" stroke-width="0.341048" stroke-miterlimit="10"/>
</g>
<mask id="mask48_317_2486" style="mask-type:luminance" maskUnits="userSpaceOnUse" x="-776" y="105" width="2586" height="1282">
<path d="M-774.678 1228.6L1619.67 1386.23L1808.89 263.502L-585.454 105.87L-774.678 1228.6Z" fill="white" stroke="white" stroke-width="1.33333"/>
</mask>
<g mask="url(#mask48_317_2486)">
<path d="M1834.91 1392.66C1793.57 1364.09 1755.99 1330.54 1720.25 1301.09C1701.78 1285.87 1683.43 1271.13 1665.78 1256.25C1602.68 1203.1 1544.8 1143.87 1492.55 1078.98C1453.65 1030.78 1416.27 978.198 1396.18 913.523C1376.87 851.456 1375.95 782.738 1373.36 715.82C1369.6 618.675 1360.77 521.327 1331.63 429.87C1304.43 345.091 1252.79 262.053 1164.05 230.37C1085.68 202.208 993.616 220.554 913.509 258.189C869.193 279.102 827.922 305.507 789.164 333.46C758.597 355.404 728.923 378.371 699.464 401.363C562.627 508.166 427.253 617.886 288.456 720.472C266.08 736.95 243.403 753.372 220.335 769.42C115.467 842.659 1.26989 907.869 -126.49 932.502C-239.194 954.218 -352.304 941.808 -457.227 911.655C-462.353 910.182 -467.461 908.674 -472.546 907.107C-527.956 890.135 -582.413 866.717 -626.564 832.198C-668.884 799.05 -701.234 754.961 -711.664 703.478C-713.25 695.64 -714.317 687.714 -714.855 679.713C-717.925 633.913 -703.919 587.944 -695.671 541.585C-680.448 455.062 -688.374 372.536 -723.946 308.577C-728.892 299.692 -734.804 290.867 -741.518 282.509C-759.076 260.69 -782.825 242.159 -816.119 237.747C-833.858 235.412 -852.258 237.585 -870.301 240.179C-926.027 248.246 -982.389 260.739 -1037.61 275.828" stroke="#CAF7FF" stroke-width="0.341048" stroke-miterlimit="10"/>
</g>
<mask id="mask49_317_2486" style="mask-type:luminance" maskUnits="userSpaceOnUse" x="-773" y="93" width="2584" height="1268">
<path d="M-772.022 1202.68L1623.49 1360.1L1810.07 251.673L-585.439 94.2563L-772.022 1202.68Z" fill="white" stroke="white" stroke-width="1.33333"/>
</mask>
<g mask="url(#mask49_317_2486)">
<path d="M1837.89 1365.89C1797.27 1336.18 1758.17 1304.18 1720.41 1276.46C1700.94 1262.16 1681.49 1248.43 1662.78 1234.57C1595.8 1184.95 1533.81 1128.85 1477.43 1066.65C1435.47 1020.42 1394.85 969.402 1373.19 905C1352.38 843.177 1351.8 773.987 1349.21 706.795C1345.45 608.862 1335.85 510.897 1306.71 418.627C1279.72 333.792 1229.17 250.119 1140.68 218.051C1062.16 189.407 969.22 208.242 889.299 246.934C845.017 268.459 804.034 295.595 765.584 324.414C735.295 347.008 705.994 370.681 676.902 394.342C541.771 504.338 407.955 616.967 271.053 723.153C248.997 740.193 226.63 757.236 203.837 773.878C100.161 849.959 -13.2203 918.138 -141.592 943.181C-254.767 965.263 -368.341 950.96 -473.158 919.209C-478.275 917.663 -483.383 916.058 -488.448 914.432C-543.737 896.627 -598.141 872.463 -642.199 837.5C-684.507 803.868 -716.844 759.668 -727.534 707.889C-729.168 700.004 -730.272 692.043 -730.861 684.019C-734.241 638.02 -720.813 591.783 -711.994 545.17C-695.753 458.342 -698.415 374.979 -729.366 308.319C-733.65 299.069 -738.965 289.802 -745.155 280.975C-761.379 257.869 -784.344 238.008 -817.812 233.454C-835.622 231.031 -854.131 233.517 -872.237 236.38C-928.181 245.274 -984.699 258.144 -1040.18 273.351" stroke="#CAF7FF" stroke-width="0.341048" stroke-miterlimit="10"/>
</g>
<mask id="mask50_317_2486" style="mask-type:luminance" maskUnits="userSpaceOnUse" x="-771" y="81" width="2584" height="1254">
<path d="M-769.366 1176.77L1627.31 1333.97L1811.25 239.838L-585.426 82.6426L-769.366 1176.77Z" fill="white" stroke="white" stroke-width="1.33333"/>
</mask>
<g mask="url(#mask50_317_2486)">
<path d="M1840.89 1339.12C1800.97 1308.29 1760.36 1277.81 1720.57 1251.83C1700.11 1238.45 1679.54 1225.74 1659.77 1212.9C1588.91 1166.85 1522.82 1113.89 1462.32 1054.36C1417.27 1010.12 1373.41 960.677 1350.18 896.522C1327.89 834.931 1327.64 765.278 1325.05 697.81C1321.3 599.097 1310.93 500.497 1281.78 407.42C1255.03 322.515 1205.53 238.226 1117.32 205.761C1038.64 176.62 944.812 195.958 865.082 235.688C820.82 257.826 780.138 285.708 741.998 315.383C712.001 338.631 683.048 363.022 654.336 387.355C520.9 500.554 388.636 616.09 253.643 725.9C231.919 743.515 209.843 761.144 187.335 778.407C84.8515 857.351 -27.7232 928.495 -156.711 953.976C-270.365 976.4 -384.379 960.202 -489.092 926.848C-494.211 925.218 -499.311 923.552 -504.377 921.84C-559.563 903.224 -613.896 878.275 -657.873 842.866C-700.147 808.762 -732.479 764.425 -743.42 712.359C-745.078 704.44 -746.231 696.444 -746.87 688.384C-750.559 642.172 -737.711 595.677 -728.335 548.806C-711.063 461.67 -708.461 377.487 -734.763 308.119C-738.409 298.501 -743.123 288.767 -748.793 279.493C-763.684 255.107 -785.854 233.913 -819.493 229.206C-837.375 226.706 -855.992 229.495 -874.16 232.626C-930.322 242.338 -986.972 255.599 -1042.72 270.938" stroke="#CAF7FF" stroke-width="0.341048" stroke-miterlimit="10"/>
</g>
<mask id="mask51_317_2486" style="mask-type:luminance" maskUnits="userSpaceOnUse" x="-768" y="81" width="2581" height="1228">
<path d="M-766.711 1151.04L1632.01 1307.84L1811.33 238.66L-587.39 81.8596L-766.711 1151.04Z" fill="white" stroke="white" stroke-width="1.33333"/>
</mask>
<g mask="url(#mask51_317_2486)">
<path d="M1843.88 1312.35C1804.67 1280.37 1762.55 1251.43 1720.73 1227.19C1699.26 1214.74 1677.59 1203.05 1656.75 1191.22C1582.01 1148.75 1511.8 1098.93 1447.17 1042.07C1399.06 999.817 1351.94 951.961 1327.14 888.054C1303.35 826.705 1303.42 756.571 1300.87 688.814C1297.11 589.315 1285.96 490.075 1256.82 396.188C1230.29 311.234 1181.86 226.276 1093.91 193.434C1015.09 163.797 920.372 183.652 840.821 224.422C796.593 247.177 756.199 275.806 718.381 306.353C688.666 330.244 660.089 355.333 631.74 380.376C500.018 496.778 369.307 615.242 236.203 728.675C214.796 746.879 193.036 765.109 170.828 782.983C69.5146 864.798 -42.2509 938.915 -171.838 964.813C-285.963 987.606 -400.441 969.496 -505.052 934.547C-510.162 932.844 -515.251 931.093 -520.308 929.308C-575.388 909.866 -629.654 884.155 -673.549 848.285C-715.792 813.718 -748.096 769.257 -759.298 716.889C-761.006 708.935 -762.194 700.891 -762.873 692.82C-766.87 646.381 -754.602 599.627 -744.656 552.496C-726.365 465.046 -718.505 380.014 -740.17 307.937C-743.166 297.951 -747.283 287.773 -752.418 278.039C-765.96 252.346 -787.361 229.826 -821.17 224.965C-839.126 222.389 -857.854 225.504 -876.085 228.904C-932.45 239.437 -989.258 253.09 -1045.27 268.562" stroke="#CAF7FF" stroke-width="0.341048" stroke-miterlimit="10"/>
</g>
<mask id="mask52_317_2486" style="mask-type:luminance" maskUnits="userSpaceOnUse" x="-765" y="81" width="2578" height="1202">
<path d="M-764.056 1125.33L1636.78 1281.71L1811.33 238.237L-589.502 81.8599L-764.056 1125.33Z" fill="white" stroke="white" stroke-width="1.33333"/>
</mask>
<g mask="url(#mask52_317_2486)">
<path d="M1868.26 1285.58C1829.75 1252.46 1786.12 1225.05 1742.28 1202.57C1719.8 1191.04 1697 1180.44 1675.12 1169.57C1596.39 1130.85 1522.18 1084 1453.42 1029.83C1402.23 989.574 1351.86 943.299 1325.5 879.65C1300.21 818.541 1300.62 747.924 1298.07 679.885C1294.32 579.582 1282.39 479.722 1253.25 385.007C1226.93 299.975 1179.58 214.392 1091.91 181.149C1012.92 151.036 917.336 171.375 837.963 213.202C793.769 236.577 753.652 265.955 716.145 297.365C686.725 321.902 658.508 347.727 630.541 373.447C500.519 493.087 371.394 614.469 240.193 731.562C219.108 750.333 197.661 769.177 175.717 787.652C75.5899 872.346 -35.3381 949.45 -165.551 975.765C-280.144 998.919 -395.077 978.904 -499.586 942.344C-504.697 940.554 -509.777 938.731 -514.836 936.86C-569.787 916.603 -623.995 890.102 -667.813 853.793C-710.059 818.735 -742.347 774.146 -753.801 721.487C-755.542 713.473 -756.77 705.406 -757.524 697.296C-761.818 650.642 -750.134 603.637 -739.628 556.23C-720.32 468.475 -707.187 382.597 -724.197 307.778C-726.544 297.434 -730.061 286.799 -734.674 276.603C-746.869 249.623 -767.5 225.76 -801.468 220.745C-819.511 218.091 -838.348 221.522 -856.626 225.183C-913.209 236.55 -970.173 250.585 -1026.43 266.179" stroke="#CAF7FF" stroke-width="0.341048" stroke-miterlimit="10"/>
</g>
<mask id="mask53_317_2486" style="mask-type:luminance" maskUnits="userSpaceOnUse" x="-762" y="81" width="2575" height="1173">
<path d="M-761.104 1096.78L1642.08 1252.67L1811.33 237.751L-591.855 81.8597L-761.104 1096.78Z" fill="white" stroke="white" stroke-width="1.33333"/>
</mask>
<g mask="url(#mask53_317_2486)">
<path d="M1871.25 1258.83C1833.44 1224.54 1788.31 1198.67 1742.43 1177.95C1718.93 1167.34 1695.05 1157.77 1672.11 1147.92C1589.51 1112.79 1511.16 1069.1 1438.27 1017.63C1384 979.366 1330.38 934.663 1302.45 871.271C1275.65 810.389 1276.4 739.298 1273.86 670.973C1270.12 569.874 1257.4 469.351 1228.26 373.827C1202.16 288.714 1155.89 202.489 1068.47 168.854C989.329 138.238 892.867 159.102 813.687 201.978C769.515 225.974 729.703 256.094 692.508 288.37C663.38 313.58 635.529 340.108 607.929 366.53C479.628 489.397 352.062 613.73 222.771 734.471C202.022 753.812 180.876 773.273 159.232 792.375C60.2956 879.949 -49.8181 960.046 -180.658 986.793C-295.732 1010.31 -411.124 988.397 -515.518 950.221C-520.618 948.346 -525.701 946.449 -530.751 944.504C-585.598 923.417 -639.738 896.135 -683.476 859.373C-725.689 823.836 -757.975 779.116 -769.679 726.152C-771.458 718.102 -772.735 709.998 -773.539 701.852C-778.144 654.978 -767.055 607.708 -755.967 560.049C-735.628 471.972 -717.404 385.267 -729.596 307.668C-731.317 296.952 -734.197 285.859 -738.287 275.2C-749.136 246.928 -768.996 221.719 -803.136 216.548C-821.252 213.818 -840.196 217.554 -858.539 221.497C-915.339 233.702 -972.446 248.12 -1028.98 263.85" stroke="#CAF7FF" stroke-width="0.341048" stroke-miterlimit="10"/>
</g>
<mask id="mask54_317_2486" style="mask-type:luminance" maskUnits="userSpaceOnUse" x="-760" y="81" width="2573" height="1147">
<path d="M-758.447 1071.11L1646.86 1226.54L1811.33 237.297L-593.978 81.8604L-758.447 1071.11Z" fill="white" stroke="white" stroke-width="1.33333"/>
</mask>
<g mask="url(#mask54_317_2486)">
<path d="M1874.25 1232.05C1837.13 1196.62 1790.5 1172.28 1742.6 1153.34C1718.09 1143.65 1693.1 1135.12 1669.1 1126.28C1582.62 1094.75 1500.15 1054.22 1423.12 1005.45C1365.76 969.183 1308.88 926.08 1279.4 862.932C1251.08 802.3 1252.17 730.705 1249.64 662.103C1245.89 560.189 1232.39 459.034 1203.26 362.647C1177.38 277.474 1132.18 190.589 1045.03 156.547C965.727 125.452 868.378 146.817 789.391 190.759C745.244 215.367 705.72 246.256 668.849 279.414C640.008 305.262 612.517 332.532 585.3 359.636C458.712 485.742 332.721 613.04 205.343 737.456C184.915 757.379 164.074 777.447 142.706 797.166C44.974 887.641 -64.3098 970.745 -195.764 997.928C-311.294 1021.81 -427.167 997.97 -531.447 958.173C-536.54 956.237 -541.61 954.242 -546.651 952.224C-601.394 930.303 -655.481 902.249 -699.142 865.044C-741.346 829.011 -773.605 784.16 -785.572 730.886C-787.388 722.8 -788.703 714.66 -789.557 706.477C-794.473 659.381 -783.954 611.845 -772.307 563.906C-750.95 475.513 -727.444 387.935 -734.992 307.595C-736.078 296.517 -738.342 284.951 -741.909 273.827C-751.397 244.247 -770.502 217.698 -804.814 212.372C-822.99 209.566 -842.056 213.618 -860.46 217.822C-917.462 230.856 -974.713 245.672 -1031.51 261.538" stroke="#CAF7FF" stroke-width="0.341048" stroke-miterlimit="10"/>
</g>
<mask id="mask55_317_2486" style="mask-type:luminance" maskUnits="userSpaceOnUse" x="-736" y="81" width="2570" height="1121">
<path d="M-734.417 1045.44L1673.02 1200.41L1832.71 236.827L-574.732 81.8604L-734.417 1045.44Z" fill="white" stroke="white" stroke-width="1.33333"/>
</mask>
<g mask="url(#mask55_317_2486)">
<path d="M1877.25 1205.29C1840.84 1168.68 1792.73 1145.81 1742.77 1128.71C1717.29 1119.9 1691.16 1112.46 1666.09 1104.66C1575.74 1076.74 1489.14 1039.38 1407.96 993.31C1347.52 959.043 1287.38 917.543 1256.33 854.637C1226.51 794.242 1227.93 722.162 1225.4 653.256C1221.68 550.52 1207.39 448.705 1178.24 351.495C1152.59 266.246 1108.46 178.708 1021.57 144.256C942.118 112.656 843.879 134.549 765.074 179.55C720.975 204.786 681.743 236.435 645.176 270.453C616.628 296.979 589.518 324.959 562.67 352.76C437.807 482.143 313.385 612.406 187.938 740.499C167.819 761.007 147.296 781.685 126.218 802.023C29.6676 895.411 -78.7728 981.544 -210.852 1009.15C-326.863 1033.39 -443.171 1007.64 -547.363 966.22C-552.458 964.197 -557.521 962.14 -562.551 960.036C-617.205 937.29 -671.225 908.451 -714.792 870.776C-756.976 834.258 -789.221 789.273 -801.455 735.698C-803.304 727.551 -804.669 719.374 -805.577 711.177C-810.817 663.856 -800.881 616.039 -788.665 567.84C-766.276 479.115 -737.484 390.657 -740.4 307.563C-740.821 296.111 -742.473 284.083 -745.517 272.491C-753.643 241.599 -772.004 213.691 -806.488 208.209C-824.723 205.315 -843.912 209.698 -862.378 214.175C-919.584 228.052 -977.006 243.267 -1034.06 259.259" stroke="#CAF7FF" stroke-width="0.341048" stroke-miterlimit="10"/>
</g>
<mask id="mask56_317_2486" style="mask-type:luminance" maskUnits="userSpaceOnUse" x="-733" y="81" width="2567" height="1094">
<path d="M-731.761 1019.8L1677.81 1174.28L1832.71 236.341L-576.864 81.8596L-731.761 1019.8Z" fill="white" stroke="white" stroke-width="1.33333"/>
</mask>
<g mask="url(#mask56_317_2486)">
<path d="M1880.18 1178.52C1844.49 1140.76 1794.85 1119.44 1742.87 1104.1C1716.37 1096.23 1689.17 1089.82 1663.03 1083.04C1568.79 1058.75 1478.06 1024.56 1392.75 981.219C1329.22 948.957 1265.83 909.052 1233.21 846.383C1201.89 786.208 1203.63 713.636 1201.14 644.43C1197.4 540.872 1182.33 438.395 1153.19 340.329C1127.76 254.983 1084.71 166.77 998.087 131.92C918.48 99.8231 819.365 122.24 740.754 168.309C696.679 194.177 657.738 226.591 621.495 261.502C593.244 288.688 566.485 317.404 540.02 345.908C416.883 478.569 294.026 611.832 170.495 743.639C150.713 764.726 130.491 786.04 109.703 807.003C14.3464 903.322 -93.2855 992.478 -225.967 1020.53C-342.447 1045.16 -459.224 1017.48 -563.315 974.431C-568.399 972.322 -573.464 970.178 -578.487 968.012C-633.007 944.416 -686.97 914.774 -730.458 876.649C-772.634 839.641 -804.849 794.519 -817.331 740.627C-819.218 732.443 -820.635 724.239 -821.59 715.991C-827.14 668.441 -817.776 620.361 -804.998 571.873C-781.585 482.804 -747.511 393.439 -745.762 307.574C-745.542 295.732 -746.555 283.253 -749.104 271.201C-755.785 238.97 -773.468 209.719 -808.113 204.094C-826.42 201.11 -845.705 205.815 -864.245 210.566C-921.679 225.279 -979.23 240.886 -1036.54 257.02" stroke="#CAF7FF" stroke-width="0.341048" stroke-miterlimit="10"/>
<path d="M1882.9 1150.11C1847.95 1111.25 1796.83 1091.52 1742.87 1077.98C1715.39 1071.05 1687.09 1065.67 1659.91 1059.92C1561.87 1039.27 1467.07 1008.31 1377.71 967.755C1311.15 937.549 1244.55 899.295 1210.41 837.008C1177.64 777.205 1179.74 704.282 1177.28 634.932C1173.59 530.787 1157.79 427.868 1128.69 329.168C1103.55 243.925 1061.62 155.233 975.333 120.019C895.631 87.4695 795.696 110.322 717.302 157.336C673.285 183.75 634.65 216.842 598.734 252.54C570.775 280.323 544.402 309.691 518.326 338.822C396.94 474.424 275.701 610.315 154.123 745.491C134.655 767.111 114.758 788.983 94.2646 810.526C0.132256 909.523 -106.626 1001.47 -239.855 1029.85C-356.736 1054.75 -473.886 1025.17 -577.792 980.554C-582.86 978.362 -587.912 976.147 -592.933 973.897C-647.306 949.506 -701.144 919.136 -744.509 880.619C-786.623 843.19 -818.786 798.022 -831.491 743.93C-833.422 735.714 -834.859 727.492 -835.875 719.235C-841.716 671.563 -832.924 623.321 -819.565 574.671C-795.114 485.471 -755.738 395.427 -749.312 306.998C-748.423 294.807 -748.83 281.89 -750.847 269.383C-756.191 235.924 -773.056 205.371 -807.833 199.579C-826.215 196.53 -845.609 201.524 -864.187 206.534C-921.792 222.041 -979.468 237.994 -1037.02 254.199" stroke="#CAF7FF" stroke-width="0.341048" stroke-miterlimit="10"/>
</g>
<mask id="mask57_317_2486" style="mask-type:luminance" maskUnits="userSpaceOnUse" x="-734" y="81" width="2568" height="1103">
<path d="M-732.647 1028.35L1676.22 1182.99L1832.71 236.505L-576.153 81.8599L-732.647 1028.35Z" fill="white" stroke="white" stroke-width="1.33333"/>
</mask>
<g mask="url(#mask57_317_2486)">
<path d="M1885.48 1121.2C1833.86 1060.95 1740.39 1050.32 1656.72 1036.33C1554.91 1019.33 1456.09 991.585 1362.69 953.818C1293.11 925.69 1223.34 889.114 1187.71 827.25C1153.49 767.843 1155.95 694.648 1153.55 625.195C1149.92 520.527 1133.4 417.25 1104.4 317.979C1079.54 232.895 1038.78 143.775 952.853 108.227C873.085 75.2415 772.356 98.4894 694.204 146.393C616.051 194.309 555.734 263.642 496.972 331.626C377.35 470.051 257.731 608.464 138.109 746.889C31.01 870.823 -90.4994 1003.53 -253.326 1038.43C-376.316 1064.81 -499.577 1028.9 -606.855 979.063C-713.773 929.412 -818.834 856.662 -845.042 746.651C-879.053 603.857 -770.438 455.407 -752.181 306.171C-746.542 260.096 -758.904 203.071 -806.878 194.906C-825.299 191.769 -844.791 197.084 -863.413 202.32C-921.187 218.59 -978.963 234.872 -1036.72 251.142" stroke="#CAF7FF" stroke-width="0.341048" stroke-miterlimit="10"/>
</g>
</g>
</svg>
