<svg width="421" height="129" viewBox="0 0 421 129" fill="none" xmlns="http://www.w3.org/2000/svg">
<path d="M86.0601 64.5233C86.0601 58.1804 84.2478 45.0414 75.1865 41.4169" stroke="white" stroke-width="3"/>
<path d="M86.0601 64.5228C86.0601 70.8657 84.2478 84.0047 75.1865 87.6293" stroke="white" stroke-width="3"/>
<path d="M63.8604 64.5228C63.8604 70.8657 66.1257 84.0047 75.187 87.6293" stroke="white" stroke-width="3"/>
<path d="M75.1872 3V33.1679C75.1872 33.7202 74.7394 34.1664 74.1875 34.1856C63.5189 34.557 44.3787 40.892 44.3787 64.0704C44.3787 87.2614 63.6816 94.1584 74.2178 94.8335C74.7576 94.868 75.1872 95.3093 75.1872 95.8501V126.5C75.1872 127.052 74.7395 127.5 74.1872 127.5H64.3124C63.7987 127.5 63.3685 127.111 63.3174 126.6L62.1219 114.644C62.0781 114.207 61.7535 113.851 61.3252 113.752C56.6741 112.679 52.238 110.32 50.0246 108.909C49.632 108.659 49.1185 108.693 48.7742 109.006L40.11 116.882C39.7112 117.245 39.0968 117.226 38.7208 116.84L23.2713 100.973C22.9094 100.601 22.8919 100.014 23.231 99.6218L30.7309 90.9376C31.0301 90.5911 31.0538 90.0875 30.8105 89.6997C28.6877 86.3152 27.1073 81.1711 26.4204 78.3644C26.3178 77.9451 25.9658 77.6334 25.5363 77.5905L13.5646 76.3933C13.0534 76.3422 12.6641 75.912 12.6641 75.3983V53.6792C12.6641 53.1528 13.0722 52.7165 13.5975 52.6815L25.3226 51.8998C25.8479 51.8648 26.2525 51.4284 26.3026 50.9043C26.6777 46.9817 29.2324 41.9691 30.8425 39.3316C31.074 38.9523 31.0401 38.4674 30.7497 38.1311L23.2308 29.4249C22.8917 29.0323 22.9091 28.4457 23.2709 28.0739L38.299 12.6282C38.6622 12.255 39.2511 12.2229 39.6526 12.5546L48.7227 20.0474C49.0937 20.3538 49.6286 20.3522 50.0325 20.0907C52.5759 18.4441 58.224 16.3885 61.4262 15.3399C61.8042 15.2161 62.0747 14.8832 62.1156 14.4875L63.3146 2.8971C63.3674 2.38738 63.7969 2 64.3093 2H74.1872C74.7394 2 75.1872 2.44771 75.1872 3Z" stroke="white" stroke-width="3"/>
<path d="M98.1533 64.5238C98.1533 77.2074 87.8712 87.4895 75.1877 87.4895C62.5042 87.4895 52.2222 77.2074 52.2222 64.5238C52.2222 51.8402 62.5042 41.5581 75.1877 41.5581C87.8712 41.5581 98.1533 51.8402 98.1533 64.5238Z" stroke="white" stroke-width="3"/>
<path d="M58.8774 81.2874C60.9917 79.1731 67.2139 74.9445 75.1878 74.9445" stroke="white" stroke-width="3"/>
<path d="M91.4971 81.2874C89.3828 79.1731 83.1607 74.9445 75.1867 74.9445" stroke="white" stroke-width="3"/>
<path d="M58.8774 47.7599C60.9917 49.8743 67.2139 54.1029 75.1878 54.1029" stroke="white" stroke-width="3"/>
<path d="M91.4971 47.7599C89.3828 49.8743 83.1607 54.1029 75.1867 54.1029" stroke="white" stroke-width="3"/>
<path d="M63.8604 64.5233C63.8604 58.1804 66.1257 45.0414 75.187 41.4169" stroke="white" stroke-width="3"/>
<line x1="75.0938" y1="87.1768" x2="75.0938" y2="41.8699" stroke="white" stroke-width="2"/>
<line x1="52.5344" y1="64.4302" x2="97.841" y2="64.4302" stroke="white" stroke-width="2"/>
<path d="M86.0601 84.9118H96.8398C97.3921 84.9118 97.8398 85.3595 97.8398 85.9118V107.112M96.0275 74.4913H114.962C115.515 74.4913 115.962 74.939 115.962 75.4913V96.2385" stroke="white" stroke-width="3"/>
<path d="M86.9668 45.0422H97.7465C98.2988 45.0422 98.7465 44.5944 98.7465 44.0422V22.8418M96.9342 55.4627H115.869C116.421 55.4627 116.869 55.015 116.869 54.4627V33.7154" stroke="white" stroke-width="3"/>
<path d="M105.403 15.5946C105.403 19.2702 102.423 22.2498 98.7477 22.2498C95.0722 22.2498 92.0925 19.2702 92.0925 15.5946C92.0925 11.919 95.0722 8.93933 98.7477 8.93933C102.423 8.93933 105.403 11.919 105.403 15.5946Z" fill="#16BBDA" stroke="white" stroke-width="3"/>
<path d="M123.524 26.4669C123.524 30.1425 120.544 33.1221 116.869 33.1221C113.193 33.1221 110.213 30.1425 110.213 26.4669C110.213 22.7913 113.193 19.8116 116.869 19.8116C120.544 19.8116 123.524 22.7913 123.524 26.4669Z" fill="#16BBDA" stroke="white" stroke-width="3"/>
<path d="M122.619 103.488C122.619 107.163 119.64 110.143 115.964 110.143C112.288 110.143 109.309 107.163 109.309 103.488C109.309 99.8122 112.288 96.8325 115.964 96.8325C119.64 96.8325 122.619 99.8122 122.619 103.488Z" fill="#16BBDA" stroke="white" stroke-width="3"/>
<path d="M139.835 64.5233C139.835 68.1989 136.856 71.1785 133.18 71.1785C129.505 71.1785 126.525 68.1989 126.525 64.5233C126.525 60.8477 129.505 57.868 133.18 57.868C136.856 57.868 139.835 60.8477 139.835 64.5233Z" fill="#16BBDA" stroke="white" stroke-width="3"/>
<path d="M104.495 114.361C104.495 118.037 101.516 121.016 97.84 121.016C94.1645 121.016 91.1848 118.037 91.1848 114.361C91.1848 110.685 94.1645 107.706 97.84 107.706C101.516 107.706 104.495 110.685 104.495 114.361Z" fill="#16BBDA" stroke="white" stroke-width="3"/>
<path d="M98.7451 64.5238H126.835" stroke="white" stroke-width="3"/>
<path d="M161.436 43.197C163.309 43.2513 165.261 43.2785 167.29 43.2785H169.214C170.028 43.2695 171.433 43.2649 173.43 43.2649C175.437 43.2559 177.149 43.2468 178.565 43.2378C179.992 43.2287 181.409 43.2061 182.814 43.1698C182.903 43.7947 183.093 44.4467 183.382 45.1259C183.672 45.796 183.951 46.3484 184.219 46.783C184.486 47.2087 184.838 47.7248 185.273 48.3316C185.183 48.4855 184.988 48.6077 184.687 48.6983C184.286 48.0825 183.801 47.5347 183.232 47.0547C182.663 46.5748 181.944 46.122 181.074 45.6964C180.215 45.2708 179.139 44.9221 177.846 44.6504C176.563 44.3788 175.102 44.1977 173.463 44.1071H169.214C169.069 48.0191 168.997 50.9758 168.997 52.9771H173.764C174.043 52.9771 174.305 52.959 174.55 52.9228C174.796 52.8775 175.024 52.805 175.236 52.7054C175.459 52.6058 175.649 52.5107 175.805 52.4202C175.972 52.3206 176.145 52.1757 176.323 51.9855C176.513 51.7863 176.664 51.6233 176.775 51.4965C176.887 51.3697 177.026 51.1705 177.193 50.8988C177.361 50.6181 177.489 50.4053 177.578 50.2604C177.667 50.1155 177.801 49.8755 177.979 49.5405C178.169 49.2054 178.308 48.9609 178.398 48.807C178.788 48.9428 179 49.056 179.033 49.1466C178.375 50.5411 178.046 51.9583 178.046 53.3982C178.046 54.829 178.375 56.2507 179.033 57.6634C178.955 57.7902 178.743 57.9079 178.398 58.0165C177.717 56.6854 177.199 55.7934 176.842 55.3406C176.017 54.3354 174.991 53.8283 173.764 53.8193H168.997C168.997 55.7662 169.058 58.252 169.181 61.2766C169.192 61.512 169.32 61.7158 169.565 61.8878C169.811 62.0508 170.162 62.1776 170.619 62.2682C171.088 62.3587 171.478 62.4266 171.79 62.4719C172.114 62.5081 172.532 62.5444 173.045 62.5806C173.089 62.7617 173.112 62.8839 173.112 62.9473C173.112 63.0198 173.089 63.1103 173.045 63.219C171.149 63.1647 169.209 63.1375 167.224 63.1375C165.216 63.1375 163.276 63.1647 161.402 63.219C161.358 63.1103 161.335 63.0198 161.335 62.9473C161.335 62.8839 161.358 62.7617 161.402 62.5806C161.737 62.5534 162.005 62.5308 162.205 62.5127C162.406 62.4946 162.679 62.4629 163.025 62.4176C163.382 62.3723 163.666 62.3225 163.878 62.2682C164.101 62.2048 164.33 62.1278 164.564 62.0372C164.798 61.9467 164.971 61.838 165.082 61.7112C165.205 61.5845 165.266 61.4396 165.266 61.2766C165.4 58.4422 165.467 55.5851 165.467 52.7054C165.467 49.7714 165.411 47.2403 165.3 45.1123C165.289 44.8768 165.16 44.6776 164.915 44.5146C164.681 44.3516 164.324 44.2248 163.845 44.1343C163.365 44.0437 162.98 43.9849 162.69 43.9577C162.4 43.9215 161.982 43.8807 161.436 43.8354C161.391 43.6724 161.369 43.5592 161.369 43.4958C161.369 43.4415 161.391 43.3419 161.436 43.197Z" fill="white"/>
<path d="M186.594 43.1698C188.423 43.2423 190.731 43.2785 193.519 43.2785C201.404 51.3018 205.641 55.5761 206.232 56.1013C206.823 56.6175 207.119 56.8755 207.119 56.8755H207.253C207.297 55.1369 207.32 53.7378 207.32 52.6783C207.32 50.5864 207.264 48.1278 207.152 45.3024C207.13 44.4874 205.892 43.9894 203.439 43.8083C203.394 43.609 203.372 43.4868 203.372 43.4415C203.372 43.3691 203.394 43.2785 203.439 43.1698C205.234 43.2242 206.823 43.2513 208.206 43.2513C209.098 43.2513 210.593 43.2242 212.689 43.1698C212.734 43.2785 212.756 43.3691 212.756 43.4415C212.756 43.5864 212.734 43.7087 212.689 43.8083C210.247 43.9894 209.015 44.4874 208.992 45.3024C208.859 48.1369 208.792 50.9305 208.792 53.6834C208.792 57.8943 208.847 61.0638 208.959 63.1918L208.658 63.219L192.031 46.6065H191.863C191.796 48.9519 191.763 51.3199 191.763 53.7106C191.763 55.8115 191.819 58.2656 191.93 61.0728C191.953 61.8969 193.185 62.3995 195.627 62.5806C195.683 62.7345 195.711 62.8568 195.711 62.9473C195.711 63.0379 195.683 63.1284 195.627 63.219C193.854 63.1647 192.27 63.1375 190.876 63.1375C189.984 63.1375 188.49 63.1647 186.393 63.219C186.338 63.1284 186.31 63.0379 186.31 62.9473C186.31 62.7934 186.338 62.6711 186.393 62.5806C188.858 62.3904 190.09 61.8878 190.09 61.0728C190.224 58.2475 190.291 55.4583 190.291 52.7054C190.291 49.7171 190.246 47.1226 190.157 44.9221C189.22 44.261 188.033 43.8898 186.594 43.8083C186.527 43.6905 186.494 43.5864 186.494 43.4958C186.494 43.36 186.527 43.2513 186.594 43.1698Z" fill="white"/>
<path d="M219.062 53.9279C219.062 53.2759 219.007 50.2921 218.895 44.9764C218.862 44.7682 218.728 44.5916 218.494 44.4467C218.271 44.2927 217.942 44.175 217.507 44.0935C217.072 44.012 216.715 43.9532 216.436 43.9169C216.169 43.8807 215.789 43.8445 215.299 43.8083C215.254 43.6453 215.232 43.5321 215.232 43.4687C215.232 43.4143 215.254 43.3147 215.299 43.1698C215.589 43.1789 216.28 43.2015 217.373 43.2378C218.466 43.2649 219.308 43.2785 219.899 43.2785C220.401 43.2785 221.349 43.2604 222.743 43.2242C224.136 43.188 225.14 43.1698 225.754 43.1698C228.608 43.1698 230.789 43.7087 232.294 44.7863C233.799 45.8639 234.552 47.2992 234.552 49.0922C234.552 50.7947 233.878 52.1847 232.528 53.2623C231.179 54.34 229.261 54.8788 226.774 54.8788C225.28 54.8788 223.936 54.6252 222.743 54.1181C222.743 56.3277 222.776 58.7138 222.843 61.2766C222.854 61.512 222.982 61.7158 223.228 61.8878C223.473 62.0508 223.824 62.1776 224.281 62.2682C224.75 62.3587 225.14 62.4266 225.452 62.4719C225.776 62.5081 226.194 62.5444 226.707 62.5806C226.752 62.7617 226.774 62.8839 226.774 62.9473C226.774 63.0198 226.752 63.1103 226.707 63.219C224.811 63.1647 222.871 63.1375 220.886 63.1375C218.878 63.1375 216.938 63.1647 215.065 63.219C215.02 63.1103 214.998 63.0198 214.998 62.9473C214.998 62.7934 215.02 62.6711 215.065 62.5806C215.578 62.5444 215.99 62.5081 216.302 62.4719C216.626 62.4266 217.016 62.3587 217.473 62.2682C217.942 62.1776 218.299 62.0508 218.544 61.8878C218.789 61.7158 218.917 61.512 218.929 61.2766C219.018 58.9493 219.062 56.4997 219.062 53.9279ZM222.843 44.1071C222.776 47.3671 222.743 50.4008 222.743 53.208C223.657 53.5431 224.566 53.7106 225.469 53.7106C227.042 53.7106 228.224 53.2986 229.015 52.4745C229.807 51.6504 230.203 50.514 230.203 49.0651C230.203 45.7235 228.168 44.0528 224.097 44.0528C223.841 44.0528 223.423 44.0709 222.843 44.1071Z" fill="white"/>
<path d="M269.379 49.3367C269.022 48.6938 268.671 48.1323 268.325 47.6524C267.98 47.1634 267.528 46.6563 266.97 46.131C266.413 45.6058 265.816 45.1757 265.18 44.8406C264.545 44.5055 263.764 44.2294 262.839 44.012C261.913 43.7947 260.893 43.686 259.777 43.686C258.573 43.686 257.48 43.8852 256.499 44.2837C255.518 44.6821 254.709 45.2028 254.073 45.8458C253.449 46.4887 252.919 47.2358 252.484 48.0871C252.06 48.9292 251.759 49.7805 251.581 50.6407C251.403 51.492 251.313 52.3568 251.313 53.2352C251.313 54.1045 251.408 54.9693 251.598 55.8296C251.787 56.6808 252.099 57.5275 252.534 58.3697C252.98 59.2119 253.527 59.9499 254.174 60.5838C254.821 61.2177 255.635 61.7339 256.616 62.1323C257.608 62.5217 258.707 62.7164 259.911 62.7164C262.365 62.7164 264.071 62.2727 265.03 61.3852V55.8704C265.03 55.6802 264.935 55.5127 264.746 55.3678C264.556 55.2138 264.339 55.0961 264.093 55.0146C263.848 54.9331 263.519 54.8607 263.106 54.7973C262.705 54.7248 262.376 54.675 262.119 54.6479C261.863 54.6207 261.539 54.5935 261.149 54.5664C261.105 54.4215 261.082 54.3128 261.082 54.2403C261.082 54.177 261.105 54.0728 261.149 53.9279C263.669 54.0004 265.61 54.0366 266.97 54.0366C268.353 54.0366 270.294 54.0004 272.792 53.9279C272.847 54.109 272.875 54.2132 272.875 54.2403C272.875 54.2766 272.847 54.3852 272.792 54.5664C272.401 54.5935 272.078 54.6207 271.821 54.6479C271.565 54.675 271.23 54.7248 270.818 54.7973C270.416 54.8607 270.093 54.9331 269.848 55.0146C269.613 55.0961 269.401 55.2138 269.212 55.3678C269.022 55.5127 268.927 55.6802 268.927 55.8704V57.8807C268.927 59.6013 269.178 61.0094 269.68 62.1052C267.84 62.6576 266.206 63.0605 264.779 63.3141C263.352 63.5676 261.729 63.6944 259.911 63.6944C258.83 63.6944 257.742 63.6039 256.649 63.4228C255.557 63.2416 254.408 62.9021 253.204 62.404C252.01 61.9059 250.956 61.2811 250.042 60.5295C249.139 59.7779 248.386 58.7727 247.784 57.514C247.193 56.2552 246.897 54.829 246.897 53.2352C246.897 52.0851 247.048 51.0211 247.349 50.0431C247.661 49.056 248.074 48.2093 248.587 47.503C249.1 46.7966 249.707 46.1627 250.41 45.6013C251.124 45.0398 251.865 44.5825 252.635 44.2294C253.404 43.8762 254.213 43.5864 255.06 43.36C255.919 43.1246 256.733 42.9616 257.503 42.871C258.272 42.7714 259.03 42.7216 259.777 42.7216C261.026 42.7216 262.214 42.785 263.34 42.9118C264.478 43.0295 265.61 43.1789 266.736 43.36C267.862 43.5321 268.755 43.6498 269.413 43.7132C269.245 44.1207 269.162 44.6957 269.162 45.4383C269.162 46.6698 269.435 47.8697 269.981 49.0379C269.914 49.2009 269.714 49.3005 269.379 49.3367Z" fill="white"/>
<path d="M275.05 43.1698C277.548 43.2423 279.488 43.2785 280.871 43.2785C282.254 43.2785 284.194 43.2423 286.692 43.1698C286.737 43.3147 286.759 43.4143 286.759 43.4687C286.759 43.5321 286.737 43.6453 286.692 43.8083C286.179 43.8445 285.761 43.8852 285.438 43.9305C285.125 43.9667 284.735 44.0301 284.267 44.1207C283.809 44.2112 283.458 44.3425 283.213 44.5146C282.968 44.6776 282.839 44.8768 282.828 45.1123C282.683 48.1912 282.611 51.0573 282.611 53.7106C282.611 55.078 282.672 57.9441 282.795 62.3089H287.964C289.603 62.2184 291.069 62.0237 292.363 61.7248C293.656 61.426 294.733 61.0457 295.591 60.5838C296.461 60.1129 297.175 59.6284 297.732 59.1304C298.301 58.6233 298.792 58.0573 299.204 57.4325C299.494 57.523 299.684 57.6453 299.773 57.7992C299.316 58.4874 298.959 59.0444 298.703 59.47C298.457 59.8956 298.184 60.457 297.883 61.1543C297.593 61.8425 297.403 62.5036 297.314 63.1375H282.795C279.773 63.1375 277.18 63.1647 275.016 63.219C274.972 63.1103 274.949 63.0198 274.949 62.9473C274.949 62.8839 274.972 62.7617 275.016 62.5806C275.529 62.5444 275.942 62.5081 276.254 62.4719C276.578 62.4266 276.968 62.3587 277.425 62.2682C277.893 62.1776 278.25 62.0508 278.496 61.8878C278.741 61.7158 278.869 61.512 278.88 61.2766C279.014 58.4422 279.081 55.5851 279.081 52.7054C279.081 49.7714 279.025 47.2403 278.914 45.1123C278.903 44.8768 278.774 44.6776 278.529 44.5146C278.284 44.3425 277.927 44.2112 277.459 44.1207C277.001 44.0301 276.611 43.9667 276.288 43.9305C275.975 43.8852 275.563 43.8445 275.05 43.8083C275.005 43.6453 274.983 43.5321 274.983 43.4687C274.983 43.3781 275.005 43.2785 275.05 43.1698Z" fill="white"/>
<path d="M315.464 42.708C316.322 42.708 317.226 42.7805 318.174 42.9253C319.133 43.0702 320.075 43.3102 321.001 43.6453C321.937 43.9713 322.829 44.4059 323.677 44.9493C324.536 45.4836 325.288 46.1401 325.935 46.9189C326.582 47.6977 327.095 48.6077 327.474 49.6491C327.864 50.6905 328.06 51.8859 328.06 53.2352C328.06 54.5935 327.87 55.7979 327.491 56.8484C327.112 57.8898 326.599 58.7999 325.952 59.5786C325.305 60.3484 324.552 61.0004 323.694 61.5347C322.846 62.0599 321.948 62.4855 321.001 62.8115C320.064 63.1284 319.105 63.3548 318.123 63.4907C317.142 63.6356 316.205 63.708 315.313 63.708C314.466 63.708 313.562 63.6356 312.603 63.4907C311.655 63.3548 310.713 63.1284 309.776 62.8115C308.84 62.4855 307.942 62.0599 307.083 61.5347C306.236 61.0004 305.483 60.3484 304.825 59.5786C304.178 58.7999 303.66 57.8898 303.269 56.8484C302.89 55.7979 302.701 54.5935 302.701 53.2352C302.701 51.8406 302.901 50.6136 303.303 49.5541C303.704 48.4855 304.234 47.5618 304.892 46.783C305.561 46.0043 306.33 45.3568 307.2 44.8406C308.081 44.3154 308.99 43.8943 309.927 43.5773C310.875 43.2604 311.823 43.0385 312.771 42.9118C313.73 42.7759 314.627 42.708 315.464 42.708ZM315.38 43.686C314.332 43.686 313.401 43.8264 312.587 44.1071C311.772 44.3878 311.059 44.7682 310.445 45.2481C309.832 45.719 309.314 46.2714 308.89 46.9053C308.466 47.5301 308.12 48.1957 307.853 48.9021C307.596 49.6084 307.407 50.3328 307.284 51.0754C307.172 51.818 307.117 52.5379 307.117 53.2352C307.117 53.9053 307.172 54.6026 307.284 55.327C307.395 56.0515 307.579 56.7669 307.836 57.4732C308.092 58.1705 308.427 58.8361 308.84 59.47C309.263 60.1039 309.782 60.6608 310.395 61.1407C311.009 61.6207 311.722 62.0056 312.536 62.2953C313.362 62.5761 314.31 62.7164 315.38 62.7164C316.428 62.7164 317.36 62.5806 318.174 62.3089C318.988 62.0282 319.701 61.6524 320.315 61.1815C320.928 60.7015 321.441 60.1491 321.854 59.5243C322.277 58.8904 322.618 58.2248 322.874 57.5275C323.142 56.8212 323.331 56.1013 323.443 55.3678C323.565 54.6343 323.627 53.9234 323.627 53.2352C323.627 52.5379 323.565 51.818 323.443 51.0754C323.331 50.3328 323.142 49.6084 322.874 48.9021C322.618 48.1957 322.277 47.5301 321.854 46.9053C321.43 46.2714 320.911 45.719 320.298 45.2481C319.685 44.7682 318.971 44.3878 318.157 44.1071C317.343 43.8264 316.417 43.686 315.38 43.686Z" fill="white"/>
<path d="M331.589 43.197C333.463 43.2513 335.414 43.2785 337.444 43.2785C338.403 43.2785 339.317 43.2604 340.187 43.2242C341.057 43.188 341.503 43.1698 341.525 43.1698C342.128 43.1698 342.68 43.1834 343.181 43.2106C343.694 43.2287 344.269 43.274 344.904 43.3464C345.551 43.4189 346.125 43.5185 346.627 43.6453C347.129 43.772 347.631 43.9486 348.133 44.175C348.646 44.4014 349.069 44.6686 349.404 44.9764C349.75 45.2843 350.029 45.6647 350.24 46.1175C350.452 46.5702 350.558 47.0773 350.558 47.6388C350.558 49.296 349.337 50.5411 346.895 51.3742V51.4829C348.724 51.7546 350.252 52.3704 351.478 53.3303C352.716 54.2902 353.335 55.5172 353.335 57.0114C353.335 57.8083 353.157 58.5282 352.8 59.1711C352.454 59.805 352.008 60.3303 351.462 60.7468C350.915 61.1634 350.229 61.5256 349.404 61.8335C348.579 62.1414 347.776 62.3768 346.995 62.5398C346.215 62.7028 345.317 62.8341 344.302 62.9338C343.298 63.0243 342.44 63.0832 341.726 63.1103C341.012 63.1284 340.215 63.1375 339.334 63.1375C336.312 63.1375 333.719 63.1647 331.556 63.219C331.511 63.1103 331.489 63.0198 331.489 62.9473C331.489 62.8839 331.511 62.7617 331.556 62.5806C331.89 62.5534 332.158 62.5308 332.359 62.5127C332.559 62.4946 332.833 62.4629 333.178 62.4176C333.535 62.3723 333.819 62.3225 334.031 62.2682C334.254 62.2048 334.483 62.1278 334.717 62.0372C334.951 61.9467 335.124 61.838 335.236 61.7112C335.358 61.5845 335.42 61.4396 335.42 61.2766C335.554 58.4422 335.62 55.5851 335.62 52.7054C335.62 49.7714 335.565 47.2403 335.453 45.1123C335.442 44.8768 335.314 44.6776 335.068 44.5146C334.834 44.3516 334.477 44.2248 333.998 44.1343C333.518 44.0437 333.134 43.9849 332.844 43.9577C332.554 43.9215 332.136 43.8807 331.589 43.8354C331.545 43.6724 331.522 43.5592 331.522 43.4958C331.522 43.4415 331.545 43.3419 331.589 43.197ZM339.15 52.7054V53.7106L339.334 62.2138C340.081 62.2138 340.745 62.2048 341.325 62.1867C341.904 62.1595 342.54 62.1052 343.232 62.0237C343.923 61.9331 344.525 61.8154 345.038 61.6705C345.551 61.5256 346.064 61.3264 346.577 61.0728C347.09 60.8102 347.508 60.5023 347.832 60.1491C348.155 59.796 348.417 59.3613 348.618 58.8451C348.819 58.3199 348.919 57.7313 348.919 57.0793C348.919 56.4454 348.791 55.8794 348.534 55.3814C348.278 54.8742 347.915 54.4532 347.447 54.1181C346.99 53.774 346.427 53.4887 345.757 53.2623C345.099 53.036 344.38 52.8729 343.6 52.7733C342.83 52.6737 341.988 52.6239 341.074 52.6239C340.438 52.6239 339.797 52.6511 339.15 52.7054ZM339.367 44.1343L339.15 51.8768C343.7 51.8768 345.975 50.4642 345.975 47.6388C345.975 46.4072 345.501 45.5017 344.553 44.9221C343.616 44.3425 342.367 44.0528 340.806 44.0528C340.46 44.0528 339.981 44.0799 339.367 44.1343Z" fill="white"/>
<path d="M368.306 42.9661C368.474 42.8665 368.652 42.8031 368.842 42.7759L377.992 61.3309C378.103 61.5573 378.287 61.752 378.544 61.915C378.8 62.0689 379.118 62.1912 379.497 62.2817C379.887 62.3632 380.222 62.4266 380.501 62.4719C380.791 62.5081 381.142 62.5444 381.555 62.5806C381.599 62.7255 381.621 62.8477 381.621 62.9473C381.621 63.056 381.599 63.1556 381.555 63.2462C379.146 63.1737 377.345 63.1375 376.152 63.1375C374.858 63.1375 372.984 63.1737 370.531 63.2462C370.486 63.1375 370.464 63.0288 370.464 62.9202C370.464 62.8024 370.486 62.6892 370.531 62.5806C372.784 62.3814 373.91 62.0372 373.91 61.5482C373.91 61.3943 373.888 61.2358 373.843 61.0728L371.418 56.0198C370.682 56.0017 369.689 55.9926 368.44 55.9926C367.849 55.9926 366.316 56.0107 363.84 56.0469L361.281 61.3309V61.4939C361.281 61.5845 361.297 61.6705 361.331 61.752C361.375 61.8335 361.442 61.9059 361.532 61.9693C361.632 62.0327 361.727 62.0871 361.816 62.1323C361.905 62.1776 362.028 62.2229 362.184 62.2682C362.351 62.3044 362.491 62.3361 362.602 62.3632C362.725 62.3814 362.887 62.404 363.087 62.4312C363.299 62.4583 363.461 62.481 363.572 62.4991C363.684 62.5081 363.846 62.5217 364.057 62.5398C364.28 62.5579 364.437 62.5715 364.526 62.5806C364.57 62.7255 364.593 62.8477 364.593 62.9473C364.593 63.0017 364.57 63.1013 364.526 63.2462C362.028 63.1737 360.623 63.1375 360.31 63.1375C359.708 63.1375 358.158 63.1737 355.66 63.2462C355.616 63.1375 355.593 63.0288 355.593 62.9202C355.593 62.8024 355.616 62.6892 355.66 62.5806C357.98 62.3632 359.301 61.9014 359.625 61.1951L366.817 46.4706L366.449 45.6692C367.085 45.3251 367.526 44.9538 367.771 44.5554C368.027 44.1569 368.206 43.6272 368.306 42.9661ZM368.44 54.9331C369.466 54.9331 370.275 54.924 370.866 54.9059L367.687 48.2229H367.62L364.425 54.8788C365.474 54.915 366.812 54.9331 368.44 54.9331Z" fill="white"/>
<path d="M383.612 43.1698C386.11 43.2423 388.05 43.2785 389.433 43.2785C390.816 43.2785 392.756 43.2423 395.254 43.1698C395.299 43.3147 395.321 43.4143 395.321 43.4687C395.321 43.5321 395.299 43.6453 395.254 43.8083C394.741 43.8445 394.323 43.8852 394 43.9305C393.688 43.9667 393.297 44.0301 392.829 44.1207C392.372 44.2112 392.02 44.3425 391.775 44.5146C391.53 44.6776 391.402 44.8768 391.39 45.1123C391.245 48.1912 391.173 51.0573 391.173 53.7106C391.173 55.078 391.234 57.9441 391.357 62.3089H396.526C398.165 62.2184 399.632 62.0237 400.925 61.7248C402.219 61.426 403.295 61.0457 404.154 60.5838C405.023 60.1129 405.737 59.6284 406.295 59.1304C406.863 58.6233 407.354 58.0573 407.767 57.4325C408.057 57.523 408.246 57.6453 408.335 57.7992C407.878 58.4874 407.521 59.0444 407.265 59.47C407.02 59.8956 406.746 60.457 406.445 61.1543C406.155 61.8425 405.966 62.5036 405.876 63.1375H391.357C388.335 63.1375 385.742 63.1647 383.579 63.219C383.534 63.1103 383.512 63.0198 383.512 62.9473C383.512 62.8839 383.534 62.7617 383.579 62.5806C384.092 62.5444 384.504 62.5081 384.816 62.4719C385.14 62.4266 385.53 62.3587 385.987 62.2682C386.456 62.1776 386.813 62.0508 387.058 61.8878C387.303 61.7158 387.431 61.512 387.443 61.2766C387.576 58.4422 387.643 55.5851 387.643 52.7054C387.643 49.7714 387.588 47.2403 387.476 45.1123C387.465 44.8768 387.337 44.6776 387.091 44.5146C386.846 44.3425 386.489 44.2112 386.021 44.1207C385.564 44.0301 385.173 43.9667 384.85 43.9305C384.538 43.8852 384.125 43.8445 383.612 43.8083C383.567 43.6453 383.545 43.5321 383.545 43.4687C383.545 43.3781 383.567 43.2785 383.612 43.1698Z" fill="white"/>
<path d="M187.699 82.424C188.147 82.504 188.527 82.74 188.839 83.132C189.151 83.524 189.307 83.968 189.307 84.464C189.307 84.888 189.195 85.272 188.971 85.616C188.755 85.952 188.439 86.22 188.023 86.42C187.607 86.612 187.123 86.708 186.571 86.708H183.235V78.368H186.415C186.983 78.368 187.471 78.464 187.879 78.656C188.287 78.848 188.595 79.108 188.803 79.436C189.011 79.756 189.115 80.116 189.115 80.516C189.115 80.996 188.987 81.396 188.731 81.716C188.475 82.036 188.131 82.272 187.699 82.424ZM184.603 81.872H186.295C186.743 81.872 187.091 81.772 187.339 81.572C187.595 81.364 187.723 81.068 187.723 80.684C187.723 80.308 187.595 80.016 187.339 79.808C187.091 79.592 186.743 79.484 186.295 79.484H184.603V81.872ZM186.451 85.592C186.915 85.592 187.279 85.48 187.543 85.256C187.807 85.032 187.939 84.72 187.939 84.32C187.939 83.912 187.799 83.588 187.519 83.348C187.239 83.108 186.867 82.988 186.403 82.988H184.603V85.592H186.451Z" fill="white"/>
<path d="M192.15 78.368V83.684C192.15 84.316 192.314 84.792 192.642 85.112C192.978 85.432 193.442 85.592 194.034 85.592C194.634 85.592 195.098 85.432 195.426 85.112C195.762 84.792 195.93 84.316 195.93 83.684V78.368H197.298V83.66C197.298 84.34 197.15 84.916 196.854 85.388C196.558 85.86 196.162 86.212 195.666 86.444C195.17 86.676 194.622 86.792 194.022 86.792C193.422 86.792 192.874 86.676 192.378 86.444C191.89 86.212 191.502 85.86 191.214 85.388C190.926 84.916 190.782 84.34 190.782 83.66V78.368H192.15Z" fill="white"/>
<path d="M201.827 86.792C201.267 86.792 200.763 86.696 200.315 86.504C199.867 86.304 199.515 86.024 199.259 85.664C199.003 85.304 198.875 84.884 198.875 84.404H200.339C200.371 84.764 200.511 85.06 200.759 85.292C201.015 85.524 201.371 85.64 201.827 85.64C202.299 85.64 202.667 85.528 202.931 85.304C203.195 85.072 203.327 84.776 203.327 84.416C203.327 84.136 203.243 83.908 203.075 83.732C202.915 83.556 202.711 83.42 202.463 83.324C202.223 83.228 201.887 83.124 201.455 83.012C200.911 82.868 200.467 82.724 200.123 82.58C199.787 82.428 199.499 82.196 199.259 81.884C199.019 81.572 198.899 81.156 198.899 80.636C198.899 80.156 199.019 79.736 199.259 79.376C199.499 79.016 199.835 78.74 200.267 78.548C200.699 78.356 201.199 78.26 201.767 78.26C202.575 78.26 203.235 78.464 203.747 78.872C204.267 79.272 204.555 79.824 204.611 80.528H203.099C203.075 80.224 202.931 79.964 202.667 79.748C202.403 79.532 202.055 79.424 201.623 79.424C201.231 79.424 200.911 79.524 200.663 79.724C200.415 79.924 200.291 80.212 200.291 80.588C200.291 80.844 200.367 81.056 200.519 81.224C200.679 81.384 200.879 81.512 201.119 81.608C201.359 81.704 201.687 81.808 202.103 81.92C202.655 82.072 203.103 82.224 203.447 82.376C203.799 82.528 204.095 82.764 204.335 83.084C204.583 83.396 204.707 83.816 204.707 84.344C204.707 84.768 204.591 85.168 204.359 85.544C204.135 85.92 203.803 86.224 203.363 86.456C202.931 86.68 202.419 86.792 201.827 86.792Z" fill="white"/>
<path d="M207.689 78.368V86.708H206.321V78.368H207.689Z" fill="white"/>
<path d="M216.337 86.708H214.969L210.853 80.48V86.708H209.485V78.356H210.853L214.969 84.572V78.356H216.337V86.708Z" fill="white"/>
<path d="M219.502 79.472V81.92H222.382V83.036H219.502V85.592H222.742V86.708H218.134V78.356H222.742V79.472H219.502Z" fill="white"/>
<path d="M227.175 86.792C226.615 86.792 226.111 86.696 225.663 86.504C225.215 86.304 224.863 86.024 224.607 85.664C224.351 85.304 224.223 84.884 224.223 84.404H225.687C225.719 84.764 225.859 85.06 226.107 85.292C226.363 85.524 226.719 85.64 227.175 85.64C227.647 85.64 228.015 85.528 228.279 85.304C228.543 85.072 228.675 84.776 228.675 84.416C228.675 84.136 228.591 83.908 228.423 83.732C228.263 83.556 228.059 83.42 227.811 83.324C227.571 83.228 227.235 83.124 226.803 83.012C226.259 82.868 225.815 82.724 225.471 82.58C225.135 82.428 224.847 82.196 224.607 81.884C224.367 81.572 224.247 81.156 224.247 80.636C224.247 80.156 224.367 79.736 224.607 79.376C224.847 79.016 225.183 78.74 225.615 78.548C226.047 78.356 226.547 78.26 227.115 78.26C227.923 78.26 228.583 78.464 229.095 78.872C229.615 79.272 229.903 79.824 229.959 80.528H228.447C228.423 80.224 228.279 79.964 228.015 79.748C227.751 79.532 227.403 79.424 226.971 79.424C226.579 79.424 226.259 79.524 226.011 79.724C225.763 79.924 225.639 80.212 225.639 80.588C225.639 80.844 225.715 81.056 225.867 81.224C226.027 81.384 226.227 81.512 226.467 81.608C226.707 81.704 227.035 81.808 227.451 81.92C228.003 82.072 228.451 82.224 228.795 82.376C229.147 82.528 229.443 82.764 229.683 83.084C229.931 83.396 230.055 83.816 230.055 84.344C230.055 84.768 229.939 85.168 229.707 85.544C229.483 85.92 229.151 86.224 228.711 86.456C228.279 86.68 227.767 86.792 227.175 86.792Z" fill="white"/>
<path d="M234.417 86.792C233.857 86.792 233.353 86.696 232.905 86.504C232.457 86.304 232.105 86.024 231.849 85.664C231.593 85.304 231.465 84.884 231.465 84.404H232.929C232.961 84.764 233.101 85.06 233.349 85.292C233.605 85.524 233.961 85.64 234.417 85.64C234.889 85.64 235.257 85.528 235.521 85.304C235.785 85.072 235.917 84.776 235.917 84.416C235.917 84.136 235.833 83.908 235.665 83.732C235.505 83.556 235.301 83.42 235.053 83.324C234.813 83.228 234.477 83.124 234.045 83.012C233.501 82.868 233.057 82.724 232.713 82.58C232.377 82.428 232.089 82.196 231.849 81.884C231.609 81.572 231.489 81.156 231.489 80.636C231.489 80.156 231.609 79.736 231.849 79.376C232.089 79.016 232.425 78.74 232.857 78.548C233.289 78.356 233.789 78.26 234.357 78.26C235.165 78.26 235.825 78.464 236.337 78.872C236.857 79.272 237.145 79.824 237.201 80.528H235.689C235.665 80.224 235.521 79.964 235.257 79.748C234.993 79.532 234.645 79.424 234.213 79.424C233.821 79.424 233.501 79.524 233.253 79.724C233.005 79.924 232.881 80.212 232.881 80.588C232.881 80.844 232.957 81.056 233.109 81.224C233.269 81.384 233.469 81.512 233.709 81.608C233.949 81.704 234.277 81.808 234.693 81.92C235.245 82.072 235.693 82.224 236.037 82.376C236.389 82.528 236.685 82.764 236.925 83.084C237.173 83.396 237.297 83.816 237.297 84.344C237.297 84.768 237.181 85.168 236.949 85.544C236.725 85.92 236.393 86.224 235.953 86.456C235.521 86.68 235.009 86.792 234.417 86.792Z" fill="white"/>
<path d="M241.572 82.52C241.572 81.704 241.76 80.972 242.136 80.324C242.52 79.676 243.036 79.172 243.684 78.812C244.34 78.444 245.056 78.26 245.832 78.26C246.72 78.26 247.508 78.48 248.196 78.92C248.892 79.352 249.396 79.968 249.708 80.768H248.064C247.848 80.328 247.548 80 247.164 79.784C246.78 79.568 246.336 79.46 245.832 79.46C245.28 79.46 244.788 79.584 244.356 79.832C243.924 80.08 243.584 80.436 243.336 80.9C243.096 81.364 242.976 81.904 242.976 82.52C242.976 83.136 243.096 83.676 243.336 84.14C243.584 84.604 243.924 84.964 244.356 85.22C244.788 85.468 245.28 85.592 245.832 85.592C246.336 85.592 246.78 85.484 247.164 85.268C247.548 85.052 247.848 84.724 248.064 84.284H249.708C249.396 85.084 248.892 85.7 248.196 86.132C247.508 86.564 246.72 86.78 245.832 86.78C245.048 86.78 244.332 86.6 243.684 86.24C243.036 85.872 242.52 85.364 242.136 84.716C241.76 84.068 241.572 83.336 241.572 82.52Z" fill="white"/>
<path d="M255.114 86.792C254.338 86.792 253.622 86.612 252.966 86.252C252.318 85.884 251.802 85.376 251.418 84.728C251.042 84.072 250.854 83.336 250.854 82.52C250.854 81.704 251.042 80.972 251.418 80.324C251.802 79.676 252.318 79.172 252.966 78.812C253.622 78.444 254.338 78.26 255.114 78.26C255.898 78.26 256.614 78.444 257.262 78.812C257.918 79.172 258.434 79.676 258.81 80.324C259.186 80.972 259.374 81.704 259.374 82.52C259.374 83.336 259.186 84.072 258.81 84.728C258.434 85.376 257.918 85.884 257.262 86.252C256.614 86.612 255.898 86.792 255.114 86.792ZM255.114 85.604C255.666 85.604 256.158 85.48 256.59 85.232C257.022 84.976 257.358 84.616 257.598 84.152C257.846 83.68 257.97 83.136 257.97 82.52C257.97 81.904 257.846 81.364 257.598 80.9C257.358 80.436 257.022 80.08 256.59 79.832C256.158 79.584 255.666 79.46 255.114 79.46C254.562 79.46 254.07 79.584 253.638 79.832C253.206 80.08 252.866 80.436 252.618 80.9C252.378 81.364 252.258 81.904 252.258 82.52C252.258 83.136 252.378 83.68 252.618 84.152C252.866 84.616 253.206 84.976 253.638 85.232C254.07 85.48 254.562 85.604 255.114 85.604Z" fill="white"/>
<path d="M267.572 86.708H266.204L262.088 80.48V86.708H260.72V78.356H262.088L266.204 84.572V78.356H267.572V86.708Z" fill="white"/>
<path d="M272.116 86.792C271.556 86.792 271.052 86.696 270.604 86.504C270.156 86.304 269.804 86.024 269.548 85.664C269.292 85.304 269.164 84.884 269.164 84.404H270.628C270.66 84.764 270.8 85.06 271.048 85.292C271.304 85.524 271.66 85.64 272.116 85.64C272.588 85.64 272.956 85.528 273.22 85.304C273.484 85.072 273.616 84.776 273.616 84.416C273.616 84.136 273.532 83.908 273.364 83.732C273.204 83.556 273 83.42 272.752 83.324C272.512 83.228 272.176 83.124 271.744 83.012C271.2 82.868 270.756 82.724 270.412 82.58C270.076 82.428 269.788 82.196 269.548 81.884C269.308 81.572 269.188 81.156 269.188 80.636C269.188 80.156 269.308 79.736 269.548 79.376C269.788 79.016 270.124 78.74 270.556 78.548C270.988 78.356 271.488 78.26 272.056 78.26C272.864 78.26 273.524 78.464 274.036 78.872C274.556 79.272 274.844 79.824 274.9 80.528H273.388C273.364 80.224 273.22 79.964 272.956 79.748C272.692 79.532 272.344 79.424 271.912 79.424C271.52 79.424 271.2 79.524 270.952 79.724C270.704 79.924 270.58 80.212 270.58 80.588C270.58 80.844 270.656 81.056 270.808 81.224C270.968 81.384 271.168 81.512 271.408 81.608C271.648 81.704 271.976 81.808 272.392 81.92C272.944 82.072 273.392 82.224 273.736 82.376C274.088 82.528 274.384 82.764 274.624 83.084C274.872 83.396 274.996 83.816 274.996 84.344C274.996 84.768 274.88 85.168 274.648 85.544C274.424 85.92 274.092 86.224 273.652 86.456C273.22 86.68 272.708 86.792 272.116 86.792Z" fill="white"/>
<path d="M277.966 78.368V83.684C277.966 84.316 278.13 84.792 278.458 85.112C278.794 85.432 279.258 85.592 279.85 85.592C280.45 85.592 280.914 85.432 281.242 85.112C281.578 84.792 281.746 84.316 281.746 83.684V78.368H283.114V83.66C283.114 84.34 282.966 84.916 282.67 85.388C282.374 85.86 281.978 86.212 281.482 86.444C280.986 86.676 280.438 86.792 279.838 86.792C279.238 86.792 278.69 86.676 278.194 86.444C277.706 86.212 277.318 85.86 277.03 85.388C276.742 84.916 276.598 84.34 276.598 83.66V78.368H277.966Z" fill="white"/>
<path d="M286.264 85.604H289.084V86.708H284.896V78.368H286.264V85.604Z" fill="white"/>
<path d="M295.616 78.368V79.484H293.396V86.708H292.028V79.484H289.796V78.368H295.616Z" fill="white"/>
<path d="M302.029 85.004H298.537L297.937 86.708H296.509L299.497 78.356H301.081L304.069 86.708H302.629L302.029 85.004ZM301.645 83.888L300.289 80.012L298.921 83.888H301.645Z" fill="white"/>
<path d="M312.22 86.708H310.852L306.736 80.48V86.708H305.368V78.356H306.736L310.852 84.572V78.356H312.22V86.708Z" fill="white"/>
<path d="M313.561 82.52C313.561 81.704 313.749 80.972 314.125 80.324C314.509 79.676 315.025 79.172 315.673 78.812C316.329 78.444 317.045 78.26 317.821 78.26C318.709 78.26 319.497 78.48 320.185 78.92C320.881 79.352 321.385 79.968 321.697 80.768H320.053C319.837 80.328 319.537 80 319.153 79.784C318.769 79.568 318.325 79.46 317.821 79.46C317.269 79.46 316.777 79.584 316.345 79.832C315.913 80.08 315.573 80.436 315.325 80.9C315.085 81.364 314.965 81.904 314.965 82.52C314.965 83.136 315.085 83.676 315.325 84.14C315.573 84.604 315.913 84.964 316.345 85.22C316.777 85.468 317.269 85.592 317.821 85.592C318.325 85.592 318.769 85.484 319.153 85.268C319.537 85.052 319.837 84.724 320.053 84.284H321.697C321.385 85.084 320.881 85.7 320.185 86.132C319.497 86.564 318.709 86.78 317.821 86.78C317.037 86.78 316.321 86.6 315.673 86.24C315.025 85.872 314.509 85.364 314.125 84.716C313.749 84.068 313.561 83.336 313.561 82.52Z" fill="white"/>
<path d="M329.478 78.368L326.718 83.684V86.708H325.35V83.684L322.578 78.368H324.102L326.034 82.46L327.966 78.368H329.478Z" fill="white"/>
<path d="M336.429 86.792C335.869 86.792 335.365 86.696 334.917 86.504C334.469 86.304 334.117 86.024 333.861 85.664C333.605 85.304 333.477 84.884 333.477 84.404H334.941C334.973 84.764 335.113 85.06 335.361 85.292C335.617 85.524 335.973 85.64 336.429 85.64C336.901 85.64 337.269 85.528 337.533 85.304C337.797 85.072 337.929 84.776 337.929 84.416C337.929 84.136 337.845 83.908 337.677 83.732C337.517 83.556 337.313 83.42 337.065 83.324C336.825 83.228 336.489 83.124 336.057 83.012C335.513 82.868 335.069 82.724 334.725 82.58C334.389 82.428 334.101 82.196 333.861 81.884C333.621 81.572 333.501 81.156 333.501 80.636C333.501 80.156 333.621 79.736 333.861 79.376C334.101 79.016 334.437 78.74 334.869 78.548C335.301 78.356 335.801 78.26 336.369 78.26C337.177 78.26 337.837 78.464 338.349 78.872C338.869 79.272 339.157 79.824 339.213 80.528H337.701C337.677 80.224 337.533 79.964 337.269 79.748C337.005 79.532 336.657 79.424 336.225 79.424C335.833 79.424 335.513 79.524 335.265 79.724C335.017 79.924 334.893 80.212 334.893 80.588C334.893 80.844 334.969 81.056 335.121 81.224C335.281 81.384 335.481 81.512 335.721 81.608C335.961 81.704 336.289 81.808 336.705 81.92C337.257 82.072 337.705 82.224 338.049 82.376C338.401 82.528 338.697 82.764 338.937 83.084C339.185 83.396 339.309 83.816 339.309 84.344C339.309 84.768 339.193 85.168 338.961 85.544C338.737 85.92 338.405 86.224 337.965 86.456C337.533 86.68 337.021 86.792 336.429 86.792Z" fill="white"/>
<path d="M342.291 79.472V81.92H345.171V83.036H342.291V85.592H345.531V86.708H340.923V78.356H345.531V79.472H342.291Z" fill="white"/>
<path d="M351.548 86.708L349.628 83.372H348.584V86.708H347.216V78.368H350.096C350.736 78.368 351.276 78.48 351.716 78.704C352.164 78.928 352.496 79.228 352.712 79.604C352.936 79.98 353.048 80.4 353.048 80.864C353.048 81.408 352.888 81.904 352.568 82.352C352.256 82.792 351.772 83.092 351.116 83.252L353.18 86.708H351.548ZM348.584 82.28H350.096C350.608 82.28 350.992 82.152 351.248 81.896C351.512 81.64 351.644 81.296 351.644 80.864C351.644 80.432 351.516 80.096 351.26 79.856C351.004 79.608 350.616 79.484 350.096 79.484H348.584V82.28Z" fill="white"/>
<path d="M361.986 78.368L358.854 86.708H357.27L354.126 78.368H355.59L358.062 85.304L360.546 78.368H361.986Z" fill="white"/>
<path d="M364.498 78.368V86.708H363.13V78.368H364.498Z" fill="white"/>
<path d="M365.838 82.52C365.838 81.704 366.026 80.972 366.402 80.324C366.786 79.676 367.302 79.172 367.95 78.812C368.606 78.444 369.322 78.26 370.098 78.26C370.986 78.26 371.774 78.48 372.462 78.92C373.158 79.352 373.662 79.968 373.974 80.768H372.33C372.114 80.328 371.814 80 371.43 79.784C371.046 79.568 370.602 79.46 370.098 79.46C369.546 79.46 369.054 79.584 368.622 79.832C368.19 80.08 367.85 80.436 367.602 80.9C367.362 81.364 367.242 81.904 367.242 82.52C367.242 83.136 367.362 83.676 367.602 84.14C367.85 84.604 368.19 84.964 368.622 85.22C369.054 85.468 369.546 85.592 370.098 85.592C370.602 85.592 371.046 85.484 371.43 85.268C371.814 85.052 372.114 84.724 372.33 84.284H373.974C373.662 85.084 373.158 85.7 372.462 86.132C371.774 86.564 370.986 86.78 370.098 86.78C369.314 86.78 368.598 86.6 367.95 86.24C367.302 85.872 366.786 85.364 366.402 84.716C366.026 84.068 365.838 83.336 365.838 82.52Z" fill="white"/>
<path d="M376.943 79.472V81.92H379.823V83.036H376.943V85.592H380.183V86.708H375.575V78.356H380.183V79.472H376.943Z" fill="white"/>
<path d="M384.616 86.792C384.056 86.792 383.552 86.696 383.104 86.504C382.656 86.304 382.304 86.024 382.048 85.664C381.792 85.304 381.664 84.884 381.664 84.404H383.128C383.16 84.764 383.3 85.06 383.548 85.292C383.804 85.524 384.16 85.64 384.616 85.64C385.088 85.64 385.456 85.528 385.72 85.304C385.984 85.072 386.116 84.776 386.116 84.416C386.116 84.136 386.032 83.908 385.864 83.732C385.704 83.556 385.5 83.42 385.252 83.324C385.012 83.228 384.676 83.124 384.244 83.012C383.7 82.868 383.256 82.724 382.912 82.58C382.576 82.428 382.288 82.196 382.048 81.884C381.808 81.572 381.688 81.156 381.688 80.636C381.688 80.156 381.808 79.736 382.048 79.376C382.288 79.016 382.624 78.74 383.056 78.548C383.488 78.356 383.988 78.26 384.556 78.26C385.364 78.26 386.024 78.464 386.536 78.872C387.056 79.272 387.344 79.824 387.4 80.528H385.888C385.864 80.224 385.72 79.964 385.456 79.748C385.192 79.532 384.844 79.424 384.412 79.424C384.02 79.424 383.7 79.524 383.452 79.724C383.204 79.924 383.08 80.212 383.08 80.588C383.08 80.844 383.156 81.056 383.308 81.224C383.468 81.384 383.668 81.512 383.908 81.608C384.148 81.704 384.476 81.808 384.892 81.92C385.444 82.072 385.892 82.224 386.236 82.376C386.588 82.528 386.884 82.764 387.124 83.084C387.372 83.396 387.496 83.816 387.496 84.344C387.496 84.768 387.38 85.168 387.148 85.544C386.924 85.92 386.592 86.224 386.152 86.456C385.72 86.68 385.208 86.792 384.616 86.792Z" fill="white"/>
<line x1="161.335" y1="70.708" x2="408.336" y2="70.6561" stroke="white" stroke-width="2"/>
</svg>
