<svg width="1280" height="1543" viewBox="0 0 1280 1543" fill="none" xmlns="http://www.w3.org/2000/svg">
<g opacity="0.7">
<path d="M523.88 579.699L648.994 448.324L649.255 448.389L825.302 490.979L825.391 491.225L876.508 664.997L751.394 796.371L751.133 796.307L575.074 753.728L574.997 753.47L523.88 579.699ZM649.29 449.345L524.902 579.957L575.8 752.967L751.086 795.363L875.474 664.75L824.565 491.753L649.29 449.345Z" fill="#3FA9F5" fill-opacity="0.5"/>
<path d="M573.129 959.998L653.137 875.986L653.387 876.063L765.884 903.256L765.961 903.514L798.635 1014.55L718.626 1098.56L718.365 1098.5L605.867 1071.28L605.779 1071.03L573.129 959.998ZM653.434 877.006L574.151 960.257L606.593 1070.52L718.306 1097.54L797.589 1014.29L765.147 904.03L653.434 877.006Z" fill="#3FA9F5" fill-opacity="0.5"/>
<path d="M398.153 784.207L438.342 742.008L494.965 755.719L495.054 755.965L511.423 811.606L471.235 853.806L414.6 840.106L414.523 839.848L398.153 784.207ZM438.638 743.028L399.187 784.453L415.325 839.344L470.938 852.785L510.39 811.36L494.24 756.481L438.638 743.028Z" fill="#3FA9F5" fill-opacity="0.5"/>
<mask id="mask0_425_2033" style="mask-type:luminance" maskUnits="userSpaceOnUse" x="427" y="147" width="762" height="765">
<path d="M1188.71 495.302L792.627 911.202L427.366 563.347L823.447 147.447L1188.71 495.302Z" fill="white"/>
</mask>
<g mask="url(#mask0_425_2033)">
<mask id="mask1_425_2033" style="mask-type:luminance" maskUnits="userSpaceOnUse" x="-2242" y="-2166" width="5875" height="5875">
<path d="M767.18 3708.54L3632.56 699.779L623.799 -2165.6L-2241.58 843.16L767.18 3708.54Z" fill="#3FA9F5" fill-opacity="0.5"/>
</mask>
<g mask="url(#mask1_425_2033)">
<mask id="mask2_425_2033" style="mask-type:luminance" maskUnits="userSpaceOnUse" x="427" y="145" width="764" height="767">
<path d="M792.629 911.202L1190.6 493.318L825.337 145.464L427.368 563.347L792.629 911.202Z" fill="white"/>
</mask>
<g mask="url(#mask2_425_2033)">
<mask id="mask3_425_2033" style="mask-type:luminance" maskUnits="userSpaceOnUse" x="573" y="149" width="483" height="484">
<path d="M1055.61 368.541L803.974 632.765L573.799 413.56L825.432 149.335L1055.61 368.541Z" fill="white"/>
</mask>
<g mask="url(#mask3_425_2033)">
<path d="M638.638 347.244L763.764 215.858L764.014 215.934L940.072 258.513L940.149 258.77L991.278 432.53L866.152 563.916L865.915 563.851L689.844 521.261L689.768 521.027L638.638 347.244ZM764.06 216.878L639.672 347.491L690.57 520.5L865.856 562.896L990.244 432.283L939.347 259.274L764.06 216.878Z" fill="#3FA9F5" fill-opacity="0.5"/>
</g>
<mask id="mask4_425_2033" style="mask-type:luminance" maskUnits="userSpaceOnUse" x="645" y="599" width="310" height="311">
<path d="M954.027 740.25L793.193 909.132L645.35 768.335L806.184 599.452L954.027 740.25Z" fill="white"/>
</mask>
<g mask="url(#mask4_425_2033)">
<path d="M687.887 727.543L767.895 643.531L768.157 643.596L880.654 670.813L880.719 671.059L913.393 782.095L833.384 866.107L833.123 866.042L720.637 838.837L720.56 838.579L687.887 727.543ZM768.192 644.551L688.909 727.802L721.363 838.075L833.076 865.099L912.359 781.848L879.917 671.587L768.192 644.551Z" fill="#3FA9F5" fill-opacity="0.5"/>
</g>
<path d="M512.912 551.751L553.1 509.552L609.735 523.251L609.812 523.509L626.182 579.151L585.993 621.35L529.37 607.638L529.293 607.404L512.912 551.751ZM553.409 510.584L513.958 552.009L530.095 606.877L585.697 620.33L625.148 578.904L609.01 524.013L553.409 510.584Z" fill="#3FA9F5" fill-opacity="0.5"/>
</g>
</g>
</g>
<path d="M63.1766 663.862L68.0356 665.031L71.4786 661.415L72.8208 662.693L68.6407 667.083L62.7476 665.644L63.1766 663.862Z" fill="#3FA9F5" fill-opacity="0.5"/>
<path d="M79.4707 653.024L87.4623 644.632L88.8044 645.91L80.8128 654.302L79.4707 653.024ZM95.4539 636.24L103.457 627.837L104.799 629.115L96.7961 637.519L95.4539 636.24ZM111.449 619.445L119.44 611.054L120.782 612.332L112.791 620.724L111.449 619.445Z" fill="#3FA9F5" fill-opacity="0.5"/>
<path d="M129.459 594.264L131.218 593.749L132.942 599.565L128.774 603.942L127.431 602.663L130.874 599.048L129.459 594.264Z" fill="#3FA9F5" fill-opacity="0.5"/>
<path d="M109.758 527.472L111.517 526.956L114.813 538.096L113.042 538.6L109.758 527.472ZM116.325 549.728L118.096 549.224L121.379 560.352L119.62 560.867L116.325 549.728ZM122.892 572.007L124.662 571.48L127.946 582.608L126.175 583.135L122.892 572.007Z" fill="#3FA9F5" fill-opacity="0.5"/>
<path d="M100.641 508.597L106.522 510.024L108.234 515.828L106.475 516.344L105.059 511.559L100.212 510.379L100.641 508.597Z" fill="#3FA9F5" fill-opacity="0.5"/>
<path d="M32.9674 492.179L44.2423 494.915L43.8134 496.697L32.5385 493.961L32.9674 492.179ZM55.5288 497.64L66.7922 500.388L66.3633 502.17L55.0883 499.434L55.5288 497.64ZM78.0786 503.113L89.3535 505.849L88.9131 507.643L77.6382 504.907L78.0786 503.113Z" fill="#3FA9F5" fill-opacity="0.5"/>
<path d="M11.6428 492.393L15.8114 488.016L21.6924 489.443L21.2635 491.225L16.416 490.044L12.9729 493.659L11.6428 492.393Z" fill="#3FA9F5" fill-opacity="0.5"/>
<path d="M-36.318 542.753L-28.3264 534.361L-26.9963 535.628L-34.988 544.02L-36.318 542.753ZM-20.3348 525.97L-12.3316 517.566L-11.0016 518.833L-19.0047 527.236L-20.3348 525.97ZM-4.34001 509.175L3.65162 500.783L4.98169 502.05L-3.00994 510.441L-4.34001 509.175Z" fill="#3FA9F5" fill-opacity="0.5"/>
<path d="M-4.48554 647.432L6.77786 650.18L6.36103 651.974L-4.92598 649.226L-4.48554 647.432ZM18.0643 652.905L29.3513 655.653L28.9109 657.447L17.6359 654.71L18.0643 652.905ZM40.6262 658.389L51.9011 661.125L51.4722 662.907L40.1973 660.171L40.6262 658.389Z" fill="#3FA9F5" fill-opacity="0.5"/>
<path d="M128.203 595.581C123.712 600.297 131.04 607.299 135.543 602.571C140.045 597.843 132.705 590.854 128.203 595.581Z" fill="#3FA9F5" fill-opacity="0.5"/>
<path d="M64.8491 662.711C60.3466 667.439 67.6741 674.417 72.1766 669.689C76.6791 664.962 69.3516 657.983 64.8491 662.711Z" fill="#3FA9F5" fill-opacity="0.5"/>
<path d="M12.5938 484.904C8.09127 489.632 15.4187 496.611 19.9212 491.883C24.4237 487.155 17.0963 480.177 12.5938 484.904Z" fill="#3FA9F5" fill-opacity="0.5"/>
<path d="M102.07 506.684C97.579 511.4 104.907 518.402 109.41 513.674C113.912 508.946 106.572 501.956 102.07 506.684Z" fill="#3FA9F5" fill-opacity="0.5"/>
<path d="M1154.43 1277.94L1159.28 1279.12L1162.72 1275.51L1164.05 1276.78L1159.88 1281.15L1153.99 1279.74L1154.43 1277.94Z" fill="#3FA9F5" fill-opacity="0.5"/>
<path d="M1170.71 1267.12L1178.71 1258.71L1180.04 1259.98L1172.04 1268.38L1170.71 1267.12ZM1186.71 1250.32L1194.7 1241.93L1196.03 1243.2L1188.04 1251.59L1186.71 1250.32ZM1202.69 1233.54L1210.69 1225.14L1212.02 1226.4L1204.02 1234.81L1202.69 1233.54Z" fill="#3FA9F5" fill-opacity="0.5"/>
<path d="M1220.71 1208.34L1222.47 1207.83L1224.18 1213.63L1220 1218.02L1218.67 1216.76L1222.12 1213.14L1220.71 1208.34Z" fill="#3FA9F5" fill-opacity="0.5"/>
<path d="M1201 1141.56L1202.77 1141.04L1206.05 1152.17L1204.28 1152.69L1201 1141.56ZM1207.57 1163.82L1209.34 1163.32L1212.63 1174.43L1210.85 1174.95L1207.57 1163.82ZM1214.14 1186.09L1215.9 1185.57L1219.19 1196.7L1217.43 1197.22L1214.14 1186.09Z" fill="#3FA9F5" fill-opacity="0.5"/>
<path d="M1191.89 1122.68L1197.77 1124.1L1199.49 1129.91L1197.72 1130.44L1196.31 1125.64L1191.45 1124.47L1191.89 1122.68Z" fill="#3FA9F5" fill-opacity="0.5"/>
<path d="M1124.22 1106.26L1135.49 1109L1135.05 1110.79L1123.78 1108.05L1124.22 1106.26ZM1146.77 1111.73L1158.04 1114.47L1157.6 1116.26L1146.34 1113.51L1146.77 1111.73ZM1169.32 1117.21L1180.59 1119.94L1180.17 1121.72L1168.89 1118.99L1169.32 1117.21Z" fill="#3FA9F5" fill-opacity="0.5"/>
<path d="M1102.87 1106.47L1107.05 1102.09L1112.94 1103.52L1112.52 1105.31L1107.66 1104.14L1104.21 1107.75L1102.87 1106.47Z" fill="#3FA9F5" fill-opacity="0.5"/>
<path d="M1054.91 1156.84L1062.91 1148.43L1064.26 1149.71L1056.25 1158.11L1054.91 1156.84ZM1070.9 1140.04L1078.9 1131.65L1080.24 1132.93L1072.25 1141.32L1070.9 1140.04ZM1086.89 1123.26L1094.89 1114.85L1096.23 1116.13L1088.23 1124.54L1086.89 1123.26Z" fill="#3FA9F5" fill-opacity="0.5"/>
<path d="M1042.75 1169.6L1046.92 1165.23L1048.26 1166.5L1044.82 1170.12L1046.23 1174.9L1044.46 1175.43L1042.75 1169.6Z" fill="#3FA9F5" fill-opacity="0.5"/>
<path d="M1047.76 1186.55L1049.52 1186.03L1052.8 1197.16L1051.04 1197.68L1047.76 1186.55ZM1054.31 1208.82L1056.08 1208.29L1059.37 1219.42L1057.6 1219.94L1054.31 1208.82ZM1060.88 1231.07L1062.64 1230.56L1065.93 1241.67L1064.16 1242.2L1060.88 1231.07Z" fill="#3FA9F5" fill-opacity="0.5"/>
<path d="M1067.46 1253.34L1069.22 1252.82L1070.63 1257.61L1075.48 1258.79L1075.05 1260.57L1069.16 1259.16L1067.46 1253.34Z" fill="#3FA9F5" fill-opacity="0.5"/>
<path d="M1086.76 1261.53L1098.03 1264.26L1097.6 1266.04L1086.33 1263.31L1086.76 1261.53ZM1109.31 1267L1120.58 1269.73L1120.16 1271.53L1108.89 1268.79L1109.31 1267ZM1131.88 1272.47L1143.14 1275.22L1142.71 1277L1131.44 1274.26L1131.88 1272.47Z" fill="#3FA9F5" fill-opacity="0.5"/>
<path d="M1219.46 1209.66C1214.96 1214.38 1222.29 1221.38 1226.8 1216.65C1231.3 1211.92 1223.96 1204.93 1219.46 1209.66Z" fill="#3FA9F5" fill-opacity="0.5"/>
<path d="M1156.09 1276.8C1151.6 1281.52 1158.92 1288.51 1163.42 1283.78C1167.92 1279.06 1160.59 1272.08 1156.09 1276.8Z" fill="#3FA9F5" fill-opacity="0.5"/>
<path d="M1066.89 1255.29C1062.39 1260.02 1069.73 1267.01 1074.23 1262.28C1078.73 1257.55 1071.39 1250.56 1066.89 1255.29Z" fill="#3FA9F5" fill-opacity="0.5"/>
<path d="M1040.74 1165.83C1036.25 1170.54 1043.57 1177.53 1048.07 1172.8C1052.57 1168.08 1045.25 1161.1 1040.74 1165.83Z" fill="#3FA9F5" fill-opacity="0.5"/>
<path d="M1103.83 1099C1099.34 1103.71 1106.66 1110.7 1111.16 1105.98C1115.66 1101.25 1108.34 1094.27 1103.83 1099Z" fill="#3FA9F5" fill-opacity="0.5"/>
<path d="M1193.32 1120.77C1188.82 1125.49 1196.16 1132.48 1200.66 1127.75C1205.16 1123.03 1197.83 1116.04 1193.32 1120.77Z" fill="#3FA9F5" fill-opacity="0.5"/>
<path d="M1031.75 1220.18L1036.61 1221.35L1040.05 1217.74L1041.38 1219L1037.2 1223.39L1031.32 1221.97L1031.75 1220.18Z" fill="#3FA9F5" fill-opacity="0.5"/>
<path d="M1048.04 1209.35L1056.03 1200.96L1057.36 1202.22L1049.37 1210.61L1048.04 1209.35ZM1064.03 1192.56L1072.03 1184.16L1073.36 1185.43L1065.36 1193.83L1064.03 1192.56ZM1080.02 1175.77L1088.01 1167.38L1089.34 1168.64L1081.35 1177.04L1080.02 1175.77Z" fill="#3FA9F5" fill-opacity="0.5"/>
<path d="M1098.03 1150.59L1099.8 1150.06L1101.5 1155.87L1097.33 1160.25L1096 1158.98L1099.45 1155.37L1098.03 1150.59Z" fill="#3FA9F5" fill-opacity="0.5"/>
<path d="M1078.33 1083.79L1080.09 1083.28L1083.37 1094.41L1081.61 1094.92L1078.33 1083.79ZM1084.9 1106.05L1086.66 1105.53L1089.94 1116.66L1088.18 1117.18L1084.9 1106.05ZM1091.45 1128.32L1093.24 1127.8L1096.52 1138.93L1094.75 1139.43L1091.45 1128.32Z" fill="#3FA9F5" fill-opacity="0.5"/>
<path d="M1069.21 1064.92L1075.11 1066.34L1076.81 1072.15L1075.05 1072.67L1073.63 1067.88L1068.78 1066.7L1069.21 1064.92Z" fill="#3FA9F5" fill-opacity="0.5"/>
<path d="M1001.54 1048.5L1012.82 1051.24L1012.39 1053.02L1001.11 1050.28L1001.54 1048.5ZM1024.1 1053.96L1035.38 1056.7L1034.94 1058.49L1023.66 1055.76L1024.1 1053.96ZM1046.65 1059.43L1057.93 1062.17L1057.49 1063.97L1046.22 1061.22L1046.65 1059.43Z" fill="#3FA9F5" fill-opacity="0.5"/>
<path d="M980.204 1048.7L984.372 1044.33L990.277 1045.75L989.837 1047.55L984.989 1046.37L981.546 1049.98L980.204 1048.7Z" fill="#3FA9F5" fill-opacity="0.5"/>
<path d="M932.242 1099.07L940.234 1090.67L941.576 1091.95L933.584 1100.34L932.242 1099.07ZM948.225 1082.28L956.229 1073.88L957.571 1075.16L949.568 1083.56L948.225 1082.28ZM964.22 1065.49L972.212 1057.1L973.554 1058.37L965.562 1066.77L964.22 1065.49Z" fill="#3FA9F5" fill-opacity="0.5"/>
<path d="M920.071 1111.84L924.251 1107.46L925.593 1108.73L922.15 1112.35L923.555 1117.14L921.796 1117.66L920.071 1111.84Z" fill="#3FA9F5" fill-opacity="0.5"/>
<path d="M925.079 1128.79L926.849 1128.26L930.132 1139.39L928.362 1139.92L925.079 1128.79ZM931.645 1151.05L933.404 1150.53L936.699 1161.65L934.928 1162.17L931.645 1151.05ZM938.212 1173.3L939.971 1172.79L943.254 1183.91L941.495 1184.43L938.212 1173.3Z" fill="#3FA9F5" fill-opacity="0.5"/>
<path d="M944.779 1195.58L946.549 1195.05L947.954 1199.85L952.813 1201.02L952.372 1202.81L946.491 1201.38L944.779 1195.58Z" fill="#3FA9F5" fill-opacity="0.5"/>
<path d="M964.087 1203.75L975.362 1206.49L974.922 1208.28L963.647 1205.55L964.087 1203.75ZM986.637 1209.23L997.912 1211.96L997.472 1213.76L986.208 1211.01L986.637 1209.23ZM1009.19 1214.7L1020.46 1217.44L1020.05 1219.23L1008.77 1216.49L1009.19 1214.7Z" fill="#3FA9F5" fill-opacity="0.5"/>
<path d="M1096.79 1151.89C1092.29 1156.62 1099.63 1163.61 1104.13 1158.88C1108.63 1154.15 1101.29 1147.16 1096.79 1151.89Z" fill="#3FA9F5" fill-opacity="0.5"/>
<path d="M1033.41 1219.02C1028.92 1223.74 1036.25 1230.74 1040.75 1226.01C1045.25 1221.28 1037.91 1214.29 1033.41 1219.02Z" fill="#3FA9F5" fill-opacity="0.5"/>
<path d="M944.212 1197.53C939.721 1202.25 947.037 1209.24 951.539 1204.51C956.042 1199.78 948.714 1192.8 944.212 1197.53Z" fill="#3FA9F5" fill-opacity="0.5"/>
<path d="M918.076 1108.06C913.585 1112.77 920.901 1119.76 925.404 1115.03C929.906 1110.31 922.579 1103.33 918.076 1108.06Z" fill="#3FA9F5" fill-opacity="0.5"/>
<path d="M981.155 1041.22C976.652 1045.94 983.992 1052.93 988.494 1048.21C992.997 1043.48 985.657 1036.49 981.155 1041.22Z" fill="#3FA9F5" fill-opacity="0.5"/>
<path d="M1070.64 1063.01C1066.15 1067.72 1073.48 1074.72 1077.98 1070C1082.48 1065.27 1075.15 1058.28 1070.64 1063.01Z" fill="#3FA9F5" fill-opacity="0.5"/>
<path d="M315.401 576.272L320.248 577.453L323.691 573.838L325.021 575.104L320.841 579.494L314.96 578.066L315.401 576.272Z" fill="#3FA9F5" fill-opacity="0.5"/>
<path d="M331.682 565.447L339.674 557.056L341.004 558.322L333.012 566.714L331.682 565.447ZM347.665 548.664L355.669 540.26L356.999 541.527L348.996 549.931L347.665 548.664ZM363.66 531.869L371.652 523.477L372.982 524.744L364.99 533.136L363.66 531.869Z" fill="#3FA9F5" fill-opacity="0.5"/>
<path d="M381.672 506.685L383.442 506.158L385.154 511.962L380.974 516.351L379.644 515.085L383.087 511.469L381.672 506.685Z" fill="#3FA9F5" fill-opacity="0.5"/>
<path d="M361.971 439.894L363.73 439.379L367.014 450.507L365.255 451.022L361.971 439.894ZM368.538 462.15L370.297 461.635L373.58 472.763L371.821 473.278L368.538 462.15ZM375.093 484.419L376.863 483.891L380.159 495.031L378.388 495.534L375.093 484.419Z" fill="#3FA9F5" fill-opacity="0.5"/>
<path d="M352.864 421.008L358.745 422.435L360.457 428.239L358.687 428.767L357.271 423.983L352.424 422.802L352.864 421.008Z" fill="#3FA9F5" fill-opacity="0.5"/>
<path d="M285.192 404.589L296.467 407.325L296.026 409.119L284.763 406.371L285.192 404.589ZM307.742 410.062L319.017 412.798L318.6 414.592L307.313 411.844L307.742 410.062ZM330.292 415.535L341.579 418.283L341.15 420.065L329.875 417.328L330.292 415.535Z" fill="#3FA9F5" fill-opacity="0.5"/>
<path d="M263.856 404.814L268.036 400.425L273.917 401.852L273.476 403.646L268.629 402.465L265.186 406.081L263.856 404.814Z" fill="#3FA9F5" fill-opacity="0.5"/>
<path d="M215.894 455.176L223.886 446.784L225.216 448.051L217.224 456.442L215.894 455.176ZM231.877 438.393L239.88 429.989L241.21 431.256L233.207 439.659L231.877 438.393ZM247.872 421.597L255.864 413.206L257.194 414.473L249.202 422.864L247.872 421.597Z" fill="#3FA9F5" fill-opacity="0.5"/>
<path d="M203.722 467.956L207.902 463.566L209.233 464.833L205.789 468.448L207.205 473.232L205.435 473.76L203.722 467.956Z" fill="#3FA9F5" fill-opacity="0.5"/>
<path d="M208.719 484.889L210.489 484.362L213.773 495.49L212.002 496.017L208.719 484.889ZM215.285 507.145L217.044 506.63L220.351 517.757L218.569 518.273L215.285 507.145ZM221.852 529.401L223.623 528.897L226.906 540.025L225.147 540.54L221.852 529.401Z" fill="#3FA9F5" fill-opacity="0.5"/>
<path d="M228.418 551.68L230.189 551.153L231.593 555.949L236.452 557.118L236.012 558.912L230.142 557.472L228.418 551.68Z" fill="#3FA9F5" fill-opacity="0.5"/>
<path d="M247.728 559.854L259.003 562.59L258.574 564.372L247.299 561.636L247.728 559.854ZM270.289 565.315L281.553 568.063L281.124 569.845L269.849 567.109L270.289 565.315ZM292.839 570.788L304.114 573.524L303.686 575.33L292.399 572.582L292.839 570.788Z" fill="#3FA9F5" fill-opacity="0.5"/>
<path d="M380.428 507.991C375.925 512.718 383.265 519.708 387.767 514.98C392.27 510.253 384.93 503.263 380.428 507.991Z" fill="#3FA9F5" fill-opacity="0.5"/>
<path d="M317.073 575.121C312.57 579.849 319.898 586.827 324.4 582.1C328.902 577.372 321.575 570.393 317.073 575.121Z" fill="#3FA9F5" fill-opacity="0.5"/>
<path d="M227.852 553.631C223.361 558.347 230.689 565.349 235.191 560.621C239.694 555.893 232.354 548.903 227.852 553.631Z" fill="#3FA9F5" fill-opacity="0.5"/>
<path d="M201.716 464.155C197.225 468.871 204.541 475.862 209.043 471.134C213.546 466.406 206.218 459.428 201.716 464.155Z" fill="#3FA9F5" fill-opacity="0.5"/>
<path d="M264.795 397.315C260.292 402.043 267.632 409.032 272.134 404.305C276.637 399.577 269.297 392.587 264.795 397.315Z" fill="#3FA9F5" fill-opacity="0.5"/>
<path d="M354.294 419.095C349.803 423.811 357.131 430.813 361.634 426.085C366.136 421.357 358.797 414.367 354.294 419.095Z" fill="#3FA9F5" fill-opacity="0.5"/>
<path d="M169.407 839.324L174.254 840.481L177.697 836.865L179.04 838.144L174.859 842.533L168.966 841.094L169.407 839.324Z" fill="#3FA9F5" fill-opacity="0.5"/>
<path d="M185.689 828.474L193.681 820.082L195.023 821.36L187.031 829.752L185.689 828.474ZM201.672 811.691L209.676 803.287L211.018 804.565L203.015 812.969L201.672 811.691ZM217.667 794.896L225.659 786.504L227.001 787.782L219.009 796.174L217.667 794.896Z" fill="#3FA9F5" fill-opacity="0.5"/>
<path d="M235.689 769.724L237.448 769.185L239.161 775.013L234.992 779.39L233.65 778.112L237.093 774.497L235.689 769.724Z" fill="#3FA9F5" fill-opacity="0.5"/>
<path d="M215.989 702.933L217.748 702.418L221.031 713.546L219.272 714.061L215.989 702.933ZM222.556 725.189L224.315 724.674L227.598 735.802L225.839 736.317L222.556 725.189ZM229.111 747.457L230.881 746.93L234.164 758.058L232.405 758.573L229.111 747.457Z" fill="#3FA9F5" fill-opacity="0.5"/>
<path d="M206.859 684.047L212.74 685.474L214.453 691.278L212.694 691.794L211.278 687.01L206.43 685.829L206.859 684.047Z" fill="#3FA9F5" fill-opacity="0.5"/>
<path d="M139.186 667.628L150.461 670.365L150.032 672.147L138.757 669.41L139.186 667.628ZM161.747 673.089L173.011 675.838L172.594 677.631L161.319 674.895L161.747 673.089ZM184.309 678.574L195.584 681.31L195.144 683.104L183.869 680.368L184.309 678.574Z" fill="#3FA9F5" fill-opacity="0.5"/>
<path d="M117.862 667.842L122.03 663.465L127.923 664.88L127.482 666.674L122.635 665.494L119.192 669.109L117.862 667.842Z" fill="#3FA9F5" fill-opacity="0.5"/>
<path d="M69.901 718.203L77.8926 709.811L79.2227 711.078L71.231 719.47L69.901 718.203ZM85.8842 701.42L93.8874 693.016L95.2174 694.283L87.2143 702.687L85.8842 701.42ZM101.879 684.625L109.871 676.233L111.201 677.5L103.209 685.892L101.879 684.625Z" fill="#3FA9F5" fill-opacity="0.5"/>
<path d="M57.7288 730.984L61.9088 726.595L63.2389 727.861L59.7958 731.477L61.2002 736.273L59.4412 736.788L57.7288 730.984Z" fill="#3FA9F5" fill-opacity="0.5"/>
<path d="M62.7242 747.916L64.4947 747.389L67.778 758.517L66.0075 759.044L62.7242 747.916ZM69.2908 770.172L71.0619 769.668L74.3452 780.796L72.5741 781.3L69.2908 770.172ZM75.8695 792.44L77.6285 791.924L80.9118 803.052L79.1528 803.568L75.8695 792.44Z" fill="#3FA9F5" fill-opacity="0.5"/>
<path d="M82.4241 814.708L84.1946 814.181L85.599 818.977L90.458 820.146L90.0176 821.94L84.1366 820.513L82.4241 814.708Z" fill="#3FA9F5" fill-opacity="0.5"/>
<path d="M101.745 822.893L113.008 825.642L112.58 827.424L101.305 824.687L101.745 822.893ZM124.295 828.366L135.57 831.103L135.129 832.897L123.854 830.16L124.295 828.366ZM146.845 833.839L158.12 836.576L157.691 838.358L146.416 835.621L146.845 833.839Z" fill="#3FA9F5" fill-opacity="0.5"/>
<path d="M234.434 771.043C229.943 775.759 237.27 782.737 241.761 778.021C246.264 773.294 238.936 766.315 234.434 771.043Z" fill="#3FA9F5" fill-opacity="0.5"/>
<path d="M171.068 838.161C166.577 842.877 173.893 849.867 178.395 845.14C182.898 840.412 175.57 833.434 171.068 838.161Z" fill="#3FA9F5" fill-opacity="0.5"/>
<path d="M81.858 816.66C77.3671 821.375 84.6951 828.377 89.1976 823.649C93.7001 818.922 86.3605 811.932 81.858 816.66Z" fill="#3FA9F5" fill-opacity="0.5"/>
<path d="M55.7228 727.182C51.2318 731.898 58.5599 738.9 63.0623 734.172C67.5648 729.444 60.2253 722.454 55.7228 727.182Z" fill="#3FA9F5" fill-opacity="0.5"/>
<path d="M118.801 660.343C114.298 665.071 121.638 672.061 126.14 667.333C130.643 662.605 123.303 655.615 118.801 660.343Z" fill="#3FA9F5" fill-opacity="0.5"/>
<path d="M208.289 682.133C203.798 686.849 211.126 693.851 215.628 689.123C220.131 684.395 212.791 677.405 208.289 682.133Z" fill="#3FA9F5" fill-opacity="0.5"/>
<path d="M321.588 727.2L326.447 728.369L329.89 724.754L331.22 726.021L327.04 730.41L321.159 728.982L321.588 727.2Z" fill="#3FA9F5" fill-opacity="0.5"/>
<path d="M337.882 716.362L345.874 707.971L347.204 709.237L339.212 717.629L337.882 716.362ZM353.877 699.567L361.868 691.176L363.198 692.442L355.207 700.834L353.877 699.567ZM369.86 682.784L377.852 674.392L379.182 675.659L371.19 684.051L369.86 682.784Z" fill="#3FA9F5" fill-opacity="0.5"/>
<path d="M387.87 657.603L389.629 657.087L391.341 662.892L387.161 667.281L385.831 666.014L389.274 662.399L387.87 657.603Z" fill="#3FA9F5" fill-opacity="0.5"/>
<path d="M368.159 590.823L369.929 590.295L373.212 601.423L371.453 601.938L368.159 590.823ZM374.725 613.079L376.496 612.551L379.779 623.679L378.008 624.207L374.725 613.079ZM381.292 635.335L383.063 634.831L386.346 645.959L384.575 646.463L381.292 635.335Z" fill="#3FA9F5" fill-opacity="0.5"/>
<path d="M359.052 571.935L364.933 573.363L366.646 579.167L364.875 579.671L363.471 574.898L358.624 573.718L359.052 571.935Z" fill="#3FA9F5" fill-opacity="0.5"/>
<path d="M291.379 555.518L302.654 558.254L302.225 560.036L290.95 557.3L291.379 555.518ZM313.941 560.979L325.216 563.715L324.775 565.509L313.5 562.773L313.941 560.979ZM336.49 566.451L347.765 569.188L347.325 570.982L336.062 568.234L336.49 566.451Z" fill="#3FA9F5" fill-opacity="0.5"/>
<path d="M270.031 555.732L274.211 551.343L280.104 552.782L279.675 554.564L274.816 553.395L271.373 557.01L270.031 555.732Z" fill="#3FA9F5" fill-opacity="0.5"/>
<path d="M222.082 606.08L230.073 597.689L231.416 598.967L223.424 607.358L222.082 606.08ZM238.077 589.285L246.068 580.894L247.41 582.172L239.419 590.563L238.077 589.285ZM254.06 572.502L262.051 564.11L263.394 565.389L255.402 573.78L254.06 572.502Z" fill="#3FA9F5" fill-opacity="0.5"/>
<path d="M209.91 618.862L214.09 614.473L215.432 615.751L211.989 619.366L213.394 624.162L211.635 624.678L209.91 618.862Z" fill="#3FA9F5" fill-opacity="0.5"/>
<path d="M214.917 635.805L216.676 635.29L219.96 646.418L218.201 646.933L214.917 635.805ZM221.472 658.073L223.243 657.546L226.526 668.674L224.767 669.189L221.472 658.073ZM228.039 680.329L229.809 679.802L233.093 690.93L231.322 691.457L228.039 680.329Z" fill="#3FA9F5" fill-opacity="0.5"/>
<path d="M234.618 702.597L236.377 702.081L237.793 706.866L242.629 708.035L242.212 709.828L236.331 708.401L234.618 702.597Z" fill="#3FA9F5" fill-opacity="0.5"/>
<path d="M253.926 710.771L265.201 713.507L264.761 715.301L253.486 712.565L253.926 710.771ZM276.476 716.243L287.751 718.98L287.311 720.774L276.047 718.025L276.476 716.243ZM299.026 721.716L310.301 724.453L309.884 726.246L298.609 723.51L299.026 721.716Z" fill="#3FA9F5" fill-opacity="0.5"/>
<path d="M386.615 658.92C382.124 663.636 389.452 670.638 393.954 665.91C398.457 661.182 391.117 654.193 386.615 658.92Z" fill="#3FA9F5" fill-opacity="0.5"/>
<path d="M323.249 726.038C318.758 730.754 326.086 737.756 330.588 733.028C335.091 728.3 327.751 721.311 323.249 726.038Z" fill="#3FA9F5" fill-opacity="0.5"/>
<path d="M234.051 704.548C229.548 709.276 236.876 716.254 241.378 711.526C245.881 706.799 238.553 699.82 234.051 704.548Z" fill="#3FA9F5" fill-opacity="0.5"/>
<path d="M207.916 615.071C203.413 619.799 210.741 626.778 215.243 622.05C219.746 617.322 212.418 610.344 207.916 615.071Z" fill="#3FA9F5" fill-opacity="0.5"/>
<path d="M270.982 548.244C266.491 552.96 273.807 559.95 278.309 555.223C282.812 550.495 275.484 543.517 270.982 548.244Z" fill="#3FA9F5" fill-opacity="0.5"/>
<path d="M360.482 570.024C355.991 574.739 363.319 581.718 367.81 577.002C372.312 572.274 364.985 565.296 360.482 570.024Z" fill="#3FA9F5" fill-opacity="0.5"/>
<path d="M572.364 164.642L647.029 86.2405L752.353 111.814L752.495 112.318L783.035 215.765L708.37 294.166L603.034 268.605L602.88 268.089L572.364 164.642ZM647.622 88.2811L574.419 165.147L604.508 267.057L707.753 292.126L780.956 215.26L750.902 113.338L647.622 88.2811Z" fill="#3FA9F5" fill-opacity="0.5"/>
<path d="M777.691 211.183C772.463 216.672 780.988 224.791 786.216 219.301C791.455 213.799 782.931 205.681 777.691 211.183Z" fill="#3FA9F5" fill-opacity="0.5"/>
<path d="M703.998 289.241C698.77 294.731 707.294 302.849 712.522 297.359C717.75 291.87 709.226 283.752 703.998 289.241Z" fill="#3FA9F5" fill-opacity="0.5"/>
<path d="M600.27 264.243C595.042 269.733 603.566 277.851 608.794 272.362C614.034 266.86 605.509 258.742 600.27 264.243Z" fill="#3FA9F5" fill-opacity="0.5"/>
<path d="M569.87 160.191C564.642 165.681 573.166 173.799 578.394 168.31C583.622 162.82 575.098 154.702 569.87 160.191Z" fill="#3FA9F5" fill-opacity="0.5"/>
<path d="M643.217 82.4718C637.989 87.9614 646.513 96.0797 651.741 90.5901C656.981 85.0885 648.456 76.9702 643.217 82.4718Z" fill="#3FA9F5" fill-opacity="0.5"/>
<path d="M747.306 107.792C742.078 113.281 750.591 121.412 755.83 115.91C761.058 110.421 752.534 102.302 747.306 107.792Z" fill="#3FA9F5" fill-opacity="0.5"/>
<path d="M-78.8852 696.549L-4.21987 618.148L101.092 643.71L101.246 644.225L131.774 747.66L57.1083 826.062L-48.2272 800.5L-48.3694 799.996L-78.8852 696.549ZM-3.62678 620.188L-76.8296 697.054L-46.7647 798.965L56.5037 824.033L129.707 747.168L99.618 645.257L-3.62678 620.188Z" fill="#3FA9F5" fill-opacity="0.5"/>
<path d="M126.43 743.078C121.202 748.568 129.739 756.698 134.967 751.208C140.195 745.718 131.658 737.589 126.43 743.078Z" fill="#3FA9F5" fill-opacity="0.5"/>
<path d="M52.7486 821.148C47.5206 826.638 56.0452 834.756 61.2731 829.267C66.5011 823.777 57.9766 815.659 52.7486 821.148Z" fill="#3FA9F5" fill-opacity="0.5"/>
<path d="M-8.03152 614.378C-13.2595 619.868 -4.73495 627.986 0.493005 622.496C5.73247 616.995 -2.79205 608.876 -8.03152 614.378Z" fill="#3FA9F5" fill-opacity="0.5"/>
<path d="M96.0577 639.698C90.8297 645.188 99.3427 653.318 104.582 647.816C109.81 642.327 101.286 634.209 96.0577 639.698Z" fill="#3FA9F5" fill-opacity="0.5"/>
<path d="M253.529 398.37L328.182 319.981L433.518 345.542L433.66 346.047L464.176 449.494L389.522 527.883L284.199 502.333L284.044 501.817L253.529 398.37ZM328.776 322.021L255.584 398.875L285.661 500.798L388.917 525.855L462.109 449.001L432.044 347.09L328.776 322.021Z" fill="#3FA9F5" fill-opacity="0.5"/>
<path d="M458.856 444.911C453.628 450.401 462.141 458.531 467.381 453.029C472.609 447.54 464.084 439.421 458.856 444.911Z" fill="#3FA9F5" fill-opacity="0.5"/>
<path d="M385.163 522.97C379.935 528.459 388.448 536.59 393.688 531.088C398.916 525.598 390.391 517.48 385.163 522.97Z" fill="#3FA9F5" fill-opacity="0.5"/>
<path d="M281.424 497.984C276.196 503.473 284.721 511.591 289.949 506.102C295.188 500.6 286.664 492.482 281.424 497.984Z" fill="#3FA9F5" fill-opacity="0.5"/>
<path d="M251.023 393.908C245.795 399.398 254.308 407.528 259.548 402.026C264.775 396.537 256.251 388.418 251.023 393.908Z" fill="#3FA9F5" fill-opacity="0.5"/>
<path d="M324.382 316.199C319.154 321.689 327.679 329.807 332.907 324.317C338.135 318.828 329.61 310.71 324.382 316.199Z" fill="#3FA9F5" fill-opacity="0.5"/>
<path d="M428.46 341.531C423.244 347.009 431.757 355.139 436.985 349.65C442.224 344.148 433.7 336.03 428.46 341.531Z" fill="#3FA9F5" fill-opacity="0.5"/>
<path d="M460.878 418.891L535.532 340.501L640.855 366.051L641.009 366.567L671.525 470.014L596.871 548.404L491.536 522.842L491.394 522.338L460.878 418.891ZM536.125 342.542L462.933 419.396L492.998 521.307L596.267 546.375L669.458 469.521L639.381 367.599L536.125 342.542Z" fill="#3FA9F5" fill-opacity="0.5"/>
<path d="M666.193 465.443C660.977 470.921 669.49 479.051 674.718 473.562C679.957 468.06 671.433 459.942 666.193 465.443Z" fill="#3FA9F5" fill-opacity="0.5"/>
<path d="M592.512 543.49C587.284 548.98 595.809 557.098 601.037 551.608C606.265 546.119 597.74 538.001 592.512 543.49Z" fill="#3FA9F5" fill-opacity="0.5"/>
<path d="M488.773 518.504C483.557 523.981 492.07 532.112 497.298 526.622C502.537 521.121 494.013 513.002 488.773 518.504Z" fill="#3FA9F5" fill-opacity="0.5"/>
<path d="M458.372 414.452C453.144 419.942 461.669 428.06 466.897 422.571C472.136 417.069 463.612 408.951 458.372 414.452Z" fill="#3FA9F5" fill-opacity="0.5"/>
<path d="M531.732 336.72C526.504 342.209 535.041 350.339 540.269 344.85C545.497 339.36 536.96 331.23 531.732 336.72Z" fill="#3FA9F5" fill-opacity="0.5"/>
<path d="M635.81 362.053C630.582 367.542 639.106 375.66 644.334 370.171C649.562 364.681 641.038 356.563 635.81 362.053Z" fill="#3FA9F5" fill-opacity="0.5"/>
</g>
</svg>
