<svg width="48" height="49" viewBox="0 0 48 49" fill="none" xmlns="http://www.w3.org/2000/svg">
<path d="M22.94 33.1152C23.2213 33.3961 23.6025 33.5539 24 33.5539C24.3975 33.5539 24.7788 33.3961 25.06 33.1152L29.56 28.6172C29.825 28.3329 29.9692 27.9568 29.9624 27.5682C29.9555 27.1796 29.7981 26.8088 29.5232 26.534C29.2484 26.2592 28.8776 26.1017 28.489 26.0949C28.1004 26.088 27.7244 26.2323 27.44 26.4972L24 29.9312L20.56 26.4932C20.4216 26.35 20.256 26.2358 20.073 26.1573C19.8899 26.0788 19.6931 26.0375 19.4939 26.0359C19.2947 26.0342 19.0972 26.0723 18.9129 26.1478C18.7286 26.2233 18.5612 26.3348 18.4204 26.4757C18.2796 26.6166 18.1683 26.7841 18.093 26.9685C18.0177 27.1529 17.9798 27.3504 17.9816 27.5496C17.9835 27.7487 18.0249 27.9455 18.1036 28.1285C18.1823 28.3115 18.2967 28.4769 18.44 28.6152L22.94 33.1152ZM24 18.6692C23.5757 18.6692 23.1687 18.5007 22.8686 18.2006C22.5686 17.9006 22.4 17.4936 22.4 17.0692C22.4 16.6449 22.5686 16.2379 22.8686 15.9379C23.1687 15.6378 23.5757 15.4692 24 15.4692C24.4243 15.4692 24.8313 15.6378 25.1314 15.9379C25.4314 16.2379 25.6 16.6449 25.6 17.0692C25.6 17.4936 25.4314 17.9006 25.1314 18.2006C24.8313 18.5007 24.4243 18.6692 24 18.6692ZM22.4 22.7012C22.4 22.9114 22.4414 23.1194 22.5218 23.3135C22.6022 23.5077 22.7201 23.684 22.8686 23.8326C23.0172 23.9812 23.1936 24.099 23.3877 24.1794C23.5818 24.2599 23.7899 24.3012 24 24.3012C24.2101 24.3012 24.4182 24.2599 24.6123 24.1794C24.8064 24.099 24.9828 23.9812 25.1314 23.8326C25.2799 23.684 25.3978 23.5077 25.4782 23.3135C25.5586 23.1194 25.6 22.9114 25.6 22.7012C25.6 22.2769 25.4314 21.8699 25.1314 21.5699C24.8313 21.2698 24.4243 21.1012 24 21.1012C23.5757 21.1012 23.1687 21.2698 22.8686 21.5699C22.5686 21.8699 22.4 22.2769 22.4 22.7012Z" fill="white"/>
<path fill-rule="evenodd" clip-rule="evenodd" d="M24 4.56104C20.0218 4.56104 16.2064 6.14139 13.3934 8.95443C10.5804 11.7675 9 15.5828 9 19.561V29.561C9 33.5393 10.5804 37.3546 13.3934 40.1676C16.2064 42.9807 20.0218 44.561 24 44.561C27.9782 44.561 31.7936 42.9807 34.6066 40.1676C37.4196 37.3546 39 33.5393 39 29.561V19.561C39 15.5828 37.4196 11.7675 34.6066 8.95443C31.7936 6.14139 27.9782 4.56104 24 4.56104ZM12 19.561C12 16.3784 13.2643 13.3262 15.5147 11.0758C17.7652 8.82532 20.8174 7.56104 24 7.56104C27.1826 7.56104 30.2348 8.82532 32.4853 11.0758C34.7357 13.3262 36 16.3784 36 19.561V29.561C36 32.7436 34.7357 35.7959 32.4853 38.0463C30.2348 40.2968 27.1826 41.561 24 41.561C20.8174 41.561 17.7652 40.2968 15.5147 38.0463C13.2643 35.7959 12 32.7436 12 29.561V19.561Z" fill="white"/>
</svg>
