<svg width="1478" height="1475" viewBox="0 0 1478 1475" fill="none" xmlns="http://www.w3.org/2000/svg">
<g opacity="0.7">
<path d="M987.96 671.309L1047.82 842.568L1047.64 842.771L929.451 980.021L929.192 979.988L751.232 946.231L691.373 774.972L691.55 774.768L809.734 637.503L809.999 637.552L987.96 671.309ZM1046.77 842.367L987.264 672.1L810.082 638.496L692.411 775.157L751.922 945.423L929.099 979.012L1046.77 842.367Z" fill="#3FA9F5" fill-opacity="0.5"/>
<path d="M627.051 541.702L665.329 651.219L665.147 651.407L589.642 739.122L589.377 739.073L475.66 717.513L437.381 607.995L437.558 607.792L513.084 520.087L513.344 520.12L627.051 541.702ZM664.286 651.018L626.355 542.493L513.431 521.08L438.434 608.175L476.366 716.7L589.289 738.113L664.286 651.018Z" fill="#3FA9F5" fill-opacity="0.5"/>
<path d="M863.296 466.152L882.523 521.163L844.497 565.302L844.238 565.269L787.255 554.461L768.028 499.45L806.048 455.296L806.313 455.345L863.296 466.152ZM881.48 520.962L862.605 466.96L806.395 456.289L769.071 499.652L787.946 553.654L844.15 564.309L881.48 520.962Z" fill="#3FA9F5" fill-opacity="0.5"/>
<mask id="mask0_317_1867" style="mask-type:luminance" maskUnits="userSpaceOnUse" x="570" y="592" width="667" height="710">
<path d="M743.193 1301.46L570.374 775.951L1063.2 592.874L1236.02 1118.39L743.193 1301.46Z" fill="white"/>
</mask>
<g mask="url(#mask0_317_1867)">
<mask id="mask1_317_1867" style="mask-type:luminance" maskUnits="userSpaceOnUse" x="-1908" y="-1910" width="5294" height="5294">
<path d="M-1907.52 -385.285L-679.967 3383.12L3385.58 1858.44L2158.02 -1909.97L-1907.52 -385.285Z" fill="#3FA9F5" fill-opacity="0.5"/>
</mask>
<g mask="url(#mask1_317_1867)">
<mask id="mask2_317_1867" style="mask-type:luminance" maskUnits="userSpaceOnUse" x="570" y="592" width="667" height="713">
<path d="M570.374 778.809L741.387 1304.05L1236.93 1118.12L1065.91 592.876L570.374 778.809Z" fill="white"/>
</mask>
<g mask="url(#mask2_317_1867)">
<mask id="mask3_317_1867" style="mask-type:luminance" maskUnits="userSpaceOnUse" x="812" y="791" width="422" height="450">
<path d="M921.125 1240.82L812.995 908.694L1125.31 791.504L1233.44 1123.63L921.125 1240.82Z" fill="white"/>
</mask>
<g mask="url(#mask3_317_1867)">
<path d="M1151.63 876.404L1205.4 1041.58L1205.21 1041.78L1077.91 1182.08L1077.64 1182.05L896.647 1157.44L842.869 992.258L843.048 992.071L970.364 851.756L970.612 851.783L1151.63 876.404ZM1204.34 1041.43L1150.88 877.229L970.676 852.714L843.93 992.405L897.391 1156.61L1077.6 1181.13L1204.34 1041.43Z" fill="#3FA9F5" fill-opacity="0.5"/>
</g>
<mask id="mask4_317_1867" style="mask-type:luminance" maskUnits="userSpaceOnUse" x="571" y="693" width="271" height="288">
<path d="M641.061 980.901L571.958 768.647L772.531 693.385L841.634 905.639L641.061 980.901Z" fill="white"/>
</mask>
<g mask="url(#mask4_317_1867)">
<path d="M787.425 747.896L821.812 853.516L821.622 853.723L740.271 943.373L740.018 943.332L624.359 927.605L589.972 821.986L590.162 821.778L671.497 732.134L671.766 732.17L787.425 747.896ZM820.751 853.368L786.676 748.706L671.809 733.092L591.028 822.118L625.103 926.78L739.954 942.4L820.751 853.368Z" fill="#3FA9F5" fill-opacity="0.5"/>
</g>
<path d="M1020.76 673.317L1038.04 726.371L997.087 771.504L996.818 771.469L938.863 763.582L921.589 710.528L962.544 665.41L962.792 665.437L1020.76 673.317ZM1036.96 726.23L1020 674.148L962.856 666.368L922.65 710.675L939.607 762.757L996.775 770.546L1036.96 726.23Z" fill="#3FA9F5" fill-opacity="0.5"/>
</g>
</g>
</g>
<path d="M1123.16 222.922L1119.91 226.714L1121.55 231.427L1119.8 232.038L1117.8 226.316L1121.77 221.728L1123.16 222.922Z" fill="#3FA9F5" fill-opacity="0.5"/>
<path d="M1125.38 242.366L1129.2 253.306L1127.45 253.917L1123.63 242.978L1125.38 242.366ZM1133.03 264.245L1136.85 275.2L1135.11 275.811L1131.28 264.856L1133.03 264.245ZM1140.68 286.139L1144.5 297.078L1142.75 297.689L1138.93 286.75L1140.68 286.139Z" fill="#3FA9F5" fill-opacity="0.5"/>
<path d="M1154.88 313.651L1154.53 315.451L1148.57 314.334L1146.57 308.628L1148.32 308.016L1149.97 312.729L1154.88 313.651Z" fill="#3FA9F5" fill-opacity="0.5"/>
<path d="M1223.3 326.579L1222.96 328.38L1211.54 326.232L1211.9 324.426L1223.3 326.579ZM1200.5 322.273L1200.14 324.079L1188.74 321.926L1189.08 320.126L1200.5 322.273ZM1177.68 317.957L1177.34 319.773L1165.94 317.62L1166.28 315.804L1177.68 317.957Z" fill="#3FA9F5" fill-opacity="0.5"/>
<path d="M1244.26 327.073L1240.3 331.656L1234.36 330.533L1234.7 328.732L1239.61 329.654L1242.87 325.878L1244.26 327.073Z" fill="#3FA9F5" fill-opacity="0.5"/>
<path d="M1289.73 274.335L1282.15 283.121L1280.76 281.927L1288.34 273.14L1289.73 274.335ZM1274.58 291.923L1267 300.693L1265.61 299.499L1273.19 290.713L1274.58 291.923ZM1259.43 309.495L1251.85 318.281L1250.45 317.071L1258.03 308.285L1259.43 309.495Z" fill="#3FA9F5" fill-opacity="0.5"/>
<path d="M1299.27 255.259L1301.26 260.965L1297.31 265.548L1295.92 264.354L1299.18 260.578L1297.53 255.865L1299.27 255.259Z" fill="#3FA9F5" fill-opacity="0.5"/>
<path d="M1276.32 189.609L1280.14 200.548L1278.41 201.154L1274.59 190.215L1276.32 189.609ZM1283.97 211.488L1287.8 222.442L1286.06 223.048L1282.23 212.094L1283.97 211.488ZM1291.62 233.382L1295.44 244.321L1293.71 244.927L1289.89 233.988L1291.62 233.382Z" fill="#3FA9F5" fill-opacity="0.5"/>
<path d="M1270.5 172.948L1272.5 178.67L1270.76 179.276L1269.11 174.563L1264.21 173.625L1264.55 171.825L1270.5 172.948Z" fill="#3FA9F5" fill-opacity="0.5"/>
<path d="M1253.15 169.672L1252.8 171.472L1241.41 169.335L1241.75 167.519L1253.15 169.672ZM1230.35 165.366L1230 167.166L1218.6 165.013L1218.95 163.213L1230.35 165.366ZM1207.55 161.06L1207.2 162.86L1195.8 160.707L1196.14 158.907L1207.55 161.06Z" fill="#3FA9F5" fill-opacity="0.5"/>
<path d="M1184.72 156.743L1184.39 158.559L1179.48 157.622L1176.22 161.413L1174.82 160.203L1178.78 155.62L1184.72 156.743Z" fill="#3FA9F5" fill-opacity="0.5"/>
<path d="M1168.64 170.2L1161.06 178.97L1159.66 177.781L1167.25 168.989L1168.64 170.2ZM1153.49 187.772L1145.9 196.564L1144.5 195.353L1152.08 186.567L1153.49 187.772ZM1138.32 205.35L1130.74 214.136L1129.35 212.942L1136.93 204.155L1138.32 205.35Z" fill="#3FA9F5" fill-opacity="0.5"/>
<path d="M1154.27 311.932C1152.13 305.785 1142.55 309.113 1144.71 315.277C1146.86 321.44 1156.43 318.096 1154.27 311.932Z" fill="#3FA9F5" fill-opacity="0.5"/>
<path d="M1123.42 224.936C1121.27 218.773 1111.72 222.112 1113.87 228.275C1116.03 234.438 1125.58 231.099 1123.42 224.936Z" fill="#3FA9F5" fill-opacity="0.5"/>
<path d="M1183.25 155.349C1181.1 149.202 1171.52 152.53 1173.68 158.693C1175.83 164.856 1185.4 161.512 1183.25 155.349Z" fill="#3FA9F5" fill-opacity="0.5"/>
<path d="M1274.8 172.896C1272.65 166.749 1263.09 170.072 1265.24 176.235C1267.4 182.398 1276.95 179.06 1274.8 172.896Z" fill="#3FA9F5" fill-opacity="0.5"/>
<path d="M1305.5 259.52C1303.34 253.357 1293.79 256.696 1295.94 262.859C1298.1 269.022 1307.65 265.684 1305.5 259.52Z" fill="#3FA9F5" fill-opacity="0.5"/>
<path d="M1245.31 329.218C1243.16 323.07 1233.59 326.399 1235.74 332.562C1237.89 338.725 1247.46 335.381 1245.31 329.218Z" fill="#3FA9F5" fill-opacity="0.5"/>
<path d="M78.9927 914.031L75.7311 917.807L77.3784 922.52L75.6445 923.126L73.6502 917.42L77.5969 912.821L78.9927 914.031Z" fill="#3FA9F5" fill-opacity="0.5"/>
<path d="M81.2013 933.459L85.0303 944.414L83.2964 945.02L79.4674 934.065L81.2013 933.459ZM88.8537 955.353L92.6772 966.292L90.9433 966.898L87.1198 955.959L88.8537 955.353ZM96.5006 977.231L100.33 988.186L98.5957 988.792L94.7667 977.837L96.5006 977.231Z" fill="#3FA9F5" fill-opacity="0.5"/>
<path d="M110.703 1004.76L110.36 1006.56L104.413 1005.44L102.413 999.716L104.147 999.11L105.794 1003.82L110.703 1004.76Z" fill="#3FA9F5" fill-opacity="0.5"/>
<path d="M179.123 1017.67L178.785 1019.49L167.384 1017.34L167.722 1015.52L179.123 1017.67ZM156.322 1013.37L155.962 1015.17L144.567 1013.04L144.921 1011.21L156.322 1013.37ZM133.504 1009.07L133.161 1010.87L121.76 1008.71L122.104 1006.91L133.504 1009.07Z" fill="#3FA9F5" fill-opacity="0.5"/>
<path d="M200.085 1018.18L196.133 1022.77L190.186 1021.64L190.524 1019.83L195.433 1020.76L198.689 1016.97L200.085 1018.18Z" fill="#3FA9F5" fill-opacity="0.5"/>
<path d="M245.558 965.444L237.981 974.23L236.585 973.02L244.162 964.234L245.558 965.444ZM230.403 983.016L222.826 991.802L221.43 990.592L229.013 981.822L230.403 983.016ZM215.249 1000.59L207.672 1009.37L206.281 1008.18L213.859 999.394L215.249 1000.59Z" fill="#3FA9F5" fill-opacity="0.5"/>
<path d="M255.105 946.348L257.104 952.069L253.136 956.658L251.746 955.464L255.002 951.672L253.355 946.959L255.105 946.348Z" fill="#3FA9F5" fill-opacity="0.5"/>
<path d="M232.158 880.696L235.987 891.651L234.238 892.263L230.409 881.308L232.158 880.696ZM239.811 902.59L243.634 913.53L241.885 914.141L238.061 903.202L239.811 902.59ZM247.458 924.469L251.287 935.424L249.537 936.035L245.708 925.08L247.458 924.469Z" fill="#3FA9F5" fill-opacity="0.5"/>
<path d="M226.34 864.051L228.334 869.757L226.584 870.369L224.937 865.656L220.034 864.734L220.372 862.918L226.34 864.051Z" fill="#3FA9F5" fill-opacity="0.5"/>
<path d="M208.976 860.782L208.633 862.582L197.232 860.429L197.575 858.629L208.976 860.782ZM186.169 856.46L185.831 858.276L174.43 856.123L174.768 854.307L186.169 856.46ZM163.368 852.154L163.024 853.954L151.629 851.817L151.967 850.001L163.368 852.154Z" fill="#3FA9F5" fill-opacity="0.5"/>
<path d="M140.551 847.852L140.208 849.653L135.304 848.731L132.043 852.507L130.652 851.312L134.599 846.713L140.551 847.852Z" fill="#3FA9F5" fill-opacity="0.5"/>
<path d="M124.464 861.293L116.887 870.079L115.497 868.885L123.074 860.098L124.464 861.293ZM109.31 878.865L101.733 887.651L100.326 886.462L107.904 877.676L109.31 878.865ZM94.145 896.459L86.5622 905.229L85.1719 904.035L92.7492 895.249L94.145 896.459Z" fill="#3FA9F5" fill-opacity="0.5"/>
<path d="M110.103 1003.04C107.954 996.895 98.3807 1000.22 100.535 1006.39C102.689 1012.55 112.257 1009.21 110.103 1003.04Z" fill="#3FA9F5" fill-opacity="0.5"/>
<path d="M79.247 916.029C77.0984 909.882 67.5408 913.205 69.6949 919.368C71.8491 925.531 81.4011 922.192 79.247 916.029Z" fill="#3FA9F5" fill-opacity="0.5"/>
<path d="M139.073 846.459C136.919 840.296 127.351 843.64 129.505 849.803C131.66 855.967 141.227 852.622 139.073 846.459Z" fill="#3FA9F5" fill-opacity="0.5"/>
<path d="M230.618 863.99C228.469 857.843 218.912 861.166 221.066 867.329C223.22 873.492 232.772 870.153 230.618 863.99Z" fill="#3FA9F5" fill-opacity="0.5"/>
<path d="M261.319 950.614C259.171 944.467 249.613 947.79 251.767 953.953C253.921 960.116 263.473 956.777 261.319 950.614Z" fill="#3FA9F5" fill-opacity="0.5"/>
<path d="M201.136 1020.33C198.982 1014.16 189.414 1017.51 191.568 1023.67C193.722 1029.83 203.29 1026.49 201.136 1020.33Z" fill="#3FA9F5" fill-opacity="0.5"/>
<path d="M186.343 831.194L183.087 834.986L184.734 839.699L183 840.305L181 834.583L184.952 830L186.343 831.194Z" fill="#3FA9F5" fill-opacity="0.5"/>
<path d="M188.556 850.637L192.38 861.576L190.646 862.182L186.823 851.243L188.556 850.637ZM196.203 872.515L200.032 883.47L198.298 884.076L194.469 873.121L196.203 872.515ZM203.856 894.409L207.679 905.348L205.945 905.954L202.122 895.015L203.856 894.409Z" fill="#3FA9F5" fill-opacity="0.5"/>
<path d="M218.053 921.923L217.715 923.739L211.763 922.6L209.769 916.894L211.502 916.288L213.15 921.001L218.053 921.923Z" fill="#3FA9F5" fill-opacity="0.5"/>
<path d="M286.48 934.851L286.137 936.652L274.736 934.499L275.079 932.698L286.48 934.851ZM263.679 930.545L263.335 932.346L251.934 930.193L252.278 928.392L263.679 930.545ZM240.872 926.224L240.518 928.045L229.117 925.892L229.476 924.086L240.872 926.224Z" fill="#3FA9F5" fill-opacity="0.5"/>
<path d="M307.435 935.343L303.488 939.942L297.536 938.803L297.88 937.003L302.783 937.924L306.045 934.149L307.435 935.343Z" fill="#3FA9F5" fill-opacity="0.5"/>
<path d="M352.91 882.606L345.333 891.392L343.942 890.198L351.52 881.411L352.91 882.606ZM337.761 900.194L330.184 908.98L328.788 907.77L336.365 898.984L337.761 900.194ZM322.606 917.766L315.029 926.552L313.633 925.342L321.216 916.572L322.606 917.766Z" fill="#3FA9F5" fill-opacity="0.5"/>
<path d="M362.46 863.525L364.454 869.231L360.492 873.836L359.096 872.625L362.358 868.85L360.71 864.137L362.46 863.525Z" fill="#3FA9F5" fill-opacity="0.5"/>
<path d="M339.514 797.874L343.337 808.813L341.587 809.425L337.764 798.486L339.514 797.874ZM347.16 819.753L350.989 830.707L349.24 831.319L345.411 820.364L347.16 819.753ZM354.813 841.647L358.636 852.586L356.887 853.197L353.063 842.258L354.813 841.647Z" fill="#3FA9F5" fill-opacity="0.5"/>
<path d="M333.692 781.214L335.691 786.936L333.942 787.548L332.295 782.835L327.386 781.897L327.729 780.097L333.692 781.214Z" fill="#3FA9F5" fill-opacity="0.5"/>
<path d="M316.328 777.944L315.99 779.76L304.589 777.607L304.927 775.791L316.328 777.944ZM293.527 773.638L293.183 775.438L281.788 773.301L282.126 771.485L293.527 773.638ZM270.725 769.332L270.382 771.132L258.981 768.979L259.324 767.179L270.725 769.332Z" fill="#3FA9F5" fill-opacity="0.5"/>
<path d="M247.903 765.015L247.565 766.831L242.656 765.894L239.4 769.685L238.004 768.475L241.957 763.892L247.903 765.015Z" fill="#3FA9F5" fill-opacity="0.5"/>
<path d="M231.822 778.472L224.245 787.258L222.849 786.048L230.426 777.261L231.822 778.472ZM216.667 796.044L209.09 804.83L207.694 803.62L215.277 794.849L216.667 796.044ZM201.513 813.616L193.935 822.402L192.529 821.214L200.107 812.427L201.513 813.616Z" fill="#3FA9F5" fill-opacity="0.5"/>
<path d="M217.46 920.221C215.306 914.058 205.738 917.402 207.892 923.565C210.046 929.728 219.614 926.384 217.46 920.221Z" fill="#3FA9F5" fill-opacity="0.5"/>
<path d="M186.62 833.202C184.472 827.055 174.898 830.383 177.052 836.547C179.207 842.71 188.774 839.366 186.62 833.202Z" fill="#3FA9F5" fill-opacity="0.5"/>
<path d="M246.425 763.621C244.276 757.474 234.719 760.797 236.873 766.96C239.027 773.123 248.579 769.784 246.425 763.621Z" fill="#3FA9F5" fill-opacity="0.5"/>
<path d="M337.972 781.167C335.823 775.02 326.265 778.342 328.42 784.506C330.574 790.669 340.126 787.33 337.972 781.167Z" fill="#3FA9F5" fill-opacity="0.5"/>
<path d="M368.69 867.786C366.536 861.623 356.969 864.967 359.123 871.131C361.277 877.294 370.845 873.95 368.69 867.786Z" fill="#3FA9F5" fill-opacity="0.5"/>
<path d="M308.485 937.49C306.337 931.342 296.763 934.671 298.918 940.834C301.072 946.997 310.64 943.653 308.485 937.49Z" fill="#3FA9F5" fill-opacity="0.5"/>
<path d="M1086.09 487.336L1082.82 491.111L1084.47 495.824L1082.74 496.43L1080.74 490.708L1084.69 486.125L1086.09 487.336Z" fill="#3FA9F5" fill-opacity="0.5"/>
<path d="M1088.3 506.763L1092.12 517.702L1090.39 518.308L1086.56 507.369L1088.3 506.763ZM1095.94 528.641L1099.77 539.596L1098.04 540.202L1094.21 529.247L1095.94 528.641ZM1103.6 550.535L1107.42 561.474L1105.69 562.08L1101.86 551.141L1103.6 550.535Z" fill="#3FA9F5" fill-opacity="0.5"/>
<path d="M1117.79 578.049L1117.46 579.865L1111.51 578.742L1109.51 573.02L1111.24 572.414L1112.89 577.127L1117.79 578.049Z" fill="#3FA9F5" fill-opacity="0.5"/>
<path d="M1186.22 590.977L1185.87 592.777L1174.47 590.624L1174.82 588.824L1186.22 590.977ZM1163.42 586.671L1163.07 588.471L1151.67 586.318L1152.02 584.518L1163.42 586.671ZM1140.61 582.349L1140.27 584.165L1128.86 582.018L1129.21 580.212L1140.61 582.349Z" fill="#3FA9F5" fill-opacity="0.5"/>
<path d="M1207.18 591.485L1203.23 596.068L1197.28 594.945L1197.62 593.129L1202.52 594.05L1205.78 590.275L1207.18 591.485Z" fill="#3FA9F5" fill-opacity="0.5"/>
<path d="M1252.65 538.748L1245.08 547.534L1243.68 546.324L1251.26 537.554L1252.65 538.748ZM1237.5 556.32L1229.92 565.106L1228.52 563.918L1236.11 555.126L1237.5 556.32ZM1222.34 573.893L1214.75 582.684L1213.36 581.49L1220.94 572.704L1222.34 573.893Z" fill="#3FA9F5" fill-opacity="0.5"/>
<path d="M1262.18 519.657L1264.18 525.379L1260.23 529.962L1258.84 528.751L1262.1 524.976L1260.45 520.263L1262.18 519.657Z" fill="#3FA9F5" fill-opacity="0.5"/>
<path d="M1239.24 454.005L1243.06 464.944L1241.33 465.55L1237.5 454.611L1239.24 454.005ZM1246.88 475.884L1250.71 486.838L1248.98 487.444L1245.15 476.49L1246.88 475.884ZM1254.54 497.778L1258.36 508.717L1256.63 509.323L1252.8 498.384L1254.54 497.778Z" fill="#3FA9F5" fill-opacity="0.5"/>
<path d="M1233.41 437.345L1235.41 443.067L1233.68 443.673L1232.03 438.96L1227.13 438.039L1227.47 436.222L1233.41 437.345Z" fill="#3FA9F5" fill-opacity="0.5"/>
<path d="M1216.07 434.069L1215.73 435.886L1204.33 433.733L1204.67 431.916L1216.07 434.069ZM1193.26 429.763L1192.92 431.564L1181.51 429.432L1181.86 427.61L1193.26 429.763ZM1170.46 425.458L1170.1 427.263L1158.7 425.11L1159.05 423.31L1170.46 425.458Z" fill="#3FA9F5" fill-opacity="0.5"/>
<path d="M1147.64 421.141L1147.3 422.957L1142.39 422.019L1139.14 425.811L1137.74 424.601L1141.7 420.033L1147.64 421.141Z" fill="#3FA9F5" fill-opacity="0.5"/>
<path d="M1131.56 434.598L1123.98 443.384L1122.59 442.19L1130.17 433.403L1131.56 434.598ZM1116.41 452.186L1108.83 460.956L1107.44 459.762L1115.02 450.976L1116.41 452.186ZM1101.26 469.758L1093.68 478.545L1092.27 477.34L1099.86 468.548L1101.26 469.758Z" fill="#3FA9F5" fill-opacity="0.5"/>
<path d="M1117.2 576.347C1115.04 570.183 1105.48 573.528 1107.63 579.691C1109.78 585.854 1119.35 582.51 1117.2 576.347Z" fill="#3FA9F5" fill-opacity="0.5"/>
<path d="M1086.35 489.348C1084.19 483.185 1074.64 486.524 1076.8 492.687C1078.95 498.85 1088.5 495.511 1086.35 489.348Z" fill="#3FA9F5" fill-opacity="0.5"/>
<path d="M1146.16 419.747C1144.01 413.6 1134.44 416.928 1136.6 423.091C1138.75 429.254 1148.32 425.91 1146.16 419.747Z" fill="#3FA9F5" fill-opacity="0.5"/>
<path d="M1237.71 437.293C1235.56 431.146 1226.01 434.468 1228.16 440.632C1230.31 446.795 1239.87 443.456 1237.71 437.293Z" fill="#3FA9F5" fill-opacity="0.5"/>
<path d="M1268.43 523.912C1266.27 517.749 1256.71 521.093 1258.86 527.257C1261.02 533.42 1270.58 530.076 1268.43 523.912Z" fill="#3FA9F5" fill-opacity="0.5"/>
<path d="M1208.23 593.63C1206.08 587.483 1196.51 590.811 1198.66 596.974C1200.82 603.137 1210.38 599.793 1208.23 593.63Z" fill="#3FA9F5" fill-opacity="0.5"/>
<path d="M918.563 237.443L915.323 241.229L916.97 245.942L915.221 246.553L913.221 240.831L917.189 236.243L918.563 237.443Z" fill="#3FA9F5" fill-opacity="0.5"/>
<path d="M920.795 256.882L924.618 267.821L922.869 268.432L919.045 257.493L920.795 256.882ZM928.442 278.76L932.271 289.715L930.521 290.326L926.692 279.371L928.442 278.76ZM936.094 300.654L939.918 311.593L938.168 312.205L934.345 301.265L936.094 300.654Z" fill="#3FA9F5" fill-opacity="0.5"/>
<path d="M950.276 328.172L949.953 329.982L943.986 328.849L941.991 323.143L943.741 322.531L945.388 327.244L950.276 328.172Z" fill="#3FA9F5" fill-opacity="0.5"/>
<path d="M1018.7 341.1L1018.36 342.9L1006.96 340.747L1007.3 338.947L1018.7 341.1ZM995.899 336.794L995.556 338.594L984.155 336.441L984.498 334.641L995.899 336.794ZM973.092 332.472L972.754 334.289L961.353 332.136L961.697 330.335L973.092 332.472Z" fill="#3FA9F5" fill-opacity="0.5"/>
<path d="M1039.67 341.588L1035.72 346.171L1029.77 345.048L1030.12 343.247L1035.02 344.169L1038.28 340.394L1039.67 341.588Z" fill="#3FA9F5" fill-opacity="0.5"/>
<path d="M1085.15 288.849L1077.57 297.636L1076.18 296.441L1083.76 287.655L1085.15 288.849ZM1070 306.437L1062.42 315.208L1061.01 314.019L1068.59 305.233L1070 306.437ZM1054.83 324.015L1047.25 332.801L1045.86 331.591L1053.43 322.805L1054.83 324.015Z" fill="#3FA9F5" fill-opacity="0.5"/>
<path d="M1094.68 269.775L1096.68 275.481L1092.73 280.079L1091.33 278.869L1094.6 275.094L1092.95 270.381L1094.68 269.775Z" fill="#3FA9F5" fill-opacity="0.5"/>
<path d="M1071.74 204.124L1075.56 215.064L1073.83 215.67L1070 204.73L1071.74 204.124ZM1079.38 226.003L1083.21 236.958L1081.48 237.564L1077.65 226.609L1079.38 226.003ZM1087.04 247.897L1090.86 258.836L1089.12 259.442L1085.3 248.503L1087.04 247.897Z" fill="#3FA9F5" fill-opacity="0.5"/>
<path d="M1065.91 187.463L1067.91 193.185L1066.18 193.791L1064.53 189.078L1059.62 188.14L1059.97 186.34L1065.91 187.463Z" fill="#3FA9F5" fill-opacity="0.5"/>
<path d="M1048.57 184.187L1048.23 186.003L1036.83 183.85L1037.17 182.034L1048.57 184.187ZM1025.76 179.881L1025.41 181.687L1014 179.534L1014.36 177.728L1025.76 179.881ZM1002.95 175.58L1002.6 177.381L991.203 175.228L991.547 173.427L1002.95 175.58Z" fill="#3FA9F5" fill-opacity="0.5"/>
<path d="M980.139 171.258L979.801 173.075L974.893 172.137L971.636 175.928L970.241 174.718L974.193 170.135L980.139 171.258Z" fill="#3FA9F5" fill-opacity="0.5"/>
<path d="M964.044 184.72L956.462 193.49L955.071 192.296L962.649 183.51L964.044 184.72ZM948.89 202.292L941.313 211.078L939.917 209.868L947.494 201.082L948.89 202.292ZM933.735 219.864L926.158 228.651L924.768 227.456L932.345 218.67L933.735 219.864Z" fill="#3FA9F5" fill-opacity="0.5"/>
<path d="M949.675 326.453C947.526 320.306 937.974 323.644 940.123 329.792C942.277 335.955 951.829 332.616 949.675 326.453Z" fill="#3FA9F5" fill-opacity="0.5"/>
<path d="M918.841 239.451C916.692 233.304 907.135 236.627 909.289 242.79C911.443 248.953 920.995 245.614 918.841 239.451Z" fill="#3FA9F5" fill-opacity="0.5"/>
<path d="M978.661 169.865C976.513 163.717 966.939 167.046 969.093 173.209C971.248 179.372 980.815 176.028 978.661 169.865Z" fill="#3FA9F5" fill-opacity="0.5"/>
<path d="M1070.21 187.411C1068.06 181.264 1058.49 184.592 1060.64 190.756C1062.8 196.919 1072.36 193.575 1070.21 187.411Z" fill="#3FA9F5" fill-opacity="0.5"/>
<path d="M1100.93 274.03C1098.77 267.867 1089.21 271.211 1091.36 277.374C1093.52 283.537 1103.08 280.193 1100.93 274.03Z" fill="#3FA9F5" fill-opacity="0.5"/>
<path d="M1040.72 343.733C1038.58 337.585 1029 340.914 1031.16 347.077C1033.31 353.24 1042.88 349.896 1040.72 343.733Z" fill="#3FA9F5" fill-opacity="0.5"/>
<path d="M948.946 424.01L945.69 427.802L947.337 432.515L945.604 433.121L943.604 427.399L947.556 422.816L948.946 424.01Z" fill="#3FA9F5" fill-opacity="0.5"/>
<path d="M951.16 443.454L954.983 454.394L953.25 455L949.426 444.06L951.16 443.454ZM958.812 465.349L962.636 476.288L960.902 476.894L957.078 465.955L958.812 465.349ZM966.459 487.227L970.283 498.166L968.549 498.772L964.725 487.833L966.459 487.227Z" fill="#3FA9F5" fill-opacity="0.5"/>
<path d="M980.656 514.739L980.313 516.539L974.366 515.416L972.366 509.694L974.1 509.088L975.747 513.801L980.656 514.739Z" fill="#3FA9F5" fill-opacity="0.5"/>
<path d="M1049.08 527.652L1048.74 529.468L1037.34 527.315L1037.68 525.515L1049.08 527.652ZM1026.28 523.346L1025.94 525.162L1014.54 523.009L1014.88 521.193L1026.28 523.346ZM1003.48 519.04L1003.12 520.846L991.715 518.693L992.074 516.887L1003.48 519.04Z" fill="#3FA9F5" fill-opacity="0.5"/>
<path d="M1070.04 528.161L1066.09 532.744L1060.14 531.621L1060.5 529.815L1065.39 530.742L1068.65 526.967L1070.04 528.161Z" fill="#3FA9F5" fill-opacity="0.5"/>
<path d="M1115.51 475.423L1107.93 484.209L1106.54 483.015L1114.12 474.229L1115.51 475.423ZM1100.36 493.011L1092.79 501.797L1091.39 500.587L1098.97 491.801L1100.36 493.011ZM1085.21 510.584L1077.63 519.37L1076.23 518.16L1083.82 509.389L1085.21 510.584Z" fill="#3FA9F5" fill-opacity="0.5"/>
<path d="M1125.06 456.326L1127.06 462.048L1123.09 466.636L1121.7 465.442L1124.96 461.651L1123.31 456.938L1125.06 456.326Z" fill="#3FA9F5" fill-opacity="0.5"/>
<path d="M1102.12 390.692L1105.94 401.631L1104.19 402.243L1100.37 391.304L1102.12 390.692ZM1109.77 412.586L1113.59 423.525L1111.84 424.137L1108.02 413.198L1109.77 412.586ZM1117.42 434.464L1121.24 445.404L1119.49 446.015L1115.67 435.076L1117.42 434.464Z" fill="#3FA9F5" fill-opacity="0.5"/>
<path d="M1096.29 374.031L1098.29 379.753L1096.54 380.364L1094.9 375.651L1089.99 374.714L1090.33 372.913L1096.29 374.031Z" fill="#3FA9F5" fill-opacity="0.5"/>
<path d="M1078.93 370.76L1078.59 372.56L1067.19 370.407L1067.53 368.607L1078.93 370.76ZM1056.12 366.438L1055.79 368.254L1044.39 366.101L1044.73 364.301L1056.12 366.438ZM1033.32 362.132L1032.98 363.948L1021.58 361.795L1021.92 359.979L1033.32 362.132Z" fill="#3FA9F5" fill-opacity="0.5"/>
<path d="M1010.5 357.832L1010.16 359.633L1005.26 358.711L1002.01 362.481L1000.61 361.292L1004.56 356.709L1010.5 357.832Z" fill="#3FA9F5" fill-opacity="0.5"/>
<path d="M994.425 371.287L986.848 380.074L985.452 378.863L993.03 370.077L994.425 371.287ZM979.271 388.86L971.694 397.646L970.298 396.436L977.88 387.665L979.271 388.86ZM964.116 406.432L956.539 415.218L955.133 414.029L962.71 405.243L964.116 406.432Z" fill="#3FA9F5" fill-opacity="0.5"/>
<path d="M980.056 513.021C977.907 506.873 968.334 510.202 970.488 516.365C972.642 522.528 982.21 519.184 980.056 513.021Z" fill="#3FA9F5" fill-opacity="0.5"/>
<path d="M949.222 426.019C947.073 419.872 937.5 423.2 939.654 429.363C941.808 435.526 951.376 432.182 949.222 426.019Z" fill="#3FA9F5" fill-opacity="0.5"/>
<path d="M1009.03 356.437C1006.87 350.274 997.322 353.613 999.476 359.776C1001.63 365.939 1011.18 362.601 1009.03 356.437Z" fill="#3FA9F5" fill-opacity="0.5"/>
<path d="M1100.58 373.985C1098.42 367.822 1088.87 371.16 1091.03 377.323C1093.18 383.487 1102.73 380.148 1100.58 373.985Z" fill="#3FA9F5" fill-opacity="0.5"/>
<path d="M1131.29 460.587C1129.14 454.44 1119.58 457.762 1121.74 463.926C1123.89 470.089 1133.44 466.75 1131.29 460.587Z" fill="#3FA9F5" fill-opacity="0.5"/>
<path d="M1071.09 530.306C1068.94 524.158 1059.39 527.497 1061.54 533.644C1063.69 539.807 1073.24 536.469 1071.09 530.306Z" fill="#3FA9F5" fill-opacity="0.5"/>
<path d="M1335.23 903.746L1370.95 1005.95L1300.16 1088.02L1299.65 1087.92L1193.66 1067.92L1157.93 965.715L1228.72 883.629L1229.25 883.727L1335.23 903.746ZM1368.87 1005.55L1333.84 905.345L1229.43 885.646L1160.03 966.096L1195.05 1066.3L1299.47 1086.03L1368.87 1005.55Z" fill="#3FA9F5" fill-opacity="0.5"/>
<path d="M1200.17 1065.25C1197.67 1058.1 1186.56 1061.98 1189.06 1069.14C1191.56 1076.31 1202.68 1072.42 1200.17 1065.25Z" fill="#3FA9F5" fill-opacity="0.5"/>
<path d="M1164.31 964.07C1161.81 956.914 1150.7 960.798 1153.2 967.954C1155.7 975.11 1166.81 971.226 1164.31 964.07Z" fill="#3FA9F5" fill-opacity="0.5"/>
<path d="M1233.86 883.157C1231.36 876.001 1220.25 879.885 1222.75 887.041C1225.26 894.213 1236.37 890.329 1233.86 883.157Z" fill="#3FA9F5" fill-opacity="0.5"/>
<path d="M1340.33 903.556C1337.83 896.4 1326.71 900.284 1329.22 907.44C1331.72 914.597 1342.83 910.713 1340.33 903.556Z" fill="#3FA9F5" fill-opacity="0.5"/>
<path d="M1376.04 1004.28C1373.54 997.119 1362.43 1001 1364.93 1008.16C1367.44 1015.33 1378.55 1011.45 1376.04 1004.28Z" fill="#3FA9F5" fill-opacity="0.5"/>
<path d="M1306.04 1085.36C1303.54 1078.21 1292.42 1082.07 1294.93 1089.25C1297.43 1096.4 1308.54 1092.52 1306.04 1085.36Z" fill="#3FA9F5" fill-opacity="0.5"/>
<path d="M1158.86 81.5873L1194.58 183.791L1123.81 265.856L1123.28 265.758L1017.3 245.754L981.58 143.55L1052.37 61.4642L1052.88 61.5676L1158.86 81.5873ZM1192.5 183.388L1157.47 83.1864L1053.07 63.466L983.661 143.937L1018.68 244.139L1123.1 263.838L1192.5 183.388Z" fill="#3FA9F5" fill-opacity="0.5"/>
<path d="M1023.82 243.089C1021.32 235.932 1010.19 239.822 1012.69 246.978C1015.19 254.134 1026.32 250.245 1023.82 243.089Z" fill="#3FA9F5" fill-opacity="0.5"/>
<path d="M987.942 141.911C985.44 134.755 974.328 138.639 976.829 145.795C979.33 152.952 990.443 149.068 987.942 141.911Z" fill="#3FA9F5" fill-opacity="0.5"/>
<path d="M1057.51 60.9943C1055.01 53.8381 1043.88 57.7277 1046.38 64.8839C1048.88 72.04 1060.01 68.1505 1057.51 60.9943Z" fill="#3FA9F5" fill-opacity="0.5"/>
<path d="M1163.98 81.3918C1161.48 74.2356 1150.34 78.1094 1152.85 85.2813C1155.35 92.4375 1166.48 88.5479 1163.98 81.3918Z" fill="#3FA9F5" fill-opacity="0.5"/>
<path d="M1199.68 182.118C1197.18 174.962 1186.06 178.846 1188.57 186.002C1191.07 193.174 1202.18 189.29 1199.68 182.118Z" fill="#3FA9F5" fill-opacity="0.5"/>
<path d="M1129.67 263.205C1127.17 256.049 1116.05 259.918 1118.56 267.089C1121.06 274.246 1132.18 270.362 1129.67 263.205Z" fill="#3FA9F5" fill-opacity="0.5"/>
<path d="M1272.63 513.405L1308.35 615.593L1237.56 697.679L1237.04 697.576L1131.06 677.556L1095.35 575.368L1166.12 493.288L1166.65 493.385L1272.63 513.405ZM1306.26 615.19L1271.24 515.004L1166.82 495.289L1097.43 575.755L1132.45 675.941L1236.85 695.662L1306.26 615.19Z" fill="#3FA9F5" fill-opacity="0.5"/>
<path d="M1137.57 674.912C1135.07 667.756 1123.95 671.624 1126.46 678.796C1128.96 685.952 1140.07 682.068 1137.57 674.912Z" fill="#3FA9F5" fill-opacity="0.5"/>
<path d="M1101.71 573.729C1099.21 566.573 1088.09 570.441 1090.59 577.613C1093.1 584.77 1104.21 580.885 1101.71 573.729Z" fill="#3FA9F5" fill-opacity="0.5"/>
<path d="M1171.26 492.801C1168.75 485.645 1157.64 489.529 1160.14 496.686C1162.65 503.857 1173.76 499.973 1171.26 492.801Z" fill="#3FA9F5" fill-opacity="0.5"/>
<path d="M1277.74 513.21C1275.24 506.054 1264.12 509.922 1266.63 517.094C1269.13 524.25 1280.24 520.366 1277.74 513.21Z" fill="#3FA9F5" fill-opacity="0.5"/>
<path d="M1313.44 613.936C1310.94 606.78 1299.83 610.664 1302.33 617.82C1304.83 624.977 1315.94 621.092 1313.44 613.936Z" fill="#3FA9F5" fill-opacity="0.5"/>
<path d="M1243.43 695.008C1240.94 687.867 1229.82 691.735 1232.32 698.892C1234.83 706.063 1245.94 702.179 1243.43 695.008Z" fill="#3FA9F5" fill-opacity="0.5"/>
<path d="M1159.8 688.578L1195.52 790.766L1124.75 872.847L1124.22 872.749L1018.24 852.729L982.524 750.541L1053.31 668.455L1053.82 668.558L1159.8 688.578ZM1193.43 790.363L1158.42 690.177L1054.01 670.457L984.605 750.928L1019.62 851.114L1124.04 870.829L1193.43 790.363Z" fill="#3FA9F5" fill-opacity="0.5"/>
<path d="M1024.74 850.068C1022.24 842.928 1011.12 846.796 1013.63 853.952C1016.13 861.124 1027.25 857.24 1024.74 850.068Z" fill="#3FA9F5" fill-opacity="0.5"/>
<path d="M988.883 748.902C986.382 741.746 975.269 745.63 977.771 752.786C980.272 759.942 991.384 756.058 988.883 748.902Z" fill="#3FA9F5" fill-opacity="0.5"/>
<path d="M1058.43 667.974C1055.93 660.834 1044.82 664.702 1047.32 671.858C1049.82 679.03 1060.94 675.146 1058.43 667.974Z" fill="#3FA9F5" fill-opacity="0.5"/>
<path d="M1164.9 688.372C1162.4 681.216 1151.28 685.1 1153.78 692.256C1156.29 699.428 1167.4 695.544 1164.9 688.372Z" fill="#3FA9F5" fill-opacity="0.5"/>
<path d="M1200.62 789.109C1198.12 781.952 1186.99 785.842 1189.49 792.998C1191.99 800.154 1203.12 796.265 1200.62 789.109Z" fill="#3FA9F5" fill-opacity="0.5"/>
<path d="M1130.61 870.18C1128.11 863.024 1117 866.908 1119.5 874.065C1122 881.221 1133.11 877.337 1130.61 870.18Z" fill="#3FA9F5" fill-opacity="0.5"/>
</g>
</svg>
