<svg width="259" height="232" viewBox="0 0 259 232" fill="none" xmlns="http://www.w3.org/2000/svg">
<g clip-path="url(#clip0_231_2354)">
<path d="M30.3061 231.559L30.0816 231.475C22.4758 228.591 16.5169 222.491 13.788 214.794C13.0487 212.654 12.5802 210.43 12.3937 208.173L12.3754 207.958L12.5869 207.996C15.1128 208.452 17.7644 208.704 18.9458 208.802L12.3177 204.393L12.3297 204.164C12.4329 202.012 13.8285 200.139 15.8543 199.435C17.8994 198.676 20.1983 199.244 21.6605 200.869C22.3194 201.588 23.0161 202.312 23.6897 203.012C26.0047 205.417 28.3985 207.904 29.9122 210.839C32.1886 215.363 32.3122 220.678 30.2484 225.303L30.3061 231.559Z" fill="#F2F2F2"/>
<path d="M164.416 227.287L164.414 227.263C164.121 220.724 162.927 214.257 160.867 208.048L160.865 208.037C160.745 207.4 160.78 206.742 160.967 206.121C161.542 204.34 163.326 203.25 165.164 203.557C167.062 203.916 169.024 203.579 170.697 202.607C171.758 201.988 173.047 201.902 174.181 202.376C175.25 202.814 176.05 203.735 176.337 204.859C176.36 204.947 176.379 205.036 176.396 205.127C176.457 211.697 177.657 218.206 179.944 224.361L179.945 224.369C180.184 225.64 179.803 226.949 178.919 227.889C178.138 228.686 177.043 229.09 175.934 228.991C173.944 228.855 171.897 229.261 169.677 230.232C168.901 230.579 168.029 230.641 167.213 230.406C165.769 229.981 164.687 228.774 164.416 227.287Z" fill="#16BBDA"/>
<path d="M100.795 137.461V223.331H160.641V137.461C160.643 136.193 159.822 135.072 158.617 134.698C158.34 134.606 158.05 134.56 157.759 134.564H103.685C102.092 134.561 100.798 135.856 100.795 137.458V137.461ZM124.15 166.966C124.183 163.419 127.069 160.57 130.598 160.603C134.08 160.635 136.895 163.465 136.927 166.966V176.929C136.911 180.476 134.037 183.338 130.508 183.321C127.004 183.304 124.167 180.452 124.15 176.929V166.966Z" fill="#F2F2F2"/>
<path d="M100.611 220.584V228.865C100.614 229.757 101.331 230.481 102.219 230.489H159.216C160.106 230.484 160.824 229.758 160.824 228.865V220.584H100.611Z" fill="#E6E6E6"/>
<path d="M6.64841 8.08568V164.873C6.65168 169.033 10.006 172.405 14.1448 172.408H245.284C249.422 172.405 252.777 169.033 252.78 164.873V8.08568C252.77 3.92943 249.418 0.563866 245.284 0.558594H14.1448C10.0101 0.563887 6.65825 3.92944 6.64841 8.08568Z" fill="#E6E6E6"/>
<path d="M243.355 6.00098H16.073C13.8591 6.00582 12.0668 7.81116 12.0667 10.0366V162.938C12.0705 165.161 13.8619 166.962 16.073 166.966H243.355C245.566 166.962 247.358 165.161 247.361 162.938V10.0366C247.361 7.81116 245.569 6.00582 243.355 6.00098ZM186.022 114.631C185.343 115.98 183.965 116.829 182.461 116.826L182.437 116.824C180.258 116.519 178.071 116.317 175.876 116.22C176.217 116.466 176.517 116.764 176.765 117.104C177.402 118.021 177.598 119.177 177.299 120.254C176.802 122.196 176.826 124.294 177.371 126.666C177.569 127.495 177.47 128.369 177.092 129.133C176.412 130.482 175.035 131.331 173.53 131.327L173.506 131.325C168.303 130.597 163.035 130.456 157.8 130.905C157.78 131.037 157.754 131.17 157.72 131.303C157.223 133.245 157.247 135.342 157.792 137.714C157.99 138.544 157.891 139.417 157.513 140.181C156.834 141.53 155.456 142.38 153.951 142.376L153.928 142.374C148.584 141.626 143.172 141.498 137.799 141.992C137.758 143.341 137.898 144.689 138.213 146.001C138.411 146.831 138.312 147.704 137.934 148.468C137.255 149.817 135.877 150.666 134.373 150.663L134.349 150.661C127.899 149.758 121.356 149.758 114.907 150.661H114.897C114.251 150.663 113.614 150.509 113.041 150.211C111.404 149.317 110.663 147.355 111.298 145.595C111.493 145.041 111.638 144.47 111.731 143.89C105.82 143.205 99.8472 143.276 93.9543 144.101H93.9439C93.2981 144.103 92.6614 143.949 92.0879 143.651C90.4512 142.757 89.7105 140.795 90.3456 139.035C91.0425 137.224 91.0711 135.223 90.4261 133.393C90.1222 132.535 90.1222 131.598 90.4259 130.74C85.9833 130.513 81.5292 130.709 77.1234 131.325H77.113C76.4673 131.328 75.8305 131.173 75.257 130.875C73.6203 129.982 72.8797 128.02 73.5147 126.26C74.2116 124.449 74.2402 122.448 73.5953 120.618C73.1833 119.456 73.3345 118.166 74.0042 117.132C74.6277 116.155 75.6743 115.533 76.8262 115.454C76.9167 115.448 77.0077 115.444 77.0996 115.444C79.3569 115.841 81.636 116.1 83.9244 116.219C82.4646 115.255 81.853 113.41 82.4454 111.758C83.1423 109.948 83.1708 107.946 82.5259 106.116C82.114 104.954 82.2652 103.665 82.9348 102.63C82.9638 102.586 82.9976 102.546 83.0281 102.503C81.3995 102.616 79.7748 102.786 78.1538 103.013H78.1434C77.4977 103.015 76.861 102.861 76.2875 102.563C74.6508 101.669 73.9101 99.7069 74.5452 97.947C75.2421 96.1366 75.2706 94.1351 74.6257 92.3054C74.2138 91.1429 74.365 89.8537 75.0346 88.8194C75.6581 87.8427 76.7048 87.2202 77.8566 87.1411C77.9472 87.135 78.0381 87.1318 78.13 87.1318C80.8443 87.6095 83.5896 87.8873 86.3441 87.963C85.6414 86.945 85.4688 85.6493 85.8803 84.4812C86.5772 82.6708 86.6057 80.6694 85.9608 78.8396C85.5488 77.6771 85.7001 76.388 86.3697 75.3537C86.9932 74.3769 88.0399 73.7544 89.1917 73.6753C89.2823 73.6693 89.3732 73.6661 89.4651 73.6661C91.762 74.0699 94.0815 74.3309 96.4104 74.4477C95.9101 73.4954 95.8283 72.3763 96.1849 71.3607C96.8818 69.5504 96.9104 67.5489 96.2654 65.7192C95.8535 64.5567 96.0047 63.2675 96.6743 62.2332C97.2978 61.2564 98.3445 60.634 99.4964 60.5549C99.5869 60.5488 99.6778 60.5456 99.7697 60.5456C102.472 61.0212 105.206 61.2986 107.949 61.3757C107.575 60.4888 107.545 59.4938 107.863 58.5855C108.56 56.7752 108.589 54.7737 107.944 52.944C107.532 51.7815 107.683 50.4923 108.353 49.458C108.976 48.4812 110.023 47.8587 111.175 47.7797C111.265 47.7736 111.356 47.7704 111.448 47.7704C117.885 48.9093 124.471 48.9102 130.908 47.7729H130.916C131.413 47.8758 131.926 47.8758 132.423 47.7729H132.431C138.868 48.9102 145.453 48.9093 151.891 47.7704C151.982 47.7704 152.073 47.7736 152.164 47.7797C153.316 47.8587 154.362 48.4812 154.986 49.458C155.656 50.4923 155.807 51.7815 155.395 52.944C154.75 54.7737 154.779 56.7752 155.475 58.5855C155.794 59.4938 155.764 60.4888 155.39 61.3757C158.133 61.2986 160.866 61.0212 163.569 60.5456C163.661 60.5456 163.752 60.5488 163.843 60.5549C164.994 60.634 166.041 61.2564 166.665 62.2332C167.334 63.2675 167.485 64.5567 167.073 65.7192C166.429 67.5489 166.457 69.5504 167.154 71.3607C167.511 72.3763 167.429 73.4954 166.928 74.4477C169.257 74.3309 171.577 74.0699 173.874 73.6661C173.966 73.6661 174.057 73.6693 174.147 73.6753C175.299 73.7544 176.346 74.3769 176.969 75.3537C177.639 76.388 177.79 77.6771 177.378 78.8396C176.733 80.6694 176.762 82.6708 177.459 84.4812C177.871 85.6522 177.697 86.9514 176.99 87.9704C177.297 88.2032 177.568 88.4796 177.795 88.7909C178.432 89.7084 178.628 90.8641 178.329 91.9417C177.833 93.8839 177.856 95.981 178.402 98.3529C178.599 99.1828 178.5 100.056 178.122 100.82C177.984 101.092 177.815 101.347 177.62 101.581C179.228 101.439 180.832 101.227 182.431 100.945H182.44C183.726 100.941 184.937 101.557 185.696 102.602C186.333 103.519 186.528 104.675 186.229 105.753C185.733 107.695 185.756 109.792 186.302 112.164C186.5 112.994 186.401 113.867 186.022 114.631Z" fill="white"/>
<path d="M235.983 27.0635H23.3163C22.8492 27.0532 22.4789 26.6642 22.4892 26.1947C22.4992 25.7397 22.8637 25.3733 23.3163 25.3633H235.983C236.45 25.3736 236.82 25.7626 236.81 26.2321C236.8 26.6871 236.435 27.0535 235.983 27.0635Z" fill="#E6E6E6"/>
<path d="M132.219 146.59L132.195 146.588C125.746 145.685 119.203 145.685 112.753 146.588H112.743C112.097 146.591 111.461 146.436 110.887 146.138C109.25 145.244 108.51 143.282 109.145 141.522C109.842 139.712 109.87 137.71 109.225 135.881C108.813 134.718 108.965 133.429 109.634 132.395C110.258 131.418 111.304 130.795 112.456 130.716C112.547 130.71 112.638 130.707 112.73 130.707C119.167 131.846 125.752 131.847 132.19 130.71H132.198C133.485 130.705 134.695 131.321 135.454 132.366C136.091 133.284 136.287 134.439 135.988 135.517C135.491 137.459 135.515 139.556 136.06 141.928C136.258 142.758 136.159 143.631 135.781 144.395C135.101 145.744 133.723 146.593 132.219 146.59Z" fill="#16BBDA"/>
<path d="M152.053 112.736L146.864 108.42C142.973 110.47 137.053 118.654 137.053 118.654L123.394 128.529C121.754 128.607 120.488 130.008 120.566 131.657C120.644 133.305 122.037 134.578 123.677 134.5C124.742 134.449 125.698 133.829 126.183 132.875L144.741 123.018L152.053 112.736Z" fill="#FFB8B8"/>
<path d="M160.807 96.3092C163.802 98.8586 164.173 103.366 161.637 106.376C161.353 106.713 161.038 107.023 160.697 107.302L157.397 109.998C157.397 109.998 149.167 121.908 144.883 123.29L133.885 129.065L128.926 124.067L138.893 115.902C138.893 115.902 143.478 111.543 143.937 108.352C144.218 106.398 147.508 101.075 150.806 97.127C153.337 94.1256 157.81 93.7551 160.795 96.2994L160.807 96.3092Z" fill="#3F3D56"/>
<path d="M150.144 225.565L145.456 225.565L143.226 207.39L150.145 207.39L150.144 225.565Z" fill="#FFB6B6"/>
<path d="M150.309 230.481L135.894 230.481V230.297C135.894 227.183 138.406 224.658 141.505 224.657L144.138 222.649L149.051 224.658L150.309 224.658L150.309 230.481Z" fill="#2F2E41"/>
<path d="M185.861 200.765L183.641 204.914L166.66 198.282L169.936 192.157L185.861 200.765Z" fill="#FFB6B6"/>
<path d="M190.246 202.945L183.42 215.708L183.259 215.621C180.53 214.146 179.507 210.726 180.974 207.983L180.975 207.982L180.462 204.7L184.548 201.302L185.144 200.188L190.246 202.945Z" fill="#2F2E41"/>
<path d="M141.281 142.332L137.144 175.603L139.212 186.757L176.448 203.155L178.517 196.397C168.999 190.542 158.824 181.682 152.413 181.031C152.413 181.031 151.882 175.126 156.474 171.483C157.401 170.748 157.198 169.753 157.573 168.851C157.831 168.231 158.856 167.586 159.118 166.95C159.459 166.125 159.038 165.306 159.38 164.469C159.572 163.998 160.301 163.968 160.492 163.497C160.818 162.693 160.605 161.448 160.923 160.654C161.602 158.956 162.254 157.296 162.85 155.74C164.706 150.897 166.011 147.06 165.846 146.231C165.329 143.632 141.281 142.332 141.281 142.332Z" fill="#2F2E41"/>
<path d="M140.568 175.507L138.404 189.557L143.867 218.231H151.107C153.708 208.596 153.842 195.934 151.366 185.22L140.568 175.507Z" fill="#2F2E41"/>
<path d="M145.22 101.682L148.558 95.8357L152.142 92.946L158.865 91.9062L160.733 93.35C167.455 103.677 169.961 116.21 167.732 128.346L167.207 131.203L166.874 133.017L167.019 135.184L165.897 138.34L166.051 140.65L166.133 141.884L166.216 143.123L166.332 144.852C166.538 145.838 165.497 145.708 165.645 146.578C165.903 148.106 167.063 150.369 165.301 150.376L147.096 146.578C142.472 146.597 138.166 141.054 142.631 136.565L145.22 101.682Z" fill="#3F3D56"/>
<path d="M153.742 90.2783C158.624 90.2783 162.582 86.2998 162.582 81.3921C162.582 76.4843 158.624 72.5059 153.742 72.5059C148.859 72.5059 144.901 76.4843 144.901 81.3921C144.901 86.2998 148.859 90.2783 153.742 90.2783Z" fill="#FFB8B8"/>
<path d="M153.891 90.0258C155.185 90.0461 156.478 89.9552 157.756 89.7543C159.023 89.4953 161.857 87.4077 162.647 86.1514C163.234 85.218 163.609 83.7605 163.821 82.7022C164.397 79.87 163.751 76.925 162.045 74.5984C161.72 74.1172 161.272 73.7331 160.749 73.4867C160.702 73.4684 160.654 73.4522 160.606 73.4384C159.843 73.2366 159.157 72.8101 158.637 72.2136C158.536 72.093 158.427 71.9798 158.31 71.875C157.722 71.3762 157.025 71.0243 156.275 70.8482C155.066 70.5228 153.316 70.8458 151.074 71.8089C149.947 72.2929 148.715 72.1177 147.767 71.9111C147.659 71.8901 147.548 71.9284 147.476 72.0116C147.072 72.3922 146.541 72.6052 145.988 72.6078C145.649 72.6228 145.294 73.0943 144.864 73.7091C144.766 73.8487 144.653 74.0116 144.571 74.1106L144.56 73.9203L144.368 74.1326C143.382 75.2249 143.464 76.9136 144.551 77.9046C144.843 78.1709 145.19 78.3685 145.567 78.4831C145.908 78.5743 146.257 78.6302 146.609 78.65C146.823 78.6693 147.043 78.6893 147.255 78.7261C148.635 79.0102 149.765 80.0023 150.231 81.3387C150.426 81.886 151.026 82.1707 151.57 81.9744C151.656 81.9436 151.737 81.9017 151.812 81.8498C152.259 81.5 152.848 81.3922 153.389 81.5612C153.619 81.6899 153.798 81.8944 153.896 82.1402C154.016 82.4141 154.214 82.646 154.465 82.8064C155.323 83.2513 155.382 85.2224 155.074 86.8655C154.777 88.4493 154.189 89.5951 153.645 89.6517C153.226 89.6953 153.178 89.7252 153.148 89.7996L153.121 89.8662L153.168 89.9286C153.399 90.0129 153.646 90.046 153.891 90.0258Z" fill="#2F2E41"/>
<path d="M135.997 84.785L135.973 84.7834C129.524 83.88 122.981 83.88 116.532 84.7834H116.521C115.875 84.7858 115.239 84.6314 114.665 84.3332C113.028 83.4397 112.288 81.4775 112.923 79.7175C113.62 77.9071 113.648 75.9057 113.003 74.0759C112.591 72.9134 112.743 71.6243 113.412 70.5899C114.036 69.6132 115.082 68.9907 116.234 68.9116C116.325 68.9055 116.416 68.9023 116.508 68.9023C122.945 70.0413 129.53 70.0421 135.968 68.9049H135.976C137.263 68.9003 138.474 69.5164 139.232 70.5615C139.869 71.4789 140.065 72.6346 139.766 73.7123C139.269 75.6544 139.293 77.7516 139.838 80.1235C140.036 80.9533 139.937 81.8266 139.559 82.5905C138.879 83.9396 137.501 84.7886 135.997 84.785Z" fill="#16BBDA"/>
<path d="M144.264 105.714L147.922 100.03C145.442 96.3851 136.664 91.4309 136.664 91.4309L125.312 78.9494C125.042 77.3211 123.511 76.2204 121.891 76.4911C120.271 76.7618 119.176 78.3012 119.445 79.9296C119.62 80.9863 120.344 81.8683 121.343 82.2413L133.251 99.6159L144.264 105.714Z" fill="#FFB8B8"/>
<path d="M161.517 112.533C159.348 115.821 154.939 116.719 151.668 114.539C151.302 114.294 150.958 114.016 150.643 113.708L147.594 110.729C147.594 110.729 134.811 104.02 132.945 99.9047L124.569 87.9627L130.185 82.8701L139.947 91.79C139.947 91.79 144.441 97.014 147.647 97.0994C149.611 97.1517 155.254 99.8143 159.54 102.645C162.801 104.821 163.69 109.243 161.525 112.521L161.517 112.533Z" fill="#3F3D56"/>
<path d="M76.3631 230.429L76.3393 230.427C69.8898 229.524 63.3469 229.524 56.8974 230.427H56.887C56.2413 230.429 55.6046 230.275 55.031 229.977C53.3944 229.083 52.6537 227.121 53.2888 225.361C53.9857 223.551 54.0142 221.549 53.3693 219.719C52.9573 218.557 53.1086 217.268 53.7782 216.234C54.4017 215.257 55.4483 214.634 56.6002 214.555C56.6908 214.549 56.7817 214.546 56.8736 214.546C63.3107 215.685 69.8962 215.686 76.3336 214.548H76.3417C77.6285 214.544 78.8394 215.16 79.5977 216.205C80.2348 217.122 80.4305 218.278 80.1314 219.356C79.635 221.298 79.6584 223.395 80.2039 225.767C80.4017 226.597 80.3028 227.47 79.9245 228.234C79.2452 229.583 77.8674 230.432 76.3631 230.429Z" fill="#16BBDA"/>
<path d="M81.859 215.928L81.8352 215.926C75.3857 215.023 68.8427 215.023 62.3933 215.926H62.3829C61.7372 215.928 61.1004 215.774 60.5269 215.476C58.8902 214.582 58.1496 212.62 58.7846 210.86C59.4815 209.05 59.5101 207.048 58.8651 205.218C58.4532 204.056 58.6044 202.767 59.274 201.733C59.8976 200.756 60.9442 200.133 62.0961 200.054C62.1866 200.048 62.2775 200.045 62.3694 200.045C68.8066 201.184 75.392 201.185 81.8295 200.047H81.8375C83.1243 200.043 84.3353 200.659 85.0936 201.704C85.7307 202.621 85.9264 203.777 85.6273 204.855C85.1308 206.797 85.1543 208.894 85.6997 211.266C85.8976 212.096 85.7987 212.969 85.4203 213.733C84.741 215.082 83.3632 215.931 81.859 215.928Z" fill="#16BBDA"/>
<path d="M33.7662 219.881L33.781 219.862C38.1391 214.999 41.8052 209.551 44.6747 203.675L44.6805 203.667C45.0403 203.128 45.5243 202.684 46.0914 202.374C47.7447 201.512 49.7766 201.994 50.8709 203.509C51.9722 205.104 53.6053 206.249 55.4743 206.737C56.6631 207.046 57.6406 207.894 58.1176 209.031C58.5731 210.098 58.4995 211.318 57.9193 212.321C57.8735 212.4 57.8252 212.477 57.7738 212.554C53.2284 217.275 49.5378 222.758 46.8678 228.755L46.8633 228.761C46.146 229.835 44.9599 230.498 43.6738 230.544C42.5609 230.56 41.499 230.076 40.7786 229.223C39.4564 227.721 37.7153 226.566 35.4553 225.691C34.6606 225.391 33.9965 224.819 33.5791 224.076C32.848 222.755 32.9204 221.132 33.7662 219.881Z" fill="#16BBDA"/>
<path d="M258.307 230.956L1.1209 231.062C0.895029 231.061 0.712874 230.876 0.714056 230.649C0.715224 230.423 0.896695 230.241 1.1209 230.24L258.307 230.134C258.533 230.135 258.715 230.32 258.714 230.547C258.713 230.772 258.531 230.955 258.307 230.956Z" fill="#CACACA"/>
<path d="M55.7585 19.172C57.3627 19.172 58.6632 17.8356 58.6632 16.1871C58.6632 14.5385 57.3627 13.2021 55.7585 13.2021C54.1543 13.2021 52.8538 14.5385 52.8538 16.1871C52.8538 17.8356 54.1543 19.172 55.7585 19.172Z" fill="#3F3D56"/>
<path d="M65.793 19.172C67.3972 19.172 68.6977 17.8356 68.6977 16.1871C68.6977 14.5385 67.3972 13.2021 65.793 13.2021C64.1887 13.2021 62.8882 14.5385 62.8882 16.1871C62.8882 17.8356 64.1887 19.172 65.793 19.172Z" fill="#3F3D56"/>
<path d="M75.8275 19.172C77.4318 19.172 78.7323 17.8356 78.7323 16.1871C78.7323 14.5385 77.4318 13.2021 75.8275 13.2021C74.2233 13.2021 72.9228 14.5385 72.9228 16.1871C72.9228 17.8356 74.2233 19.172 75.8275 19.172Z" fill="#3F3D56"/>
<path d="M87.2696 18.5463C87.1804 18.5463 87.0913 18.5116 87.0241 18.4425L85.0641 16.4285C84.9335 16.2943 84.9335 16.0798 85.0641 15.9456L87.0241 13.9318C87.1571 13.7956 87.3748 13.7934 87.5098 13.9264C87.6455 14.0598 87.6478 14.2784 87.5151 14.4147L85.7902 16.1871L87.5151 17.9596C87.6478 18.0959 87.6455 18.3145 87.5098 18.4479C87.443 18.5136 87.3563 18.5463 87.2696 18.5463Z" fill="#3F3D56"/>
<path d="M90.5631 18.5466C90.4764 18.5466 90.3897 18.5139 90.3229 18.4481C90.1873 18.3148 90.1849 18.0963 90.3176 17.9599L92.0424 16.1873L90.3176 14.4149C90.1849 14.2787 90.1873 14.06 90.3229 13.9267C90.4583 13.7931 90.676 13.7957 90.8087 13.9321L92.7684 15.9459C92.8991 16.0801 92.8991 16.2945 92.7684 16.4287L90.8087 18.4427C90.7414 18.5119 90.6523 18.5466 90.5631 18.5466Z" fill="#3F3D56"/>
<path d="M193.098 13.5479H189.453C189.037 13.5479 188.701 13.8862 188.701 14.304V17.9708C188.701 18.3886 189.037 18.727 189.453 18.727H193.098C193.513 18.727 193.853 18.3886 193.853 17.9708V14.304C193.853 13.8862 193.513 13.5479 193.098 13.5479Z" fill="#3F3D56"/>
<path d="M184.167 13.5479H180.523C180.107 13.5479 179.77 13.8862 179.77 14.304V17.9708C179.77 18.3886 180.107 18.727 180.523 18.727H184.167C184.583 18.727 184.923 18.3886 184.923 17.9708V14.304C184.923 13.8862 184.583 13.5479 184.167 13.5479Z" fill="#3F3D56"/>
<path d="M201.513 13.7207H197.869C197.453 13.7207 197.116 14.0591 197.116 14.4769V18.1437C197.116 18.5615 197.453 18.8998 197.869 18.8998H201.513C201.929 18.8998 202.269 18.5615 202.269 18.1437V14.4769C202.269 14.0591 201.929 13.7207 201.513 13.7207Z" fill="#3F3D56"/>
<path d="M146.582 15.1152H117.451C116.942 15.1152 116.534 15.5296 116.534 16.0371C116.534 16.5447 116.942 16.959 117.451 16.959H146.582C147.087 16.959 147.499 16.5447 147.499 16.0371C147.499 15.5296 147.087 15.1152 146.582 15.1152Z" fill="#3F3D56"/>
</g>
<defs>
<clipPath id="clip0_231_2354">
<rect width="258" height="231" fill="white" transform="translate(0.71405 0.558594)"/>
</clipPath>
</defs>
</svg>
