<svg width="277" height="232" viewBox="0 0 277 232" fill="none" xmlns="http://www.w3.org/2000/svg">
<g clip-path="url(#clip0_238_3055)">
<path d="M189.041 0.558791L0 112.577L5.68527 122.172L194.726 10.1532L189.041 0.558791Z" fill="#F2F2F2"/>
<path d="M230.129 9.95035L41.0876 121.969L46.7729 131.563L235.814 19.5448L230.129 9.95035Z" fill="#F2F2F2"/>
<path d="M266.521 20.2219L77.4795 132.24L83.1648 141.835L272.206 29.8163L266.521 20.2219Z" fill="#F2F2F2"/>
<path d="M123.132 131.871C155.82 131.871 182.319 105.372 182.319 72.6846C182.319 39.9967 155.82 13.498 123.132 13.498C90.4445 13.498 63.9458 39.9967 63.9458 72.6846C63.9458 105.372 90.4445 131.871 123.132 131.871Z" fill="white"/>
<path d="M63.5057 72.6844C63.5057 39.8061 90.2542 13.0576 123.133 13.0576C156.011 13.0576 182.759 39.8061 182.759 72.6844C182.759 105.563 156.011 132.311 123.133 132.311C90.2542 132.311 63.5057 105.563 63.5057 72.6844ZM64.3862 72.6844C64.3862 105.077 90.7397 131.431 123.133 131.431C155.525 131.431 181.879 105.077 181.879 72.6844C181.879 40.2916 155.525 13.9381 123.133 13.9381C90.7397 13.9381 64.3862 40.2916 64.3862 72.6844Z" fill="#3F3D56"/>
<path d="M112.582 72.9423C112.582 70.8556 113.2 68.8157 114.36 67.0806C115.519 65.3456 117.167 63.9933 119.095 63.1947C121.023 62.3962 123.144 62.1872 125.191 62.5943C127.237 63.0014 129.117 64.0063 130.593 65.4818C132.068 66.9574 133.073 68.8373 133.48 70.8839C133.887 72.9306 133.678 75.052 132.88 76.9798C132.081 78.9077 130.729 80.5555 128.994 81.7148C127.259 82.8741 125.219 83.4929 123.132 83.4929C120.334 83.4929 117.65 82.3813 115.672 80.4027C113.693 78.4241 112.582 75.7405 112.582 72.9423ZM123.132 62.9063C120.472 62.9093 117.921 63.9676 116.039 65.8491C114.158 67.7305 113.099 70.2815 113.096 72.9423C113.096 74.9272 113.685 76.8676 114.788 78.518C115.89 80.1684 117.458 81.4547 119.292 82.2143C121.126 82.9739 123.143 83.1727 125.09 82.7854C127.037 82.3982 128.825 81.4424 130.229 80.0388C131.632 78.6352 132.588 76.847 132.975 74.9002C133.363 72.9534 133.164 70.9355 132.404 69.1017C131.645 67.2678 130.358 65.7004 128.708 64.5977C127.058 63.4949 125.117 62.9063 123.132 62.9063Z" fill="#3F3D56"/>
<path d="M103.06 72.9421C103.06 68.9722 104.238 65.0915 106.443 61.7907C108.649 58.4899 111.784 55.9172 115.451 54.398C119.119 52.8788 123.155 52.4813 127.048 53.2558C130.942 54.0303 134.518 55.942 137.325 58.7491C140.133 61.5562 142.044 65.1327 142.819 69.0263C143.593 72.9198 143.196 76.9556 141.677 80.6233C140.157 84.291 137.585 87.4258 134.284 89.6313C130.983 91.8369 127.102 93.0141 123.132 93.0141C120.497 93.0141 117.886 92.4949 115.451 91.4862C113.016 90.4775 110.803 88.999 108.939 87.1351C107.076 85.2713 105.597 83.0585 104.588 80.6233C103.58 78.188 103.06 75.578 103.06 72.9421ZM123.132 53.3848C119.264 53.3848 115.483 54.5318 112.267 56.6808C109.051 58.8298 106.544 61.8842 105.064 65.4578C103.584 69.0315 103.196 72.9638 103.951 76.7575C104.706 80.5513 106.568 84.036 109.303 86.7712C112.038 89.5063 115.523 91.369 119.317 92.1236C123.111 92.8782 127.043 92.4909 130.617 91.0107C134.19 89.5304 137.245 87.0237 139.394 83.8075C141.543 80.5914 142.69 76.8102 142.69 72.9421C142.684 67.757 140.622 62.7859 136.955 59.1194C133.289 55.453 128.318 53.3906 123.132 53.3848Z" fill="#CCCCCC"/>
<path d="M84.0179 72.9418C84.0179 65.2056 86.3119 57.6432 90.6099 51.2109C94.9078 44.7785 101.017 39.7651 108.164 36.8046C115.311 33.8441 123.176 33.0695 130.763 34.5787C138.351 36.088 145.32 39.8133 150.791 45.2836C156.261 50.7539 159.986 57.7234 161.495 65.3109C163.005 72.8984 162.23 80.7631 159.27 87.9103C156.309 95.0576 151.296 101.166 144.863 105.464C138.431 109.762 130.869 112.056 123.132 112.056C112.762 112.045 102.82 107.92 95.4872 100.587C88.1543 93.2542 84.0296 83.312 84.0179 72.9418ZM123.132 34.3418C115.498 34.3418 108.035 36.6057 101.687 40.8471C95.3398 45.0885 90.3923 51.117 87.4708 58.1702C84.5492 65.2235 83.7848 72.9846 85.2742 80.4723C86.7636 87.9599 90.4399 94.8378 95.8382 100.236C101.236 105.634 108.114 109.311 115.602 110.8C123.09 112.289 130.851 111.525 137.904 108.604C144.957 105.682 150.986 100.735 155.227 94.3868C159.469 88.0391 161.732 80.5762 161.732 72.9418C161.721 62.708 157.65 52.8967 150.414 45.6603C143.178 38.4239 133.366 34.3534 123.132 34.3418Z" fill="#CCCCCC"/>
<path d="M123.132 77.5736C125.833 77.5736 128.022 75.3845 128.022 72.6842C128.022 69.9839 125.833 67.7949 123.132 67.7949C120.432 67.7949 118.243 69.9839 118.243 72.6842C118.243 75.3845 120.432 77.5736 123.132 77.5736Z" fill="#38BDF8"/>
<path d="M110.523 91.7269C113.223 91.7269 115.412 89.5379 115.412 86.8376C115.412 84.1373 113.223 81.9482 110.523 81.9482C107.823 81.9482 105.634 84.1373 105.634 86.8376C105.634 89.5379 107.823 91.7269 110.523 91.7269Z" fill="#38BDF8"/>
<path d="M159.716 89.6683C162.417 89.6683 164.606 87.4793 164.606 84.779C164.606 82.0787 162.417 79.8896 159.716 79.8896C157.016 79.8896 154.827 82.0787 154.827 84.779C154.827 87.4793 157.016 89.6683 159.716 89.6683Z" fill="#38BDF8"/>
<path d="M123.133 75.0011C124.412 75.0011 125.449 73.9642 125.449 72.6851C125.449 71.406 124.412 70.3691 123.133 70.3691C121.853 70.3691 120.817 71.406 120.817 72.6851C120.817 73.9642 121.853 75.0011 123.133 75.0011Z" fill="#2F2E41"/>
<path d="M159.716 87.0949C160.995 87.0949 162.032 86.058 162.032 84.7789C162.032 83.4998 160.995 82.4629 159.716 82.4629C158.437 82.4629 157.4 83.4998 157.4 84.7789C157.4 86.058 158.437 87.0949 159.716 87.0949Z" fill="#2F2E41"/>
<path d="M110.523 89.4113C111.802 89.4113 112.839 88.3744 112.839 87.0953C112.839 85.8162 111.802 84.7793 110.523 84.7793C109.244 84.7793 108.207 85.8162 108.207 87.0953C108.207 88.3744 109.244 89.4113 110.523 89.4113Z" fill="#2F2E41"/>
<path d="M15.0526 49.0099C16.3317 49.0099 17.3686 47.973 17.3686 46.6939C17.3686 45.4148 16.3317 44.3779 15.0526 44.3779C13.7735 44.3779 12.7366 45.4148 12.7366 46.6939C12.7366 47.973 13.7735 49.0099 15.0526 49.0099Z" fill="#38BDF8"/>
<path d="M123.004 46.8233H21.3571V46.3086H123.519V72.8135H123.004V46.8233Z" fill="#2F2E41"/>
<path d="M8.36195 46.6936C8.36194 45.3703 8.75434 44.0767 9.48952 42.9765C10.2247 41.8762 11.2696 41.0186 12.4922 40.5122C13.7147 40.0058 15.06 39.8733 16.3579 40.1315C17.6557 40.3896 18.8479 41.0269 19.7836 41.9626C20.7193 42.8983 21.3565 44.0904 21.6147 45.3883C21.8729 46.6862 21.7404 48.0314 21.234 49.254C20.7276 50.4766 19.87 51.5215 18.7697 52.2567C17.6695 52.9919 16.3759 53.3843 15.0526 53.3843C14.174 53.3843 13.3039 53.2112 12.4922 52.875C11.6804 52.5387 10.9429 52.0459 10.3216 51.4246C9.70031 50.8033 9.20748 50.0658 8.87124 49.254C8.535 48.4423 8.36195 47.5722 8.36195 46.6936ZM15.0526 40.5176C13.8311 40.5176 12.637 40.8798 11.6214 41.5585C10.6058 42.2371 9.81418 43.2016 9.34673 44.3302C8.87929 45.4587 8.75698 46.7005 8.99528 47.8985C9.23358 49.0965 9.82179 50.197 10.6855 51.0607C11.5492 51.9244 12.6497 52.5126 13.8477 52.7509C15.0457 52.9892 16.2875 52.8669 17.416 52.3995C18.5446 51.932 19.5091 51.1404 20.1877 50.1248C20.8664 49.1092 21.2286 47.9151 21.2286 46.6936C21.2267 45.0562 20.5754 43.4864 19.4176 42.3286C18.2598 41.1708 16.69 40.5195 15.0526 40.5176Z" fill="#2F2E41"/>
<path d="M30.4926 115.659C31.7717 115.659 32.8086 114.622 32.8086 113.343C32.8086 112.064 31.7717 111.027 30.4926 111.027C29.2135 111.027 28.1766 112.064 28.1766 113.343C28.1766 114.622 29.2135 115.659 30.4926 115.659Z" fill="#38BDF8"/>
<path d="M23.8019 113.343C23.8019 112.02 24.1943 110.726 24.9295 109.626C25.6647 108.526 26.7096 107.668 27.9322 107.162C29.1547 106.655 30.5 106.523 31.7979 106.781C33.0957 107.039 34.2879 107.676 35.2236 108.612C36.1593 109.548 36.7965 110.74 37.0547 112.038C37.3128 113.336 37.1803 114.681 36.6739 115.903C36.1675 117.126 35.31 118.171 34.2097 118.906C33.1094 119.641 31.8159 120.034 30.4926 120.034C28.7181 120.034 27.0163 119.329 25.7616 118.074C24.5069 116.819 23.8019 115.117 23.8019 113.343ZM30.4926 107.167C29.2711 107.167 28.077 107.529 27.0614 108.208C26.0458 108.886 25.2542 109.851 24.7867 110.98C24.3193 112.108 24.197 113.35 24.4353 114.548C24.6736 115.746 25.2618 116.846 26.1255 117.71C26.9892 118.574 28.0897 119.162 29.2877 119.4C30.4857 119.639 31.7275 119.516 32.856 119.049C33.9845 118.581 34.9491 117.79 35.6277 116.774C36.3063 115.759 36.6686 114.565 36.6686 113.343C36.6667 111.706 36.0154 110.136 34.8576 108.978C33.6998 107.82 32.13 107.169 30.4926 107.167Z" fill="#2F2E41"/>
<path d="M231.512 59.8185C232.791 59.8185 233.828 58.7816 233.828 57.5025C233.828 56.2234 232.791 55.1865 231.512 55.1865C230.233 55.1865 229.196 56.2234 229.196 57.5025C229.196 58.7816 230.233 59.8185 231.512 59.8185Z" fill="#38BDF8"/>
<path d="M224.821 57.5022C224.821 56.1789 225.214 54.8853 225.949 53.7851C226.684 52.6848 227.729 51.8272 228.952 51.3208C230.174 50.8144 231.519 50.6819 232.817 50.9401C234.115 51.1982 235.307 51.8355 236.243 52.7712C237.179 53.7069 237.816 54.899 238.074 56.1969C238.332 57.4948 238.2 58.84 237.693 60.0626C237.187 61.2852 236.329 62.3301 235.229 63.0653C234.129 63.8004 232.835 64.1929 231.512 64.1929C230.633 64.1929 229.763 64.0198 228.952 63.6836C228.14 63.3473 227.402 62.8545 226.781 62.2332C226.16 61.6119 225.667 60.8743 225.331 60.0626C224.994 59.2508 224.821 58.3808 224.821 57.5022ZM231.512 51.3262C229.875 51.3281 228.305 51.9794 227.147 53.1372C225.989 54.295 225.338 55.8648 225.336 57.5022C225.336 58.7237 225.698 59.9177 226.377 60.9334C227.055 61.949 228.02 62.7406 229.149 63.2081C230.277 63.6755 231.519 63.7978 232.717 63.5595C233.915 63.3212 235.015 62.733 235.879 61.8693C236.743 61.0055 237.331 59.9051 237.569 58.7071C237.808 57.509 237.685 56.2672 237.218 55.1387C236.75 54.0102 235.959 53.0457 234.943 52.367C233.928 51.6884 232.734 51.3262 231.512 51.3262Z" fill="#2F2E41"/>
<path d="M159.459 58.2783L225.075 57.2451L225.083 57.7594L159.974 58.785V84.7797H159.459V58.2783Z" fill="#2F2E41"/>
<path d="M36.9261 113.086H110.266V87.0957H110.78V113.601H36.9261V113.086Z" fill="#2F2E41"/>
<path d="M29.2059 58.7891H0.899315V60.5904H29.2059V58.7891Z" fill="#CCCCCC"/>
<path d="M29.2059 63.9355H0.899315V65.7369H29.2059V63.9355Z" fill="#CCCCCC"/>
<path d="M29.2059 69.082H0.899315V70.8834H29.2059V69.082Z" fill="#CCCCCC"/>
<path d="M44.6459 125.438H16.3393V127.239H44.6459V125.438Z" fill="#CCCCCC"/>
<path d="M44.6459 130.585H16.3393V132.386H44.6459V130.585Z" fill="#CCCCCC"/>
<path d="M44.6459 135.731H16.3393V137.533H44.6459V135.731Z" fill="#CCCCCC"/>
<path d="M245.665 69.8535H217.359V71.6548H245.665V69.8535Z" fill="#CCCCCC"/>
<path d="M245.665 75.001H217.359V76.8023H245.665V75.001Z" fill="#CCCCCC"/>
<path d="M245.665 80.1475H217.359V81.9488H245.665V80.1475Z" fill="#CCCCCC"/>
<path d="M259.141 223.328L255.115 224.767L247.65 209.924L253.592 207.801L259.141 223.328Z" fill="#FFB8B8"/>
<path d="M248.582 231.503L248.524 231.339C248.046 229.999 248.12 228.524 248.729 227.238C249.338 225.953 250.431 224.961 251.77 224.481L259.698 221.647L261.563 226.864L248.582 231.503Z" fill="#2F2E41"/>
<path d="M232.964 227.31L228.689 227.31L226.655 210.82L232.964 210.821L232.964 227.31Z" fill="#FFB8B8"/>
<path d="M234.054 231.454L220.269 231.454V231.279C220.269 230.575 220.408 229.877 220.678 229.226C220.948 228.575 221.343 227.984 221.841 227.485C222.339 226.987 222.931 226.592 223.582 226.322C224.233 226.053 224.93 225.914 225.635 225.914L234.054 225.914L234.054 231.454Z" fill="#2F2E41"/>
<path d="M242.706 121.965L240.847 118.291C240.847 118.291 233.921 120.026 233.291 124.04L242.706 121.965Z" fill="#38BDF8"/>
<path d="M250.378 163.971L245.322 192.185L258.747 215.927L250.727 219.065L237.127 196.051L235.384 189.774L234.338 222.552L227.105 222.332L223.788 191.726L229.107 163.273L250.378 163.971Z" fill="#2F2E41"/>
<path d="M226.229 169.06C226.072 168.361 225.622 147.032 225.622 147.032C225.622 147.032 233.058 122.62 233.126 122.419L233.153 122.341L238.799 120.224C238.878 120.188 240.759 119.35 242.298 120.049C242.693 120.241 243.041 120.517 243.318 120.857C243.595 121.198 243.794 121.595 243.902 122.02C244.543 122.497 249.157 127.666 249.157 134.678L249.331 151.223L253.2 169.16L253.029 169.197C252.924 169.219 248.208 170.64 240.78 170.64C236.653 170.64 226.229 169.06 226.229 169.06Z" fill="#3F3D56"/>
<path d="M235.072 117.135C239.287 117.135 242.703 113.719 242.703 109.505C242.703 105.29 239.287 101.874 235.072 101.874C230.858 101.874 227.442 105.29 227.442 109.505C227.442 113.719 230.858 117.135 235.072 117.135Z" fill="#FFB8B8"/>
<path opacity="0.2" d="M245.943 143.121L232.594 161.747L230.622 153.049L245.943 143.121Z" fill="black"/>
<path d="M222.25 162.149C222.729 162.13 223.197 162.006 223.622 161.787C224.048 161.567 224.42 161.257 224.712 160.878C225.005 160.499 225.211 160.06 225.316 159.593C225.42 159.126 225.421 158.642 225.319 158.174L235.238 152.09L229.761 149.527L221.181 155.698C220.407 155.923 219.742 156.424 219.313 157.105C218.883 157.787 218.719 158.603 218.851 159.398C218.982 160.194 219.401 160.913 220.028 161.42C220.654 161.927 221.445 162.186 222.25 162.149Z" fill="#FFB8B8"/>
<path d="M229.107 149.674L225.709 152.054L228.591 157.171L232.594 153.858L229.107 149.674Z" fill="#38BDF8"/>
<path d="M227.329 149.824L235.32 140.561L232.258 127.786C231.942 126.465 232.117 125.075 232.75 123.874C233.384 122.673 234.433 121.744 235.701 121.26C236.97 120.776 238.371 120.77 239.643 121.243C240.916 121.717 241.973 122.637 242.616 123.833L242.686 123.962L245.507 142.934L231.331 157.465L227.329 149.824Z" fill="#3F3D56"/>
<path d="M241.572 116.129L235.238 116.356C234.852 116.37 233.804 112.203 233.667 111.339C233.559 110.776 233.249 110.272 232.797 109.921C232.344 109.57 231.779 109.396 231.207 109.431C230.732 109.476 229.537 108.59 228.303 107.541C225.961 105.55 226.083 101.81 228.656 100.128C228.726 100.082 228.795 100.04 228.863 100.002C230.486 99.0934 232.385 98.7883 234.244 98.7651C235.93 98.744 237.664 98.9562 239.149 99.7542C241.812 101.185 243.229 104.311 243.354 107.331C243.478 110.352 242.51 113.305 241.411 116.121" fill="#2F2E41"/>
<path d="M276.365 231.559H199.303C199.211 231.559 199.122 231.522 199.057 231.457C198.991 231.391 198.954 231.303 198.954 231.21C198.954 231.118 198.991 231.029 199.057 230.963C199.122 230.898 199.211 230.861 199.303 230.861H276.365C276.458 230.861 276.547 230.898 276.612 230.963C276.677 231.029 276.714 231.118 276.714 231.21C276.714 231.303 276.677 231.391 276.612 231.457C276.547 231.522 276.458 231.559 276.365 231.559Z" fill="#3F3D56"/>
</g>
<defs>
<clipPath id="clip0_238_3055">
<rect width="276.714" height="231" fill="white" transform="translate(0 0.558594)"/>
</clipPath>
</defs>
</svg>
